<?xml version="1.0" encoding="utf-8"?>
<!-- Generator: Adobe Illustrator 19.0.0, SVG Export Plug-In . SVG Version: 6.00 Build 0)  -->
<svg version="1.1" id="Warstwa_1" xmlns="http://www.w3.org/2000/svg" xmlns:xlink="http://www.w3.org/1999/xlink" x="0px" y="0px"
	 viewBox="228 201 1016 560" style="enable-background:new 228 201 1016 560;" xml:space="preserve">
<style type="text/css">
	.st0{opacity:0.4;enable-background:new    ;}
	.st1{opacity:0.8;enable-background:new    ;}
	.st2{fill:#FFBF00;}
	.st3{stroke:#FFBF00;stroke-miterlimit:10;}
	.st4{display:none;}
	.st5{stroke:#FFC700;stroke-miterlimit:10;}
	.st6{fill:#FFC700;stroke:#000000;stroke-miterlimit:10;}
</style>
<g id="Pengtagram_x5F_circle">
	<g id="XMLID_160_">
		<circle id="LargeCircle" class="st0" cx="1009" cy="500.4" r="188.8"/>
		<circle id="littleCircle" class="st1" cx="1009" cy="500.3" r="162"/>
	</g>
	<g id="XMLID_2_">
		<path id="XMLID_4_" class="st2" d="M1111.5,361.1l1-15.3h1.9l-0.8,14l13.1-4.9l0.8,2l-14.5,5.4l-2.7,3.7l3.4,2.5l-1.2,1.6
			l-8.5-6.2l1.2-1.6l3.5,2.6L1111.5,361.1z"/>
	</g>
	<g id="XMLID_5_">
		<path id="XMLID_16_" class="st2" d="M848.4,558.3l-12.1,4.5l0.5,1.2l-4-1.1l2.3-3.5l0.4,1.2l12-4.6c-0.5-0.8-0.9-1.3-1.1-1.7
			c-0.3-0.4-0.5-0.7-0.6-0.9s-0.6-0.5-1.2-1.1c-1.3-1.3-2.8-1.7-4.4-1.1l-5,1.9l-2.3,0.9l0.4,1.1l-4-1l2.2-3.6l0.5,1.2l2.2-0.8
			l5-1.9c0.8-0.3,1.7-0.4,2.7-0.2s2,0.6,3.1,1.3c1.2,0.7,2,1.5,2.6,2.3c0.6,0.8,1.1,1.8,1.7,3l2.2-0.8l-1.6-4.1l1.7-0.6l1.6,4.1
			l1.8-0.7l0.9,2.2l-1.8,0.7l1.6,4.1l-1.7,0.6l-1.6-4.1l-2.2,0.8c0.2,0.9,0.4,1.6,0.6,2.2c0.1,0.6,0.2,1.3,0.2,2.1
			c0,0.8-0.1,1.6-0.4,2.5c-0.3,1.2-0.7,2.2-1.3,3c-0.6,0.8-1.4,1.3-2.3,1.7l-4.9,1.9l-2.3,0.9l0.5,1.3l-4.1-1.4l2.3-3.4l0.4,1.1
			l2.3-0.9l4.9-1.9c0.8-0.3,1.3-0.7,1.8-1.3c0.4-0.6,0.7-1.4,0.8-2.4c0.1-0.7,0.2-1.2,0.2-1.5c0-0.3,0-0.6-0.1-1.1
			C848.6,559.9,848.5,559.2,848.4,558.3z"/>
	</g>
	<g id="XMLID_154_">
		<path id="XMLID_155_" class="st2" d="M1177.2,561.3l-3.8-1.4l-1.9,5l-1.4-0.5l1.9-5l-3.3-1.2c-1.1,1.5-2.3,1.9-3.7,1.4
			c-0.9-0.3-1.5-1-1.9-2c-0.3-1-0.3-2,0.1-3c0.3-0.9,1-1.7,1.9-2.4c0.9-0.5,1.8-0.6,2.7-0.3c1.5,0.6,2.2,1.8,1.9,3.8l3.3,1.2
			l1.8-4.8l1.6,0.6l-1.8,4.8l3.6,1.3c0.8-2,2-3.8,3.7-5.4c1.4-1.3,2.7-1.7,3.9-1.2c1.5,0.6,2.2,1.9,2.3,3.9c0.1,1.2,0.1,2.4-0.1,3.5
			c-0.1,1.1-0.4,2.2-0.8,3.3c-0.5,1.3-1,2.5-1.6,3.5s-1.2,1.9-1.9,2.6c-0.8,0.9-1.7,1.6-2.6,2.1s-1.6,0.7-2.3,0.5
			c-0.9-0.3-1.5-1.7-1.9-4.2c-0.1-0.9-0.2-1.9-0.1-2.9C1176.7,563.5,1176.9,562.4,1177.2,561.3z M1185,554.1
			c-0.5-0.2-0.9-0.1-1.4,0.2c-0.5,0.3-1.1,0.8-1.7,1.5c-1.1,1.1-2,2.6-2.7,4.4s-1,3.5-0.9,5.1c0.1,2.4,0.6,3.8,1.4,4.1
			s2-0.4,3.5-2.1c0.8-0.9,1.6-2.4,2.5-4.6c0.7-1.8,1-3.5,1-5.1c0-0.8-0.1-1.6-0.4-2.2S1185.5,554.2,1185,554.1z M1183.5,556.5
			l1.2,0.5l-3.4,9.2l-1.2-0.5L1183.5,556.5z M1167.1,553.5c-0.5-0.2-1.1-0.2-1.7,0.1c-0.5,0.3-0.8,0.8-1,1.4
			c-0.2,0.6-0.3,1.2-0.1,1.7c0.1,0.5,0.5,0.9,1.2,1.2c0.6,0.2,1.1,0.2,1.7-0.2c0.5-0.3,0.8-0.8,1-1.3c0.2-0.6,0.3-1.1,0.1-1.6
			C1168.1,554.1,1167.7,553.7,1167.1,553.5z"/>
	</g>
	<g id="XMLID_149_">
		<path id="XMLID_150_" class="st2" d="M901.4,360.8v4l7.7-5.1l-1.2-1.8l-6.7-10.1l2.2-1.5l6.8,10.2l1.1,1.7l2.1-1.4l1.3,2l-2.1,1.4
			l2.2,3.3l-2.2,1.5l-2.2-3.3l-11.5,7.7l-0.1-6.7l0.1-3.9c0-0.7,0-1.1,0-1.4c0-0.3-0.1-0.5-0.1-0.8c-0.1-0.3-0.1-0.5-0.1-0.6
			c-0.1-0.4-0.3-0.9-0.6-1.3c-0.3-0.5-0.7-0.8-1-1c-0.5-0.3-1-0.2-1.5,0.1c-0.3,0.2-0.5,0.5-0.7,0.7c-0.1,0.2-0.2,0.4-0.3,0.8
			c-0.1,0.3-0.4,0.9-0.6,1.5l-2-1.4c0.7-1.3,1.2-2.2,1.5-2.6c0.2-0.3,0.5-0.6,0.9-0.9c1-0.7,2.1-0.9,3.2-0.7
			c0.5,0.1,0.9,0.3,1.2,0.5c0.3,0.2,0.7,0.6,1.2,1c0.2,0.2,0.3,0.4,0.4,0.5c0.6,0.9,0.9,2.1,1,3.8
			C901.4,357.6,901.4,358.9,901.4,360.8z"/>
	</g>
	<g id="XMLID_8_">
		<path id="XMLID_148_" class="st2" d="M995.2,676.9c0-3.4,1.3-6.3,3.9-8.7s5.8-3.7,9.5-3.7s6.8,1.2,9.4,3.7
			c2.6,2.4,3.9,5.3,3.9,8.7c0,3.4-1.3,6.3-3.9,8.7c-2.6,2.4-5.8,3.7-9.4,3.7c-3.7,0-6.9-1.2-9.5-3.7S995.2,680.2,995.2,676.9z
			 M997.6,676.9c0,2.8,1.1,5.1,3.3,7.2c2.1,2,4.7,3,7.8,3c3,0,5.6-1,7.8-3c2.1-1.9,3.1-4.3,3.1-7.2c0-1.4-0.3-2.7-0.8-3.9
			c-0.5-1.2-1.3-2.3-2.4-3.3c-2.2-2-4.8-3-7.8-3c-3.1,0-5.6,1-7.8,3C998.7,671.6,997.6,674.1,997.6,676.9z M1007.1,676.9
			c0-0.4,0.2-0.7,0.5-1s0.7-0.5,1.1-0.5s0.8,0.2,1.1,0.5s0.5,0.6,0.5,1c0,0.4-0.2,0.7-0.5,1s-0.7,0.4-1.1,0.4s-0.8-0.1-1.1-0.4
			C1007.2,677.6,1007.1,677.2,1007.1,676.9z"/>
	</g>
</g>
<g id="title_2_">
	<g id="XMLID_152_">
		<path id="XMLID_153_" class="st3" d="M297.6,469.9c0,3.6-1.3,6.6-3.8,9.2c-2.6,2.5-5.6,3.8-9.2,3.8c-1.2,0-2.6-0.1-4.2-0.2h-3.7
			c-0.1,0-0.5,0-1,0.1s-0.9,0.1-1.1,0.1h-0.4l0.2-1.1h0.3c0.6-0.1,1.1-0.2,1.3-0.5c0.2-0.3,0.4-0.8,0.4-1.6v-19.5
			c0-0.8-0.1-1.4-0.4-1.6c-0.2-0.3-0.7-0.4-1.3-0.5h-0.3l-0.2-1.1h0.4c0.3,0,0.6,0,1.1,0s0.8,0,1,0h3c2.1,0,3.8,0,4.9,0
			c3.6,0,6.6,1.3,9.2,3.8C296.3,463.2,297.6,466.3,297.6,469.9z M291.7,469.9c0-2.1-0.8-4-2.3-5.5s-3.3-2.3-5.5-2.3h-1.5v15.5h1.5
			c2.1,0,4-0.8,5.5-2.3C291,473.9,291.7,472,291.7,469.9z"/>
		<path id="XMLID_178_" class="st3" d="M326.6,484.9l-1.1-0.2v-0.3c-0.1-0.6-0.2-1.1-0.5-1.3c-0.3-0.2-0.8-0.4-1.7-0.4h-8l-4.9,4.4
			v-14.7c-0.8,0-1.3,0.2-1.5,0.4c-0.3,0.2-0.4,0.7-0.5,1.3v0.3l-1.1,0.2v-0.4c0-0.3,0-0.6,0-1.1s0-0.8,0-1v-4.7c0-0.2,0-0.5,0-1
			s0-0.9,0-1.1v-0.4l1.1,0.2v0.4c0.1,0.6,0.2,1,0.5,1.3c0.3,0.2,0.8,0.3,1.5,0.4V457h12.9c0.8,0,1.4-0.1,1.7-0.4
			c0.3-0.2,0.4-0.7,0.5-1.3V455l1.1-0.2v0.4c0,0.2,0,0.6-0.1,1.1c0,0.5-0.1,0.8-0.1,1v5.1c0,0.1,0,0.4,0,0.7s0,0.6,0,0.8l-1.1-0.3
			c-0.2-0.6-0.9-0.9-2-0.9h-6.6v4.5h6.8c1.3,0,2-0.4,2.2-1.3c0-0.1,0-0.2,0-0.4l1.1-0.2v0.4c0,0.2,0,0.6-0.1,1.1
			c0,0.5-0.1,0.8-0.1,1v4.4c0,0.1,0,0.4,0.1,0.8c0,0.4,0.1,0.7,0.1,1v0.4l-1.1-0.2c0-0.1,0-0.2,0-0.3c-0.1-0.9-0.9-1.3-2.2-1.3h-6.8
			v4.5h6.8c1.1,0,1.8-0.3,2-0.9l1.1-0.3c0,0.2,0,0.5,0,0.8c0,0.4,0,0.6,0,0.7v5.1c0,0.1,0,0.5,0.1,1c0,0.5,0.1,0.9,0.1,1.1v0.3
			H326.6z"/>
		<path id="XMLID_180_" class="st3" d="M371,482.8h-0.4c-0.2,0-0.6,0-1.1,0s-0.8,0-1,0H363c-0.1,0-0.5,0-1,0s-0.9,0-1.1,0h-0.4
			l0.3-1.1h0.3c0.6-0.1,1.1-0.2,1.3-0.5c0.2-0.3,0.4-0.8,0.4-1.6V463h-5.6v16.6c0,0.8,0.1,1.4,0.4,1.6c0.2,0.3,0.7,0.4,1.3,0.5h0.3
			l0.3,1.1h-0.4c-0.2,0-0.6,0-1.1,0s-0.8,0-1,0h-5.5c-0.1,0-0.5,0-1,0s-0.9,0-1.1,0H349l0.3-1.1h0.3c0.6-0.1,1.1-0.2,1.3-0.5
			c0.2-0.3,0.4-0.8,0.4-1.6V463h-5.6v16.6c0,0.8,0.1,1.4,0.3,1.6c0.2,0.3,0.7,0.4,1.3,0.5h0.3l0.3,1.1h-0.4c-0.2,0-0.6,0-1.1,0
			s-0.8,0-1,0h-5.7c-0.1,0-0.5,0-1,0s-0.9,0-1.1,0h-0.4l0.2-1.1h0.3c0.6-0.1,1.1-0.2,1.3-0.5c0.2-0.3,0.4-0.8,0.4-1.6v-19.5
			c0-0.8-0.1-1.4-0.4-1.6c-0.2-0.3-0.7-0.4-1.3-0.5h-0.3l-0.2-1.1h0.4c0.3,0,0.6,0,1.1,0s0.8,0,1,0h28.8c0.2,0,0.5,0,1,0
			s0.9,0,1.1,0h0.4l-0.3,1.1h-0.3c-0.6,0.1-1.1,0.2-1.3,0.5c-0.2,0.3-0.4,0.8-0.4,1.6v19.5c0,0.8,0.1,1.4,0.4,1.6
			c0.2,0.3,0.7,0.4,1.3,0.5h0.3L371,482.8z"/>
		<path id="XMLID_182_" class="st3" d="M407.7,469.9c0,3.7-1.3,6.9-3.9,9.5c-2.6,2.6-5.8,4-9.6,4c-3.7,0-6.9-1.3-9.5-4
			c-2.6-2.6-4-5.8-4-9.5c0-3.7,1.3-6.9,4-9.5c2.6-2.6,5.8-4,9.5-4c3.8,0,6.9,1.3,9.6,3.9C406.4,462.9,407.7,466,407.7,469.9z
			 M392.2,467.9V462c-1.4,0.4-2.7,1.1-3.7,2.1c-1.1,1.1-1.8,2.3-2.1,3.7L392.2,467.9L392.2,467.9z M392.2,477.6v-5.9h-5.9
			c0.4,1.4,1.1,2.7,2.1,3.7C389.6,476.6,390.8,477.4,392.2,477.6z M402.1,467.9c-0.4-1.4-1.1-2.7-2.2-3.7c-1.1-1.1-2.3-1.8-3.7-2.1
			v5.9L402.1,467.9L402.1,467.9z M402.1,471.9h-5.9v5.9c1.4-0.4,2.7-1.1,3.8-2.1C401,474.5,401.7,473.2,402.1,471.9z"/>
		<path id="XMLID_188_" class="st3" d="M442.4,482.8H442c-0.2,0-0.6,0-1.1,0s-0.8,0-1,0H435c-0.1,0-0.5,0-1,0s-0.9,0-1.1,0h-0.4
			l0.3-1.1h0.3c0.6-0.1,1.1-0.2,1.3-0.5c0.2-0.3,0.4-0.8,0.4-1.6v-0.2l-9.5-9.6v9.8c0,0.8,0.1,1.4,0.4,1.6c0.2,0.3,0.7,0.4,1.3,0.5
			h0.3l0.2,1.1h-0.4c-0.2,0-0.6,0-1.1,0s-0.8,0-1,0h-4.9c-0.1,0-0.5,0-1,0s-0.9,0-1.1,0h-0.4l0.2-1.1h0.3c0.6-0.1,1.1-0.2,1.3-0.5
			c0.2-0.3,0.4-0.8,0.4-1.6v-19.5c0-0.8-0.1-1.4-0.4-1.6c-0.2-0.3-0.7-0.4-1.3-0.5h-0.4l-0.2-1.1h0.4c0.3,0,0.6,0,1.1,0s0.8,0,1,0
			h4.9c0.2,0,0.5,0,1,0s0.9,0,1.1,0h0.4l-0.2,1.1h-0.3c-0.6,0.1-1.1,0.2-1.3,0.5c-0.2,0.3-0.4,0.8-0.4,1.6v0.2l9.5,9.5v-9.7
			c0-0.8-0.1-1.4-0.4-1.6c-0.2-0.3-0.7-0.4-1.3-0.5h-0.3l-0.3-1.1h0.4c0.3,0,0.6,0,1.1,0s0.8,0,1,0h4.9c0.2,0,0.5,0,1,0s0.9,0,1.1,0
			h0.4l-0.2,1.1h-0.4c-0.6,0.1-1.1,0.2-1.3,0.5c-0.2,0.3-0.3,0.8-0.3,1.6v19.5c0,0.8,0.1,1.4,0.3,1.6c0.2,0.3,0.7,0.4,1.3,0.5h0.4
			L442.4,482.8z"/>
		<path id="XMLID_190_" class="st3" d="M479.1,469.9c0,3.7-1.3,6.9-3.9,9.5s-5.8,4-9.6,4c-3.7,0-6.9-1.3-9.5-4c-2.6-2.6-4-5.8-4-9.5
			c0-3.7,1.3-6.9,4-9.5c2.6-2.6,5.8-4,9.5-4c3.8,0,6.9,1.3,9.6,3.9C477.8,462.9,479.1,466,479.1,469.9z M463.7,467.9V462
			c-1.4,0.4-2.7,1.1-3.7,2.1c-1.1,1.1-1.8,2.3-2.1,3.7L463.7,467.9L463.7,467.9z M463.7,477.6v-5.9h-5.9c0.4,1.4,1.1,2.7,2.1,3.7
			C461,476.6,462.2,477.4,463.7,477.6z M473.5,467.9c-0.4-1.4-1.1-2.7-2.2-3.7c-1.1-1.1-2.3-1.8-3.7-2.1v5.9L473.5,467.9
			L473.5,467.9z M473.5,471.9h-5.9v5.9c1.4-0.4,2.7-1.1,3.8-2.1C472.4,474.5,473.2,473.2,473.5,471.9z"/>
		<path id="XMLID_196_" class="st3" d="M507.3,484.9l-1.1-0.2v-0.3c-0.1-0.6-0.2-1.1-0.5-1.3c-0.3-0.2-0.8-0.4-1.6-0.4H496l-4.9,4.4
			V460c0-0.8-0.1-1.4-0.4-1.6c-0.2-0.3-0.7-0.4-1.3-0.5h-0.3l-0.2-1.1h0.4c0.3,0,0.6,0,1.1,0s0.8,0,1,0h5.6c0.2,0,0.5,0,1,0
			s0.9,0,1.1,0h0.4l-0.2,1.1H499c-0.6,0.1-1.1,0.2-1.3,0.5c-0.2,0.3-0.4,0.8-0.4,1.6v16.5h6.8c0.8,0,1.4-0.1,1.6-0.4
			c0.3-0.2,0.4-0.7,0.5-1.3v-0.3l1.1-0.2v0.4c0,0.2,0,0.6,0,1.1s0,0.8,0,1v5.6c0,0.1,0,0.5,0,1s0,0.9,0,1.1L507.3,484.9L507.3,484.9
			z"/>
		<path id="XMLID_198_" class="st3" d="M542.4,469.9c0,3.7-1.3,6.9-3.9,9.5c-2.6,2.6-5.8,4-9.6,4c-3.7,0-6.9-1.3-9.5-4
			c-2.6-2.6-4-5.8-4-9.5c0-3.7,1.3-6.9,4-9.5c2.6-2.6,5.8-4,9.5-4c3.8,0,6.9,1.3,9.6,3.9C541.1,462.9,542.4,466,542.4,469.9z
			 M526.9,467.9V462c-1.4,0.4-2.7,1.1-3.7,2.1c-1.1,1.1-1.8,2.3-2.1,3.7L526.9,467.9L526.9,467.9z M526.9,477.6v-5.9H521
			c0.4,1.4,1.1,2.7,2.1,3.7C524.2,476.6,525.5,477.4,526.9,477.6z M536.8,467.9c-0.4-1.4-1.1-2.7-2.2-3.7c-1.1-1.1-2.3-1.8-3.7-2.1
			v5.9L536.8,467.9L536.8,467.9z M536.8,471.9h-5.9v5.9c1.4-0.4,2.7-1.1,3.8-2.1C535.7,474.5,536.4,473.2,536.8,471.9z"/>
		<path id="XMLID_204_" class="st3" d="M574.5,480.1c-2.6,2.1-5.5,3.2-8.8,3.2c-3.7,0-6.9-1.3-9.5-4c-2.6-2.6-4-5.8-4-9.5
			c0-3.7,1.3-6.9,4-9.5c2.6-2.6,5.8-4,9.5-4c2.8,0,5.3,0.8,7.6,2.3c0,0.7,0,1.9,0.1,3.7c0,1.8,0.1,3,0.1,3.5h-1.1
			c-0.2-0.7-0.8-1.5-1.8-2.3c-1.3-1.1-3-1.6-4.8-1.6c-2.1,0-4,0.8-5.5,2.3s-2.3,3.4-2.3,5.5s0.8,4,2.3,5.5s3.4,2.3,5.5,2.3
			c1.1,0,2.1-0.2,3.2-0.6v-4.3h-0.5c-0.8,0-1.4,0.1-1.6,0.3c-0.3,0.2-0.4,0.7-0.5,1.3v0.4l-1.1,0.2v-0.4c0-0.3,0-0.6,0.1-1.1
			c0-0.5,0.1-0.8,0.1-1v-4h9.2v11.8H574.5z"/>
		<path id="XMLID_206_" class="st3" d="M595.1,482.8h-0.4c-0.2,0-0.6,0-1.1,0s-0.8,0-1,0H587c-0.1,0-0.5,0-1,0s-0.9,0-1.1,0h-0.4
			l0.2-1.1h0.3c0.6-0.1,1.1-0.2,1.3-0.5c0.2-0.3,0.4-0.8,0.4-1.6v-19.5c0-0.8-0.1-1.4-0.4-1.6c-0.2-0.3-0.7-0.4-1.3-0.5h-0.3
			l-0.2-1.1h0.4c0.3,0,0.6,0,1.1,0s0.8,0,1,0h5.6c0.2,0,0.5,0,1,0s0.9,0,1.1,0h0.4l-0.2,1.1h-0.3c-0.6,0.1-1.1,0.2-1.3,0.5
			c-0.2,0.3-0.4,0.8-0.4,1.6v19.5c0,0.8,0.1,1.4,0.4,1.6c0.2,0.3,0.7,0.4,1.3,0.5h0.3L595.1,482.8z"/>
		<path id="XMLID_208_" class="st3" d="M634.8,480.9l-0.4,0.2c-0.5,0.2-1.1,0.5-1.9,0.9l-5,2.6c-0.4,0.3-1,0.6-1.8,1.1l-0.4,0.2
			l-0.3-1.1l0.3-0.1c0.6-0.4,0.9-0.8,0.9-1.3c0-0.3-0.1-0.8-0.4-1.4l-1.2-2.4h-11.9l-1.2,2.4c-0.3,0.6-0.4,1.1-0.4,1.4
			c0,0.4,0.3,0.9,0.9,1.3c0.1,0,0.2,0.1,0.3,0.1l-0.3,1.1l-0.4-0.2c-0.4-0.3-1-0.7-1.8-1.1l-5-2.6c-0.4-0.2-1.1-0.5-1.9-0.9
			l-0.4-0.2l0.7-0.8c0.1,0,0.1,0.1,0.3,0.2c0.4,0.1,0.7,0.2,1,0.2c0.5,0,1-0.5,1.5-1.4l12.6-23.6l12.6,23.6c0.5,0.9,1,1.4,1.5,1.4
			c0.2,0,0.5-0.1,1-0.2c0.1-0.1,0.1-0.1,0.3-0.2L634.8,480.9z M622,474.1l-3.3-6.6l-3.3,6.6H622z"/>
		<path id="XMLID_211_" class="st3" d="M297.6,522.6c0,3.6-1.3,6.6-3.8,9.2c-2.6,2.5-5.6,3.8-9.2,3.8c-1.2,0-2.6-0.1-4.2-0.2h-3.7
			c-0.1,0-0.5,0-1,0.1c-0.5,0.1-0.9,0.1-1.1,0.1h-0.4l0.2-1.1h0.3c0.6-0.1,1.1-0.2,1.3-0.5c0.2-0.3,0.4-0.8,0.4-1.6v-19.5
			c0-0.8-0.1-1.4-0.4-1.6c-0.2-0.3-0.7-0.4-1.3-0.5h-0.3l-0.2-1.1h0.4c0.3,0,0.6,0,1.1,0s0.8,0,1,0h3c2.1,0,3.8,0,4.9,0
			c3.6,0,6.6,1.3,9.2,3.8C296.3,516,297.6,519.1,297.6,522.6z M291.7,522.6c0-2.1-0.8-4-2.3-5.5s-3.3-2.3-5.5-2.3h-1.5v15.6h1.5
			c2.1,0,4-0.8,5.5-2.3C291,526.6,291.7,524.8,291.7,522.6z"/>
		<path id="XMLID_214_" class="st3" d="M336.5,533.7l-0.4,0.2c-0.5,0.2-1.1,0.5-1.9,0.9l-5,2.6c-0.4,0.3-1,0.6-1.8,1.1l-0.4,0.2
			l-0.3-1.1l0.3-0.1c0.6-0.4,0.9-0.8,0.9-1.3c0-0.3-0.1-0.8-0.4-1.4l-1.2-2.4h-11.8l-1.2,2.4c-0.3,0.6-0.4,1.1-0.4,1.4
			c0,0.4,0.3,0.9,0.9,1.3c0.1,0,0.2,0.1,0.3,0.1l-0.3,1.1l-0.4-0.2c-0.4-0.3-1-0.7-1.8-1.1l-5-2.6c-0.4-0.2-1.1-0.5-1.9-0.9
			l-0.4-0.2l0.7-0.8c0.1,0,0.1,0.1,0.3,0.2c0.4,0.1,0.7,0.2,1,0.2c0.5,0,1-0.5,1.5-1.4l12.6-23.6l12.6,23.6c0.5,0.9,1,1.4,1.5,1.4
			c0.2,0,0.5-0.1,1-0.2c0.1-0.1,0.1-0.1,0.3-0.2L336.5,533.7z M323.8,526.9l-3.3-6.6l-3.3,6.6H323.8z"/>
		<path id="XMLID_217_" class="st3" d="M377.2,535.6h-0.4c-0.2,0-0.6,0-1.1,0s-0.8,0-1,0h-5.5c-0.1,0-0.5,0-1,0s-0.9,0-1.1,0h-0.4
			l0.3-1.1h0.3c0.6-0.1,1.1-0.2,1.3-0.5c0.2-0.3,0.4-0.8,0.4-1.6v-16.6h-5.6v16.6c0,0.8,0.1,1.4,0.4,1.6c0.2,0.3,0.7,0.4,1.3,0.5
			h0.3l0.3,1.1h-0.4c-0.2,0-0.6,0-1.1,0s-0.8,0-1,0h-5.5c-0.1,0-0.5,0-1,0s-0.9,0-1.1,0h-0.4l0.3-1.1h0.3c0.6-0.1,1.1-0.2,1.3-0.5
			c0.2-0.3,0.4-0.8,0.4-1.6v-16.6h-5.8v16.6c0,0.8,0.1,1.4,0.3,1.6c0.2,0.3,0.7,0.4,1.3,0.5h0.3l0.3,1.1h-0.4c-0.2,0-0.6,0-1.1,0
			s-0.8,0-1,0h-5.5c-0.1,0-0.5,0-1,0s-0.9,0-1.1,0h-0.4l0.2-1.1h0.3c0.6-0.1,1.1-0.2,1.3-0.5c0.2-0.3,0.4-0.8,0.4-1.6v-19.5
			c0-0.8-0.1-1.4-0.4-1.6c-0.2-0.3-0.7-0.4-1.3-0.5h-0.2l-0.2-1.1h0.4c0.3,0,0.6,0,1.1,0s0.8,0,1,0h28.7c0.2,0,0.5,0,1,0
			s0.9,0,1.1,0h0.4l-0.3,1.1h-0.2c-0.6,0.1-1.1,0.2-1.3,0.5c-0.2,0.3-0.4,0.8-0.4,1.6v19.5c0,0.8,0.1,1.4,0.4,1.6
			c0.2,0.3,0.7,0.4,1.3,0.5h0.3L377.2,535.6z"/>
		<path id="XMLID_219_" class="st3" d="M398.1,535.6h-0.4c-0.2,0-0.6,0-1.1,0s-0.8,0-1,0H390c-0.1,0-0.5,0-1,0s-0.9,0-1.1,0h-0.4
			l0.2-1.1h0.3c0.6-0.1,1.1-0.2,1.3-0.5c0.2-0.3,0.4-0.8,0.4-1.6v-19.5c0-0.8-0.1-1.4-0.4-1.6c-0.2-0.3-0.7-0.4-1.3-0.5h-0.3
			l-0.2-1.1h0.4c0.3,0,0.6,0,1.1,0s0.8,0,1,0h5.6c0.2,0,0.5,0,1,0s0.9,0,1.1,0h0.4l-0.2,1.1h-0.3c-0.6,0.1-1.1,0.2-1.3,0.5
			c-0.2,0.3-0.4,0.8-0.4,1.6v19.5c0,0.8,0.1,1.4,0.4,1.6c0.2,0.3,0.7,0.4,1.3,0.5h0.3L398.1,535.6z"/>
		<path id="XMLID_221_" class="st3" d="M437.8,533.7l-0.4,0.2c-0.5,0.2-1.1,0.5-1.9,0.9l-5,2.6c-0.4,0.3-1,0.6-1.8,1.1l-0.4,0.2
			l-0.3-1.1l0.3-0.1c0.6-0.4,0.9-0.8,0.9-1.3c0-0.3-0.1-0.8-0.4-1.4l-1.1-2.4h-11.9l-1.2,2.4c-0.3,0.6-0.4,1.1-0.4,1.4
			c0,0.4,0.3,0.9,0.9,1.3c0.1,0,0.2,0.1,0.3,0.1l-0.3,1.1l-0.4-0.2c-0.4-0.3-1-0.7-1.8-1.1l-5-2.6c-0.4-0.2-1.1-0.5-1.9-0.9
			l-0.4-0.2l0.7-0.8c0.1,0,0.1,0.1,0.3,0.2c0.4,0.1,0.7,0.2,1,0.2c0.5,0,1-0.5,1.5-1.4l12.6-23.6l12.6,23.6c0.5,0.9,1,1.4,1.5,1.4
			c0.2,0,0.5-0.1,1-0.2c0.1-0.1,0.1-0.1,0.3-0.2L437.8,533.7z M425,526.9l-3.3-6.6l-3.3,6.6H425z"/>
		<path id="XMLID_224_" class="st3" d="M469.5,535.6h-0.4c-0.2,0-0.6,0-1.1,0s-0.8,0-1,0h-4.9c-0.1,0-0.5,0-1,0s-0.9,0-1.1,0h-0.4
			l0.3-1.1h0.3c0.6-0.1,1.1-0.2,1.3-0.5c0.2-0.3,0.4-0.8,0.4-1.6v-0.2l-9.5-9.6v9.8c0,0.8,0.1,1.4,0.4,1.6c0.2,0.3,0.7,0.4,1.3,0.5
			h0.3l0.2,1.1h-0.4c-0.2,0-0.6,0-1.1,0s-0.8,0-1,0h-4.9c-0.1,0-0.5,0-1,0s-0.9,0-1.1,0h-0.4l0.2-1.1h0.3c0.6-0.1,1.1-0.2,1.3-0.5
			c0.2-0.3,0.4-0.8,0.4-1.6v-19.5c0-0.8-0.1-1.4-0.4-1.6c-0.2-0.3-0.7-0.4-1.3-0.5h-0.3l-0.2-1.1h0.4c0.3,0,0.6,0,1.1,0s0.8,0,1,0
			h4.9c0.2,0,0.5,0,1,0s0.9,0,1.1,0h0.4l-0.2,1.1h-0.3c-0.6,0.1-1.1,0.2-1.3,0.5c-0.2,0.3-0.4,0.8-0.4,1.6v0.2l9.5,9.5v-9.7
			c0-0.8-0.1-1.4-0.4-1.6c-0.2-0.3-0.7-0.4-1.3-0.5h-0.3l-0.3-1.1h0.4c0.3,0,0.6,0,1.1,0s0.8,0,1,0h4.9c0.2,0,0.5,0,1,0s0.9,0,1.1,0
			h0.4l-0.2,1.1h-0.4c-0.6,0.1-1.1,0.2-1.3,0.5c-0.2,0.3-0.3,0.8-0.3,1.6v19.5c0,0.8,0.1,1.4,0.3,1.6c0.2,0.3,0.7,0.4,1.3,0.5h0.4
			L469.5,535.6z"/>
		<path id="XMLID_226_" class="st3" d="M518.3,509.8l-11,19.8h7.1c0.9,0,1.4-0.1,1.7-0.4c0.3-0.2,0.4-0.7,0.5-1.3v-0.3l1.1-0.3v0.4
			c0,0.2,0,0.6,0,1.1s0,0.8,0,1v5.4c0,0.1,0,0.5,0,1s0,0.9,0,1.1v0.4l-1.1-0.2v-0.3c-0.1-0.6-0.2-1.1-0.5-1.3s-0.8-0.4-1.7-0.4
			h-17.5l11.2-20h-7.5c-0.8,0-1.4,0.1-1.6,0.3c-0.3,0.2-0.4,0.7-0.5,1.3v0.3l-1.1,0.3v-0.4c0-0.3,0-0.6,0.1-1.1c0-0.5,0.1-0.8,0.1-1
			v-5.1c0-0.2,0-0.5-0.1-1c0-0.5-0.1-0.9-0.1-1.1v-0.4l1.1,0.2v0.3c0.1,0.6,0.2,1.1,0.5,1.3c0.3,0.2,0.8,0.4,1.6,0.4H518.3
			L518.3,509.8z"/>
		<path id="XMLID_228_" class="st3" d="M556.4,533.7l-0.4,0.2c-0.5,0.2-1.1,0.5-1.9,0.9l-5,2.6c-0.4,0.3-1,0.6-1.8,1.1l-0.4,0.2
			l-0.3-1.1l0.3-0.1c0.6-0.4,0.9-0.8,0.9-1.3c0-0.3-0.1-0.8-0.4-1.4l-1.2-2.4h-11.9l-1.2,2.4c-0.3,0.6-0.4,1.1-0.4,1.4
			c0,0.4,0.3,0.9,0.9,1.3c0.1,0,0.2,0.1,0.3,0.1l-0.3,1.1l-0.4-0.2c-0.4-0.3-1-0.7-1.8-1.1l-5-2.6c-0.4-0.2-1.1-0.5-1.9-0.9
			l-0.4-0.2l0.7-0.8c0.1,0,0.1,0.1,0.3,0.2c0.4,0.1,0.7,0.2,1,0.2c0.5,0,1-0.5,1.5-1.4l12.6-23.6l12.6,23.6c0.5,0.9,1,1.4,1.5,1.4
			c0.2,0,0.5-0.1,1-0.2c0.1-0.1,0.1-0.1,0.3-0.2L556.4,533.7z M543.6,526.9l-3.3-6.6l-3.3,6.6H543.6z"/>
		<path id="XMLID_231_" class="st3" d="M603.7,509.6l-0.3,1.1h-0.3c-0.6,0.1-1,0.2-1.2,0.4c-0.2,0.2-0.5,0.7-0.9,1.5l-12.7,24.1
			l-6.2-11.7l-6.2,11.7l-12.7-24.1c-0.4-0.8-0.7-1.3-0.9-1.5c-0.3-0.3-0.7-0.4-1.3-0.5h-0.3l-0.3-1.1h0.4c0.3,0,0.6,0,1.1,0
			s0.8,0,1,0h6.3c0.2,0,0.5,0,1,0s0.9,0,1.1,0h0.4l-0.3,1.1h-0.3c-0.9,0.1-1.4,0.5-1.4,1.2c0,0.3,0.1,0.6,0.3,1l5.8,11.4l2.9-5.6
			l-3.2-6c-0.4-0.8-0.7-1.3-0.9-1.5c-0.2-0.2-0.6-0.4-1.2-0.4H573l-0.2-1.1h0.4c0.3,0,0.6,0,1.1,0s0.8,0,1,0h5.5l1.2,2.6l1.2-2.6
			h5.5c0.2,0,0.5,0,1,0s0.9,0,1.1,0h0.4l-0.2,1.1h-0.3c-0.6,0.1-1,0.2-1.2,0.4c-0.2,0.2-0.5,0.7-0.9,1.5l-3.2,6l2.9,5.6l5.8-11.4
			c0.2-0.4,0.3-0.7,0.3-1c0-0.7-0.5-1.1-1.5-1.2h-0.3l-0.3-1.1h0.4c0.3,0,0.6,0,1.1,0s0.8,0,1,0h6.3c0.2,0,0.5,0,1,0s0.9,0,1.1,0
			h0.5L603.7,509.6L603.7,509.6z"/>
		<path id="XMLID_233_" class="st3" d="M639.9,533.7l-0.4,0.2c-0.5,0.2-1.1,0.5-1.9,0.9l-5,2.6c-0.4,0.3-1,0.6-1.8,1.1l-0.4,0.2
			l-0.3-1.1l0.3-0.1c0.6-0.4,0.9-0.8,0.9-1.3c0-0.3-0.1-0.8-0.4-1.4l-1.2-2.4h-11.9l-1.2,2.4c-0.3,0.6-0.4,1.1-0.4,1.4
			c0,0.4,0.3,0.9,0.9,1.3c0.1,0,0.2,0.1,0.3,0.1l-0.3,1.1l-0.4-0.2c-0.4-0.3-1-0.7-1.8-1.1l-5-2.6c-0.4-0.2-1.1-0.5-1.9-0.9
			l-0.4-0.2l0.7-0.8c0.1,0,0.1,0.1,0.3,0.2c0.4,0.1,0.7,0.2,1,0.2c0.5,0,1-0.5,1.5-1.4l12.6-23.6l12.6,23.6c0.5,0.9,1,1.4,1.5,1.4
			c0.2,0,0.5-0.1,1-0.2c0.1-0.1,0.1-0.1,0.3-0.2L639.9,533.7z M627.1,526.9l-3.3-6.6l-3.3,6.6H627.1z"/>
		<path id="XMLID_236_" class="st3" d="M670.2,522.6c0,3.6-1.3,6.6-3.8,9.2c-2.5,2.6-5.6,3.8-9.2,3.8c-1.2,0-2.6-0.1-4.2-0.2h-3.7
			c-0.1,0-0.5,0-1,0.1c-0.5,0.1-0.9,0.1-1.1,0.1h-0.4l0.2-1.1h0.3c0.6-0.1,1.1-0.2,1.3-0.5c0.2-0.3,0.4-0.8,0.4-1.6v-19.5
			c0-0.8-0.1-1.4-0.4-1.6c-0.2-0.3-0.7-0.4-1.3-0.5H647l-0.2-1.1h0.4c0.3,0,0.6,0,1.1,0s0.8,0,1,0h3c2.1,0,3.8,0,4.9,0
			c3.6,0,6.6,1.3,9.2,3.8C669,516,670.2,519.1,670.2,522.6z M664.4,522.6c0-2.1-0.8-4-2.3-5.5s-3.3-2.3-5.5-2.3h-1.5v15.6h1.5
			c2.1,0,4-0.8,5.5-2.3C663.7,526.6,664.4,524.8,664.4,522.6z"/>
		<path id="XMLID_239_" class="st3" d="M701.1,509.8l-11,19.8h7.1c0.9,0,1.4-0.1,1.7-0.4c0.3-0.2,0.4-0.7,0.5-1.3v-0.3l1.1-0.3v0.4
			c0,0.2,0,0.6,0,1.1s0,0.8,0,1v5.4c0,0.1,0,0.5,0,1s0,0.9,0,1.1v0.4l-1.1-0.2v-0.3c-0.1-0.6-0.2-1.1-0.5-1.3s-0.8-0.4-1.7-0.4
			h-17.5l11.2-20h-7.5c-0.8,0-1.4,0.1-1.7,0.3c-0.3,0.2-0.4,0.7-0.5,1.3v0.3l-1.1,0.3v-0.4c0-0.3,0-0.6,0.1-1.1c0-0.5,0.1-0.8,0.1-1
			v-5.1c0-0.2,0-0.5-0.1-1c0-0.5-0.1-0.9-0.1-1.1v-0.4l1.1,0.2v0.3c0.1,0.6,0.2,1.1,0.5,1.3c0.3,0.2,0.8,0.4,1.7,0.4H701.1
			L701.1,509.8z"/>
		<path id="XMLID_241_" class="st3" d="M736.1,535.6h-0.4c-0.2,0-0.6,0-1.1,0s-0.8,0-1,0h-6l-9.3-9.4v6.2c0,0.8,0.1,1.4,0.4,1.6
			c0.2,0.3,0.7,0.4,1.3,0.5h0.3l0.2,1.1h-0.4c-0.2,0-0.6,0-1.1,0s-0.8,0-1,0h-5.6c-0.1,0-0.5,0-1,0s-0.9,0-1.1,0h-0.4l0.2-1.1h0.3
			c0.6-0.1,1.1-0.2,1.3-0.5c0.2-0.3,0.4-0.8,0.4-1.6v-19.5c0-0.8-0.1-1.4-0.4-1.6c-0.2-0.3-0.7-0.4-1.3-0.5h-0.3l-0.2-1.1h0.4
			c0.3,0,0.6,0,1.1,0s0.8,0,1,0h5.6c0.2,0,0.5,0,1,0s0.9,0,1.1,0h0.4l-0.2,1.1H720c-0.6,0.1-1.1,0.2-1.3,0.5
			c-0.2,0.3-0.4,0.8-0.4,1.6v3l6.1-6.2h5.3c0.2,0,0.5,0,1,0s0.9,0,1.1,0h0.4l-0.3,1.1c-0.1,0-0.2,0-0.3,0c-0.6,0.1-1.5,0.8-2.9,2.1
			l-7.8,7.8l11.7,11.7c1.3,1.3,2.3,2.1,2.9,2.1c0.1,0,0.2,0,0.3,0L736.1,535.6z"/>
		<path id="XMLID_243_" class="st3" d="M752.8,535.6h-0.4c-0.2,0-0.6,0-1.1,0s-0.8,0-1,0h-5.6c-0.1,0-0.5,0-1,0s-0.9,0-1.1,0h-0.4
			l0.2-1.1h0.3c0.6-0.1,1.1-0.2,1.3-0.5c0.2-0.3,0.4-0.8,0.4-1.6v-19.5c0-0.8-0.1-1.4-0.4-1.6s-0.7-0.4-1.3-0.5h-0.3l-0.2-1.1h0.4
			c0.3,0,0.6,0,1.1,0s0.8,0,1,0h5.6c0.2,0,0.5,0,1,0s0.9,0,1.1,0h0.4l-0.2,1.1h-0.3c-0.6,0.1-1.1,0.2-1.3,0.5
			c-0.2,0.3-0.4,0.8-0.4,1.6v19.5c0,0.8,0.1,1.4,0.4,1.6c0.2,0.3,0.7,0.4,1.3,0.5h0.3L752.8,535.6z"/>
	</g>
</g>
<g id="skull" class="st4">
	
		<image style="display:inline;overflow:visible;" width="900" height="900" xlink:href="../../../../goatSkull.jpg"  transform="matrix(0.4821 0 0 0.4821 278 243)">
	</image>
</g>
<g id="skull_1_">
	<path class="st5" d="M1009.2,444c0,0,46.9,14.5,47.8,30.1c0,0-9.8,2.9,0,11.2c0,0,7.1,2.1,3.1,11.6c0,0-2.6,6.6-2.9,23.8
		c0,0-2.6,6.6-11.4,11c0,0-1.8,30-5.9,38.8c-4,8.8-7,19.4-9.5,20.1c-2.6,0.7-3.7,26.7-6.2,30.8c0,0-3.9,15-10.1,16.8s-4.8,0-4.8,0
		h-0.3c0,0,1.5,1.8-4.8,0s-10.1-16.8-10.1-16.8c-2.6-4-3.7-30-6.2-30.8s-5.5-11.4-9.5-20.1c-4-8.8-5.9-38.8-5.9-38.8
		c-8.8-4.4-11.4-11-11.4-11c-0.4-17.2-2.9-23.8-2.9-23.8c-4-9.5,3.1-11.6,3.1-11.6c9.8-8.3,0-11.2,0-11.2
		C962.3,458.5,1009.2,444,1009.2,444"/>
	<path class="st5" d="M928,448c0,0,9.5-0.8,30.5,27.8c0,0,55.4-14.4,42-39.3c-13.4-24.9-70.8-57.9-100.3-42
		c-29.5,15.9,20,97.9,14.2,136.7c-5.9,38.8-35.9,23.9-35.9,23.9s52.5,37.1,63.7,2.8C953.4,523.7,922.9,453.4,928,448z"/>
	<path class="st5" d="M1090,448c0,0-9.5-0.8-30.5,27.8c0,0-55.4-14.4-42-39.3c13.4-24.9,70.8-57.9,100.3-42
		c29.5,15.9-20,97.9-14.2,136.7s35.9,23.9,35.9,23.9s-52.5,37.1-63.7,2.8C1064.6,523.7,1095.1,453.4,1090,448z"/>
</g>
<g id="eyes">
	<path class="st6" d="M973,493.5c-3.6-2.9-8.8,0.3-7.9,4.8c1.2,5.3,2.5,12.8,2.4,19c-0.1,8.3,8.4,10.3,12.7,10.8
		c1.3,0.2,2.5-0.9,2.4-2.2C982.6,519.3,981.5,500.4,973,493.5z"/>
	<path class="st6" d="M1046.2,493.5c3.6-2.9,8.8,0.3,7.9,4.8c-1.2,5.3-2.5,12.8-2.4,19c0.1,8.3-8.4,10.3-12.7,10.8
		c-1.3,0.2-2.5-0.9-2.4-2.2C1036.7,519.3,1037.8,500.4,1046.2,493.5z"/>
</g>
</svg>
