<?xml version="1.0" encoding="utf-8"?>
<!-- Generator: Adobe Illustrator 19.0.0, SVG Export Plug-In . SVG Version: 6.00 Build 0)  -->
<svg version="1.1" xmlns="http://www.w3.org/2000/svg" xmlns:xlink="http://www.w3.org/1999/xlink" x="0px" y="0px"
	 viewBox="0 0 1016 560" style="enable-background:new 0 0 1016 560;" xml:space="preserve">
<style type="text/css">
	.st0{display:none;}
	.st1{display:inline;fill:#850111;stroke:#000000;stroke-miterlimit:10;}
	.st2{display:inline;opacity:0.2;fill:#FF0000;}
	.st3{display:inline;}
	.st4{fill:#FF3C00;}
	.st5{fill:#D11313;}
	.st6{opacity:0.4;}
	.st7{opacity:0.8;}
	.st8{fill:#FFBF00;}
	.st9{fill:#FFC720;}
	.st10{fill:none;}
	.st11{stroke:#FFBF00;stroke-miterlimit:10;}
	.st12{font-family:'Centaurs';}
	.st13{font-size:34px;}
	.st14{display:inline;fill:none;}
	.st15{display:inline;stroke:#FFBF00;stroke-miterlimit:10;}
</style>
<g id="bg" class="st0">
	<rect id="XMLID_1_" class="st1" width="960" height="560"/>
</g>
<g id="shadows" class="st0">
	<circle id="circle1" class="st2" cx="750" cy="278.2" r="206.8"/>
	<circle id="circle2" class="st2" cx="750" cy="278.2" r="221.2"/>
	<circle id="circle3" class="st2" cx="750.4" cy="278.2" r="235.4"/>
	<circle id="circle4" class="st2" cx="750.4" cy="280" r="247.7"/>
</g>
<g id="title" class="st0">
	<g id="title_1_" class="st3">
		<g id="XMLID_79_">
			<path id="XMLID_80_" class="st4" d="M34.9,271.1c-2.5,0-5.1,0-7.7,0.1l-0.1-1.3l3.8-1.2c0.5-0.2,0.8-0.5,0.8-1c0-0.8,0-1.8,0-2.8
				c0-1,0-2.2,0-3.4v-25.3c0-1.1,0-2,0-2.9c0-0.9,0-1.6,0-2.3c0-0.5-0.3-0.9-0.8-1.1l-3.9-1.2l-0.1-1.3c2.7,0.1,5.3,0.1,7.8,0.1
				c2.1,0,4.1-0.1,6-0.2c1.9-0.1,3.9-0.2,6-0.2c7.3,0,12.8,1.7,16.4,5c3.7,3.3,5.5,8.3,5.5,14.8c0,7.7-2,13.7-6.1,18
				c-4.1,4.3-9.8,6.4-17.1,6.4c-2,0-3.8,0-5.4-0.1S36.9,271.1,34.9,271.1z M37.9,268.3c1.2,0.2,2.4,0.3,3.6,0.3
				c1.2,0.1,2.4,0.1,3.5,0.1c5.5,0,9.7-1.6,12.6-4.9c2.9-3.2,4.3-8.2,4.3-14.9c0-6.5-1.4-11.3-4.1-14.5c-2.7-3.1-7.1-4.7-13-4.7
				c-0.9,0-2,0-3.1,0.1c-1.1,0-2.4,0.1-3.9,0.2V268.3z"/>
			<path id="XMLID_83_" class="st4" d="M100.5,268.9c-1.8,1.1-3.6,1.9-5.5,2.4s-3.6,0.7-5.2,0.7c-4.6,0-8.3-1.3-11.1-3.9
				c-2.8-2.6-4.2-6.2-4.2-10.9c0-4.6,1.3-8.4,4-11.3c2.6-2.9,6.2-4.4,10.6-4.4c3.7,0,6.6,1.1,8.6,3.3c2.1,2.2,3.1,5.2,3.1,9.1
				c0,0.6,0,1.2-0.1,1.8H80.9c0,4.5,1.1,7.7,3.2,9.6c2.1,1.9,5.4,2.9,9.9,2.9c2,0,4.1-0.2,6.4-0.6L100.5,268.9z M94.3,253v-0.9
				c0-3-0.5-5.1-1.4-6.3c-0.9-1.3-2.3-1.9-4.1-1.9c-2.4,0-4.3,0.9-5.6,2.7c-1.3,1.8-2,4-2.2,6.5H94.3z"/>
			<path id="XMLID_86_" class="st4" d="M133.3,247.5c0.3,1,0.4,2.1,0.4,3.4V262c0,2.4,0,4.4,0.1,5.9c0,0.6,0.3,0.9,0.8,1.1l3.2,0.9
				l0.1,1.3c-2.5-0.1-4.8-0.1-6.9-0.1c-2.1,0-4.3,0-6.8,0.1l-0.1-1.3l3-0.9c0.6-0.2,0.9-0.5,0.9-1c0-0.3,0-0.9,0-2v-13.6
				c0-2.6-0.6-4.4-1.7-5.5c-1.2-1.1-2.9-1.7-5.2-1.7c-2,0-4.1,0.6-6.2,1.8v13.7c0,2.6,0,5,0.1,7.2c0,0.6,0.2,1,0.7,1.1l3.3,1
				l0.1,1.3c-2.6-0.1-4.9-0.1-7-0.1c-2.1,0-4.5,0-7.3,0.1l-0.1-1.3l3.6-1.1c0.5-0.1,0.8-0.5,0.8-1c0-1.1,0-2.4,0-3.8v-10.7
				c0-2.7,0-5.3-0.1-7.6l-4.2-1.1l-0.2-1.1c3.4-0.7,6.7-1.4,9.9-2.2l0.3,0.2v3.6c3.4-2.6,6.7-3.8,9.7-3.8c3.8,0,6.5,1.4,8.1,4.3
				c3.3-2.9,6.9-4.3,10.7-4.3c2.9,0,5.2,0.8,6.8,2.5c1.6,1.6,2.5,4,2.5,7v11.1c0,2.6,0,4.6,0.1,5.8c0,0.6,0.3,0.9,0.8,1.1l3.5,1.1
				l0.1,1.3c-2.8-0.1-5.2-0.1-7.2-0.1c-2.1,0-4.4,0-6.8,0.1l-0.1-1.3l3.1-0.9c0.5-0.2,0.8-0.5,0.8-1c0-0.3,0-0.9,0-2v-13.6
				c0-2.6-0.6-4.4-1.8-5.5c-1.2-1.1-2.9-1.7-5.2-1.7C137.4,245.3,135.3,246,133.3,247.5z"/>
			<path id="XMLID_88_" class="st4" d="M190.3,256.1c0,4.8-1.4,8.6-4.3,11.5c-2.9,2.9-6.5,4.4-10.9,4.4c-4.3,0-7.8-1.4-10.5-4.1
				c-2.7-2.8-4-6.4-4-10.8c0-4.6,1.4-8.3,4.2-11.2s6.5-4.4,11.1-4.4c4.3,0,7.8,1.3,10.5,4C189,248.1,190.3,251.7,190.3,256.1z
				 M167,256.4c0,3.9,0.7,7.1,2.2,9.5c1.5,2.4,3.6,3.7,6.5,3.7c2.7,0,4.7-1.1,6.1-3.2c1.4-2.2,2.1-5.3,2.1-9.6c0-4-0.7-7.1-2.2-9.4
				c-1.5-2.3-3.6-3.4-6.4-3.4c-2.7,0-4.7,1-6.1,3.1S167,252.2,167,256.4z"/>
			<path id="XMLID_91_" class="st4" d="M194.6,243.6c3.5-0.7,6.8-1.4,9.9-2.2l0.3,0.2v3.6c3.6-2.6,7-3.8,10.1-3.8c3,0,5.3,0.8,7,2.5
				s2.5,4,2.5,7v11c0,2.6,0,4.5,0.1,5.8c0,0.6,0.3,0.9,0.8,1.1l3.5,1.1l0.1,1.3c-2.8-0.1-5.2-0.1-7.2-0.1c-2.1,0-4.3,0-6.8,0.1
				l-0.1-1.3l3.1-0.9c0.5-0.2,0.7-0.5,0.8-1c0-0.3,0-0.9,0-2v-13.6c0-2.6-0.6-4.4-1.8-5.5c-1.2-1.1-3-1.7-5.4-1.7
				c-2.1,0-4.3,0.6-6.5,1.8v13.7c0,2.6,0,5,0.1,7.2c0,0.6,0.3,0.9,0.7,1.1l3.3,1l0.1,1.3c-2.6-0.1-4.9-0.1-7-0.1
				c-2.1,0-4.5,0-7.3,0.1l-0.1-1.3l3.7-1.1c0.5-0.2,0.7-0.5,0.7-1c0-1.3,0-2.6,0-3.8v-10.7c0-2.7,0-5.3-0.1-7.6l-4.2-1.1
				L194.6,243.6z"/>
			<path id="XMLID_93_" class="st4" d="M262.1,256.1c0,4.8-1.4,8.6-4.3,11.5c-2.9,2.9-6.5,4.4-10.9,4.4c-4.3,0-7.8-1.4-10.5-4.1
				c-2.7-2.8-4-6.4-4-10.8c0-4.6,1.4-8.3,4.2-11.2s6.5-4.4,11.1-4.4c4.3,0,7.8,1.3,10.5,4C260.8,248.1,262.1,251.7,262.1,256.1z
				 M238.8,256.4c0,3.9,0.7,7.1,2.2,9.5c1.5,2.4,3.6,3.7,6.5,3.7c2.7,0,4.7-1.1,6.1-3.2c1.4-2.2,2.1-5.3,2.1-9.6
				c0-4-0.7-7.1-2.2-9.4c-1.5-2.3-3.6-3.4-6.4-3.4c-2.7,0-4.7,1-6.1,3.1S238.8,252.2,238.8,256.4z"/>
			<path id="XMLID_96_" class="st4" d="M266.3,227.3l-0.2-1c3.7-0.7,7.1-1.4,10.2-2.2l0.3,0.3c-0.1,3.4-0.2,8.1-0.2,14.2v20.3
				c0,3.7,0,6.7,0.1,9c0.1,0.6,0.4,1,0.9,1.1l3.4,1l0.1,1.3c-2.8-0.1-5.2-0.1-7.3-0.1c-2.1,0-4.5,0-7.3,0.1l-0.1-1.3l3.5-1
				c0.5-0.2,0.8-0.5,0.8-1c0-2.4,0.1-5,0.1-7.9v-12.8c0-7.8,0-14-0.1-18.7L266.3,227.3z"/>
			<path id="XMLID_98_" class="st4" d="M314.7,256.1c0,4.8-1.4,8.6-4.3,11.5c-2.9,2.9-6.5,4.4-10.9,4.4c-4.3,0-7.8-1.4-10.5-4.1
				c-2.7-2.8-4-6.4-4-10.8c0-4.6,1.4-8.3,4.2-11.2s6.5-4.4,11.1-4.4c4.3,0,7.8,1.3,10.5,4C313.4,248.1,314.7,251.7,314.7,256.1z
				 M291.4,256.4c0,3.9,0.7,7.1,2.2,9.5c1.5,2.4,3.6,3.7,6.5,3.7c2.7,0,4.7-1.1,6.1-3.2c1.4-2.2,2.1-5.3,2.1-9.6
				c0-4-0.7-7.1-2.2-9.4c-1.5-2.3-3.6-3.4-6.4-3.4c-2.7,0-4.7,1-6.1,3.1S291.4,252.2,291.4,256.4z"/>
			<path id="XMLID_101_" class="st4" d="M342.6,245.4c1.6,1.7,2.4,3.8,2.4,6.2c0,3.4-1.2,6-3.5,8c-2.3,2-5.3,3-8.8,3
				c-2,0-3.8-0.3-5.4-0.9c-1.1,1.8-1.7,3.2-1.7,4.3c0,0.6,0.3,0.9,0.9,1.1c0.6,0.2,1.6,0.3,3.2,0.3c1.2,0,2.5,0,4.1-0.1
				s3-0.1,4.4-0.1c3.3,0,6.1,0.6,8.2,1.9c2.2,1.3,3.3,3.1,3.3,5.6c0,3.8-1.8,6.7-5.5,8.9c-3.7,2.2-7.9,3.3-12.6,3.3
				c-3.9,0-6.9-0.6-9.2-1.9c-2.3-1.2-3.4-2.8-3.4-4.8c0-2.4,1.7-5.1,5.1-8.1c-2.1-0.8-3.2-1.9-3.2-3.3c0-1.9,1.5-4.5,4.5-7.9
				c-3.3-2-4.9-4.8-4.9-8.6c0-3.3,1.2-5.9,3.5-7.8c2.4-2,5.4-3,9.1-3c1,0,2.3,0.1,4,0.4c1.6,0.3,2.8,0.4,3.7,0.4
				c3.2,0,6.1,0,8.8-0.1l0.2,1.3L342.6,245.4z M325.7,272.4c-1.4,2.1-2.1,4.1-2.1,5.9c0,1.8,0.7,3.3,2.2,4.3c1.5,1,3.5,1.5,6,1.5
				c3,0,5.7-0.7,7.9-2c2.3-1.3,3.4-3.2,3.4-5.6c0-1.3-0.6-2.3-1.7-3c-1.1-0.7-3.2-1.1-6.3-1.1c-1.1,0-2.3,0-3.6,0.1
				c-1.3,0.1-2.6,0.1-3.8,0.1C327.2,272.4,326.5,272.4,325.7,272.4z M326.7,251.7c0,2.7,0.5,4.8,1.6,6.3c1,1.5,2.6,2.2,4.6,2.2
				c1.9,0,3.3-0.7,4.3-2.1c1-1.4,1.4-3.4,1.4-6.1c0-2.6-0.5-4.6-1.5-6.1c-1-1.5-2.6-2.2-4.6-2.2c-1.9,0-3.3,0.7-4.3,2
				C327.2,247.1,326.7,249.1,326.7,251.7z"/>
			<path id="XMLID_105_" class="st4" d="M351.5,243.6c3.6-0.7,7-1.4,10.2-2.2l0.3,0.2c-0.1,2.7-0.2,5.7-0.2,8.9v12
				c0,2.5,0,4.2,0.1,5.2c0,0.6,0.3,0.9,0.8,1.1l3.6,1.1l0.1,1.3c-2.9-0.1-5.3-0.1-7.4-0.1c-2.1,0-4.5,0-7.3,0.1l-0.1-1.3l3.6-1.1
				c0.5-0.2,0.7-0.5,0.8-1c0-0.8,0.1-2.2,0.1-4.1v-10.4c0-2.7,0-5.3-0.1-7.6l-4.2-1.1L351.5,243.6z M362,230.4c0,1.1-0.3,2-1,2.7
				c-0.7,0.7-1.6,1-2.7,1c-1,0-1.9-0.3-2.5-1c-0.7-0.6-1-1.5-1-2.6c0-1.1,0.3-2,1-2.7s1.6-1,2.7-1c1,0,1.9,0.3,2.5,0.9
				C361.7,228.4,362,229.2,362,230.4z"/>
			<path id="XMLID_108_" class="st4" d="M371.9,244.1c4.1-1.8,7.7-2.7,10.8-2.7c3.2,0,5.7,0.8,7.6,2.5c1.9,1.7,2.8,4.1,2.8,7.2
				l-0.2,13c0,1.1,0,1.9,0.1,2.6c0.1,0.6,0.3,1.1,0.6,1.5c0.3,0.3,0.8,0.6,1.4,0.7c0.6,0.1,1.4,0.2,2.4,0.2l0.2,1.2
				c-0.9,0.4-2,0.7-3.3,1.1s-2.2,0.5-2.6,0.5c-2,0-3.4-1-4.2-3.1c-2.9,2.1-5.7,3.2-8.3,3.2c-2.9,0-5.3-0.7-7.1-2.1s-2.7-3.4-2.7-6
				c0-3.2,1.4-5.6,4.3-7.1c2.9-1.5,7.4-2.3,13.5-2.3l0-2.4c0-2.3-0.6-4.1-1.8-5.2c-1.2-1.1-3.1-1.7-5.6-1.7c-1.9,0-4.3,0.4-7.1,1.1
				L371.9,244.1z M387.1,256.9c-4.4,0-7.4,0.4-9,1.3c-1.6,0.9-2.4,2.4-2.4,4.5c0,2,0.5,3.4,1.6,4.2c1.1,0.8,2.5,1.2,4.3,1.2
				c2.1,0,3.9-0.4,5.4-1.1L387.1,256.9z"/>
			<path id="XMLID_111_" class="st4" d="M34.9,347.9c-2.5,0-5.1,0-7.7,0.1l-0.1-1.3l3.8-1.2c0.5-0.2,0.8-0.5,0.8-1
				c0-0.8,0-1.8,0-2.8c0-1,0-2.2,0-3.4V313c0-1.1,0-2,0-2.9c0-0.9,0-1.6,0-2.3c0-0.5-0.3-0.9-0.8-1.1l-3.9-1.2l-0.1-1.3
				c2.7,0.1,5.3,0.1,7.8,0.1c2.1,0,4.1-0.1,6-0.2c1.9-0.1,3.9-0.2,6-0.2c7.3,0,12.8,1.7,16.4,5s5.5,8.3,5.5,14.8
				c0,7.7-2,13.7-6.1,18s-9.8,6.4-17.1,6.4c-2,0-3.8,0-5.4-0.1S36.9,347.9,34.9,347.9z M37.9,345.1c1.2,0.2,2.4,0.3,3.6,0.3
				c1.2,0.1,2.4,0.1,3.5,0.1c5.5,0,9.7-1.6,12.6-4.9s4.3-8.2,4.3-14.9c0-6.5-1.4-11.3-4.1-14.5c-2.7-3.1-7.1-4.7-13-4.7
				c-0.9,0-2,0-3.1,0.1c-1.1,0-2.4,0.1-3.9,0.2V345.1z"/>
			<path id="XMLID_114_" class="st4" d="M75.4,320.9c4.1-1.8,7.7-2.7,10.8-2.7c3.2,0,5.7,0.8,7.6,2.5s2.8,4.1,2.8,7.2l-0.2,13
				c0,1.1,0,1.9,0.1,2.6s0.3,1.1,0.6,1.5c0.3,0.3,0.8,0.6,1.4,0.7c0.6,0.1,1.4,0.2,2.4,0.2l0.2,1.2c-0.9,0.4-2,0.7-3.3,1.1
				s-2.2,0.5-2.6,0.5c-2,0-3.4-1-4.2-3.1c-2.9,2.1-5.7,3.2-8.3,3.2c-2.9,0-5.3-0.7-7.1-2.1s-2.7-3.4-2.7-6c0-3.2,1.4-5.6,4.3-7.1
				c2.9-1.5,7.4-2.3,13.5-2.3l0-2.4c0-2.3-0.6-4.1-1.8-5.2c-1.2-1.1-3.1-1.7-5.6-1.7c-1.9,0-4.3,0.4-7.1,1.1L75.4,320.9z
				 M90.6,333.7c-4.4,0-7.4,0.4-9,1.3s-2.4,2.4-2.4,4.5c0,2,0.5,3.4,1.6,4.2s2.5,1.2,4.3,1.2c2.1,0,3.9-0.4,5.4-1.1L90.6,333.7z"/>
			<path id="XMLID_117_" class="st4" d="M132.5,324.3c0.3,1,0.4,2.1,0.4,3.4v11.2c0,2.4,0,4.4,0.1,5.9c0,0.6,0.3,0.9,0.8,1.1
				l3.2,0.9l0.1,1.3c-2.5-0.1-4.8-0.1-6.9-0.1c-2.1,0-4.3,0-6.8,0.1l-0.1-1.3l3-0.9c0.6-0.2,0.9-0.5,0.9-1c0-0.3,0-0.9,0-2v-13.6
				c0-2.6-0.6-4.4-1.7-5.5s-2.9-1.7-5.2-1.7c-2,0-4.1,0.6-6.2,1.8v13.7c0,2.6,0,5,0.1,7.2c0,0.6,0.2,1,0.7,1.1l3.3,1l0.1,1.3
				c-2.6-0.1-4.9-0.1-7-0.1c-2.1,0-4.5,0-7.3,0.1l-0.1-1.3l3.6-1.1c0.5-0.1,0.8-0.5,0.8-1c0-1.1,0-2.4,0-3.8v-10.7
				c0-2.7,0-5.3-0.1-7.6l-4.2-1.1l-0.2-1.1c3.4-0.7,6.7-1.4,9.9-2.2l0.3,0.2v3.6c3.4-2.6,6.7-3.8,9.7-3.8c3.8,0,6.5,1.4,8.1,4.3
				c3.3-2.9,6.9-4.3,10.7-4.3c2.9,0,5.2,0.8,6.8,2.5s2.5,4,2.5,7v11.1c0,2.6,0,4.6,0.1,5.8c0,0.6,0.3,0.9,0.8,1.1l3.5,1.1l0.1,1.3
				c-2.8-0.1-5.2-0.1-7.2-0.1c-2.1,0-4.4,0-6.8,0.1l-0.1-1.3l3.1-0.9c0.5-0.2,0.8-0.5,0.8-1c0-0.3,0-0.9,0-2v-13.6
				c0-2.6-0.6-4.4-1.8-5.5s-2.9-1.7-5.2-1.7C136.7,322.1,134.5,322.8,132.5,324.3z"/>
			<path id="XMLID_119_" class="st4" d="M159.3,320.4c3.6-0.7,7-1.4,10.2-2.2l0.3,0.2c-0.1,2.7-0.2,5.7-0.2,8.9v12
				c0,2.5,0,4.2,0.1,5.2c0,0.6,0.3,0.9,0.8,1.1l3.6,1.1l0.1,1.3c-2.9-0.1-5.3-0.1-7.4-0.1c-2.1,0-4.5,0-7.3,0.1l-0.1-1.3l3.6-1.1
				c0.5-0.2,0.7-0.5,0.8-1c0-0.8,0.1-2.2,0.1-4.1v-10.4c0-2.7,0-5.3-0.1-7.6l-4.2-1.1L159.3,320.4z M169.8,307.2c0,1.1-0.3,2-1,2.7
				s-1.6,1-2.7,1c-1,0-1.9-0.3-2.5-1s-1-1.5-1-2.6c0-1.1,0.3-2,1-2.7s1.6-1,2.7-1c1,0,1.9,0.3,2.5,0.9
				C169.5,305.2,169.8,306,169.8,307.2z"/>
			<path id="XMLID_122_" class="st4" d="M179.7,320.9c4.1-1.8,7.7-2.7,10.8-2.7c3.2,0,5.7,0.8,7.6,2.5s2.8,4.1,2.8,7.2l-0.2,13
				c0,1.1,0,1.9,0.1,2.6s0.3,1.1,0.6,1.5c0.3,0.3,0.8,0.6,1.4,0.7c0.6,0.1,1.4,0.2,2.4,0.2l0.2,1.2c-0.9,0.4-2,0.7-3.3,1.1
				s-2.2,0.5-2.6,0.5c-2,0-3.4-1-4.2-3.1c-2.9,2.1-5.7,3.2-8.3,3.2c-2.9,0-5.3-0.7-7.1-2.1s-2.7-3.4-2.7-6c0-3.2,1.4-5.6,4.3-7.1
				c2.9-1.5,7.4-2.3,13.5-2.3l0-2.4c0-2.3-0.6-4.1-1.8-5.2c-1.2-1.1-3.1-1.7-5.6-1.7c-1.9,0-4.3,0.4-7.1,1.1L179.7,320.9z
				 M194.8,333.7c-4.4,0-7.4,0.4-9,1.3s-2.4,2.4-2.4,4.5c0,2,0.5,3.4,1.6,4.2s2.5,1.2,4.3,1.2c2.1,0,3.9-0.4,5.4-1.1L194.8,333.7z"
				/>
			<path id="XMLID_125_" class="st4" d="M208.1,320.4c3.5-0.7,6.8-1.4,9.9-2.2l0.3,0.2v3.6c3.6-2.6,7-3.8,10.1-3.8
				c3,0,5.3,0.8,7,2.5s2.5,4,2.5,7v11c0,2.6,0,4.5,0.1,5.8c0,0.6,0.3,0.9,0.8,1.1l3.5,1.1l0.1,1.3c-2.8-0.1-5.2-0.1-7.2-0.1
				c-2.1,0-4.3,0-6.8,0.1l-0.1-1.3l3.1-0.9c0.5-0.2,0.7-0.5,0.8-1c0-0.3,0-0.9,0-2v-13.6c0-2.6-0.6-4.4-1.8-5.5s-3-1.7-5.4-1.7
				c-2.1,0-4.3,0.6-6.5,1.8v13.7c0,2.6,0,5,0.1,7.2c0,0.6,0.3,0.9,0.7,1.1l3.3,1l0.1,1.3c-2.6-0.1-4.9-0.1-7-0.1
				c-2.1,0-4.5,0-7.3,0.1l-0.1-1.3l3.7-1.1c0.5-0.2,0.7-0.5,0.7-1c0-1.3,0-2.6,0-3.8v-10.7c0-2.7,0-5.3-0.1-7.6l-4.2-1.1
				L208.1,320.4z"/>
			<path id="XMLID_127_" class="st4" d="M260.6,348l-0.1-1.3l24.1-39.6h-18.4l-2.3,7.5l-1.3,0.2l-1.6-10.4l0.2-0.3
				c5.2,0.1,10.1,0.1,14.8,0.1h7.4c3,0,5.9,0,8.9-0.1l0.1,1.3l-24,39.6h19l4.2-8.4l1.4-0.2l-0.8,11.3l-0.2,0.2
				c-5.9-0.1-11.1-0.1-15.6-0.1h-7.5C265.9,347.9,263.1,347.9,260.6,348z"/>
			<path id="XMLID_129_" class="st4" d="M299.7,320.9c4.1-1.8,7.7-2.7,10.8-2.7c3.2,0,5.7,0.8,7.6,2.5s2.8,4.1,2.8,7.2l-0.2,13
				c0,1.1,0,1.9,0.1,2.6s0.3,1.1,0.6,1.5c0.3,0.3,0.8,0.6,1.4,0.7c0.6,0.1,1.4,0.2,2.4,0.2l0.2,1.2c-0.9,0.4-2,0.7-3.3,1.1
				s-2.2,0.5-2.6,0.5c-2,0-3.4-1-4.2-3.1c-2.9,2.1-5.7,3.2-8.3,3.2c-2.9,0-5.3-0.7-7.1-2.1s-2.7-3.4-2.7-6c0-3.2,1.4-5.6,4.3-7.1
				c2.9-1.5,7.4-2.3,13.5-2.3l0-2.4c0-2.3-0.6-4.1-1.8-5.2c-1.2-1.1-3.1-1.7-5.6-1.7c-1.9,0-4.3,0.4-7.1,1.1L299.7,320.9z
				 M314.9,333.7c-4.4,0-7.4,0.4-9,1.3s-2.4,2.4-2.4,4.5c0,2,0.5,3.4,1.6,4.2s2.5,1.2,4.3,1.2c2.1,0,3.9-0.4,5.4-1.1L314.9,333.7z"
				/>
			<path id="XMLID_132_" class="st4" d="M324.5,318.9c3,0.1,5.2,0.1,6.6,0.1c2.1,0,4.4,0,7-0.1l0.1,1.3l-3.7,1
				c1.4,4.6,3.2,9.9,5.3,15.7c0.5,1.2,0.9,2.5,1.3,3.8c0.4-1.3,0.8-2.5,1.3-3.8c1.7-4.5,2.9-7.9,3.8-10.4c0.9-2.5,1.7-4.9,2.5-7.3
				l2.3-0.3c0.8,2.5,1.6,5,2.4,7.6c0.8,2.5,2,6,3.6,10.4c0.5,1.3,0.9,2.6,1.3,3.8c0.4-1.2,0.8-2.5,1.3-3.8
				c2.3-5.9,4.2-11.1,5.8-15.8l-3.5-1l-0.1-1.3c1.7,0.1,3.4,0.1,5.3,0.1c1.9,0,3.5,0,5.1-0.1l0.2,1.3l-2.5,0.7
				c-0.7,0.2-1.2,0.7-1.6,1.5c-2,4.7-3.7,9-5.2,12.8c-1.5,3.8-3.2,8.1-4.9,12.8l-2.8,0.3c-1.3-3.7-2.3-6.7-3.2-9s-1.8-4.8-2.7-7.5
				c-0.4-1.1-0.8-2.2-1.1-3.2c-0.3,1-0.7,2-1.1,3.1c-1.1,2.8-2,5.3-3,7.7s-2,5.2-3.2,8.6l-2.8,0.3c-1.8-4.9-3.4-9.3-4.8-13.1
				c-1.5-3.8-3.1-8.1-4.9-12.8c-0.3-0.8-0.8-1.3-1.6-1.5l-2.3-0.7L324.5,318.9z"/>
			<path id="XMLID_134_" class="st4" d="M375.4,320.9c4.1-1.8,7.7-2.7,10.8-2.7c3.2,0,5.7,0.8,7.6,2.5s2.8,4.1,2.8,7.2l-0.2,13
				c0,1.1,0,1.9,0.1,2.6s0.3,1.1,0.6,1.5c0.3,0.3,0.8,0.6,1.4,0.7c0.6,0.1,1.4,0.2,2.4,0.2l0.2,1.2c-0.9,0.4-2,0.7-3.3,1.1
				s-2.2,0.5-2.6,0.5c-2,0-3.4-1-4.2-3.1c-2.9,2.1-5.7,3.2-8.3,3.2c-2.9,0-5.3-0.7-7.1-2.1s-2.7-3.4-2.7-6c0-3.2,1.4-5.6,4.3-7.1
				c2.9-1.5,7.4-2.3,13.5-2.3l0-2.4c0-2.3-0.6-4.1-1.8-5.2c-1.2-1.1-3.1-1.7-5.6-1.7c-1.9,0-4.3,0.4-7.1,1.1L375.4,320.9z
				 M390.6,333.7c-4.4,0-7.4,0.4-9,1.3s-2.4,2.4-2.4,4.5c0,2,0.5,3.4,1.6,4.2s2.5,1.2,4.3,1.2c2.1,0,3.9-0.4,5.4-1.1L390.6,333.7z"
				/>
			<path id="XMLID_137_" class="st4" d="M421.8,303c3.7-0.7,7.1-1.4,10.2-2.2l0.3,0.3c-0.1,4.5-0.2,9.3-0.2,14.4v17
				c0,2.9,0,5.7,0,8.5c0,1.1,0,1.9,0.1,2.6c0.1,0.6,0.3,1.1,0.5,1.5c0.3,0.3,0.7,0.6,1.3,0.7c0.6,0.1,1.4,0.2,2.4,0.2l0.2,1.2
				c-0.9,0.4-2,0.7-3.3,1.1c-1.3,0.4-2.2,0.5-2.6,0.5c-2.1,0-3.5-1.2-4.3-3.6c-3.2,2.4-6.4,3.6-9.4,3.6c-3.9,0-6.9-1.4-9.2-4.1
				s-3.5-6.1-3.5-10.1c0-5.2,1.5-9.2,4.6-12s7.3-4.3,12.8-4.3c1.3,0,2.8,0.1,4.5,0.4c0-4.6,0-9.1-0.1-13.4l-4.2-1.3L421.8,303z
				 M426.3,321.7c-1.4-0.4-2.9-0.7-4.6-0.7c-3.5,0-6.2,1-8.1,3s-2.8,5.1-2.8,9.2c0,3.6,0.8,6.4,2.5,8.5c1.6,2.1,4,3.2,7,3.2
				c1.9,0,4-0.5,6.1-1.6V321.7z"/>
			<path id="XMLID_140_" class="st4" d="M440.5,347.6c3.5-5.1,6.5-9.4,8.8-12.9c2.4-3.5,5.3-7.9,8.9-13.3H446l-2,6.3l-1.3,0.2
				c-0.5-3.3-1-6.2-1.6-8.8l0.1-0.3c4.3,0.1,8.4,0.1,12.3,0.1c4,0,8.2,0,12.5-0.1l0.2,0.3c-3,4.5-5.9,8.8-8.7,12.9
				c-2.8,4.1-5.7,8.5-8.8,13.3h12.4l3.9-6.5l1.3-0.2c-0.3,2.9-0.6,6-0.8,9.1l-0.2,0.2c-3.6-0.1-7.8-0.1-12.7-0.1
				c-4.4,0-8.5,0-12.1,0.1L440.5,347.6z"/>
			<path id="XMLID_142_" class="st4" d="M470.8,304.1l-0.2-1c3.7-0.7,7.1-1.4,10.2-2.2l0.3,0.3c-0.1,3-0.2,7.8-0.2,14.2v20.4
				c0,3.1,0,6.1,0.1,9.1c0,0.6,0.3,1,0.8,1.1l3,0.9l0.1,1.3c-2.5-0.1-4.8-0.1-6.8-0.1c-2.1,0-4.5,0-7.3,0.1l-0.1-1.3l3.7-1.1
				c0.4-0.1,0.6-0.5,0.7-0.9c0-2.4,0.1-5,0.1-7.9V324c0-10.8,0-17-0.1-18.7L470.8,304.1z M503.6,348c-2.8-0.1-4.9-0.1-6.2-0.1
				c-0.9,0-2.1,0-3.6,0.1c-0.8-1.3-1.7-2.6-2.8-4.1c-2.9-4-6-7.9-9.3-11.8l11.3-10.9l-3.5-1l-0.1-1.3c2.7,0.1,4.7,0.1,5.9,0.1
				c1.1,0,3.3,0,6.5-0.1l0.1,1.3c-2.1,0.5-3.6,1-4.5,1.4c-0.9,0.4-2,1.2-3.2,2.3l-6.7,6.2l10.1,12.6c1.1,1.4,2,2.3,2.6,2.8
				c0.6,0.5,1.7,0.9,3.2,1.2L503.6,348z"/>
			<path id="XMLID_145_" class="st4" d="M505.1,320.4c3.6-0.7,7-1.4,10.2-2.2l0.3,0.2c-0.1,2.7-0.2,5.7-0.2,8.9v12
				c0,2.5,0,4.2,0.1,5.2c0,0.6,0.3,0.9,0.8,1.1l3.6,1.1l0.1,1.3c-2.9-0.1-5.3-0.1-7.4-0.1s-4.5,0-7.3,0.1l-0.1-1.3l3.6-1.1
				c0.5-0.2,0.7-0.5,0.8-1c0-0.8,0.1-2.2,0.1-4.1v-10.4c0-2.7,0-5.3-0.1-7.6l-4.2-1.1L505.1,320.4z M515.6,307.2c0,1.1-0.3,2-1,2.7
				s-1.6,1-2.7,1c-1,0-1.9-0.3-2.5-1s-1-1.5-1-2.6c0-1.1,0.3-2,1-2.7s1.6-1,2.7-1c1,0,1.9,0.3,2.5,0.9
				C515.3,305.2,515.6,306,515.6,307.2z"/>
		</g>
		<g id="XMLID_9_">
			<path id="XMLID_10_" class="st5" d="M37.3,271.1c-2.5,0-5.1,0-7.7,0.1l-0.1-1.3l3.8-1.2c0.5-0.2,0.8-0.5,0.8-1c0-0.8,0-1.8,0-2.8
				c0-1,0-2.2,0-3.4v-25.3c0-1.1,0-2,0-2.9c0-0.9,0-1.6,0-2.3c0-0.5-0.3-0.9-0.8-1.1l-3.9-1.2l-0.1-1.3c2.7,0.1,5.3,0.1,7.8,0.1
				c2.1,0,4.1-0.1,6-0.2c1.9-0.1,3.9-0.2,6-0.2c7.3,0,12.8,1.7,16.4,5c3.7,3.3,5.5,8.3,5.5,14.8c0,7.7-2,13.7-6.1,18
				c-4.1,4.3-9.8,6.4-17.1,6.4c-2,0-3.8,0-5.4-0.1S39.2,271.1,37.3,271.1z M40.3,268.3c1.2,0.2,2.4,0.3,3.6,0.3
				c1.2,0.1,2.4,0.1,3.5,0.1c5.5,0,9.7-1.6,12.6-4.9c2.9-3.2,4.3-8.2,4.3-14.9c0-6.5-1.4-11.3-4.1-14.5c-2.7-3.1-7.1-4.7-13-4.7
				c-0.9,0-2,0-3.1,0.1c-1.1,0-2.4,0.1-3.9,0.2V268.3z"/>
			<path id="XMLID_13_" class="st5" d="M102.9,268.9c-1.8,1.1-3.6,1.9-5.5,2.4s-3.6,0.7-5.2,0.7c-4.6,0-8.3-1.3-11.1-3.9
				c-2.8-2.6-4.2-6.2-4.2-10.9c0-4.6,1.3-8.4,4-11.3c2.6-2.9,6.2-4.4,10.6-4.4c3.7,0,6.6,1.1,8.6,3.3c2.1,2.2,3.1,5.2,3.1,9.1
				c0,0.6,0,1.2-0.1,1.8H83.2c0,4.5,1.1,7.7,3.2,9.6c2.1,1.9,5.4,2.9,9.9,2.9c2,0,4.1-0.2,6.4-0.6L102.9,268.9z M96.6,253v-0.9
				c0-3-0.5-5.1-1.4-6.3c-0.9-1.3-2.3-1.9-4.1-1.9c-2.4,0-4.3,0.9-5.6,2.7c-1.3,1.8-2,4-2.2,6.5H96.6z"/>
			<path id="XMLID_17_" class="st5" d="M135.6,247.5c0.3,1,0.4,2.1,0.4,3.4V262c0,2.4,0,4.4,0.1,5.9c0,0.6,0.3,0.9,0.8,1.1l3.2,0.9
				l0.1,1.3c-2.5-0.1-4.8-0.1-6.9-0.1c-2.1,0-4.3,0-6.8,0.1l-0.1-1.3l3-0.9c0.6-0.2,0.9-0.5,0.9-1c0-0.3,0-0.9,0-2v-13.6
				c0-2.6-0.6-4.4-1.7-5.5c-1.2-1.1-2.9-1.7-5.2-1.7c-2,0-4.1,0.6-6.2,1.8v13.7c0,2.6,0,5,0.1,7.2c0,0.6,0.2,1,0.7,1.1l3.3,1
				l0.1,1.3c-2.6-0.1-4.9-0.1-7-0.1c-2.1,0-4.5,0-7.3,0.1l-0.1-1.3l3.6-1.1c0.5-0.1,0.8-0.5,0.8-1c0-1.1,0-2.4,0-3.8v-10.7
				c0-2.7,0-5.3-0.1-7.6l-4.2-1.1l-0.2-1.1c3.4-0.7,6.7-1.4,9.9-2.2l0.3,0.2v3.6c3.4-2.6,6.7-3.8,9.7-3.8c3.8,0,6.5,1.4,8.1,4.3
				c3.3-2.9,6.9-4.3,10.7-4.3c2.9,0,5.2,0.8,6.8,2.5c1.6,1.6,2.5,4,2.5,7v11.1c0,2.6,0,4.6,0.1,5.8c0,0.6,0.3,0.9,0.8,1.1l3.5,1.1
				l0.1,1.3c-2.8-0.1-5.2-0.1-7.2-0.1c-2.1,0-4.4,0-6.8,0.1l-0.1-1.3l3.1-0.9c0.5-0.2,0.8-0.5,0.8-1c0-0.3,0-0.9,0-2v-13.6
				c0-2.6-0.6-4.4-1.8-5.5c-1.2-1.1-2.9-1.7-5.2-1.7C139.8,245.3,137.6,246,135.6,247.5z"/>
			<path id="XMLID_19_" class="st5" d="M192.6,256.1c0,4.8-1.4,8.6-4.3,11.5c-2.9,2.9-6.5,4.4-10.9,4.4c-4.3,0-7.8-1.4-10.5-4.1
				c-2.7-2.8-4-6.4-4-10.8c0-4.6,1.4-8.3,4.2-11.2s6.5-4.4,11.1-4.4c4.3,0,7.8,1.3,10.5,4C191.3,248.1,192.6,251.7,192.6,256.1z
				 M169.3,256.4c0,3.9,0.7,7.1,2.2,9.5c1.5,2.4,3.6,3.7,6.5,3.7c2.7,0,4.7-1.1,6.1-3.2c1.4-2.2,2.1-5.3,2.1-9.6
				c0-4-0.7-7.1-2.2-9.4c-1.5-2.3-3.6-3.4-6.4-3.4c-2.7,0-4.7,1-6.1,3.1S169.3,252.2,169.3,256.4z"/>
			<path id="XMLID_22_" class="st5" d="M196.9,243.6c3.5-0.7,6.8-1.4,9.9-2.2l0.3,0.2v3.6c3.6-2.6,7-3.8,10.1-3.8c3,0,5.3,0.8,7,2.5
				s2.5,4,2.5,7v11c0,2.6,0,4.5,0.1,5.8c0,0.6,0.3,0.9,0.8,1.1l3.5,1.1l0.1,1.3c-2.8-0.1-5.2-0.1-7.2-0.1c-2.1,0-4.3,0-6.8,0.1
				l-0.1-1.3l3.1-0.9c0.5-0.2,0.7-0.5,0.8-1c0-0.3,0-0.9,0-2v-13.6c0-2.6-0.6-4.4-1.8-5.5c-1.2-1.1-3-1.7-5.4-1.7
				c-2.1,0-4.3,0.6-6.5,1.8v13.7c0,2.6,0,5,0.1,7.2c0,0.6,0.3,0.9,0.7,1.1l3.3,1l0.1,1.3c-2.6-0.1-4.9-0.1-7-0.1
				c-2.1,0-4.5,0-7.3,0.1l-0.1-1.3l3.7-1.1c0.5-0.2,0.7-0.5,0.7-1c0-1.3,0-2.6,0-3.8v-10.7c0-2.7,0-5.3-0.1-7.6l-4.2-1.1
				L196.9,243.6z"/>
			<path id="XMLID_24_" class="st5" d="M264.5,256.1c0,4.8-1.4,8.6-4.3,11.5c-2.9,2.9-6.5,4.4-10.9,4.4c-4.3,0-7.8-1.4-10.5-4.1
				c-2.7-2.8-4-6.4-4-10.8c0-4.6,1.4-8.3,4.2-11.2s6.5-4.4,11.1-4.4c4.3,0,7.8,1.3,10.5,4C263.1,248.1,264.5,251.7,264.5,256.1z
				 M241.2,256.4c0,3.9,0.7,7.1,2.2,9.5c1.5,2.4,3.6,3.7,6.5,3.7c2.7,0,4.7-1.1,6.1-3.2c1.4-2.2,2.1-5.3,2.1-9.6
				c0-4-0.7-7.1-2.2-9.4c-1.5-2.3-3.6-3.4-6.4-3.4c-2.7,0-4.7,1-6.1,3.1S241.2,252.2,241.2,256.4z"/>
			<path id="XMLID_27_" class="st5" d="M268.7,227.3l-0.2-1c3.7-0.7,7.1-1.4,10.2-2.2l0.3,0.3c-0.1,3.4-0.2,8.1-0.2,14.2v20.3
				c0,3.7,0,6.7,0.1,9c0.1,0.6,0.4,1,0.9,1.1l3.4,1l0.1,1.3c-2.8-0.1-5.2-0.1-7.3-0.1c-2.1,0-4.5,0-7.3,0.1l-0.1-1.3l3.5-1
				c0.5-0.2,0.8-0.5,0.8-1c0-2.4,0.1-5,0.1-7.9v-12.8c0-7.8,0-14-0.1-18.7L268.7,227.3z"/>
			<path id="XMLID_29_" class="st5" d="M317,256.1c0,4.8-1.4,8.6-4.3,11.5c-2.9,2.9-6.5,4.4-10.9,4.4c-4.3,0-7.8-1.4-10.5-4.1
				c-2.7-2.8-4-6.4-4-10.8c0-4.6,1.4-8.3,4.2-11.2s6.5-4.4,11.1-4.4c4.3,0,7.8,1.3,10.5,4C315.7,248.1,317,251.7,317,256.1z
				 M293.7,256.4c0,3.9,0.7,7.1,2.2,9.5c1.5,2.4,3.6,3.7,6.5,3.7c2.7,0,4.7-1.1,6.1-3.2c1.4-2.2,2.1-5.3,2.1-9.6
				c0-4-0.7-7.1-2.2-9.4c-1.5-2.3-3.6-3.4-6.4-3.4c-2.7,0-4.7,1-6.1,3.1S293.7,252.2,293.7,256.4z"/>
			<path id="XMLID_32_" class="st5" d="M344.9,245.4c1.6,1.7,2.4,3.8,2.4,6.2c0,3.4-1.2,6-3.5,8c-2.3,2-5.3,3-8.8,3
				c-2,0-3.8-0.3-5.4-0.9c-1.1,1.8-1.7,3.2-1.7,4.3c0,0.6,0.3,0.9,0.9,1.1c0.6,0.2,1.6,0.3,3.2,0.3c1.2,0,2.5,0,4.1-0.1
				s3-0.1,4.4-0.1c3.3,0,6.1,0.6,8.2,1.9c2.2,1.3,3.3,3.1,3.3,5.6c0,3.8-1.8,6.7-5.5,8.9c-3.7,2.2-7.9,3.3-12.6,3.3
				c-3.9,0-6.9-0.6-9.2-1.9c-2.3-1.2-3.4-2.8-3.4-4.8c0-2.4,1.7-5.1,5.1-8.1c-2.1-0.8-3.2-1.9-3.2-3.3c0-1.9,1.5-4.5,4.5-7.9
				c-3.3-2-4.9-4.8-4.9-8.6c0-3.3,1.2-5.9,3.5-7.8c2.4-2,5.4-3,9.1-3c1,0,2.3,0.1,4,0.4c1.6,0.3,2.8,0.4,3.7,0.4
				c3.2,0,6.1,0,8.8-0.1l0.2,1.3L344.9,245.4z M328.1,272.4c-1.4,2.1-2.1,4.1-2.1,5.9c0,1.8,0.7,3.3,2.2,4.3c1.5,1,3.5,1.5,6,1.5
				c3,0,5.7-0.7,7.9-2c2.3-1.3,3.4-3.2,3.4-5.6c0-1.3-0.6-2.3-1.7-3c-1.1-0.7-3.2-1.1-6.3-1.1c-1.1,0-2.3,0-3.6,0.1
				c-1.3,0.1-2.6,0.1-3.8,0.1C329.5,272.4,328.8,272.4,328.1,272.4z M329,251.7c0,2.7,0.5,4.8,1.6,6.3c1,1.5,2.6,2.2,4.6,2.2
				c1.9,0,3.3-0.7,4.3-2.1c1-1.4,1.4-3.4,1.4-6.1c0-2.6-0.5-4.6-1.5-6.1c-1-1.5-2.6-2.2-4.6-2.2c-1.9,0-3.3,0.7-4.3,2
				C329.5,247.1,329,249.1,329,251.7z"/>
			<path id="XMLID_36_" class="st5" d="M353.8,243.6c3.6-0.7,7-1.4,10.2-2.2l0.3,0.2c-0.1,2.7-0.2,5.7-0.2,8.9v12
				c0,2.5,0,4.2,0.1,5.2c0,0.6,0.3,0.9,0.8,1.1l3.6,1.1l0.1,1.3c-2.9-0.1-5.3-0.1-7.4-0.1c-2.1,0-4.5,0-7.3,0.1l-0.1-1.3l3.6-1.1
				c0.5-0.2,0.7-0.5,0.8-1c0-0.8,0.1-2.2,0.1-4.1v-10.4c0-2.7,0-5.3-0.1-7.6l-4.2-1.1L353.8,243.6z M364.4,230.4c0,1.1-0.3,2-1,2.7
				c-0.7,0.7-1.6,1-2.7,1c-1,0-1.9-0.3-2.5-1c-0.7-0.6-1-1.5-1-2.6c0-1.1,0.3-2,1-2.7s1.6-1,2.7-1c1,0,1.9,0.3,2.5,0.9
				C364,228.4,364.4,229.2,364.4,230.4z"/>
			<path id="XMLID_39_" class="st5" d="M374.2,244.1c4.1-1.8,7.7-2.7,10.8-2.7c3.2,0,5.7,0.8,7.6,2.5c1.9,1.7,2.8,4.1,2.8,7.2
				l-0.2,13c0,1.1,0,1.9,0.1,2.6c0.1,0.6,0.3,1.1,0.6,1.5c0.3,0.3,0.8,0.6,1.4,0.7c0.6,0.1,1.4,0.2,2.4,0.2l0.2,1.2
				c-0.9,0.4-2,0.7-3.3,1.1s-2.2,0.5-2.6,0.5c-2,0-3.4-1-4.2-3.1c-2.9,2.1-5.7,3.2-8.3,3.2c-2.9,0-5.3-0.7-7.1-2.1s-2.7-3.4-2.7-6
				c0-3.2,1.4-5.6,4.3-7.1c2.9-1.5,7.4-2.3,13.5-2.3l0-2.4c0-2.3-0.6-4.1-1.8-5.2c-1.2-1.1-3.1-1.7-5.6-1.7c-1.9,0-4.3,0.4-7.1,1.1
				L374.2,244.1z M389.4,256.9c-4.4,0-7.4,0.4-9,1.3c-1.6,0.9-2.4,2.4-2.4,4.5c0,2,0.5,3.4,1.6,4.2c1.1,0.8,2.5,1.2,4.3,1.2
				c2.1,0,3.9-0.4,5.4-1.1L389.4,256.9z"/>
			<path id="XMLID_42_" class="st5" d="M37.3,347.9c-2.5,0-5.1,0-7.7,0.1l-0.1-1.3l3.8-1.2c0.5-0.2,0.8-0.5,0.8-1c0-0.8,0-1.8,0-2.8
				c0-1,0-2.2,0-3.4V313c0-1.1,0-2,0-2.9c0-0.9,0-1.6,0-2.3c0-0.5-0.3-0.9-0.8-1.1l-3.9-1.2l-0.1-1.3c2.7,0.1,5.3,0.1,7.8,0.1
				c2.1,0,4.1-0.1,6-0.2c1.9-0.1,3.9-0.2,6-0.2c7.3,0,12.8,1.7,16.4,5s5.5,8.3,5.5,14.8c0,7.7-2,13.7-6.1,18s-9.8,6.4-17.1,6.4
				c-2,0-3.8,0-5.4-0.1S39.2,347.9,37.3,347.9z M40.3,345.1c1.2,0.2,2.4,0.3,3.6,0.3c1.2,0.1,2.4,0.1,3.5,0.1
				c5.5,0,9.7-1.6,12.6-4.9s4.3-8.2,4.3-14.9c0-6.5-1.4-11.3-4.1-14.5c-2.7-3.1-7.1-4.7-13-4.7c-0.9,0-2,0-3.1,0.1
				c-1.1,0-2.4,0.1-3.9,0.2V345.1z"/>
			<path id="XMLID_45_" class="st5" d="M77.7,320.9c4.1-1.8,7.7-2.7,10.8-2.7c3.2,0,5.7,0.8,7.6,2.5s2.8,4.1,2.8,7.2l-0.2,13
				c0,1.1,0,1.9,0.1,2.6s0.3,1.1,0.6,1.5c0.3,0.3,0.8,0.6,1.4,0.7c0.6,0.1,1.4,0.2,2.4,0.2l0.2,1.2c-0.9,0.4-2,0.7-3.3,1.1
				c-1.3,0.4-2.2,0.5-2.6,0.5c-2,0-3.4-1-4.2-3.1c-2.9,2.1-5.7,3.2-8.3,3.2c-2.9,0-5.3-0.7-7.1-2.1s-2.7-3.4-2.7-6
				c0-3.2,1.4-5.6,4.3-7.1c2.9-1.5,7.4-2.3,13.5-2.3l0-2.4c0-2.3-0.6-4.1-1.8-5.2c-1.2-1.1-3.1-1.7-5.6-1.7c-1.9,0-4.3,0.4-7.1,1.1
				L77.7,320.9z M92.9,333.7c-4.4,0-7.4,0.4-9,1.3s-2.4,2.4-2.4,4.5c0,2,0.5,3.4,1.6,4.2s2.5,1.2,4.3,1.2c2.1,0,3.9-0.4,5.4-1.1
				L92.9,333.7z"/>
			<path id="XMLID_48_" class="st5" d="M134.9,324.3c0.3,1,0.4,2.1,0.4,3.4v11.2c0,2.4,0,4.4,0.1,5.9c0,0.6,0.3,0.9,0.8,1.1l3.2,0.9
				l0.1,1.3c-2.5-0.1-4.8-0.1-6.9-0.1c-2.1,0-4.3,0-6.8,0.1l-0.1-1.3l3-0.9c0.6-0.2,0.9-0.5,0.9-1c0-0.3,0-0.9,0-2v-13.6
				c0-2.6-0.6-4.4-1.7-5.5s-2.9-1.7-5.2-1.7c-2,0-4.1,0.6-6.2,1.8v13.7c0,2.6,0,5,0.1,7.2c0,0.6,0.2,1,0.7,1.1l3.3,1l0.1,1.3
				c-2.6-0.1-4.9-0.1-7-0.1c-2.1,0-4.5,0-7.3,0.1l-0.1-1.3l3.6-1.1c0.5-0.1,0.8-0.5,0.8-1c0-1.1,0-2.4,0-3.8v-10.7
				c0-2.7,0-5.3-0.1-7.6l-4.2-1.1l-0.2-1.1c3.4-0.7,6.7-1.4,9.9-2.2l0.3,0.2v3.6c3.4-2.6,6.7-3.8,9.7-3.8c3.8,0,6.5,1.4,8.1,4.3
				c3.3-2.9,6.9-4.3,10.7-4.3c2.9,0,5.2,0.8,6.8,2.5s2.5,4,2.5,7v11.1c0,2.6,0,4.6,0.1,5.8c0,0.6,0.3,0.9,0.8,1.1l3.5,1.1l0.1,1.3
				c-2.8-0.1-5.2-0.1-7.2-0.1c-2.1,0-4.4,0-6.8,0.1l-0.1-1.3l3.1-0.9c0.5-0.2,0.8-0.5,0.8-1c0-0.3,0-0.9,0-2v-13.6
				c0-2.6-0.6-4.4-1.8-5.5s-2.9-1.7-5.2-1.7C139.1,322.1,136.9,322.8,134.9,324.3z"/>
			<path id="XMLID_50_" class="st5" d="M161.6,320.4c3.6-0.7,7-1.4,10.2-2.2l0.3,0.2c-0.1,2.7-0.2,5.7-0.2,8.9v12
				c0,2.5,0,4.2,0.1,5.2c0,0.6,0.3,0.9,0.8,1.1l3.6,1.1l0.1,1.3c-2.9-0.1-5.3-0.1-7.4-0.1c-2.1,0-4.5,0-7.3,0.1l-0.1-1.3l3.6-1.1
				c0.5-0.2,0.7-0.5,0.8-1c0-0.8,0.1-2.2,0.1-4.1v-10.4c0-2.7,0-5.3-0.1-7.6l-4.2-1.1L161.6,320.4z M172.1,307.2c0,1.1-0.3,2-1,2.7
				s-1.6,1-2.7,1c-1,0-1.9-0.3-2.5-1s-1-1.5-1-2.6c0-1.1,0.3-2,1-2.7s1.6-1,2.7-1c1,0,1.9,0.3,2.5,0.9
				C171.8,305.2,172.1,306,172.1,307.2z"/>
			<path id="XMLID_53_" class="st5" d="M182,320.9c4.1-1.8,7.7-2.7,10.8-2.7c3.2,0,5.7,0.8,7.6,2.5s2.8,4.1,2.8,7.2l-0.2,13
				c0,1.1,0,1.9,0.1,2.6s0.3,1.1,0.6,1.5c0.3,0.3,0.8,0.6,1.4,0.7c0.6,0.1,1.4,0.2,2.4,0.2l0.2,1.2c-0.9,0.4-2,0.7-3.3,1.1
				c-1.3,0.4-2.2,0.5-2.6,0.5c-2,0-3.4-1-4.2-3.1c-2.9,2.1-5.7,3.2-8.3,3.2c-2.9,0-5.3-0.7-7.1-2.1s-2.7-3.4-2.7-6
				c0-3.2,1.4-5.6,4.3-7.1c2.9-1.5,7.4-2.3,13.5-2.3l0-2.4c0-2.3-0.6-4.1-1.8-5.2c-1.2-1.1-3.1-1.7-5.6-1.7c-1.9,0-4.3,0.4-7.1,1.1
				L182,320.9z M197.2,333.7c-4.4,0-7.4,0.4-9,1.3s-2.4,2.4-2.4,4.5c0,2,0.5,3.4,1.6,4.2s2.5,1.2,4.3,1.2c2.1,0,3.9-0.4,5.4-1.1
				L197.2,333.7z"/>
			<path id="XMLID_56_" class="st5" d="M210.4,320.4c3.5-0.7,6.8-1.4,9.9-2.2l0.3,0.2v3.6c3.6-2.6,7-3.8,10.1-3.8c3,0,5.3,0.8,7,2.5
				s2.5,4,2.5,7v11c0,2.6,0,4.5,0.1,5.8c0,0.6,0.3,0.9,0.8,1.1l3.5,1.1l0.1,1.3c-2.8-0.1-5.2-0.1-7.2-0.1c-2.1,0-4.3,0-6.8,0.1
				l-0.1-1.3l3.1-0.9c0.5-0.2,0.7-0.5,0.8-1c0-0.3,0-0.9,0-2v-13.6c0-2.6-0.6-4.4-1.8-5.5s-3-1.7-5.4-1.7c-2.1,0-4.3,0.6-6.5,1.8
				v13.7c0,2.6,0,5,0.1,7.2c0,0.6,0.3,0.9,0.7,1.1l3.3,1l0.1,1.3c-2.6-0.1-4.9-0.1-7-0.1c-2.1,0-4.5,0-7.3,0.1l-0.1-1.3l3.7-1.1
				c0.5-0.2,0.7-0.5,0.7-1c0-1.3,0-2.6,0-3.8v-10.7c0-2.7,0-5.3-0.1-7.6l-4.2-1.1L210.4,320.4z"/>
			<path id="XMLID_58_" class="st5" d="M262.9,348l-0.1-1.3l24.1-39.6h-18.4l-2.3,7.5l-1.3,0.2l-1.6-10.4l0.2-0.3
				c5.2,0.1,10.1,0.1,14.8,0.1h7.4c3,0,5.9,0,8.9-0.1l0.1,1.3l-24,39.6h19l4.2-8.4l1.4-0.2l-0.8,11.3l-0.2,0.2
				c-5.9-0.1-11.1-0.1-15.6-0.1h-7.5C268.2,347.9,265.5,347.9,262.9,348z"/>
			<path id="XMLID_60_" class="st5" d="M302.1,320.9c4.1-1.8,7.7-2.7,10.8-2.7c3.2,0,5.7,0.8,7.6,2.5s2.8,4.1,2.8,7.2l-0.2,13
				c0,1.1,0,1.9,0.1,2.6s0.3,1.1,0.6,1.5c0.3,0.3,0.8,0.6,1.4,0.7c0.6,0.1,1.4,0.2,2.4,0.2l0.2,1.2c-0.9,0.4-2,0.7-3.3,1.1
				c-1.3,0.4-2.2,0.5-2.6,0.5c-2,0-3.4-1-4.2-3.1c-2.9,2.1-5.7,3.2-8.3,3.2c-2.9,0-5.3-0.7-7.1-2.1s-2.7-3.4-2.7-6
				c0-3.2,1.4-5.6,4.3-7.1c2.9-1.5,7.4-2.3,13.5-2.3l0-2.4c0-2.3-0.6-4.1-1.8-5.2c-1.2-1.1-3.1-1.7-5.6-1.7c-1.9,0-4.3,0.4-7.1,1.1
				L302.1,320.9z M317.2,333.7c-4.4,0-7.4,0.4-9,1.3s-2.4,2.4-2.4,4.5c0,2,0.5,3.4,1.6,4.2s2.5,1.2,4.3,1.2c2.1,0,3.9-0.4,5.4-1.1
				L317.2,333.7z"/>
			<path id="XMLID_63_" class="st5" d="M326.9,318.9c3,0.1,5.2,0.1,6.6,0.1c2.1,0,4.4,0,7-0.1l0.1,1.3l-3.7,1
				c1.4,4.6,3.2,9.9,5.3,15.7c0.5,1.2,0.9,2.5,1.3,3.8c0.4-1.3,0.8-2.5,1.3-3.8c1.7-4.5,2.9-7.9,3.8-10.4c0.9-2.5,1.7-4.9,2.5-7.3
				l2.3-0.3c0.8,2.5,1.6,5,2.4,7.6c0.8,2.5,2,6,3.6,10.4c0.5,1.3,0.9,2.6,1.3,3.8c0.4-1.2,0.8-2.5,1.3-3.8
				c2.3-5.9,4.2-11.1,5.8-15.8l-3.5-1l-0.1-1.3c1.7,0.1,3.4,0.1,5.3,0.1c1.9,0,3.5,0,5.1-0.1l0.2,1.3l-2.5,0.7
				c-0.7,0.2-1.2,0.7-1.6,1.5c-2,4.7-3.7,9-5.2,12.8c-1.5,3.8-3.2,8.1-4.9,12.8l-2.8,0.3c-1.3-3.7-2.3-6.7-3.2-9s-1.8-4.8-2.7-7.5
				c-0.4-1.1-0.8-2.2-1.1-3.2c-0.3,1-0.7,2-1.1,3.1c-1.1,2.8-2,5.3-3,7.7s-2,5.2-3.2,8.6l-2.8,0.3c-1.8-4.9-3.4-9.3-4.8-13.1
				c-1.5-3.8-3.1-8.1-4.9-12.8c-0.3-0.8-0.8-1.3-1.6-1.5l-2.3-0.7L326.9,318.9z"/>
			<path id="XMLID_65_" class="st5" d="M377.7,320.9c4.1-1.8,7.7-2.7,10.8-2.7c3.2,0,5.7,0.8,7.6,2.5s2.8,4.1,2.8,7.2l-0.2,13
				c0,1.1,0,1.9,0.1,2.6s0.3,1.1,0.6,1.5c0.3,0.3,0.8,0.6,1.4,0.7c0.6,0.1,1.4,0.2,2.4,0.2l0.2,1.2c-0.9,0.4-2,0.7-3.3,1.1
				c-1.3,0.4-2.2,0.5-2.6,0.5c-2,0-3.4-1-4.2-3.1c-2.9,2.1-5.7,3.2-8.3,3.2c-2.9,0-5.3-0.7-7.1-2.1s-2.7-3.4-2.7-6
				c0-3.2,1.4-5.6,4.3-7.1c2.9-1.5,7.4-2.3,13.5-2.3l0-2.4c0-2.3-0.6-4.1-1.8-5.2c-1.2-1.1-3.1-1.7-5.6-1.7c-1.9,0-4.3,0.4-7.1,1.1
				L377.7,320.9z M392.9,333.7c-4.4,0-7.4,0.4-9,1.3s-2.4,2.4-2.4,4.5c0,2,0.5,3.4,1.6,4.2s2.5,1.2,4.3,1.2c2.1,0,3.9-0.4,5.4-1.1
				L392.9,333.7z"/>
			<path id="XMLID_68_" class="st5" d="M424.1,303c3.7-0.7,7.1-1.4,10.2-2.2l0.3,0.3c-0.1,4.5-0.2,9.3-0.2,14.4v17
				c0,2.9,0,5.7,0,8.5c0,1.1,0,1.9,0.1,2.6c0.1,0.6,0.3,1.1,0.5,1.5c0.3,0.3,0.7,0.6,1.3,0.7c0.6,0.1,1.4,0.2,2.4,0.2l0.2,1.2
				c-0.9,0.4-2,0.7-3.3,1.1c-1.3,0.4-2.2,0.5-2.6,0.5c-2.1,0-3.5-1.2-4.3-3.6c-3.2,2.4-6.4,3.6-9.4,3.6c-3.9,0-6.9-1.4-9.2-4.1
				s-3.5-6.1-3.5-10.1c0-5.2,1.5-9.2,4.6-12s7.3-4.3,12.8-4.3c1.3,0,2.8,0.1,4.5,0.4c0-4.6,0-9.1-0.1-13.4l-4.2-1.3L424.1,303z
				 M428.6,321.7c-1.4-0.4-2.9-0.7-4.6-0.7c-3.5,0-6.2,1-8.1,3s-2.8,5.1-2.8,9.2c0,3.6,0.8,6.4,2.5,8.5c1.6,2.1,4,3.2,7,3.2
				c1.9,0,4-0.5,6.1-1.6V321.7z"/>
			<path id="XMLID_71_" class="st5" d="M442.8,347.6c3.5-5.1,6.5-9.4,8.8-12.9c2.4-3.5,5.3-7.9,8.9-13.3h-12.2l-2,6.3L445,328
				c-0.5-3.3-1-6.2-1.6-8.8l0.1-0.3c4.3,0.1,8.4,0.1,12.3,0.1c4,0,8.2,0,12.5-0.1l0.2,0.3c-3,4.5-5.9,8.8-8.7,12.9
				c-2.8,4.1-5.7,8.5-8.8,13.3h12.4l3.9-6.5l1.3-0.2c-0.3,2.9-0.6,6-0.8,9.1l-0.2,0.2c-3.6-0.1-7.8-0.1-12.7-0.1
				c-4.4,0-8.5,0-12.1,0.1L442.8,347.6z"/>
			<path id="XMLID_73_" class="st5" d="M473.1,304.1l-0.2-1c3.7-0.7,7.1-1.4,10.2-2.2l0.3,0.3c-0.1,3-0.2,7.8-0.2,14.2v20.4
				c0,3.1,0,6.1,0.1,9.1c0,0.6,0.3,1,0.8,1.1l3,0.9l0.1,1.3c-2.5-0.1-4.8-0.1-6.8-0.1c-2.1,0-4.5,0-7.3,0.1l-0.1-1.3l3.7-1.1
				c0.4-0.1,0.6-0.5,0.7-0.9c0-2.4,0.1-5,0.1-7.9V324c0-10.8,0-17-0.1-18.7L473.1,304.1z M505.9,348c-2.8-0.1-4.9-0.1-6.2-0.1
				c-0.9,0-2.1,0-3.6,0.1c-0.8-1.3-1.7-2.6-2.8-4.1c-2.9-4-6-7.9-9.3-11.8l11.3-10.9l-3.5-1l-0.1-1.3c2.7,0.1,4.7,0.1,5.9,0.1
				c1.1,0,3.3,0,6.5-0.1l0.1,1.3c-2.1,0.5-3.6,1-4.5,1.4s-2,1.2-3.2,2.3l-6.7,6.2l10.1,12.6c1.1,1.4,2,2.3,2.6,2.8s1.7,0.9,3.2,1.2
				L505.9,348z"/>
			<path id="XMLID_76_" class="st5" d="M507.4,320.4c3.6-0.7,7-1.4,10.2-2.2l0.3,0.2c-0.1,2.7-0.2,5.7-0.2,8.9v12
				c0,2.5,0,4.2,0.1,5.2c0,0.6,0.3,0.9,0.8,1.1l3.6,1.1l0.1,1.3c-2.9-0.1-5.3-0.1-7.4-0.1s-4.5,0-7.3,0.1l-0.1-1.3l3.6-1.1
				c0.5-0.2,0.7-0.5,0.8-1c0-0.8,0.1-2.2,0.1-4.1v-10.4c0-2.7,0-5.3-0.1-7.6l-4.2-1.1L507.4,320.4z M518,307.2c0,1.1-0.3,2-1,2.7
				s-1.6,1-2.7,1c-1,0-1.9-0.3-2.5-1s-1-1.5-1-2.6c0-1.1,0.3-2,1-2.7s1.6-1,2.7-1c1,0,1.9,0.3,2.5,0.9
				C517.6,305.2,518,306,518,307.2z"/>
		</g>
	</g>
</g>
<g id="Pengtagram_x5F_circle">
	<g id="XMLID_160_">
		<circle id="LargeCircle" class="st6" cx="777.3" cy="280.9" r="188.8"/>
		<circle id="littleCircle" class="st7" cx="777.3" cy="280.9" r="162"/>
	</g>
	<g id="XMLID_2_">
		<path id="XMLID_4_" class="st8" d="M879.8,141.7l1-15.3l1.9,0l-0.8,14l13.1-4.9l0.8,2l-14.5,5.4l-2.7,3.7l3.4,2.5l-1.2,1.6
			l-8.5-6.2l1.2-1.6l3.5,2.6L879.8,141.7z"/>
	</g>
	<g id="XMLID_5_">
		<path id="XMLID_16_" class="st8" d="M616.7,338.9l-12.1,4.5l0.5,1.2l-4-1.1l2.3-3.5l0.4,1.2l12-4.6c-0.5-0.8-0.9-1.3-1.1-1.7
			c-0.3-0.4-0.5-0.7-0.6-0.9s-0.6-0.5-1.2-1.1c-1.3-1.3-2.8-1.7-4.4-1.1l-5,1.9l-2.3,0.9l0.4,1.1l-4-1l2.2-3.6l0.5,1.2l2.2-0.8
			l5-1.9c0.8-0.3,1.7-0.4,2.7-0.2c1,0.2,2,0.6,3.1,1.3c1.2,0.7,2,1.5,2.6,2.3s1.1,1.8,1.7,3l2.2-0.8l-1.6-4.1l1.7-0.6l1.6,4.1
			l1.8-0.7l0.9,2.2l-1.8,0.7l1.6,4.1l-1.7,0.6l-1.6-4.1l-2.2,0.8c0.2,0.9,0.4,1.6,0.6,2.2c0.1,0.6,0.2,1.3,0.2,2.1
			c0,0.8-0.1,1.6-0.4,2.5c-0.3,1.2-0.7,2.2-1.3,3c-0.6,0.8-1.4,1.3-2.3,1.7l-4.9,1.9l-2.3,0.9l0.5,1.3l-4.1-1.4l2.3-3.4l0.4,1.1
			l2.3-0.9l4.9-1.9c0.8-0.3,1.3-0.7,1.8-1.3c0.4-0.6,0.7-1.4,0.8-2.4c0.1-0.7,0.2-1.2,0.2-1.5s0-0.6-0.1-1.1
			C616.9,340.5,616.8,339.8,616.7,338.9z"/>
	</g>
	<g id="XMLID_154_">
		<path id="XMLID_155_" class="st8" d="M945.5,341.9l-3.8-1.4l-1.9,5l-1.4-0.5l1.9-5l-3.3-1.2c-1.1,1.5-2.3,1.9-3.7,1.4
			c-0.9-0.3-1.5-1-1.9-2c-0.3-1-0.3-2,0.1-3c0.3-0.9,1-1.7,1.9-2.4c0.9-0.5,1.8-0.6,2.7-0.3c1.5,0.6,2.2,1.8,1.9,3.8l3.3,1.2
			l1.8-4.8l1.6,0.6l-1.8,4.8l3.6,1.3c0.8-2,2-3.8,3.7-5.4c1.4-1.3,2.7-1.7,3.9-1.2c1.5,0.6,2.2,1.9,2.3,3.9c0.1,1.2,0.1,2.4-0.1,3.5
			c-0.1,1.1-0.4,2.2-0.8,3.3c-0.5,1.3-1,2.5-1.6,3.5c-0.6,1-1.2,1.9-1.9,2.6c-0.8,0.9-1.7,1.6-2.6,2.1c-0.9,0.5-1.6,0.7-2.3,0.5
			c-0.9-0.3-1.5-1.7-1.9-4.2c-0.1-0.9-0.2-1.9-0.1-2.9C945,344.1,945.2,343,945.5,341.9z M953.3,334.7c-0.5-0.2-0.9-0.1-1.4,0.2
			s-1.1,0.8-1.7,1.5c-1.1,1.1-2,2.6-2.7,4.4c-0.7,1.8-1,3.5-0.9,5.1c0.1,2.4,0.6,3.8,1.4,4.1c0.8,0.3,2-0.4,3.5-2.1
			c0.8-0.9,1.6-2.4,2.5-4.6c0.7-1.8,1-3.5,1-5.1c0-0.8-0.1-1.6-0.4-2.2S953.8,334.8,953.3,334.7z M951.8,337.1l1.2,0.5l-3.4,9.2
			l-1.2-0.5L951.8,337.1z M935.4,334.1c-0.5-0.2-1.1-0.2-1.7,0.1c-0.5,0.3-0.8,0.8-1,1.4c-0.2,0.6-0.3,1.2-0.1,1.7
			c0.1,0.5,0.5,0.9,1.2,1.2c0.6,0.2,1.1,0.2,1.7-0.2c0.5-0.3,0.8-0.8,1-1.3c0.2-0.6,0.3-1.1,0.1-1.6
			C936.4,334.7,936,334.3,935.4,334.1z"/>
	</g>
	<g id="XMLID_149_">
		<path id="XMLID_150_" class="st8" d="M669.7,141.4l0,4l7.7-5.1l-1.2-1.8l-6.7-10.1l2.2-1.5l6.8,10.2l1.1,1.7l2.1-1.4l1.3,2
			l-2.1,1.4l2.2,3.3l-2.2,1.5l-2.2-3.3l-11.5,7.7l-0.1-6.7l0.1-3.9c0-0.7,0-1.1,0-1.4c0-0.3-0.1-0.5-0.1-0.8
			c-0.1-0.3-0.1-0.5-0.1-0.6c-0.1-0.4-0.3-0.9-0.6-1.3c-0.3-0.5-0.7-0.8-1-1c-0.5-0.3-1-0.2-1.5,0.1c-0.3,0.2-0.5,0.5-0.7,0.7
			c-0.1,0.2-0.2,0.4-0.3,0.8c-0.1,0.3-0.4,0.9-0.6,1.5l-2-1.4c0.7-1.3,1.2-2.2,1.5-2.6c0.2-0.3,0.5-0.6,0.9-0.9
			c1-0.7,2.1-0.9,3.2-0.7c0.5,0.1,0.9,0.3,1.2,0.5c0.3,0.2,0.7,0.6,1.2,1c0.2,0.2,0.3,0.4,0.4,0.5c0.6,0.9,0.9,2.1,1,3.8
			C669.7,138.2,669.7,139.5,669.7,141.4z"/>
	</g>
	<g id="XMLID_8_">
		<path id="XMLID_148_" class="st8" d="M763.5,457.4c0-3.4,1.3-6.3,3.9-8.7c2.6-2.4,5.8-3.7,9.5-3.7c3.7,0,6.8,1.2,9.4,3.7
			c2.6,2.4,3.9,5.3,3.9,8.7c0,3.4-1.3,6.3-3.9,8.7c-2.6,2.4-5.8,3.7-9.4,3.7c-3.7,0-6.9-1.2-9.5-3.7
			C764.8,463.7,763.5,460.8,763.5,457.4z M765.9,457.4c0,2.8,1.1,5.1,3.3,7.2c2.1,2,4.7,3,7.8,3c3,0,5.6-1,7.8-3
			c2.1-1.9,3.1-4.3,3.1-7.2c0-1.4-0.3-2.7-0.8-3.9c-0.5-1.2-1.3-2.3-2.4-3.3c-2.2-2-4.8-3-7.8-3c-3.1,0-5.6,1-7.8,3
			C767,452.2,765.9,454.6,765.9,457.4z M775.4,457.4c0-0.4,0.2-0.7,0.5-1c0.3-0.3,0.7-0.5,1.1-0.5c0.4,0,0.8,0.2,1.1,0.5
			c0.3,0.3,0.5,0.6,0.5,1c0,0.4-0.2,0.7-0.5,1c-0.3,0.3-0.7,0.4-1.1,0.4c-0.4,0-0.8-0.1-1.1-0.4
			C775.5,458.1,775.4,457.8,775.4,457.4z"/>
	</g>
</g>
<g id="pentagram">
	<g id="XMLID_446_">
		<g id="XMLID_543_">
			<g id="XMLID_434_">
				<g id="XMLID_445_">
					<g id="XMLID_448_">
						<g id="XMLID_449_">
							<path id="XMLID_536_" class="st9" d="M684.7,158.4c-1.8-1.3-1.4-0.5-1.7-0.6C686,159.8,684.7,158.2,684.7,158.4z"/>
							<polygon id="XMLID_535_" class="st9" points="714.6,178.8 714,178.6 718.6,181.3 							"/>
							<path id="XMLID_534_" class="st9" d="M742.1,198.6c-2.2-2.5-10-7.1-14.8-10.8l-0.7-0.7l-2.5-1.1
								C730.1,190.2,738,195.4,742.1,198.6z"/>
							<path id="XMLID_533_" class="st9" d="M755.8,210.5c-0.7-0.9,3.3,2.1-3.4-2.5c0.3,0.3,0.4,0.3,0.6,0.5
								C753.6,208.9,754.5,209.4,755.8,210.5z"/>
							<path id="XMLID_532_" class="st9" d="M753.1,208.4C750.2,206.3,754.8,210,753.1,208.4L753.1,208.4z"/>
							<path id="XMLID_531_" class="st9" d="M766.5,217.9l-4-2.5c0.7,0.7,4.1,3.2,2.7,2.4C769.3,220.5,768.6,219.8,766.5,217.9z"/>
							<path id="XMLID_530_" class="st9" d="M770.4,220.1l-2-1.3C768.7,219.1,769.2,219.5,770.4,220.1z"/>
							<path id="XMLID_529_" class="st9" d="M764.1,215.9l4.3,2.8c-0.5-0.5-0.4-0.7-2-1.3C766.9,217.5,765.9,217.1,764.1,215.9z"/>
							<path id="XMLID_528_" class="st9" d="M761.8,214.1c-2-1.7-4.8-3.7-0.8-1.2C753.6,207.8,754.4,209,761.8,214.1z"/>
							<path id="XMLID_527_" class="st9" d="M743.9,199l-2.7-2.2l-2.6-1.6C739.9,196,744,199.4,743.9,199z"/>
							<path id="XMLID_526_" class="st9" d="M790,235.4c0.3,0-1-1.3-1.2-1.6l-2.9-1.9C787.3,233,790,235,790,235.4z"/>
							<path id="XMLID_525_" class="st9" d="M788.8,233.8l4.4,2.8C789.4,233.8,788.7,233.4,788.8,233.8z"/>
							<polygon id="XMLID_524_" class="st9" points="771.6,220 764.3,215.4 772.9,220.9 							"/>
							<polygon id="XMLID_523_" class="st9" points="806.1,247 803.5,245.6 808.1,248.2 							"/>
							<path id="XMLID_522_" class="st9" d="M816.8,254.6c-1.9-1,2.1,2.1,0.2,0.9c2.9,2,5.6,3.6,7.9,5.1
								C822.5,259,820,257.2,816.8,254.6z"/>
							<path id="XMLID_521_" class="st9" d="M828.8,263.1c-1.2-0.8-2.5-1.6-3.9-2.4C826.2,261.5,827.5,262.3,828.8,263.1z"/>
							<path id="XMLID_520_" class="st9" d="M800.3,241.8c0.3,0.3,0.8,1,3.1,2.7L802,243C801.5,242.7,800.9,242.2,800.3,241.8z"/>
							<path id="XMLID_519_" class="st9" d="M801.9,243L801.9,243c1.8,1.4,3.1,2.3,3.6,2.7C805.1,245.3,804,244.5,801.9,243z"/>
							<path id="XMLID_518_" class="st9" d="M799.9,241.5c0.2,0.1,0.3,0.2,0.4,0.3C800.2,241.7,800.1,241.6,799.9,241.5z"/>
							<path id="XMLID_517_" class="st9" d="M782.4,228.2c2.6,1.6,7.9,5.1,3.1,1.2C783.6,228.4,786.3,230.6,782.4,228.2z"/>
							<path id="XMLID_516_" class="st9" d="M798.2,239.6l-4.4-3.3c0,0.2,0.7,0.9-0.6,0.1L798.2,239.6z"/>
							<polygon id="XMLID_515_" class="st9" points="800.4,241.1 798.2,239.6 799.8,240.8 							"/>
							<path id="XMLID_514_" class="st9" d="M821.4,257.2c2,1.2,4.2,2.8,6.6,4.5c-2.5-1.9-5.1-3.9-7.6-5.7
								C819.9,255.9,818.7,255.3,821.4,257.2z"/>
							<path id="XMLID_513_" class="st9" d="M812,250.3c0.1,0.1,0.3,0.2,0.4,0.3C812.2,250.3,812,250.2,812,250.3z"/>
							<path id="XMLID_512_" class="st9" d="M851.5,278.6c-0.1-0.1-0.2-0.2-0.3-0.3c0,0-0.1,0-0.1,0L851.5,278.6z"/>
							<path id="XMLID_511_" class="st9" d="M820,255.6c-1.9-1.5-3.1-2.2-4.3-2.9c1.5,1,3,2.1,4.6,3.3
								C820.5,256.1,820.6,256.1,820,255.6z"/>
							<path id="XMLID_510_" class="st9" d="M835.5,267.7c-0.9-0.8-2-1.7-3.2-2.6C833.2,265.9,835.1,267.5,835.5,267.7z"/>
							<path id="XMLID_509_" class="st9" d="M813,251.1c-0.1-0.1-0.2-0.1-0.3-0.2C813.3,251.5,813.2,251.4,813,251.1z"/>
							<path id="XMLID_508_" class="st9" d="M813,251.1c1,0.7,1.9,1.1,2.7,1.6c-1.2-0.8-2.3-1.6-3.3-2.2
								C812.6,250.8,812.8,251,813,251.1z"/>
							<path id="XMLID_507_" class="st9" d="M860.2,281.6c-0.6,0.1-5.8-3.3-10-6.8c-4.5-2.9-2.4,0.2,0.9,3.5c0.2,0,0.3-0.2,4.9,2.8
								c-1.4-1.3-9.5-7.5-5.6-5.1c6,4.1,4.7,3.6,7.4,5.8c-2.1-2.1,7.9,4.8,7,3.3l-5.3-3.5C859.6,281.5,861.6,282.7,860.2,281.6z"/>
							<path id="XMLID_506_" class="st9" d="M842.8,272.2l-1.8-1.3c2,1.6,3.4,2.8,6,5c3.1,2,3.9,2.4,4.1,2.4l-8.9-6.5L842.8,272.2z"
								/>
							<path id="XMLID_505_" class="st9" d="M832.7,265c1.7,0.7,6.2,3.7,3.7,1.4c-5.4-3.8-4-2.4-7.3-4.6
								C837.9,268,826.6,260.3,832.7,265c-1.8-1.3-3.3-2.3-4.8-3.4c1.5,1.2,3,2.3,4.3,3.4c-0.1-0.1-0.1-0.1-0.2-0.2l0,0l0,0
								c-0.3-0.3-0.4-0.4,0-0.1c0,0,0.1,0.1,0.2,0.1C832.3,264.9,832.5,265,832.7,265c2.4,1.9,0.3,0.4-0.5-0.1c0,0-0.1,0-0.1,0
								c0,0,0,0,0,0l8.8,6C839.1,269.6,836.8,267.9,832.7,265z"/>
							<path id="XMLID_504_" class="st9" d="M790.7,232c0.2,0.2,0.2,0.2,0.2,0.3C791.5,232.7,791.7,232.8,790.7,232z"/>
							<path id="XMLID_503_" class="st9" d="M794.1,234.8c-0.7-0.4-1.3-0.6-3.3-2.1c-1.7-1.4,0.1-0.2,0.1-0.3
								c-1.3-0.8-4.5-2.9-0.8,0.1l0.6,0.4c3.4,2.6,7.5,6.3,6.9,5.9C796.9,237.6,796.2,236.8,794.1,234.8z"/>
							<path id="XMLID_502_" class="st9" d="M813.7,250l7.3,5l-3.4-2.9l0.1,0.3C813.6,249.4,814.3,250.2,813.7,250z"/>
							<polygon id="XMLID_501_" class="st9" points="852.2,279.4 851,279.1 855.5,281.6 							"/>
							<polygon id="XMLID_500_" class="st9" points="861.6,286.1 861,286.2 863.6,287.8 							"/>
							<path id="XMLID_499_" class="st9" d="M847.6,168l2-1.6C848.6,167.1,848,167.6,847.6,168z"/>
							<path id="XMLID_498_" class="st9" d="M832.2,179l-0.3,0.4C832.6,178.8,832.9,178.6,832.2,179z"/>
							<path id="XMLID_497_" class="st9" d="M721.4,327.2c-3.8-0.4-8-0.9-7.6-0.5l1.2,0.4C717.7,327.1,719.7,327.1,721.4,327.2z"/>
							<path id="XMLID_496_" class="st9" d="M708.3,271.3c-0.3,0.2-0.6,0.4-1,0.5c-0.7,0.7-1.3,1.3-1.8,1.8
								C706.3,272.9,707.3,272.1,708.3,271.3z"/>
							<path id="XMLID_495_" class="st9" d="M709.4,268.2l4.2-2.7C712.6,266.1,711.3,267,709.4,268.2z"/>
							<path id="XMLID_494_" class="st9" d="M847.4,230.4l-0.5,3C848.4,228.9,847.5,230.9,847.4,230.4z"/>
							<path id="XMLID_493_" class="st9" d="M886.3,327.3c-3.3-0.2-5.9-0.2-8.2-0.3C882.1,327.3,885.3,327.7,886.3,327.3z"/>
							<path id="XMLID_492_" class="st9" d="M844.2,176.1c1.2-1,1.7-1.5,1.7-1.5C844.6,175.6,843.9,176.2,844.2,176.1z"/>
							<path id="XMLID_491_" class="st9" d="M868.7,327.1c0.6,0,1.1,0.1,1.7,0.1c2.4-0.1,4.8-0.1,7.7-0.1
								C875.3,326.9,871.9,326.8,868.7,327.1z"/>
							<path id="XMLID_490_" class="st9" d="M725.9,289.6c-0.1-0.3-0.2-0.6-0.2-0.8C725.6,288.8,725.8,289.1,725.9,289.6z"/>
							<path id="XMLID_489_" class="st9" d="M696.3,184.9c0.4,1,0.9,2.7,1.4,4.2C697.5,188.3,697.1,187,696.3,184.9z"/>
							<path id="XMLID_488_" class="st9" d="M899,313.4C897,312,898.7,313.2,899,313.4L899,313.4z"/>
							<path id="XMLID_487_" class="st9" d="M890.4,305c0.4,0.3,0.8,0.4,0.9,0.4C891.1,305.4,890.8,305.3,890.4,305z"/>
							<path id="XMLID_486_" class="st9" d="M844.4,329.8c-0.1,0-0.1,0-0.2,0C844.9,329.8,844.8,329.8,844.4,329.8z"/>
							<path id="XMLID_485_" class="st9" d="M896.2,311.1c0.7,0.6,1.5,1.2,2.5,1.9C898.2,312.7,897.5,312.1,896.2,311.1z"/>
							<path id="XMLID_484_" class="st9" d="M896.4,311.5c-0.7-0.5-1.2-0.9-1.7-1.3C894.5,310.1,894.6,310.3,896.4,311.5z"/>
							<path id="XMLID_483_" class="st9" d="M901.8,315.4c-1.1-0.8-2.2-1.6-3.2-2.4c0.4,0.3,0.5,0.4,0.4,0.4
								C899.6,313.8,900.4,314.4,901.8,315.4z"/>
							<path id="XMLID_482_" class="st9" d="M791.8,394.6c-0.1,0.1-0.1,0.3-0.2,0.5C791,397.5,791.3,396.5,791.8,394.6z"/>
							<path id="XMLID_481_" class="st9" d="M657.8,331.7c0.1,0,0.2,0,0.3,0C658,331.7,657.9,331.7,657.8,331.7L657.8,331.7z"/>
							<path id="XMLID_480_" class="st9" d="M649.1,332c3.7-0.5,5.9-0.5,8.7-0.4l-2.9-1.3L649.1,332z"/>
							<path id="XMLID_473_" class="st9" d="M865.2,175.4l2.3-5.7c-1.7,7.3-3.6,12.3-1.3,7c-0.4-0.5,0.6-3.9,1.9-8.1
								c1.1-3.5,2.4-7.3,3.5-10.9c1.2-3.8,2.4-7.4,3.1-10c-3.2,2.4-5.3,4.2-6,5l-5.2,3.4c1.6-1.1,1.9-1.4,3.5-2.6
								c-2.6,1.7-4.6,3.1-6.1,4.2c-0.8,0.6-1.4,1.1-2,1.6c-0.3,0.2-0.6,0.5-0.8,0.7c-0.2,0.1-0.2,0.2-0.3,0.3l-0.2,0.2
								c-1.2,1.3-2.7,2.8-6.9,5.7c-2.9,2-5.1,3.3-3.2,1.7l-6.2,4.9c-1.9,1.3-1.6,0.8,0.3-0.5l-9.7,7.1l0-0.1c-1.3,1.2-4.2,3.7-5.7,5
								c-2.6,1.6,1.2-1,0.4-0.7l-5.2,4.2c-2.4,1.3,1.9-2.2,5.6-4.9c-5.8,2.5-4.3,3.5-15.7,10.7l5-3.8c-3.7,1.8-7.6,4.9-13.6,8.6
								c1.5-0.8,12.3-7.4,6.6-2.9c-1.7,1.1-3.9,2.6-6.9,5.2c-0.3-0.4-3.3,2-7.2,4.8l-0.1-0.7c-4.1,3.2-3.6,3.2-5.9,5.2
								c-4.7,3.3-6,3.6-7.3,4.1c-7.5,5.3,5.6-3.1-3.1,3.4c-6.4,4.3-10.6,7.6-17.8,13.3c-4.5,3,0.5-0.9-1.1,0.1l-3.6,3.2
								c-1,0.7-0.7,0.3-0.6,0.1c-3.1,2.5,0.1,0.7-4.9,4.5c-1,1.6-11.1,6.7-16.9,11.9c-1.7,1,0.5-0.9-0.1-0.7
								c-8.4,6.7-7.2,5.7-13.9,11.4l-6.3,4c4.7-2.8-0.6,1.7-5.3,5.7c1.7-1,3.2-1.8,4.2-2.3l-7.8,6c-1,0.6-0.3-0.1,0.8-1.3
								c-0.5,0.4-1,0.9-1.4,1.2c-3,1.9-1.7,0.5,0.1-1.3c1-0.6,2.1-1.2,3.1-1.7c1.7-1.7,3.3-3.4,2.7-3.4c-0.5,0.4-1.4,1.2-2.5,2
								c0.5-0.5,0.7-0.8,0.5-0.7c-0.3,0.1-1.1,0.9-2.3,1.9l-2.2,0.7l-0.3,0.5l-10.7,7.2c-7,6-12.9,11.5-24.6,20.3
								c2.6-2.5,0.1-1.1-0.1-1.8c3.6-1.8,9-6.8,15.2-11.1c-3.2,2.3-2.7,1.5-2,0.8l-10.6,8.4c-0.1-0.6-2.5,1.4-5.5,3.3
								c2.7-0.7-7.8,6.4-12,9.9c-0.5-0.1,0.4-1.1,5.9-5c-6.4,3.7-7.1,6.5-13.3,10.3c1.3-1,2.1-1.4,2.5-2c-2.9,2.5-10.6,7.7-9,6.2
								l1.3-1c-2.1,1.5-4.7,3.3-7.4,5.3c-3.4,2.4-7,5.1-10.5,7.6c6.3,0,12.3-0.1,16.6-0.3c0.4,0,0.8,0,1.2-0.1c0.4,0,0.7,0,1.1-0.1
								c0.7,0,1.3-0.1,1.8-0.1c1-0.1,1.7-0.2,1.9-0.3c0.1,0.1-1.4,1-2.1,1.2l19.4-2.9c-1.7,0.7,4.8,2.5-4.2,2.9
								c2.6,0.1,5.8,0.2,11.2,0c-1.8-0.1-4.4-1.1-2-1.1c6.6,0.8,4.6,0.4,12.7,1.1c-2.6-0.2,0.3-1.3,4.5-1.3
								c-0.7,0.2,0.3,1.1-1.2,1.2l10.4-1.1c-2.6,0.2-0.5,1,1.9,1.3c-1.1-0.2,9,0,11.8-0.1l-4.4-0.3c11.7,0.2,11.6-1.6,23.2-1.5
								c-1.4,0.2-3.5,1.4,2.4,1.6c2.7-0.6,12-2.8,22.3-3.2l2,0.3l7.9-0.4c-4.9,0.9-18.7,2.7-26.3,3.4c4.4,0.3,1.2,0.4,7.8,0.4
								c2.3,0.3-3.6,0.5-5.5,0.5l15.3,0.2c-0.7-0.7,11.7-0.7,11.1-1.2l-16.6,0.7c-0.7-0.7,9.6-1.9,20.5-1.8c2.8,0.3-2.1,1.2-1.8,1.4
								c1.4-0.2,10.3-0.4,11.3-0.3l-4.6,0.4c6,0.3,9.9-0.9,17.1-0.2c2.5,0,7.5,0.9,7.9,0.5c-4.1-0.8-4.9-3.1-2.2-3.7
								c0.9,0.1,13.1,0.7,16,1.1c4.1,0.6-6.2,1.4-2.7,2c0.2-0.2,2.4-0.4,3.4-0.5c2.6,0.2-1.1,0.6,4.6,0.5c1-0.7,11.6,0.1,2.7-0.6
								c5.6-0.2,5.9,0.1,12.5,0.1c-2.1-0.4,5.9-1.5,11.5-1.7c-0.3,0.2,0.9,0.4,1.5,0.5c11.5,0.1,17.6,0.4,28.3,0.4
								c1,0.2,6.1,0.4,3.9,0.7c1.5-0.1,2.9-0.4,6.2-0.4c6.4,0.6-7.3,0.1-2.5,0.8c0.4-0.4,8.5-0.5,13.2-0.8
								c-1.4-0.6-10.8-0.1-15.5,0.1c0-0.8,8.2-1.7,19.3-2.1c8.9-0.2,3.8,0.5,5.4,0.4c3.6,0,6.4,0,8.6-0.1c1.1,0,2-0.1,2.9-0.2
								c0.7-0.1,1.2-0.1,1.6-0.2c0.7-0.1,1.4-0.2,2.2-0.4c0.7-0.1,1.4-0.2,2.6-0.1c-0.5-0.4-1-0.8-1.6-1.3c-0.7-0.8-0.5-1,0.2-0.8
								c0.7,0.2,1.9,0.8,1.8,0.5c1.9,1.3,3.4,2.4,4.6,3.3c-1.9,0-3.7-0.1-5.3-0.2c-1.6-0.1-2.9-0.1-4.4-0.1l5.7,0.3
								c-1.7,0.2-6.5,0.3-9.1,0.2c1,0.1,2.8,0.2,5.2,0.2c2.5,0,5.6,0,8.9,0.1c-3.7-2.7-7.8-5.7-11.8-8.6c-3.9-2.8-7.6-5.6-10.5-7.8
								c-2-1.2-5.3-3.3-3.9-2.1l3.3,2.3c2.8,2.5-6.6-4-2.5-0.8c-4.6-2.9-9.8-6.1-15.9-10.8l-0.8-1.3c0,0.2,3.9,3.2,5.7,4.3
								c-2.8-1.7-9.1-7.6-12.4-9l4.1,3.5c-4.6-3-10.5-6.4-15.9-10.5c2.2,2.3,1.3,0.9,4.8,4.3c-2.9-3.2,14.1,10.2,9.2,5.5
								c3.5,3.6,6.8,5.3,11.6,9.7c0-0.3-1.6-1.7,2.9,1.8c0.2,0.1,0.8,0.4,1.1,0.6c0.1,0.1,0.2,0.1,0.3,0.2c-0.1-0.1-0.2-0.1-0.2-0.2
								c0.2,0.1,0.2,0.1-0.1-0.1c-1.1-0.9-1.9-1.6-2.2-2c2.6,1.3,9.9,6.6,12.6,8.2c2.7,2.1-1.3-0.6,0.1,0.6l3.9,2.4
								c0.1,0.6,6.9,5.9,0.2,1.4l5,3.6c0.7,0.7,1.2,1.2,1.9,1.7c-0.3,0-0.5,0-0.6,0.1c-0.6,0-0.9,0.1-1.3,0.2
								c-0.4,0.1-0.5,0.2-0.2,0c0,0-0.2,0-0.5,0c-0.1,0-0.2,0-0.3,0l-0.2,0c-0.2,0-0.3,0-0.5,0c-0.7,0-1.4,0-2.1,0.1
								c-2.8,0.1-5.6,0.1-5.6,0.1l-0.1-0.1c-11.1-0.1-22.9,0.7-35.6-0.1c-3.7,0.1-7.6,0.3-13.9,0.1l-1.2-0.4
								c-4.8,0.1-14.4-0.4-16.5,0c-5.2-1-23.4-0.2-31.8-0.4l-0.3,0.5c-5.8,0-11.4,0.1-18.6,0.3l0.4,0.4c-6.2,0.4-16-0.3-25.9-0.3
								c0.7-0.2,3.2-0.1,4.9,0c-11.8-1-24.9,0.7-35.5,0c-2.7,0.2-4.6,0.1-6.5,0c0.2,0,0.5,0,0.7,0c-0.3,0-0.7,0-1.1,0
								c-1.2-0.1-2.4-0.2-3.7-0.2c1.1,0.1,2.2,0.2,3.1,0.2c-2.1,0-5.2,0.1-8.2,0.2l-1.3-0.5c-0.2,0-0.4,0-0.7,0
								c-3-0.2-2.4,0.2-0.8,0.6c-1.5,0.1-2.9,0.2-4,0.3c-2.4-0.8-8,0.3-11.3-0.6c-2.1,0.4-15.3,0.3-17,1.2c-0.1-0.1-1-0.2,0.6-0.2
								c-3.4-0.1-6.8-0.2-9.9,0l-1.4-0.6l-7.4,0.8c-4.5-0.4-6.4-0.6-1.9-1.1c-10.8,0.7-8.8,0.3-18,1l0.4-0.4c-0.8,0-1.8,0-2.8,0.1
								c-0.5,0-1,0.1-1.5,0.1c-0.3,0-0.7,0.1-1,0.1c-1.4,0.1-2.8,0.1-3.2,0c-0.7-0.1-1.7-0.2-3-0.3c1.6-1.1,3.4-2.3,5.2-3.6
								c3.1-2.2,6.4-4.6,9.9-7.1c7.3-5.3,15.1-10.8,21.6-15.1c-3.7,1.2,7.4-4.7,7.5-5.9c1.1-0.4,3.3-1.8,0.9,0.1
								c7.7-5.9,12-8.1,17-12.6c1.1-0.4-1.4,1.5-0.5,1.1c0.6-0.5,2.3-2,3.3-2.4c0.9-0.4-1,1-2.2,2c8-5.8,8.3-7.1,8.4-8.1
								c4.3-2.6,6.3-4.1,8.9-6.6c1.6-0.8,4.1-2.3-0.8,1.4c2.8-2,17.3-12,17.2-12.7c1-0.5,3.9-2.8,4.6-3.4c6.3-4.5,6.9-4.8,13-9.3
								l-1.8,1.1c2-2.4,5-3.8,9.9-7.5l-0.1,0.2c11.7-7.8,4.8-3.8,16.3-11.3l-0.9,0.1c0.4-1.6,10.3-6.7,16.6-11.7l-2.5,1.5
								c3.3-2.9,10.8-6,14.4-8.5c0.8-0.5-1.1,1-2.2,1.8c9.7-6.2,0.8-1.4,7.7-6.5c1.5-0.7-1.2,1.9,3.6-1.4c2.5-1.5,13-10.7,19.7-14.8
								c-1.6,0.8-3.1,1.6,0-0.9c4.9-3.7,14-8.9,18-12.8c0.7-0.4,1-0.5,1-0.5c3.7-2.9,12.1-9.2,14.1-11.2c1.6-0.3,3.1-1.4,5.9-3.6
								c-0.3,1-0.5,2-0.8,3c-0.3,1.1-0.6,2.2-0.9,3.2c-0.1,0.3-0.2,0.7-0.3,1c-0.1,0.3-0.2,0.7-0.3,1c-0.2,0.6-0.4,1.2-0.6,1.6
								c-0.4,0.9-0.7,1.4-0.9,1.3l-4.4,13.7l0-0.4c-3,8.7-3.6,11.9-4.3,15.1c-0.8,2-0.4,0.5-0.4,0.3c-4.5,12.7-4.8,14-7.6,24.9
								l-0.8,1c-0.7,3-6.8,18.2-10.4,30.9c0-0.1,0-0.4,0.2-1.4c-4.1,14.3-12.4,33.3-12.4,39l-2.6,9.4c4.1-12,0.2,2,2.1-2.8
								c-1.5,4.8-4.5,12.1-2.7,6.2l0.4-0.9c-0.2-2.4-5.2,14.8-5.7,14.3c-7.7,23.7-15.8,46.6-23.2,68.7l1.5-2.3l-2.6,7.7
								c-0.8,2-1.4,2.5,0.4-3c-1.3,2.8-2.7,9.4-2.6,9.6c-3.8,10.7,0.6-4.5-0.5-1.2l-1.4,4.5l0.4-1c-0.9,3.7-0.7,4.2-2.9,10.8
								c-1.5,4.1-1.1,2-1.7,3.7c0,0-0.3,0.5-0.9,2.5l-2.3,6.9c0,0,0.2-0.2,0.5-0.5c0.3-0.3,0.6-0.8,0.6-0.8c-0.3,1.4-0.8,2.8-1,3.6
								c-0.1,0.4-0.2,0.7-0.1,0.8c0,0.1,0.2,0,0.5-0.6c-0.4,0.6-0.8,1.6-1.3,2.8c-0.6-2.1-1.2-4.2-1.9-6.3
								c-1.1-3.3-2.2-6.8-3.3-10.1c-2.3-6.9-4.3-12.9-4.7-14.6c-2.4-5.9-4.3-11.9-6.7-19.3c0.5,1.9,0.2,3.2-1.8-3.2
								c2,1.9-3.3-11.9-4-17.3c0.9,4.8-6.1-18.1-4.6-10.6c-1.6-5.4,0.4-0.5-0.6-4.6c-4.6-12.5-8.8-28-14.1-43.6
								c-0.2-0.2,0.4,2.5-1-0.8l-1.9-8.5c-1.1-3.1-1.9-2.5-3.2-8.4c0.1,0.8,0.3,2.1-0.4,0c-9.2-30.9-21.1-62.5-29.8-94.1
								c1.1,4.3,0.1,1.5-1-1.7c0.6,2.1-0.4,0.1-0.5,0.6l-3.6-13.2c-1.4-2.2-4.6-14-5.7-15.1l1.5,4.1c-2.5-5.3,0.9,8.2-0.2,7.7
								c2.8,5.9,4.1,16.6,8.6,26.3c0.5,2.3-0.9-1.8-0.7-0.5c1.2,2.4,2.3,5.5,4,11.3l-0.3-0.6c5.3,16.1,7.2,23.1,12.9,41.2l0-1.5
								c1.2,3.9,1.3,4.8,1.8,6.6c2.1,4.2-3.5-10.9-1.4-7.1c0.8,5.4,8.9,27.4,9,31.2c1.9,6,0-1.9,1.9,4.1l0.2,1.7l0.9,1.4
								c1.2,3.9,1.5,6,1.3,6.3c-0.3-1-0.9-2.7-1.3-3.7c1.3,5.2,4.8,14.3,5.3,16.1l-1.7-5.8c5.6,16.2,11.7,36.2,17.4,51.8l-0.2-1.3
								c4.3,11.9,2.9,9.7,7.4,22.9l-0.2-0.5c1.1,2.6,2.3,6.1,3.5,9.7c-1.3-3.3,1.6,6.4-0.1,2.1c4.7,12.9,2.4,6.3,6,14.7l0.3,2.1
								c1.3,2.8,1.5,3,3.8,9.6c-2.1-5.3,0.8,4.4-1.5-1.5c1.9,7,3.7,12.1,5.3,16.3c0.5,1.5,1,2.8,1.5,4.2c0.5,1.3,0.9,2.6,1.3,3.9
								c0.8,2.5,1.5,5.1,2.3,8.4c0.2,0.4,0.3,0.6,0.4,0.7c0.4-1.8,0.3-1.9,0-1.2c-0.6-2.2-1.9-6.2-2.9-9.4c-1-3.2-1.8-5.5-1.1-3.7
								c-0.5-2.1,0.2-0.5,1.1,1.9c0.9,2.4,2.1,5.6,2.9,8.3c0.1-0.2,0.1-0.3,0.2-0.4c0.8-2.5,1.6-3.8,3-7.1c0.3-0.8,0.7-1.7,1.2-2.8
								c0.4-1,0.8-2.1,1.3-3.3c0.7-1.9,1.6-4.1,2.5-6.9c-0.4,1.1-0.3,1.2-0.7,2.3c1.6-4.1,2.3-8.3,4.4-13.2c0.4-3.1,2.2-6.6,1.7-7.7
								l-3.2,10.2c1.7-5.8,2.6-11.6,6.2-20.9c-0.1,0.8-0.8,3.7-1.4,5.7c1.1-2.7,1.6-5.4,2.8-8.2c0.5,1.1-3.9,12.4-5.4,18.8
								c1.3-2.9,3.3-11.9,3.1-8.5c0.4-4.8,3.7-10.9,5.4-18.7l0.3,0.6c0.3-1.2,0.9-3.8,1.7-5.9l-0.7,4.2c1.5-6.3,4.3-11.6,6-17.5
								c-4,12.2-1.4,2.6-3.5,7.6c4.4-15.3,4-8.3,9.4-25.3c-0.7,2.3-3.1,8.5-2.1,4.9c1.2-3.2,2.7-7.4,3.6-9.3c3.6-11.2-1,1.6,0.3-3.3
								c1.8-3.6,1.6-5.6,3-10.5l0.5,0.1c4.5-12.7,0.2-3.7,4.3-15.1l-1,5.1l1.8-6l0.1,1.4c1.8-6.6,2.5-8.6,4.8-15
								c-0.8,1.4-0.6-1.1,1.3-6.8c1.5-3.8-0.3,2.3,2.3-5.7c-0.3,1.9-0.6,4-2.2,7.3c0,0.4-0.3,1.9-0.3,2.3c1.7-4,3.5-10.4,4.5-13.3
								c-0.4,1.1-0.8,2.4-1.1,3.1l3.2-11.8c0.8-1.8,0.4-0.3,0.1,1.2c0.7-2.4,1-4.1,2.1-7.5c0.1,1,0.5,0.9-0.9,5.9l3.2-11.2
								c0.4-0.7,2.3-5.5,2-4c2.2-6.1,4.2-15.3,7.2-23.3c0.1-0.4,0.3-1.3,0.8-3.1c2.6-7.6,5.3-14.2,7.8-23.5l2.4-4.9
								c2.2-7.1-3.1,6.7,0.5-5.2c2.5-8.4,1.6-2.9,2.7-5.8c1-4.3,2.7-11.7,5.8-19.2C866.7,171,865.9,173,865.2,175.4z M809.6,195.6
								c1.4-1.1,4.1-3.5,5.3-4C813.6,193.3,812.2,194,809.6,195.6z M696.7,278.4c1-0.9,2.7-2,4.7-3.2
								C700.1,276.2,698.5,277.3,696.7,278.4z M917.5,326.2c0,0,0.1,0,0.1,0.1c0.4,0.4,0.5,0.5,0.5,0.5
								C918.1,326.7,917.8,326.5,917.5,326.2z M914.4,323.7c-0.7-0.4-0.7-0.3-0.5-0.1c0.3,0.1,0.8,0.5,1.4,0.9
								c0.3,0.2,0.6,0.4,1,0.7c0-0.1-0.1-0.2-0.3-0.4c-0.1-0.1-0.3-0.2-0.4-0.3C915.2,324.3,914.8,324,914.4,323.7z M780.5,418.4
								l0.6-1.5C780.1,420.4,780.3,419.4,780.5,418.4z"/>
							<path id="XMLID_472_" class="st9" d="M709.2,268.6c0.5-0.2,0.6-0.2,0.8-0.2C710.5,267.9,710.5,267.8,709.2,268.6z"/>
							<path id="XMLID_471_" class="st9" d="M847.5,229.9l-0.1,0.3c0,0.2,0,0.2,0,0.3L847.5,229.9z"/>
							<path id="XMLID_470_" class="st9" d="M811.4,331.7c-1.7-0.1-2.7-0.2-3.3-0.2C808,331.5,808.8,331.6,811.4,331.7z"/>
							<path id="XMLID_469_" class="st9" d="M878.4,298.8l4.4,3c-2.1-1.5-2.8-2.1-3.8-2.9C879,299,879.7,299.7,878.4,298.8z"/>
							<path id="XMLID_468_" class="st9" d="M842.9,269.5c-0.7-0.4-1.3-1-2-1.4l0,0.3C843.6,270.3,845.6,271.5,842.9,269.5z"/>
							<path id="XMLID_467_" class="st9" d="M875.4,294.6c-0.1-0.6-2.9-2.4-5.9-4.5c0.2,0.1,0.4,0.3,0.5,0.4
								C868.7,290.3,872.1,292.4,875.4,294.6z"/>
							<path id="XMLID_466_" class="st9" d="M868.7,289.6c-0.9-0.7-1.9-1.3-2.8-2C865.5,287.5,867,288.4,868.7,289.6z"/>
							<path id="XMLID_465_" class="st9" d="M905.7,317.8c-1.4-1.1-1.2-0.2-1.9-0.9C901.9,316.1,913.7,323.2,905.7,317.8z"/>
							<polygon id="XMLID_464_" class="st9" points="873.7,291.8 874.5,292.9 876.4,293.8 							"/>
							<path id="XMLID_463_" class="st9" d="M897.2,309.2l-4.7-3.6c0,0.1-0.6-0.3-1.4-0.8C894.1,307,897.3,309.4,897.2,309.2z"/>
							<path id="XMLID_462_" class="st9" d="M891.1,304.8c-1.5-1.1-3-2.2-3.9-2.7C888.1,302.7,889.9,304,891.1,304.8z"/>
							<polygon id="XMLID_461_" class="st9" points="880.4,296.4 881.7,297.5 885.1,300 							"/>
							<path id="XMLID_460_" class="st9" d="M898.2,329.2l-6.5,0.1c-0.7,0.2,1.1,0.3,3.5,0.2C896.8,329.5,899.2,329.4,898.2,329.2z"
								/>
							<path id="XMLID_459_" class="st9" d="M918.5,330.6c-2.2-0.1-2.4-0.2-3.6-0.4c0,0,0,0.2-0.1,0.3c0,0.2-0.1,0.3-0.1,0.3
								L918.5,330.6z"/>
							<path id="XMLID_458_" class="st9" d="M898.9,330.7c-0.6,0.2-9.4,0.5-1.2,0.5C898.3,331,904.8,330.9,898.9,330.7z"/>
							<polygon id="XMLID_457_" class="st9" points="801.4,330 803.1,330 802.8,328.9 							"/>
							<path id="XMLID_456_" class="st9" d="M715.5,332.4c7.7,0.2,1.8-0.6,8.7-0.3c1.8-0.2-5.7-0.2-3.8-0.5
								C715.8,331.9,713.4,331.7,715.5,332.4z"/>
							<path id="XMLID_455_" class="st9" d="M720.5,331.6c0.7,0,1.5-0.1,2.4-0.2C721.5,331.5,720.9,331.6,720.5,331.6z"/>
							<polygon id="XMLID_454_" class="st9" points="691.2,167.5 689.9,162.8 690.6,165.9 							"/>
							<path id="XMLID_453_" class="st9" d="M687.6,158.8l0.3-1.3l-1.5-2.6C686.7,155.9,687.5,157.9,687.6,158.8z"/>
							<path id="XMLID_452_" class="st9" d="M797.7,202.6l-0.2,0.3c0.7-0.3,1.7-1,3.6-2.3L797.7,202.6z"/>
							<polygon id="XMLID_451_" class="st9" points="852.2,163.9 851.3,164.5 853.4,163.7 							"/>
							<path id="XMLID_450_" class="st9" d="M861,192.1c0.7-2.2,1.5-4.8,2.2-6.9C861.8,189.9,860.1,192.4,861,192.1z"/>
						</g>
					</g>
				</g>
			</g>
		</g>
		<g id="XMLID_447_">
			<g id="XMLID_338_">
				<g id="XMLID_342_">
					<g id="XMLID_344_">
						<g id="XMLID_345_">
							<path id="XMLID_432_" class="st9" d="M631.8,332.8c-1.8,1.3-0.9,1.1-1.1,1.4C633.5,331.9,631.6,332.7,631.8,332.8z"/>
							<polygon id="XMLID_431_" class="st9" points="660.5,310.7 660.1,311.2 664.2,307.7 							"/>
							<path id="XMLID_430_" class="st9" d="M687.9,290.8c-3,1.3-9.9,7.3-14.9,10.7l-0.9,0.5l-1.9,2.1
								C676.1,299.6,683.6,293.7,687.9,290.8z"/>
							<path id="XMLID_429_" class="st9" d="M703.4,281.4c-1.1,0.4,3-2.5-3.5,2.4c0.4-0.2,0.5-0.3,0.7-0.4
								C701.2,283,702.1,282.4,703.4,281.4z"/>
							<path id="XMLID_428_" class="st9" d="M700.6,283.4C697.8,285.5,702.7,282.2,700.6,283.4L700.6,283.4z"/>
							<path id="XMLID_427_" class="st9" d="M713.9,273.6l-3.7,3c0.9-0.4,4.3-2.9,3.1-1.9C717.2,271.8,716.3,272.2,713.9,273.6z"/>
							<path id="XMLID_426_" class="st9" d="M717.2,270.6l-1.9,1.5C715.7,271.9,716.2,271.5,717.2,270.6z"/>
							<path id="XMLID_425_" class="st9" d="M711.2,275.3l4-3.2c-0.6,0.3-0.8,0.2-1.9,1.5C713.6,273.1,712.9,273.9,711.2,275.3z"/>
							<path id="XMLID_424_" class="st9" d="M708.8,276.9c-2.2,1.4-5,3.3-1.4,0.4C700.2,282.7,701.6,282.3,708.8,276.9z"/>
							<path id="XMLID_423_" class="st9" d="M688.9,289.2l-3,1.9l-2.3,2C684.8,292.1,689.2,289.2,688.9,289.2z"/>
							<path id="XMLID_422_" class="st9" d="M737.8,256.7c0.1-0.3-1.5,0.6-1.9,0.7l-2.7,2.2C734.7,258.6,737.5,256.7,737.8,256.7z"
								/>
							<path id="XMLID_421_" class="st9" d="M735.9,257.3l4-3.3C736.2,256.8,735.5,257.4,735.9,257.3z"/>
							<polygon id="XMLID_420_" class="st9" points="717.4,269.4 710.8,274.9 718.7,268.5 							"/>
							<polygon id="XMLID_419_" class="st9" points="753.8,245 751.7,247.1 755.6,243.5 							"/>
							<path id="XMLID_418_" class="st9" d="M764.5,237.3c-1.6,1.5,2.7-1.4,0.9,0.1c2.9-2.1,5.2-4.1,7.3-5.9
								C770.4,233.3,767.9,235.1,764.5,237.3z"/>
							<path id="XMLID_417_" class="st9" d="M776.2,228.5c-1.1,0.9-2.3,1.9-3.5,3C773.9,230.5,775.1,229.5,776.2,228.5z"/>
							<path id="XMLID_416_" class="st9" d="M747.1,248.9c0.4-0.2,1.1-0.4,3.6-2.1l-1.9,0.9C748.3,248.1,747.7,248.5,747.1,248.9z"
								/>
							<path id="XMLID_415_" class="st9" d="M748.7,247.8L748.7,247.8c1.9-1.3,3.1-2.2,3.7-2.6C751.9,245.5,750.8,246.3,748.7,247.8
								z"/>
							<path id="XMLID_414_" class="st9" d="M746.7,249.2c0.2-0.1,0.3-0.2,0.4-0.3C746.9,249,746.8,249.1,746.7,249.2z"/>
							<path id="XMLID_413_" class="st9" d="M728.6,261.7c2.3-2,7.3-5.9,2.1-2.6C729.2,260.7,732.1,258.8,728.6,261.7z"/>
							<path id="XMLID_412_" class="st9" d="M744.3,250.3l-4.5,3.2c0.2,0,1.1-0.4-0.1,0.6L744.3,250.3z"/>
							<polygon id="XMLID_411_" class="st9" points="746.4,248.6 744.3,250.3 746,249.1 							"/>
							<path id="XMLID_410_" class="st9" d="M768.3,233.7c1.8-1.6,3.9-3.1,6.3-4.9c-2.6,1.8-5.3,3.7-7.8,5.5
								C766.6,234.7,765.6,235.7,768.3,233.7z"/>
							<path id="XMLID_409_" class="st9" d="M758.8,240.5c0.1-0.1,0.3-0.2,0.4-0.3C758.9,240.3,758.7,240.5,758.8,240.5z"/>
							<path id="XMLID_408_" class="st9" d="M798.1,211.8c-0.1,0.1-0.3,0.1-0.4,0.2c0,0,0,0.1,0,0.1L798.1,211.8z"/>
							<path id="XMLID_407_" class="st9" d="M766.4,234.6c-2,1.3-3.1,2.2-4.1,3.1c1.4-1.1,2.9-2.2,4.5-3.4
								C767,234.2,767,234.1,766.4,234.6z"/>
							<path id="XMLID_406_" class="st9" d="M782.6,223.6c-1.1,0.7-2.2,1.4-3.5,2.2C780.2,225.2,782.4,223.9,782.6,223.6z"/>
							<path id="XMLID_405_" class="st9" d="M759.9,239.8c-0.1,0.1-0.2,0.1-0.3,0.2C760.3,239.7,760.2,239.7,759.9,239.8z"/>
							<path id="XMLID_404_" class="st9" d="M759.9,239.8c1-0.8,1.7-1.4,2.4-2.1c-1.1,0.9-2.2,1.7-3.1,2.4
								C759.5,240,759.7,239.9,759.9,239.8z"/>
							<path id="XMLID_403_" class="st9" d="M803.6,204.4c-0.1,0.6-4.9,4.5-9.5,7.4c-4.1,3.4-0.5,2.4,3.6,0.2c0-0.2-0.1-0.4,4.2-3.8
								c-1.7,0.9-10.1,6.7-6.6,3.7c5.7-4.4,4.9-3.4,7.8-5.3c-2.7,1.4,7-6,5.3-5.6l-5,3.9C803.3,205,805.1,203.5,803.6,204.4z"/>
							<path id="XMLID_402_" class="st9" d="M789.2,218.1l-1.8,1.4c2.1-1.4,3.7-2.4,6.6-4.1c2.9-2.4,3.4-2.9,3.6-3.2l-9,6.5
								L789.2,218.1z"/>
							<path id="XMLID_401_" class="st9" d="M779.3,225.4c1.2-1.4,5.4-4.7,2.5-3.1c-5.3,3.9-3.5,3-6.6,5.5
								C783.7,221.4,772.8,229.7,779.3,225.4c-1.7,1.3-3.2,2.4-4.7,3.5c1.6-1.1,3.1-2.1,4.6-3.1c-0.1,0-0.1,0.1-0.2,0.1l0,0l0,0
								c-0.4,0.2-0.5,0.3-0.1,0c0,0,0.1-0.1,0.2-0.1C779,225.7,779.2,225.6,779.3,225.4c2.5-1.7,0.5-0.2-0.3,0.4
								c0,0-0.1,0.1-0.1,0.1c0,0,0,0,0,0l8.5-6.4C785.6,220.7,783.3,222.4,779.3,225.4z"/>
							<path id="XMLID_400_" class="st9" d="M734.8,255c0.3-0.2,0.3-0.1,0.3-0.1C735.7,254.5,735.9,254.3,734.8,255z"/>
							<path id="XMLID_399_" class="st9" d="M738.5,252.7c-0.6,0.5-1,1-3.1,2.5c-1.8,1.2-0.1-0.2-0.3-0.2c-1.2,1-4.1,3.4-0.1,0.7
								l0.6-0.5c3.6-2.4,8.3-5.2,7.8-4.7C742.1,250.9,741,251.3,738.5,252.7z"/>
							<path id="XMLID_398_" class="st9" d="M759.1,238.8l7-5.4l-3.9,2.4l0.3,0C758.4,238.7,759.5,238.3,759.1,238.8z"/>
							<polygon id="XMLID_397_" class="st9" points="799,211.4 798.3,212.5 802.1,208.9 							"/>
							<polygon id="XMLID_396_" class="st9" points="808.3,204.6 808.2,205.2 810.5,203.2 							"/>
							<path id="XMLID_395_" class="st9" d="M691.7,181l-0.9-2.4C691.2,179.8,691.5,180.5,691.7,181z"/>
							<path id="XMLID_394_" class="st9" d="M697.4,199l0.3,0.4C697.4,198.6,697.2,198.3,697.4,199z"/>
							<path id="XMLID_393_" class="st9" d="M803.6,350.6c-1.5,3.5-3.4,7.3-2.8,7l0.8-1C802.3,354.1,803,352.2,803.6,350.6z"/>
							<path id="XMLID_392_" class="st9" d="M746.4,345.6c0.1,0.4,0.1,0.7,0.2,1.1c0.4,0.8,0.8,1.6,1.2,2.3
								C747.3,348,746.9,346.8,746.4,345.6z"/>
							<path id="XMLID_391_" class="st9" d="M743.9,343.6l-1.2-4.9C742.9,339.8,743.3,341.4,743.9,343.6z"/>
							<path id="XMLID_390_" class="st9" d="M751,200.6l2.7,1.4C749.9,199.3,751.4,200.7,751,200.6z"/>
							<path id="XMLID_389_" class="st9" d="M855.2,193.9c-1.2,3.1-2.1,5.5-2.8,7.7C853.9,197.9,855.2,195,855.2,193.9z"/>
							<path id="XMLID_388_" class="st9" d="M698.4,186.7c-0.6-1.5-0.8-2.1-0.9-2C698,186.2,698.4,187.1,698.4,186.7z"/>
							<path id="XMLID_387_" class="st9" d="M849.4,210.6c0.2-0.5,0.4-1.1,0.6-1.6c0.7-2.3,1.4-4.6,2.3-7.4
								C851.3,204.3,850.2,207.4,849.4,210.6z"/>
							<path id="XMLID_386_" class="st9" d="M769.4,334.5c-0.3,0-0.6,0-0.8-0.1C768.4,334.5,768.8,334.5,769.4,334.5z"/>
							<path id="XMLID_385_" class="st9" d="M660.6,330c1.1,0,2.8,0,4.5,0C664.2,329.9,662.9,329.9,660.6,330z"/>
							<path id="XMLID_384_" class="st9" d="M845.9,177.5C844,178.9,845.6,177.8,845.9,177.5L845.9,177.5z"/>
							<path id="XMLID_383_" class="st9" d="M835.3,183.1c0.4-0.3,0.7-0.6,0.7-0.7C835.9,182.5,835.6,182.8,835.3,183.1z"/>
							<path id="XMLID_382_" class="st9" d="M844.4,234.5c0,0.1,0,0.1-0.1,0.2C844.7,234.1,844.6,234.2,844.4,234.5z"/>
							<path id="XMLID_381_" class="st9" d="M842.8,179.5c0.8-0.5,1.7-1.1,2.6-1.7C845,178,844.2,178.5,842.8,179.5z"/>
							<path id="XMLID_380_" class="st9" d="M843.3,179.4c-0.7,0.5-1.2,0.9-1.8,1.2C841.4,180.8,841.6,180.7,843.3,179.4z"/>
							<path id="XMLID_379_" class="st9" d="M848.7,175.5c-1.1,0.8-2.2,1.6-3.2,2.3c0.4-0.3,0.6-0.4,0.5-0.3
								C846.5,177.1,847.3,176.5,848.7,175.5z"/>
							<path id="XMLID_378_" class="st9" d="M889.6,304.8c0.1,0.1,0.3,0.2,0.4,0.3C892.1,306.4,891.2,305.8,889.6,304.8z"/>
							<path id="XMLID_377_" class="st9" d="M788.1,412.4c0-0.1,0-0.2,0.1-0.3C788.1,412.2,788.1,412.3,788.1,412.4L788.1,412.4z"/>
							<path id="XMLID_376_" class="st9" d="M785.6,420.8c0.7-3.7,1.4-5.7,2.4-8.4l-2.1,2.4L785.6,420.8z"/>
							<path id="XMLID_369_" class="st9" d="M704.2,166.6l-4.7-4c6.4,3.9,10.6,7.3,6.2,3.4c-0.6,0.2-3.6-1.8-7.1-4.3
								c-3-2.2-6.2-4.5-9.3-6.8c-3.2-2.4-6.3-4.6-8.5-6.1c1.3,3.8,2.3,6.4,2.9,7.2l1.6,6c-0.6-1.9-0.8-2.2-1.4-4.1
								c0.8,3,1.5,5.3,2.1,7.1c0.3,0.9,0.6,1.7,0.9,2.4c0.1,0.4,0.3,0.7,0.4,1c0.1,0.2,0.1,0.3,0.2,0.4l0.2,0.3
								c0.8,1.6,1.8,3.4,3.2,8.3c1,3.4,1.5,5.8,0.7,3.6l2.7,7.4c0.7,2.2,0.3,1.7-0.4-0.5l3.8,11.5l-0.1-0.1c0.7,1.6,2.2,5.2,2.9,7
								c0.7,3-0.6-1.4-0.5-0.6l2.3,6.3c0.5,2.7-1.5-2.5-2.9-6.9c0.6,6.4,2,5.2,5.3,18.2l-2.1-6c0.5,4.1,2.3,8.7,4,15.6
								c-0.3-1.7-3.2-14-0.6-7.2c0.5,2,1.3,4.6,2.7,8.2c-0.4,0.2,0.8,3.8,2.3,8.3l-0.7-0.1c1.7,4.9,1.9,4.4,3.1,7.2
								c1.7,5.5,1.6,6.8,1.6,8.2c2.7,8.8-1.2-6.3,2.2,4.1c2.1,7.4,4,12.4,7.1,21c1.4,5.2-0.7-0.8-0.2,1.1l1.9,4.4
								c0.3,1.1,0.1,0.8-0.1,0.6c1.4,3.8,0.7,0.1,2.8,6.1c1.2,1.4,2.9,12.6,6.1,19.8c0.4,1.9-0.7-0.8-0.7-0.1
								c3.7,10,3.1,8.6,6.5,16.8l1.9,7.3c-1.2-5.4,1.5,1.1,3.8,6.9c-0.4-1.9-0.7-3.6-0.9-4.7l3.3,9.3c0.3,1.2-0.3,0.3-1-1.2
								c0.3,0.6,0.5,1.2,0.7,1.7c0.8,3.4-0.1,1.8-1.2-0.5c-0.2-1.2-0.5-2.4-0.7-3.5c-1.1-2.2-2.2-4.2-2.4-3.6c0.3,0.6,0.7,1.7,1.1,3
								c-0.3-0.6-0.5-0.9-0.5-0.6c0,0.3,0.5,1.3,1.1,2.8l0,2.3l0.4,0.4l3.5,12.4c3.5,8.5,6.9,15.8,11.6,29.7c-1.6-3.3-1-0.5-1.7-0.5
								c-0.6-4-3.7-10.7-5.8-17.9c1.1,3.8,0.6,3,0.2,2.1l4.6,12.7c-0.6-0.1,0.5,2.8,1.4,6.3c0.1-2.8,3.7,9.4,5.6,14.5
								c-0.2,0.4-0.9-0.7-2.9-7.1c1.5,7.3,4,8.7,5.6,15.8c-0.5-1.6-0.7-2.4-1.1-3c1.4,3.5,4,12.5,3.1,10.5l-0.5-1.6
								c0.8,2.5,1.7,5.5,2.7,8.7c1.3,4,2.6,8.2,4,12.3c1.9-6,3.7-11.7,4.9-15.8c0.1-0.4,0.2-0.8,0.3-1.2c0.1-0.4,0.2-0.7,0.3-1
								c0.2-0.6,0.3-1.2,0.4-1.7c0.2-1,0.3-1.7,0.3-1.9c0.1-0.1,0.5,1.7,0.5,2.3l3.3-19.3c0.2,1.8,3.9-3.8,1.4,4.8
								c0.9-2.4,2-5.4,3.5-10.7c-0.6,1.6-2.4,3.8-1.7,1.5c2.8-6,1.8-4.2,5-11.7c-1,2.5-1.1-0.7,0.2-4.6c0,0.7,1.2,0,0.8,1.5
								l2.2-10.2c-0.6,2.5,0.8,0.7,1.8-1.4c-0.5,1,2.8-8.5,3.6-11.2l-1.6,4.1c3.8-11.1,2.1-11.5,5.8-22.5c-0.2,1.4,0.3,3.8,2.3-1.8
								c0.3-2.8,1.1-12.3,3.9-22.2l0.9-1.8l2.1-7.6c-0.7,4.9-3.3,18.6-5,26c1.6-4.1,0.8-1,2.8-7.3c1-2.1-0.7,3.6-1.3,5.4l5-14.5
								c-0.9,0.4,3-11.3,2.3-11l-4.5,16c-0.8,0.4,1.2-9.7,4.7-20c1.1-2.5,0.5,2.3,0.8,2.2c0.2-1.4,2.8-9.9,3.3-10.8l-1.1,4.5
								c2.1-5.7,2.2-9.6,5.1-16.3c0.8-2.4,3.2-6.8,2.9-7.4c-2,3.6-4.5,3.7-4.2,0.9c0.3-0.8,4.8-12.3,6.1-14.9c1.9-3.7-0.6,6.3,1,3.2
								c-0.1-0.2,0.4-2.4,0.6-3.4c1-2.4,0.2,1.2,1.9-4.2c-0.3-1.1,3.7-11,0.3-2.7c1.6-5.4,2-5.6,4-11.8c-1.1,1.8,0.4-6.1,2-11.4
								c0.1,0.4,0.7-0.8,1-1.3c3.6-10.9,5.8-16.6,9.2-26.8c0.5-0.9,2.3-5.7,1.9-3.5c0.4-1.5,0.6-2.9,1.6-6c2.5-5.9-2.2,7,0,2.6
								c-0.2-0.5,2.1-8.3,3.4-12.8c-1,1.2-3.5,10.3-4.7,14.8c-0.8-0.2,0.9-8.3,4-19c2.6-8.5,1.7-3.5,2.1-5c1.2-3.5,2-6.1,2.6-8.2
								c0.3-1.1,0.5-2,0.7-2.8c0.2-0.7,0.2-1.1,0.3-1.6c0.1-0.8,0.2-1.4,0.3-2.2c0.1-0.7,0.3-1.4,0.7-2.6c-0.5,0.4-1.1,0.7-1.8,1.1
								c-1,0.4-1.1,0.2-0.7-0.5c0.4-0.6,1.3-1.5,1-1.5c1.8-1.4,3.3-2.5,4.6-3.3c-0.7,1.8-1.3,3.5-1.8,4.9c-0.6,1.5-1,2.8-1.5,4.1
								l2-5.3c-0.4,1.7-1.7,6.3-2.7,8.7c0.4-0.9,1-2.6,1.8-4.9c0.8-2.4,1.8-5.3,2.9-8.5c-3.7,2.7-7.8,5.7-11.8,8.5
								c-3.9,2.8-7.7,5.5-10.7,7.5c-1.7,1.5-4.8,4-3.2,3l3.2-2.5c3.3-1.8-5.8,5-1.6,2.1c-4.2,3.5-8.9,7.4-15.3,11.8l-1.5,0.4
								c0.2,0,4.3-2.7,5.9-4.1c-2.4,2.1-10,6.3-12.4,9l4.6-2.8c-4.3,3.5-9.4,8-15,11.8c2.9-1.3,1.2-1,5.6-3.3
								c-3.9,1.8,14.1-10.2,8.1-7c4.5-2.3,7.2-4.8,12.8-8c-0.3,0-2.1,1,2.6-2.2c0.2-0.2,0.6-0.6,0.9-0.9c0.1-0.1,0.2-0.1,0.3-0.2
								c-0.1,0.1-0.2,0.1-0.3,0.2c0.2-0.2,0.2-0.2-0.1,0.1c-1.2,0.7-2.1,1.3-2.5,1.5c2-2,9.4-7.4,11.7-9.4c2.8-1.9-1,1,0.6,0.1
								l3.5-3c0.6,0.1,7.7-4.7,1.4,0.2l5-3.6c0.9-0.4,1.5-0.7,2.2-1.3c-0.1,0.3-0.1,0.5-0.1,0.6c-0.2,0.5-0.2,0.9-0.2,1.3
								c0,0.4,0,0.5-0.1,0.1c0,0-0.1,0.2-0.1,0.5c0,0.1,0,0.2-0.1,0.3l0,0.2c0,0.1-0.1,0.3-0.1,0.5c-0.2,0.6-0.4,1.3-0.6,2
								c-0.8,2.7-1.6,5.4-1.6,5.4l-0.1,0.1c-3.5,10.6-6.4,22-11.2,33.8c-1.1,3.6-2.1,7.3-4.2,13.2l-0.8,1
								c-1.4,4.6-4.9,13.6-5.1,15.7c-2.6,4.6-7.5,22.1-10.3,30.1l0.4,0.5c-1.8,5.5-3.4,10.9-5.5,17.8l0.6-0.3
								c-1.6,6-5.3,15.1-8.3,24.5c0-0.7,0.9-3.1,1.5-4.7c-4.6,10.9-7.1,23.8-11.1,33.8c-0.7,2.6-1.3,4.4-2,6.1
								c0.1-0.2,0.1-0.4,0.2-0.6c-0.1,0.3-0.2,0.6-0.3,1c-0.4,1.1-0.9,2.2-1.4,3.4c0.5-1,0.9-2,1.2-2.9c-0.6,2-1.6,4.9-2.4,7.9
								l-0.9,1.1c-0.1,0.2-0.1,0.4-0.2,0.7c-1.1,2.8-0.5,2.4,0.3,1c-0.4,1.5-0.8,2.9-1,3.9c-1.5,2.1-2.2,7.7-4.1,10.6
								c-0.3,2.1-4.5,14.7-4.2,16.5c-0.1,0.1-0.5,0.9,0-0.7c-1.2,3.2-2.3,6.4-3,9.4l-1,1.2l-1.5,7.3c-1.8,4.2-2.6,5.9-1.6,1.5
								c-2.7,10.5-2.5,8.4-4.7,17.4l-0.2-0.6c-0.3,0.8-0.5,1.7-0.8,2.6c-0.1,0.5-0.3,1-0.4,1.4c-0.1,0.3-0.2,0.7-0.2,1
								c-0.3,1.3-0.7,2.7-1,3.1c-0.3,0.6-0.7,1.5-1.2,2.8c-0.5-1.9-1.1-3.9-1.8-6.1c-1.1-3.6-2.4-7.6-3.7-11.7
								c-2.7-8.6-5.5-17.7-7.6-25.2c0,3.8-2.2-8.5-3.2-9c-0.1-1.1-0.7-3.7,0.4-0.8c-3.2-9.1-4-13.9-6.7-20.1c-0.1-1.1,1,1.8,0.9,0.9
								c-0.3-0.7-1.2-2.8-1.3-3.9c-0.1-1,0.6,1.3,1.2,2.7c-3-9.4-4.1-10.1-5.1-10.5c-1.2-4.9-2-7.2-3.5-10.5c-0.3-1.7-0.9-4.6,1,1.2
								c-1-3.3-6-20.2-6.7-20.3c-0.2-1.1-1.4-4.6-1.8-5.4c-2.3-7.4-2.5-8-4.8-15.3l0.5,2c-1.6-2.6-2.1-6-4-11.8l0.1,0.1
								c-3.7-13.5-2.1-5.7-5.7-19.1l-0.2,0.9c-1.4-0.9-3.1-11.9-5.9-19.4l0.6,2.8c-1.7-4.1-2.4-12.1-3.6-16.3
								c-0.2-0.9,0.6,1.4,1.1,2.7c-2.9-11.2-1.1-1.2-3.8-9.4c-0.2-1.6,1.4,1.7-0.3-3.8c-0.6-2.8-6.1-15.7-7.9-23.4
								c0.3,1.7,0.6,3.5-0.8-0.3c-1.9-5.8-4.1-16.1-6.5-21.1c-0.2-0.8-0.2-1.1-0.1-1.1c-1.6-4.4-4.9-14.4-6.2-16.9
								c0.2-1.6-0.4-3.4-1.6-6.7c0.9,0.6,1.8,1.1,2.6,1.7c0.9,0.6,1.9,1.2,2.7,1.8c0.3,0.2,0.6,0.4,0.8,0.6c0.3,0.2,0.6,0.4,0.8,0.6
								c0.5,0.4,1,0.8,1.3,1.1c0.7,0.6,1.1,1.1,0.9,1.2l11.6,8.5l-0.4-0.1c7.3,5.5,10.2,7.2,13,8.8c1.6,1.3,0.3,0.5,0.1,0.5
								c10.6,8.2,11.7,9,21.3,15l0.6,1.1c2.6,1.6,15.2,12.1,26.1,19.5c-0.1,0-0.4-0.1-1.3-0.7c12.3,8.3,27.7,22.2,33.2,23.9l8.1,5.4
								c-10.1-7.6,2,0.5-2-2.8c4.1,2.9,10,8.1,5.1,4.5l-0.7-0.6c-2.4-0.6,12.5,9.6,11.8,9.9c20.1,14.7,39.3,29.6,58,43.4l-1.7-2.2
								l6.5,4.9c1.6,1.4,2,2.2-2.7-1.3c2.2,2.1,8,5.5,8.3,5.5c9,7-4.1-1.9-1.3,0.1l3.8,2.8l-0.8-0.7c3.3,2,3.7,2,9.3,6.2
								c3.5,2.7,1.6,1.7,2.9,2.8c0,0,0.4,0.4,2.1,1.6l5.8,4.4c0,0-0.1-0.3-0.4-0.6c-0.2-0.3-0.6-0.8-0.6-0.8
								c1.2,0.7,2.4,1.6,3.1,2.1c0.4,0.2,0.6,0.4,0.7,0.4c0.1,0,0-0.2-0.4-0.7c0.4,0.5,1.2,1.3,2.2,2.1c-2.2-0.1-4.3-0.2-6.5-0.2
								c-3.5,0-7.2,0-10.6,0c-7.3,0-13.6,0-15.4-0.1c-6.4,0.4-12.6,0.4-20.4,0.3c1.9,0.1,3.1,0.8-3.6,0.7c2.5-1.3-12.3-0.6-17.7-1.6
								c4.8,0.6-19.1,0.1-11.5,1c-5.6-0.1-0.3-0.5-4.6-0.8c-13.3,0.5-29.4-0.4-45.8-0.2c-0.3,0.2,2.5,0.4-1,0.7l-8.7-0.9
								c-3.3,0.1-3,1-8.9,0.4c0.8,0.1,2.1,0.4-0.1,0.4c-32.3-0.9-65.9,0.6-98.7-1.1c4.4,0.3,1.5,0.4-1.9,0.4
								c2.2,0.1-0.1,0.4,0.4,0.7l-13.7-0.7c-2.5,0.7-14.7,0-16.1,0.7l4.3-0.1c-5.8,0.7,8.1,1.7,7.2,2.6c6.5-0.8,17.1,1.3,27.7,0.1
								c2.3,0.2-2,0.3-0.7,0.5c2.7-0.4,5.9-0.5,12-0.3l-0.7,0.1c16.9-0.1,24.2,0.3,43.2,0.6l-1.4-0.5c4.1,0.1,4.9,0.2,6.9,0.3
								c4.7-0.7-11.5-0.1-7.2-0.8c5.4,1,28.8,0.1,32.5,1.2c6.3,0-1.8-0.6,4.4-0.5l1.7,0.3l1.6-0.4c4.1,0.1,6.2,0.4,6.4,0.7
								c-1,0-2.8,0.1-3.9,0.1c5.3,0.4,15.1-0.1,16.9,0l-6-0.2c17.1-0.2,38.1,0.2,54.7-0.4l-1.3-0.2c12.7-0.4,10.1,0.3,24,0.1
								l-0.5,0.1c2.8-0.2,6.5-0.3,10.3-0.3c-3.5,0.3,6.6,0.5,2,0.8c13.7-0.4,6.8-0.3,15.8-1.2l2.1,0.4c3.1-0.3,3.3-0.5,10.3-0.6
								c-5.7,0.3,4.4,0.6-1.9,1c7.3,0.4,12.7,0.2,17.1,0.1c1.5,0,3-0.1,4.4-0.1c1.4,0,2.7,0,4.1,0c2.7,0,5.3,0.2,8.7,0.5
								c0.4-0.1,0.7-0.1,0.8-0.2c-1.6-0.9-1.7-0.9-1.2-0.4c-2.3-0.2-6.5-0.2-9.8-0.2c-3.3,0-5.7,0-3.9-0.1c-2.1-0.2-0.4-0.3,2.1-0.5
								c2.6-0.1,6-0.2,8.8-0.2c-0.1-0.1-0.3-0.2-0.4-0.3c-2.1-1.6-3.1-2.7-5.8-5.1c-0.7-0.6-1.4-1.2-2.3-2c-0.8-0.7-1.7-1.4-2.7-2.3
								c-1.6-1.3-3.4-2.8-5.8-4.5c0.9,0.7,1,0.7,2,1.4c-3.4-2.8-7.1-4.8-11.2-8.3c-2.8-1.3-5.6-4.2-6.8-4l8.7,6.2
								c-5-3.4-10.2-6.1-18-12.4c0.7,0.3,3.2,1.9,5,3.1c-2.2-1.9-4.6-3.2-6.9-5.2c1.2-0.1,10.6,7.6,16.2,11
								c-2.3-2.1-10.3-6.9-7.1-5.6c-4.4-1.9-9.2-7-16.1-11l0.7-0.1c-1.1-0.7-3.3-2-5.1-3.4l3.7,2c-5.5-3.4-9.7-7.7-14.8-11.1
								c10.4,7.6,2,2.2,6.2,5.7c-13.2-8.9-6.6-6.4-21.1-16.8c2,1.4,7.1,5.6,3.9,3.5c-2.7-2.1-6.2-4.9-7.7-6.3
								c-9.5-6.9,1.2,1.5-3-1.3c-2.9-2.8-4.8-3.2-9.1-6.2l0.3-0.4c-10.6-8.2-3.5-1.3-13-8.8l4.5,2.5l-5.2-3.6l1.4,0.3
								c-5.8-3.7-7.4-5.1-12.7-9.2c1.1,1.2-1.2,0.2-6-3.3c-3.1-2.6,2.1,1-4.7-4c1.7,0.9,3.6,1.8,6.3,4.4c0.4,0.1,1.7,0.9,2.1,1
								c-3.3-2.9-8.8-6.6-11.3-8.4c0.9,0.7,2.1,1.6,2.6,2l-10.2-6.7c-1.4-1.3-0.1-0.5,1.2,0.3c-2-1.4-3.5-2.3-6.5-4.4
								c1,0.2,1-0.2,5.3,2.7l-9.6-6.6c-0.5-0.6-4.5-3.9-3.2-3.1c-5.1-4-13.2-8.8-19.9-14.1c-0.4-0.2-1.2-0.7-2.7-1.7
								c-6.4-4.8-11.9-9.5-19.9-14.7l-3.9-3.8c-6.1-4.3,5.4,5.1-4.8-2.1c-7.2-5-2.3-2.4-4.7-4.4c-3.7-2.3-10.3-6.2-16.5-11.5
								C700.6,163.8,702.2,165.2,704.2,166.6z M706.1,225.7c-0.6-1.7-2-5-2.1-6.3C705.1,221.2,705.4,222.8,706.1,225.7z
								 M749.6,358.8c-0.6-1.2-1.1-3.2-1.6-5.5C748.5,354.9,749.1,356.7,749.6,358.8z M863.9,163.9
								C863.9,163.9,863.9,163.9,863.9,163.9c0.6-0.4,0.7-0.4,0.7-0.4C864.5,163.6,864.3,163.7,863.9,163.9z M860.5,166.1
								c-0.6,0.5-0.5,0.6-0.2,0.4c0.2-0.2,0.7-0.6,1.3-1.1c0.3-0.2,0.6-0.5,1-0.7c-0.1,0-0.3,0-0.5,0.2c-0.1,0.1-0.3,0.2-0.4,0.3
								C861.3,165.5,861,165.8,860.5,166.1z M908.7,322.8l-1.2-1.1C910.5,323.8,909.6,323.3,908.7,322.8z"/>
							<path id="XMLID_368_" class="st9" d="M744.2,343.9c-0.1-0.5,0-0.7,0-0.8C743.9,342.4,743.8,342.4,744.2,343.9z"/>
							<path id="XMLID_367_" class="st9" d="M750.5,200.4l0.2,0.2c0.1,0.1,0.2,0.1,0.3,0.1L750.5,200.4z"/>
							<path id="XMLID_366_" class="st9" d="M835.9,266.4c-0.6,1.6-1,2.5-1.3,3C834.8,269.6,835.1,268.9,835.9,266.4z"/>
							<path id="XMLID_365_" class="st9" d="M825.6,192.5l4.2-3.2c-2.1,1.5-2.9,2-4,2.7C826,192,826.9,191.5,825.6,192.5z"/>
							<path id="XMLID_364_" class="st9" d="M786.7,217.1c-0.6,0.5-1.3,1-1.9,1.5l0.3,0.1C787.7,216.7,789.5,215.2,786.7,217.1z"/>
							<path id="XMLID_363_" class="st9" d="M820.7,194.1c-0.6-0.1-3.2,2-6.1,4.2c0.2-0.1,0.4-0.3,0.5-0.4
								C814.5,199.1,817.6,196.6,820.7,194.1z"/>
							<path id="XMLID_362_" class="st9" d="M813.9,198.9c-0.9,0.7-1.9,1.4-2.8,2C810.9,201.3,812.2,200.1,813.9,198.9z"/>
							<path id="XMLID_361_" class="st9" d="M852.2,172.5c-1.5,0.9-0.6,1.1-1.5,1.5C849.4,175.6,859.8,166.6,852.2,172.5z"/>
							<polygon id="XMLID_360_" class="st9" points="817.5,194.8 818.8,194.4 820.3,192.9 							"/>
							<path id="XMLID_359_" class="st9" d="M841.4,177.9l-4.9,3.4c0.1,0-0.5,0.5-1.2,1.1C838.3,180.2,841.6,177.9,841.4,177.9z"/>
							<path id="XMLID_358_" class="st9" d="M835.3,182.3c-1.5,1.1-3,2.2-3.8,2.9C832.3,184.6,834.1,183.3,835.3,182.3z"/>
							<polygon id="XMLID_357_" class="st9" points="823.9,189.9 825.4,189 828.8,186.5 							"/>
							<path id="XMLID_356_" class="st9" d="M860.7,183.3l-1.9,6.2c0,0.7,0.6-1,1.3-3.3C860.5,184.7,861.2,182.4,860.7,183.3z"/>
							<path id="XMLID_355_" class="st9" d="M868.4,164.3c-0.8,2.1-1,2.2-1.5,3.3c0,0,0.1,0.1,0.3,0.2c0.1,0.1,0.3,0.2,0.3,0.2
								L868.4,164.3z"/>
							<path id="XMLID_354_" class="st9" d="M862.4,183.1c0,0.7-2.5,9.1,0.1,1.3C862.5,183.7,864.3,177.5,862.4,183.1z"/>
							<polygon id="XMLID_353_" class="st9" points="831.2,275.4 831.7,273.8 830.7,273.7 							"/>
							<path id="XMLID_352_" class="st9" d="M806.7,357.8c2.6-7.2,0-1.9,2.4-8.4c0.3-1.8-2,5.3-1.6,3.5
								C806.3,357.3,805.4,359.6,806.7,357.8z"/>
							<path id="XMLID_351_" class="st9" d="M807.5,352.8c0.2-0.7,0.4-1.5,0.6-2.3C807.8,351.8,807.6,352.5,807.5,352.8z"/>
							<polygon id="XMLID_350_" class="st9" points="642.5,329.4 637.6,329.2 640.8,329.5 							"/>
							<path id="XMLID_349_" class="st9" d="M633,330.1l-1.2-0.7l-3,0.6C630,330,632.2,330,633,330.1z"/>
							<path id="XMLID_348_" class="st9" d="M709,239.2l0.3,0.3c-0.1-0.8-0.4-1.9-1.1-4.1L709,239.2z"/>
							<polygon id="XMLID_347_" class="st9" points="689.2,175.3 689.6,176.4 689.5,174.2 							"/>
							<path id="XMLID_346_" class="st9" d="M718.8,175.8c-1.8-1.4-4.1-2.9-5.9-4.3C717,174.4,718.9,176.7,718.8,175.8z"/>
						</g>
					</g>
				</g>
			</g>
		</g>
	</g>
</g>
<g id="otherRUnes">
	<rect id="XMLID_157_" x="52" y="22" class="st10" width="932" height="65"/>
	<text id="XMLID_156_" transform="matrix(1 0 0 1 51.958 48.3794)" class="st11 st12 st13">jan pawel drugi jabel male</text>
</g>
<g id="otherRunes2" class="st0">
	<rect id="XMLID_165_" x="37.6" y="505" class="st14" width="932" height="65"/>
	<text id="XMLID_164_" transform="matrix(1 0 0 1 37.5625 531.3794)" class="st15 st12 st13">dupa jasiu i pierdasiu blaiu</text>
</g>
<g id="title_2_">
	<g id="XMLID_152_">
		<path id="XMLID_153_" class="st11" d="M65.9,250.4c0,3.6-1.3,6.6-3.8,9.2c-2.6,2.5-5.6,3.8-9.2,3.8c-1.2,0-2.6-0.1-4.2-0.2h-3.7
			c-0.1,0-0.5,0-1,0.1c-0.5,0.1-0.9,0.1-1.1,0.1h-0.4l0.2-1.1H43c0.6-0.1,1.1-0.2,1.3-0.5c0.2-0.3,0.4-0.8,0.4-1.6v-19.5
			c0-0.8-0.1-1.4-0.4-1.6c-0.2-0.3-0.7-0.4-1.3-0.5h-0.3l-0.2-1.1h0.4c0.3,0,0.6,0,1.1,0c0.5,0,0.8,0,1,0h3c2.1,0,3.8,0,4.9,0
			c3.6,0,6.6,1.3,9.2,3.8C64.6,243.8,65.9,246.9,65.9,250.4z M60,250.4c0-2.1-0.8-4-2.3-5.5c-1.5-1.5-3.3-2.3-5.5-2.3h-1.5v15.6h1.5
			c2.1,0,4-0.8,5.5-2.3C59.3,254.4,60,252.6,60,250.4z"/>
		<path id="XMLID_178_" class="st11" d="M94.9,265.5l-1.1-0.2v-0.3c-0.1-0.6-0.2-1.1-0.5-1.3c-0.3-0.2-0.8-0.4-1.7-0.4h-8l-4.9,4.4
			v-14.7c-0.8,0-1.3,0.2-1.5,0.4c-0.3,0.2-0.4,0.7-0.5,1.3v0.3l-1.1,0.2v-0.4c0-0.3,0-0.6,0-1.1c0-0.5,0-0.8,0-1V248
			c0-0.2,0-0.5,0-1c0-0.5,0-0.9,0-1.1v-0.4l1.1,0.2v0.4c0.1,0.6,0.2,1,0.5,1.3c0.3,0.2,0.8,0.3,1.5,0.4v-10.2h12.9
			c0.8,0,1.4-0.1,1.7-0.4c0.3-0.2,0.4-0.7,0.5-1.3v-0.3l1.1-0.2v0.4c0,0.2,0,0.6-0.1,1.1c0,0.5-0.1,0.8-0.1,1v5.1c0,0.1,0,0.4,0,0.7
			s0,0.6,0,0.8l-1.1-0.3c-0.2-0.6-0.9-0.9-2-0.9H85v4.5h6.8c1.3,0,2-0.4,2.2-1.3c0-0.1,0-0.2,0-0.4l1.1-0.2v0.4c0,0.2,0,0.6-0.1,1.1
			c0,0.5-0.1,0.8-0.1,1v4.4c0,0.1,0,0.4,0.1,0.8c0,0.4,0.1,0.7,0.1,1v0.4l-1.1-0.2c0-0.1,0-0.2,0-0.3c-0.1-0.9-0.9-1.3-2.2-1.3H85
			v4.5h6.8c1.1,0,1.8-0.3,2-0.9l1.1-0.3c0,0.2,0,0.5,0,0.8c0,0.4,0,0.6,0,0.7v5.1c0,0.1,0,0.5,0.1,1c0,0.5,0.1,0.9,0.1,1.1V265.5z"
			/>
		<path id="XMLID_180_" class="st11" d="M139.3,263.4h-0.4c-0.2,0-0.6,0-1.1,0c-0.5,0-0.8,0-1,0h-5.5c-0.1,0-0.5,0-1,0
			c-0.5,0-0.9,0-1.1,0h-0.4l0.3-1.1h0.3c0.6-0.1,1.1-0.2,1.3-0.5c0.2-0.3,0.4-0.8,0.4-1.6v-16.6h-5.6v16.6c0,0.8,0.1,1.4,0.4,1.6
			c0.2,0.3,0.7,0.4,1.3,0.5h0.3l0.3,1.1h-0.4c-0.2,0-0.6,0-1.1,0c-0.5,0-0.8,0-1,0h-5.5c-0.1,0-0.5,0-1,0c-0.5,0-0.9,0-1.1,0h-0.4
			l0.3-1.1h0.3c0.6-0.1,1.1-0.2,1.3-0.5c0.2-0.3,0.4-0.8,0.4-1.6v-16.6h-5.6v16.6c0,0.8,0.1,1.4,0.3,1.6c0.2,0.3,0.7,0.4,1.3,0.5
			h0.3l0.3,1.1h-0.4c-0.2,0-0.6,0-1.1,0c-0.5,0-0.8,0-1,0H108c-0.1,0-0.5,0-1,0c-0.5,0-0.9,0-1.1,0h-0.4l0.2-1.1h0.3
			c0.6-0.1,1.1-0.2,1.3-0.5c0.2-0.3,0.4-0.8,0.4-1.6v-19.5c0-0.8-0.1-1.4-0.4-1.6c-0.2-0.3-0.7-0.4-1.3-0.5h-0.3l-0.2-1.1h0.4
			c0.3,0,0.6,0,1.1,0c0.5,0,0.8,0,1,0h28.8c0.2,0,0.5,0,1,0c0.5,0,0.9,0,1.1,0h0.4l-0.3,1.1h-0.3c-0.6,0.1-1.1,0.2-1.3,0.5
			c-0.2,0.3-0.4,0.8-0.4,1.6v19.5c0,0.8,0.1,1.4,0.4,1.6c0.2,0.3,0.7,0.4,1.3,0.5h0.3L139.3,263.4z"/>
		<path id="XMLID_182_" class="st11" d="M176,250.4c0,3.7-1.3,6.9-3.9,9.5c-2.6,2.6-5.8,4-9.6,4c-3.7,0-6.9-1.3-9.5-4
			c-2.6-2.6-4-5.8-4-9.5c0-3.7,1.3-6.9,4-9.5c2.6-2.6,5.8-4,9.5-4c3.8,0,6.9,1.3,9.6,3.9C174.7,243.5,176,246.6,176,250.4z
			 M160.5,248.4v-5.9c-1.4,0.4-2.7,1.1-3.7,2.1c-1.1,1.1-1.8,2.3-2.1,3.7H160.5z M160.5,258.2v-5.9h-5.9c0.4,1.4,1.1,2.7,2.1,3.7
			C157.9,257.2,159.1,257.9,160.5,258.2z M170.4,248.4c-0.4-1.4-1.1-2.7-2.2-3.7c-1.1-1.1-2.3-1.8-3.7-2.1v5.9H170.4z M170.4,252.4
			h-5.9v5.9c1.4-0.4,2.7-1.1,3.8-2.1C169.3,255.1,170,253.8,170.4,252.4z"/>
		<path id="XMLID_188_" class="st11" d="M210.7,263.4h-0.4c-0.2,0-0.6,0-1.1,0c-0.5,0-0.8,0-1,0h-4.9c-0.1,0-0.5,0-1,0
			c-0.5,0-0.9,0-1.1,0h-0.4l0.3-1.1h0.3c0.6-0.1,1.1-0.2,1.3-0.5c0.2-0.3,0.4-0.8,0.4-1.6V260l-9.5-9.6v9.8c0,0.8,0.1,1.4,0.4,1.6
			c0.2,0.3,0.7,0.4,1.3,0.5h0.3l0.2,1.1h-0.4c-0.2,0-0.6,0-1.1,0c-0.5,0-0.8,0-1,0h-4.9c-0.1,0-0.5,0-1,0c-0.5,0-0.9,0-1.1,0h-0.4
			l0.2-1.1h0.3c0.6-0.1,1.1-0.2,1.3-0.5c0.2-0.3,0.4-0.8,0.4-1.6v-19.5c0-0.8-0.1-1.4-0.4-1.6c-0.2-0.3-0.7-0.4-1.3-0.5H186
			l-0.2-1.1h0.4c0.3,0,0.6,0,1.1,0c0.5,0,0.8,0,1,0h4.9c0.2,0,0.5,0,1,0c0.5,0,0.9,0,1.1,0h0.4l-0.2,1.1h-0.3
			c-0.6,0.1-1.1,0.2-1.3,0.5c-0.2,0.3-0.4,0.8-0.4,1.6v0.2l9.5,9.5v-9.7c0-0.8-0.1-1.4-0.4-1.6c-0.2-0.3-0.7-0.4-1.3-0.5H201
			l-0.3-1.1h0.4c0.3,0,0.6,0,1.1,0c0.5,0,0.8,0,1,0h4.9c0.2,0,0.5,0,1,0c0.5,0,0.9,0,1.1,0h0.4l-0.2,1.1h-0.4
			c-0.6,0.1-1.1,0.2-1.3,0.5c-0.2,0.3-0.3,0.8-0.3,1.6v19.5c0,0.8,0.1,1.4,0.3,1.6c0.2,0.3,0.7,0.4,1.3,0.5h0.4L210.7,263.4z"/>
		<path id="XMLID_190_" class="st11" d="M247.4,250.4c0,3.7-1.3,6.9-3.9,9.5c-2.6,2.6-5.8,4-9.6,4c-3.7,0-6.9-1.3-9.5-4
			c-2.6-2.6-4-5.8-4-9.5c0-3.7,1.3-6.9,4-9.5c2.6-2.6,5.8-4,9.5-4c3.8,0,6.9,1.3,9.6,3.9C246.1,243.5,247.4,246.6,247.4,250.4z
			 M232,248.4v-5.9c-1.4,0.4-2.7,1.1-3.7,2.1c-1.1,1.1-1.8,2.3-2.1,3.7H232z M232,258.2v-5.9h-5.9c0.4,1.4,1.1,2.7,2.1,3.7
			C229.3,257.2,230.5,257.9,232,258.2z M241.8,248.4c-0.4-1.4-1.1-2.7-2.2-3.7c-1.1-1.1-2.3-1.8-3.7-2.1v5.9H241.8z M241.8,252.4
			h-5.9v5.9c1.4-0.4,2.7-1.1,3.8-2.1C240.7,255.1,241.5,253.8,241.8,252.4z"/>
		<path id="XMLID_196_" class="st11" d="M275.6,265.5l-1.1-0.2v-0.3c-0.1-0.6-0.2-1.1-0.5-1.3c-0.3-0.2-0.8-0.4-1.6-0.4h-8.1
			l-4.9,4.4v-27.1c0-0.8-0.1-1.4-0.4-1.6c-0.2-0.3-0.7-0.4-1.3-0.5h-0.3l-0.2-1.1h0.4c0.3,0,0.6,0,1.1,0c0.5,0,0.8,0,1,0h5.6
			c0.2,0,0.5,0,1,0c0.5,0,0.9,0,1.1,0h0.4l-0.2,1.1h-0.3c-0.6,0.1-1.1,0.2-1.3,0.5c-0.2,0.3-0.4,0.8-0.4,1.6v16.5h6.8
			c0.8,0,1.4-0.1,1.6-0.4c0.3-0.2,0.4-0.7,0.5-1.3v-0.3l1.1-0.2v0.4c0,0.2,0,0.6,0,1.1c0,0.5,0,0.8,0,1v5.6c0,0.1,0,0.5,0,1
			c0,0.5,0,0.9,0,1.1V265.5z"/>
		<path id="XMLID_198_" class="st11" d="M310.7,250.4c0,3.7-1.3,6.9-3.9,9.5c-2.6,2.6-5.8,4-9.6,4c-3.7,0-6.9-1.3-9.5-4
			c-2.6-2.6-4-5.8-4-9.5c0-3.7,1.3-6.9,4-9.5c2.6-2.6,5.8-4,9.5-4c3.8,0,6.9,1.3,9.6,3.9C309.4,243.5,310.7,246.6,310.7,250.4z
			 M295.2,248.4v-5.9c-1.4,0.4-2.7,1.1-3.7,2.1c-1.1,1.1-1.8,2.3-2.1,3.7H295.2z M295.2,258.2v-5.9h-5.9c0.4,1.4,1.1,2.7,2.1,3.7
			C292.5,257.2,293.8,257.9,295.2,258.2z M305.1,248.4c-0.4-1.4-1.1-2.7-2.2-3.7c-1.1-1.1-2.3-1.8-3.7-2.1v5.9H305.1z M305.1,252.4
			h-5.9v5.9c1.4-0.4,2.7-1.1,3.8-2.1C304,255.1,304.7,253.8,305.1,252.4z"/>
		<path id="XMLID_204_" class="st11" d="M342.8,260.7c-2.6,2.1-5.5,3.2-8.8,3.2c-3.7,0-6.9-1.3-9.5-4c-2.6-2.6-4-5.8-4-9.5
			c0-3.7,1.3-6.9,4-9.5c2.6-2.6,5.8-4,9.5-4c2.8,0,5.3,0.8,7.6,2.3c0,0.7,0,1.9,0.1,3.7c0,1.8,0.1,3,0.1,3.5h-1.1
			c-0.2-0.7-0.8-1.5-1.8-2.3c-1.3-1.1-3-1.6-4.8-1.6c-2.1,0-4,0.8-5.5,2.3c-1.5,1.5-2.3,3.4-2.3,5.5c0,2.1,0.8,4,2.3,5.5
			c1.5,1.5,3.4,2.3,5.5,2.3c1.1,0,2.1-0.2,3.2-0.6v-4.3h-0.5c-0.8,0-1.4,0.1-1.6,0.3c-0.3,0.2-0.4,0.7-0.5,1.3v0.4l-1.1,0.2v-0.4
			c0-0.3,0-0.6,0.1-1.1c0-0.5,0.1-0.8,0.1-1v-4h9.2V260.7z"/>
		<path id="XMLID_206_" class="st11" d="M363.4,263.4h-0.4c-0.2,0-0.6,0-1.1,0c-0.5,0-0.8,0-1,0h-5.6c-0.1,0-0.5,0-1,0
			c-0.5,0-0.9,0-1.1,0h-0.4l0.2-1.1h0.3c0.6-0.1,1.1-0.2,1.3-0.5c0.2-0.3,0.4-0.8,0.4-1.6v-19.5c0-0.8-0.1-1.4-0.4-1.6
			c-0.2-0.3-0.7-0.4-1.3-0.5h-0.3l-0.2-1.1h0.4c0.3,0,0.6,0,1.1,0c0.5,0,0.8,0,1,0h5.6c0.2,0,0.5,0,1,0c0.5,0,0.9,0,1.1,0h0.4
			l-0.2,1.1h-0.3c-0.6,0.1-1.1,0.2-1.3,0.5c-0.2,0.3-0.4,0.8-0.4,1.6v19.5c0,0.8,0.1,1.4,0.4,1.6c0.2,0.3,0.7,0.4,1.3,0.5h0.3
			L363.4,263.4z"/>
		<path id="XMLID_208_" class="st11" d="M403.1,261.5l-0.4,0.2c-0.5,0.2-1.1,0.5-1.9,0.9l-5,2.6c-0.4,0.3-1,0.6-1.8,1.1l-0.4,0.2
			l-0.3-1.1l0.3-0.1c0.6-0.4,0.9-0.8,0.9-1.3c0-0.3-0.1-0.8-0.4-1.4l-1.2-2.4h-11.9l-1.2,2.4c-0.3,0.6-0.4,1.1-0.4,1.4
			c0,0.4,0.3,0.9,0.9,1.3c0.1,0,0.2,0.1,0.3,0.1l-0.3,1.1l-0.4-0.2c-0.4-0.3-1-0.7-1.8-1.1l-5-2.6c-0.4-0.2-1.1-0.5-1.9-0.9
			l-0.4-0.2l0.7-0.8c0.1,0,0.1,0.1,0.3,0.2c0.4,0.1,0.7,0.2,1,0.2c0.5,0,1-0.5,1.5-1.4l12.6-23.6l12.6,23.6c0.5,0.9,1,1.4,1.5,1.4
			c0.2,0,0.5-0.1,1-0.2c0.1-0.1,0.1-0.1,0.3-0.2L403.1,261.5z M390.3,254.7l-3.3-6.6l-3.3,6.6H390.3z"/>
		<path id="XMLID_211_" class="st11" d="M65.9,303.2c0,3.6-1.3,6.6-3.8,9.2c-2.6,2.5-5.6,3.8-9.2,3.8c-1.2,0-2.6-0.1-4.2-0.2h-3.7
			c-0.1,0-0.5,0-1,0.1c-0.5,0.1-0.9,0.1-1.1,0.1h-0.4l0.2-1.1H43c0.6-0.1,1.1-0.2,1.3-0.5c0.2-0.3,0.4-0.8,0.4-1.6v-19.5
			c0-0.8-0.1-1.4-0.4-1.6c-0.2-0.3-0.7-0.4-1.3-0.5h-0.3l-0.2-1.1h0.4c0.3,0,0.6,0,1.1,0c0.5,0,0.8,0,1,0h3c2.1,0,3.8,0,4.9,0
			c3.6,0,6.6,1.3,9.2,3.8C64.6,296.6,65.9,299.7,65.9,303.2z M60,303.2c0-2.1-0.8-4-2.3-5.5c-1.5-1.5-3.3-2.3-5.5-2.3h-1.5V311h1.5
			c2.1,0,4-0.8,5.5-2.3C59.3,307.2,60,305.4,60,303.2z"/>
		<path id="XMLID_214_" class="st11" d="M104.8,314.3l-0.4,0.2c-0.5,0.2-1.1,0.5-1.9,0.9l-5,2.6c-0.4,0.3-1,0.6-1.8,1.1l-0.4,0.2
			l-0.3-1.1l0.3-0.1c0.6-0.4,0.9-0.8,0.9-1.3c0-0.3-0.1-0.8-0.4-1.4l-1.2-2.4H82.8l-1.2,2.4c-0.3,0.6-0.4,1.1-0.4,1.4
			c0,0.4,0.3,0.9,0.9,1.3c0.1,0,0.2,0.1,0.3,0.1l-0.3,1.1l-0.4-0.2c-0.4-0.3-1-0.7-1.8-1.1l-5-2.6c-0.4-0.2-1.1-0.5-1.9-0.9
			l-0.4-0.2l0.7-0.8c0.1,0,0.1,0.1,0.3,0.2c0.4,0.1,0.7,0.2,1,0.2c0.5,0,1-0.5,1.5-1.4l12.6-23.6l12.6,23.6c0.5,0.9,1,1.4,1.5,1.4
			c0.2,0,0.5-0.1,1-0.2c0.1-0.1,0.1-0.1,0.3-0.2L104.8,314.3z M92.1,307.5l-3.3-6.6l-3.3,6.6H92.1z"/>
		<path id="XMLID_217_" class="st11" d="M145.5,316.2h-0.4c-0.2,0-0.6,0-1.1,0c-0.5,0-0.8,0-1,0h-5.5c-0.1,0-0.5,0-1,0
			c-0.5,0-0.9,0-1.1,0H135l0.3-1.1h0.3c0.6-0.1,1.1-0.2,1.3-0.5s0.4-0.8,0.4-1.6v-16.6h-5.6V313c0,0.8,0.1,1.4,0.4,1.6
			c0.2,0.3,0.7,0.4,1.3,0.5h0.3l0.3,1.1h-0.4c-0.2,0-0.6,0-1.1,0c-0.5,0-0.8,0-1,0h-5.5c-0.1,0-0.5,0-1,0c-0.5,0-0.9,0-1.1,0h-0.4
			l0.3-1.1h0.3c0.6-0.1,1.1-0.2,1.3-0.5c0.2-0.3,0.4-0.8,0.4-1.6v-16.6H120V313c0,0.8,0.1,1.4,0.3,1.6c0.2,0.3,0.7,0.4,1.3,0.5h0.3
			l0.3,1.1h-0.4c-0.2,0-0.6,0-1.1,0c-0.5,0-0.8,0-1,0h-5.5c-0.1,0-0.5,0-1,0c-0.5,0-0.9,0-1.1,0h-0.4l0.2-1.1h0.3
			c0.6-0.1,1.1-0.2,1.3-0.5c0.2-0.3,0.4-0.8,0.4-1.6v-19.5c0-0.8-0.1-1.4-0.4-1.6c-0.2-0.3-0.7-0.4-1.3-0.5H112l-0.2-1.1h0.4
			c0.3,0,0.6,0,1.1,0c0.5,0,0.8,0,1,0H143c0.2,0,0.5,0,1,0c0.5,0,0.9,0,1.1,0h0.4l-0.3,1.1H145c-0.6,0.1-1.1,0.2-1.3,0.5
			c-0.2,0.3-0.4,0.8-0.4,1.6V313c0,0.8,0.1,1.4,0.4,1.6c0.2,0.3,0.7,0.4,1.3,0.5h0.3L145.5,316.2z"/>
		<path id="XMLID_219_" class="st11" d="M166.4,316.2h-0.4c-0.2,0-0.6,0-1.1,0c-0.5,0-0.8,0-1,0h-5.6c-0.1,0-0.5,0-1,0
			c-0.5,0-0.9,0-1.1,0h-0.4l0.2-1.1h0.3c0.6-0.1,1.1-0.2,1.3-0.5c0.2-0.3,0.4-0.8,0.4-1.6v-19.5c0-0.8-0.1-1.4-0.4-1.6
			c-0.2-0.3-0.7-0.4-1.3-0.5h-0.3l-0.2-1.1h0.4c0.3,0,0.6,0,1.1,0c0.5,0,0.8,0,1,0h5.6c0.2,0,0.5,0,1,0c0.5,0,0.9,0,1.1,0h0.4
			l-0.2,1.1h-0.3c-0.6,0.1-1.1,0.2-1.3,0.5c-0.2,0.3-0.4,0.8-0.4,1.6V313c0,0.8,0.1,1.4,0.4,1.6c0.2,0.3,0.7,0.4,1.3,0.5h0.3
			L166.4,316.2z"/>
		<path id="XMLID_221_" class="st11" d="M206.1,314.3l-0.4,0.2c-0.5,0.2-1.1,0.5-1.9,0.9l-5,2.6c-0.4,0.3-1,0.6-1.8,1.1l-0.4,0.2
			l-0.3-1.1l0.3-0.1c0.6-0.4,0.9-0.8,0.9-1.3c0-0.3-0.1-0.8-0.4-1.4L196,313h-11.9l-1.2,2.4c-0.3,0.6-0.4,1.1-0.4,1.4
			c0,0.4,0.3,0.9,0.9,1.3c0.1,0,0.2,0.1,0.3,0.1l-0.3,1.1l-0.4-0.2c-0.4-0.3-1-0.7-1.8-1.1l-5-2.6c-0.4-0.2-1.1-0.5-1.9-0.9
			l-0.4-0.2l0.7-0.8c0.1,0,0.1,0.1,0.3,0.2c0.4,0.1,0.7,0.2,1,0.2c0.5,0,1-0.5,1.5-1.4l12.6-23.6l12.6,23.6c0.5,0.9,1,1.4,1.5,1.4
			c0.2,0,0.5-0.1,1-0.2c0.1-0.1,0.1-0.1,0.3-0.2L206.1,314.3z M193.3,307.5l-3.3-6.6l-3.3,6.6H193.3z"/>
		<path id="XMLID_224_" class="st11" d="M237.8,316.2h-0.4c-0.2,0-0.6,0-1.1,0c-0.5,0-0.8,0-1,0h-4.9c-0.1,0-0.5,0-1,0
			c-0.5,0-0.9,0-1.1,0h-0.4l0.3-1.1h0.3c0.6-0.1,1.1-0.2,1.3-0.5c0.2-0.3,0.4-0.8,0.4-1.6v-0.2l-9.5-9.6v9.8c0,0.8,0.1,1.4,0.4,1.6
			c0.2,0.3,0.7,0.4,1.3,0.5h0.3l0.2,1.1h-0.4c-0.2,0-0.6,0-1.1,0c-0.5,0-0.8,0-1,0h-4.9c-0.1,0-0.5,0-1,0c-0.5,0-0.9,0-1.1,0H213
			l0.2-1.1h0.3c0.6-0.1,1.1-0.2,1.3-0.5c0.2-0.3,0.4-0.8,0.4-1.6v-19.5c0-0.8-0.1-1.4-0.4-1.6c-0.2-0.3-0.7-0.4-1.3-0.5h-0.3
			l-0.2-1.1h0.4c0.3,0,0.6,0,1.1,0c0.5,0,0.8,0,1,0h4.9c0.2,0,0.5,0,1,0c0.5,0,0.9,0,1.1,0h0.4l-0.2,1.1h-0.3
			c-0.6,0.1-1.1,0.2-1.3,0.5c-0.2,0.3-0.4,0.8-0.4,1.6v0.2l9.5,9.5v-9.7c0-0.8-0.1-1.4-0.4-1.6c-0.2-0.3-0.7-0.4-1.3-0.5h-0.3
			l-0.3-1.1h0.4c0.3,0,0.6,0,1.1,0c0.5,0,0.8,0,1,0h4.9c0.2,0,0.5,0,1,0c0.5,0,0.9,0,1.1,0h0.4l-0.2,1.1h-0.4
			c-0.6,0.1-1.1,0.2-1.3,0.5c-0.2,0.3-0.3,0.8-0.3,1.6V313c0,0.8,0.1,1.4,0.3,1.6c0.2,0.3,0.7,0.4,1.3,0.5h0.4L237.8,316.2z"/>
		<path id="XMLID_226_" class="st11" d="M286.6,290.4l-11,19.8h7.1c0.9,0,1.4-0.1,1.7-0.4c0.3-0.2,0.4-0.7,0.5-1.3v-0.3l1.1-0.3v0.4
			c0,0.2,0,0.6,0,1.1c0,0.5,0,0.8,0,1v5.4c0,0.1,0,0.5,0,1c0,0.5,0,0.9,0,1.1v0.4l-1.1-0.2v-0.3c-0.1-0.6-0.2-1.1-0.5-1.3
			c-0.3-0.2-0.8-0.4-1.7-0.4h-17.5l11.2-20h-7.5c-0.8,0-1.4,0.1-1.6,0.3c-0.3,0.2-0.4,0.7-0.5,1.3v0.3l-1.1,0.3v-0.4
			c0-0.3,0-0.6,0.1-1.1c0-0.5,0.1-0.8,0.1-1v-5.1c0-0.2,0-0.5-0.1-1c0-0.5-0.1-0.9-0.1-1.1v-0.4l1.1,0.2v0.3
			c0.1,0.6,0.2,1.1,0.5,1.3c0.3,0.2,0.8,0.4,1.6,0.4H286.6z"/>
		<path id="XMLID_228_" class="st11" d="M324.7,314.3l-0.4,0.2c-0.5,0.2-1.1,0.5-1.9,0.9l-5,2.6c-0.4,0.3-1,0.6-1.8,1.1l-0.4,0.2
			l-0.3-1.1l0.3-0.1c0.6-0.4,0.9-0.8,0.9-1.3c0-0.3-0.1-0.8-0.4-1.4l-1.2-2.4h-11.9l-1.2,2.4c-0.3,0.6-0.4,1.1-0.4,1.4
			c0,0.4,0.3,0.9,0.9,1.3c0.1,0,0.2,0.1,0.3,0.1l-0.3,1.1l-0.4-0.2c-0.4-0.3-1-0.7-1.8-1.1l-5-2.6c-0.4-0.2-1.1-0.5-1.9-0.9
			l-0.4-0.2l0.7-0.8c0.1,0,0.1,0.1,0.3,0.2c0.4,0.1,0.7,0.2,1,0.2c0.5,0,1-0.5,1.5-1.4l12.6-23.6l12.6,23.6c0.5,0.9,1,1.4,1.5,1.4
			c0.2,0,0.5-0.1,1-0.2c0.1-0.1,0.1-0.1,0.3-0.2L324.7,314.3z M311.9,307.5l-3.3-6.6l-3.3,6.6H311.9z"/>
		<path id="XMLID_231_" class="st11" d="M372,290.2l-0.3,1.1h-0.3c-0.6,0.1-1,0.2-1.2,0.4c-0.2,0.2-0.5,0.7-0.9,1.5l-12.7,24.1
			l-6.2-11.7l-6.2,11.7l-12.7-24.1c-0.4-0.8-0.7-1.3-0.9-1.5c-0.3-0.3-0.7-0.4-1.3-0.5h-0.3l-0.3-1.1h0.4c0.3,0,0.6,0,1.1,0
			c0.5,0,0.8,0,1,0h6.3c0.2,0,0.5,0,1,0c0.5,0,0.9,0,1.1,0h0.4l-0.3,1.1h-0.3c-0.9,0.1-1.4,0.5-1.4,1.2c0,0.3,0.1,0.6,0.3,1
			l5.8,11.4l2.9-5.6l-3.2-6c-0.4-0.8-0.7-1.3-0.9-1.5c-0.2-0.2-0.6-0.4-1.2-0.4h-0.4l-0.2-1.1h0.4c0.3,0,0.6,0,1.1,0
			c0.5,0,0.8,0,1,0h5.5l1.2,2.6l1.2-2.6h5.5c0.2,0,0.5,0,1,0c0.5,0,0.9,0,1.1,0h0.4l-0.2,1.1H359c-0.6,0.1-1,0.2-1.2,0.4
			c-0.2,0.2-0.5,0.7-0.9,1.5l-3.2,6l2.9,5.6l5.8-11.4c0.2-0.4,0.3-0.7,0.3-1c0-0.7-0.5-1.1-1.5-1.2h-0.3l-0.3-1.1h0.4
			c0.3,0,0.6,0,1.1,0c0.5,0,0.8,0,1,0h6.3c0.2,0,0.5,0,1,0c0.5,0,0.9,0,1.1,0H372z"/>
		<path id="XMLID_233_" class="st11" d="M408.2,314.3l-0.4,0.2c-0.5,0.2-1.1,0.5-1.9,0.9l-5,2.6c-0.4,0.3-1,0.6-1.8,1.1l-0.4,0.2
			l-0.3-1.1l0.3-0.1c0.6-0.4,0.9-0.8,0.9-1.3c0-0.3-0.1-0.8-0.4-1.4l-1.2-2.4h-11.9l-1.2,2.4c-0.3,0.6-0.4,1.1-0.4,1.4
			c0,0.4,0.3,0.9,0.9,1.3c0.1,0,0.2,0.1,0.3,0.1l-0.3,1.1l-0.4-0.2c-0.4-0.3-1-0.7-1.8-1.1l-5-2.6c-0.4-0.2-1.1-0.5-1.9-0.9
			l-0.4-0.2l0.7-0.8c0.1,0,0.1,0.1,0.3,0.2c0.4,0.1,0.7,0.2,1,0.2c0.5,0,1-0.5,1.5-1.4l12.6-23.6l12.6,23.6c0.5,0.9,1,1.4,1.5,1.4
			c0.2,0,0.5-0.1,1-0.2c0.1-0.1,0.1-0.1,0.3-0.2L408.2,314.3z M395.4,307.5l-3.3-6.6l-3.3,6.6H395.4z"/>
		<path id="XMLID_236_" class="st11" d="M438.5,303.2c0,3.6-1.3,6.6-3.8,9.2s-5.6,3.8-9.2,3.8c-1.2,0-2.6-0.1-4.2-0.2h-3.7
			c-0.1,0-0.5,0-1,0.1c-0.5,0.1-0.9,0.1-1.1,0.1h-0.4l0.2-1.1h0.3c0.6-0.1,1.1-0.2,1.3-0.5c0.2-0.3,0.4-0.8,0.4-1.6v-19.5
			c0-0.8-0.1-1.4-0.4-1.6c-0.2-0.3-0.7-0.4-1.3-0.5h-0.3l-0.2-1.1h0.4c0.3,0,0.6,0,1.1,0s0.8,0,1,0h3c2.1,0,3.8,0,4.9,0
			c3.6,0,6.6,1.3,9.2,3.8S438.5,299.7,438.5,303.2z M432.7,303.2c0-2.1-0.8-4-2.3-5.5c-1.5-1.5-3.3-2.3-5.5-2.3h-1.5V311h1.5
			c2.1,0,4-0.8,5.5-2.3C432,307.2,432.7,305.4,432.7,303.2z"/>
		<path id="XMLID_239_" class="st11" d="M469.4,290.4l-11,19.8h7.1c0.9,0,1.4-0.1,1.7-0.4c0.3-0.2,0.4-0.7,0.5-1.3v-0.3l1.1-0.3v0.4
			c0,0.2,0,0.6,0,1.1c0,0.5,0,0.8,0,1v5.4c0,0.1,0,0.5,0,1c0,0.5,0,0.9,0,1.1v0.4l-1.1-0.2v-0.3c-0.1-0.6-0.2-1.1-0.5-1.3
			c-0.3-0.2-0.8-0.4-1.7-0.4H448l11.2-20h-7.5c-0.8,0-1.4,0.1-1.7,0.3c-0.3,0.2-0.4,0.7-0.5,1.3v0.3l-1.1,0.3v-0.4
			c0-0.3,0-0.6,0.1-1.1c0-0.5,0.1-0.8,0.1-1v-5.1c0-0.2,0-0.5-0.1-1c0-0.5-0.1-0.9-0.1-1.1v-0.4l1.1,0.2v0.3
			c0.1,0.6,0.2,1.1,0.5,1.3c0.3,0.2,0.8,0.4,1.7,0.4H469.4z"/>
		<path id="XMLID_241_" class="st11" d="M504.4,316.2H504c-0.2,0-0.6,0-1.1,0c-0.5,0-0.8,0-1,0h-6l-9.3-9.4v6.2
			c0,0.8,0.1,1.4,0.4,1.6c0.2,0.3,0.7,0.4,1.3,0.5h0.3l0.2,1.1h-0.4c-0.2,0-0.6,0-1.1,0c-0.5,0-0.8,0-1,0h-5.6c-0.1,0-0.5,0-1,0
			c-0.5,0-0.9,0-1.1,0h-0.4l0.2-1.1h0.3c0.6-0.1,1.1-0.2,1.3-0.5c0.2-0.3,0.4-0.8,0.4-1.6v-19.5c0-0.8-0.1-1.4-0.4-1.6
			c-0.2-0.3-0.7-0.4-1.3-0.5h-0.3l-0.2-1.1h0.4c0.3,0,0.6,0,1.1,0c0.5,0,0.8,0,1,0h5.6c0.2,0,0.5,0,1,0c0.5,0,0.9,0,1.1,0h0.4
			l-0.2,1.1h-0.3c-0.6,0.1-1.1,0.2-1.3,0.5c-0.2,0.3-0.4,0.8-0.4,1.6v3l6.1-6.2h5.3c0.2,0,0.5,0,1,0c0.5,0,0.9,0,1.1,0h0.4l-0.3,1.1
			c-0.1,0-0.2,0-0.3,0c-0.6,0.1-1.5,0.8-2.9,2.1l-7.8,7.8l11.7,11.7c1.3,1.3,2.3,2.1,2.9,2.1c0.1,0,0.2,0,0.3,0L504.4,316.2z"/>
		<path id="XMLID_243_" class="st11" d="M521.1,316.2h-0.4c-0.2,0-0.6,0-1.1,0c-0.5,0-0.8,0-1,0H513c-0.1,0-0.5,0-1,0
			c-0.5,0-0.9,0-1.1,0h-0.4l0.2-1.1h0.3c0.6-0.1,1.1-0.2,1.3-0.5s0.4-0.8,0.4-1.6v-19.5c0-0.8-0.1-1.4-0.4-1.6s-0.7-0.4-1.3-0.5
			h-0.3l-0.2-1.1h0.4c0.3,0,0.6,0,1.1,0c0.5,0,0.8,0,1,0h5.6c0.2,0,0.5,0,1,0c0.5,0,0.9,0,1.1,0h0.4l-0.2,1.1h-0.3
			c-0.6,0.1-1.1,0.2-1.3,0.5c-0.2,0.3-0.4,0.8-0.4,1.6V313c0,0.8,0.1,1.4,0.4,1.6c0.2,0.3,0.7,0.4,1.3,0.5h0.3L521.1,316.2z"/>
	</g>
</g>
</svg>
