<?xml version="1.0" encoding="utf-8"?>
<!-- Generator: Adobe Illustrator 19.0.0, SVG Export Plug-In . SVG Version: 6.00 Build 0)  -->
<svg version="1.1" id="Warstwa_1" xmlns="http://www.w3.org/2000/svg" xmlns:xlink="http://www.w3.org/1999/xlink" x="0px" y="0px"
	 viewBox="358 -130 1016 560" style="enable-background:new 358 -130 1016 560;" xml:space="preserve">
<style type="text/css">
	.st0{opacity:0.4;enable-background:new    ;}
	.st1{opacity:0.8;enable-background:new    ;}
	.st2{fill:#FFBF00;}
	.st3{fill:#FFC720;}
	.st4{stroke:#FFBF00;stroke-miterlimit:10;}
</style>
<g id="Pengtagram_x5F_circle">
	<g id="XMLID_160_">
		<circle id="LargeCircle" class="st0" cx="1149.5" cy="160.8" r="188.8"/>
		<circle id="littleCircle" class="st1" cx="1149.5" cy="160.7" r="162"/>
	</g>
	<g id="XMLID_2_">
		<path id="XMLID_4_" class="st2" d="M1252,21.5l1-15.3h1.9l-0.8,14l13.1-4.9l0.8,2l-14.5,5.4l-2.7,3.7l3.4,2.5l-1.2,1.6l-8.5-6.2
			l1.2-1.6l3.5,2.6L1252,21.5z"/>
	</g>
	<g id="XMLID_5_">
		<path id="XMLID_16_" class="st2" d="M988.9,218.7l-12.1,4.5l0.5,1.2l-4-1.1l2.3-3.5l0.4,1.2l12-4.6c-0.5-0.8-0.9-1.3-1.1-1.7
			c-0.3-0.4-0.5-0.7-0.6-0.9s-0.6-0.5-1.2-1.1c-1.3-1.3-2.8-1.7-4.4-1.1l-5,1.9l-2.3,0.9l0.4,1.1l-4-1l2.2-3.6l0.5,1.2l2.2-0.8
			l5-1.9c0.8-0.3,1.7-0.4,2.7-0.2s2,0.6,3.1,1.3c1.2,0.7,2,1.5,2.6,2.3s1.1,1.8,1.7,3l2.2-0.8l-1.6-4.1l1.7-0.6l1.6,4.1l1.8-0.7
			l0.9,2.2l-1.8,0.7l1.6,4.1l-1.7,0.6l-1.6-4.1l-2.2,0.8c0.2,0.9,0.4,1.6,0.6,2.2c0.1,0.6,0.2,1.3,0.2,2.1s-0.1,1.6-0.4,2.5
			c-0.3,1.2-0.7,2.2-1.3,3s-1.4,1.3-2.3,1.7l-4.9,1.9l-2.3,0.9l0.5,1.3l-4.1-1.4l2.3-3.4l0.4,1.1l2.3-0.9l4.9-1.9
			c0.8-0.3,1.3-0.7,1.8-1.3c0.4-0.6,0.7-1.4,0.8-2.4c0.1-0.7,0.2-1.2,0.2-1.5s0-0.6-0.1-1.1C989.1,220.3,989,219.6,988.9,218.7z"/>
	</g>
	<g id="XMLID_154_">
		<path id="XMLID_155_" class="st2" d="M1317.7,221.7l-3.8-1.4l-1.9,5l-1.4-0.5l1.9-5l-3.3-1.2c-1.1,1.5-2.3,1.9-3.7,1.4
			c-0.9-0.3-1.5-1-1.9-2c-0.3-1-0.3-2,0.1-3c0.3-0.9,1-1.7,1.9-2.4c0.9-0.5,1.8-0.6,2.7-0.3c1.5,0.6,2.2,1.8,1.9,3.8l3.3,1.2
			l1.8-4.8l1.6,0.6l-1.8,4.8l3.6,1.3c0.8-2,2-3.8,3.7-5.4c1.4-1.3,2.7-1.7,3.9-1.2c1.5,0.6,2.2,1.9,2.3,3.9c0.1,1.2,0.1,2.4-0.1,3.5
			c-0.1,1.1-0.4,2.2-0.8,3.3c-0.5,1.3-1,2.5-1.6,3.5s-1.2,1.9-1.9,2.6c-0.8,0.9-1.7,1.6-2.6,2.1s-1.6,0.7-2.3,0.5
			c-0.9-0.3-1.5-1.7-1.9-4.2c-0.1-0.9-0.2-1.9-0.1-2.9C1317.2,223.9,1317.4,222.8,1317.7,221.7z M1325.5,214.5
			c-0.5-0.2-0.9-0.1-1.4,0.2s-1.1,0.8-1.7,1.5c-1.1,1.1-2,2.6-2.7,4.4c-0.7,1.8-1,3.5-0.9,5.1c0.1,2.4,0.6,3.8,1.4,4.1
			s2-0.4,3.5-2.1c0.8-0.9,1.6-2.4,2.5-4.6c0.7-1.8,1-3.5,1-5.1c0-0.8-0.1-1.6-0.4-2.2S1326,214.6,1325.5,214.5z M1324,216.9l1.2,0.5
			l-3.4,9.2l-1.2-0.5L1324,216.9z M1307.6,213.9c-0.5-0.2-1.1-0.2-1.7,0.1c-0.5,0.3-0.8,0.8-1,1.4c-0.2,0.6-0.3,1.2-0.1,1.7
			c0.1,0.5,0.5,0.9,1.2,1.2c0.6,0.2,1.1,0.2,1.7-0.2c0.5-0.3,0.8-0.8,1-1.3c0.2-0.6,0.3-1.1,0.1-1.6
			C1308.6,214.5,1308.2,214.1,1307.6,213.9z"/>
	</g>
	<g id="XMLID_149_">
		<path id="XMLID_150_" class="st2" d="M1041.9,21.2v4l7.7-5.1l-1.2-1.8l-6.7-10.1l2.2-1.5l6.8,10.2l1.1,1.7l2.1-1.4l1.3,2l-2.1,1.4
			l2.2,3.3l-2.2,1.5l-2.2-3.3l-11.5,7.7l-0.1-6.7l0.1-3.9c0-0.7,0-1.1,0-1.4c0-0.3-0.1-0.5-0.1-0.8c-0.1-0.3-0.1-0.5-0.1-0.6
			c-0.1-0.4-0.3-0.9-0.6-1.3c-0.3-0.5-0.7-0.8-1-1c-0.5-0.3-1-0.2-1.5,0.1c-0.3,0.2-0.5,0.5-0.7,0.7c-0.1,0.2-0.2,0.4-0.3,0.8
			c-0.1,0.3-0.4,0.9-0.6,1.5l-2-1.4c0.7-1.3,1.2-2.2,1.5-2.6c0.2-0.3,0.5-0.6,0.9-0.9c1-0.7,2.1-0.9,3.2-0.7
			c0.5,0.1,0.9,0.3,1.2,0.5c0.3,0.2,0.7,0.6,1.2,1c0.2,0.2,0.3,0.4,0.4,0.5c0.6,0.9,0.9,2.1,1,3.8
			C1041.9,18,1041.9,19.3,1041.9,21.2z"/>
	</g>
	<g id="XMLID_8_">
		<path id="XMLID_148_" class="st2" d="M1135.7,337.3c0-3.4,1.3-6.3,3.9-8.7s5.8-3.7,9.5-3.7s6.8,1.2,9.4,3.7
			c2.6,2.4,3.9,5.3,3.9,8.7c0,3.4-1.3,6.3-3.9,8.7c-2.6,2.4-5.8,3.7-9.4,3.7c-3.7,0-6.9-1.2-9.5-3.7
			C1137,343.5,1135.7,340.6,1135.7,337.3z M1138.1,337.3c0,2.8,1.1,5.1,3.3,7.2c2.1,2,4.7,3,7.8,3c3,0,5.6-1,7.8-3
			c2.1-1.9,3.1-4.3,3.1-7.2c0-1.4-0.3-2.7-0.8-3.9s-1.3-2.3-2.4-3.3c-2.2-2-4.8-3-7.8-3c-3.1,0-5.6,1-7.8,3
			C1139.2,332,1138.1,334.5,1138.1,337.3z M1147.6,337.3c0-0.4,0.2-0.7,0.5-1s0.7-0.5,1.1-0.5s0.8,0.2,1.1,0.5s0.5,0.6,0.5,1
			c0,0.4-0.2,0.7-0.5,1s-0.7,0.4-1.1,0.4s-0.8-0.1-1.1-0.4C1147.7,338,1147.6,337.6,1147.6,337.3z"/>
	</g>
</g>
<g id="pentagram">
	<g id="XMLID_446_">
		<g id="XMLID_543_">
			<g id="XMLID_434_">
				<g id="XMLID_445_">
					<g id="XMLID_448_">
						<g id="XMLID_449_">
							<path id="XMLID_536_" class="st3" d="M1056.9,38.2c-1.8-1.3-1.4-0.5-1.7-0.6C1058.2,39.6,1056.9,38,1056.9,38.2z"/>
							<polygon id="XMLID_535_" class="st3" points="1086.8,58.6 1086.2,58.4 1090.8,61.1 							"/>
							<path id="XMLID_534_" class="st3" d="M1114.3,78.4c-2.2-2.5-10-7.1-14.8-10.8l-0.7-0.7l-2.5-1.1
								C1102.3,70,1110.2,75.2,1114.3,78.4z"/>
							<path id="XMLID_533_" class="st3" d="M1128,90.3c-0.7-0.9,3.3,2.1-3.4-2.5c0.3,0.3,0.4,0.3,0.6,0.5
								C1125.8,88.7,1126.7,89.2,1128,90.3z"/>
							<path id="XMLID_532_" class="st3" d="M1125.3,88.2C1122.4,86.1,1127,89.8,1125.3,88.2L1125.3,88.2z"/>
							<path id="XMLID_531_" class="st3" d="M1138.7,97.7l-4-2.5c0.7,0.7,4.1,3.2,2.7,2.4C1141.5,100.3,1140.8,99.6,1138.7,97.7z"/>
							<path id="XMLID_530_" class="st3" d="M1142.6,99.9l-2-1.3C1140.9,98.9,1141.4,99.3,1142.6,99.9z"/>
							<path id="XMLID_529_" class="st3" d="M1136.3,95.7l4.3,2.8c-0.5-0.5-0.4-0.7-2-1.3C1139.1,97.3,1138.1,96.9,1136.3,95.7z"/>
							<path id="XMLID_528_" class="st3" d="M1134,93.9c-2-1.7-4.8-3.7-0.8-1.2C1125.8,87.6,1126.6,88.8,1134,93.9z"/>
							<path id="XMLID_527_" class="st3" d="M1116.1,78.8l-2.7-2.2l-2.6-1.6C1112.1,75.8,1116.2,79.2,1116.1,78.8z"/>
							<path id="XMLID_526_" class="st3" d="M1162.2,115.2c0.3,0-1-1.3-1.2-1.6l-2.9-1.9C1159.5,112.8,1162.2,114.8,1162.2,115.2z"
								/>
							<path id="XMLID_525_" class="st3" d="M1161,113.6l4.4,2.8C1161.6,113.6,1160.9,113.2,1161,113.6z"/>
							<polygon id="XMLID_524_" class="st3" points="1143.8,99.8 1136.5,95.2 1145.1,100.7 							"/>
							<polygon id="XMLID_523_" class="st3" points="1178.3,126.8 1175.7,125.4 1180.3,128 							"/>
							<path id="XMLID_522_" class="st3" d="M1189,134.4c-1.9-1,2.1,2.1,0.2,0.9c2.9,2,5.6,3.6,7.9,5.1
								C1194.7,138.8,1192.2,137,1189,134.4z"/>
							<path id="XMLID_521_" class="st3" d="M1201,142.9c-1.2-0.8-2.5-1.6-3.9-2.4C1198.4,141.3,1199.7,142.1,1201,142.9z"/>
							<path id="XMLID_520_" class="st3" d="M1172.5,121.6c0.3,0.3,0.8,1,3.1,2.7l-1.4-1.5C1173.7,122.5,1173.1,122,1172.5,121.6z"
								/>
							<path id="XMLID_519_" class="st3" d="M1174.1,122.8L1174.1,122.8c1.8,1.4,3.1,2.3,3.6,2.7
								C1177.3,125.1,1176.2,124.3,1174.1,122.8z"/>
							<path id="XMLID_518_" class="st3" d="M1172.1,121.3c0.2,0.1,0.3,0.2,0.4,0.3C1172.4,121.5,1172.3,121.4,1172.1,121.3z"/>
							<path id="XMLID_517_" class="st3" d="M1154.6,108c2.6,1.6,7.9,5.1,3.1,1.2C1155.8,108.2,1158.5,110.4,1154.6,108z"/>
							<path id="XMLID_516_" class="st3" d="M1170.4,119.4l-4.4-3.3c0,0.2,0.7,0.9-0.6,0.1L1170.4,119.4z"/>
							<polygon id="XMLID_515_" class="st3" points="1172.6,120.9 1170.4,119.4 1172,120.6 							"/>
							<path id="XMLID_514_" class="st3" d="M1193.6,137c2,1.2,4.2,2.8,6.6,4.5c-2.5-1.9-5.1-3.9-7.6-5.7
								C1192.1,135.8,1190.9,135.1,1193.6,137z"/>
							<path id="XMLID_513_" class="st3" d="M1184.2,130.1c0.1,0.1,0.3,0.2,0.4,0.3C1184.4,130.1,1184.2,130,1184.2,130.1z"/>
							<path id="XMLID_512_" class="st3" d="M1223.7,158.4c-0.1-0.1-0.2-0.2-0.3-0.3h-0.1L1223.7,158.4z"/>
							<path id="XMLID_511_" class="st3" d="M1192.2,135.4c-1.9-1.5-3.1-2.2-4.3-2.9c1.5,1,3,2.1,4.6,3.3
								C1192.7,135.9,1192.8,135.9,1192.2,135.4z"/>
							<path id="XMLID_510_" class="st3" d="M1207.7,147.5c-0.9-0.8-2-1.7-3.2-2.6C1205.4,145.7,1207.3,147.3,1207.7,147.5z"/>
							<path id="XMLID_509_" class="st3" d="M1185.2,130.9c-0.1-0.1-0.2-0.1-0.3-0.2C1185.5,131.3,1185.4,131.3,1185.2,130.9z"/>
							<path id="XMLID_508_" class="st3" d="M1185.2,130.9c1,0.7,1.9,1.1,2.7,1.6c-1.2-0.8-2.3-1.6-3.3-2.2
								C1184.8,130.6,1185,130.8,1185.2,130.9z"/>
							<path id="XMLID_507_" class="st3" d="M1232.4,161.4c-0.6,0.1-5.8-3.3-10-6.8c-4.5-2.9-2.4,0.2,0.9,3.5c0.2,0,0.3-0.2,4.9,2.8
								c-1.4-1.3-9.5-7.5-5.6-5.1c6,4.1,4.7,3.6,7.4,5.8c-2.1-2.1,7.9,4.8,7,3.3l-5.3-3.5C1231.8,161.3,1233.8,162.5,1232.4,161.4z"
								/>
							<path id="XMLID_506_" class="st3" d="M1215,152l-1.8-1.3c2,1.6,3.4,2.8,6,5c3.1,2,3.9,2.4,4.1,2.4l-8.9-6.5L1215,152z"/>
							<path id="XMLID_505_" class="st3" d="M1204.9,144.8c1.7,0.7,6.2,3.7,3.7,1.4c-5.4-3.8-4-2.4-7.3-4.6
								C1210.1,147.8,1198.8,140.1,1204.9,144.8c-1.8-1.3-3.3-2.3-4.8-3.4c1.5,1.2,3,2.3,4.3,3.4c-0.1-0.1-0.1-0.1-0.2-0.2l0,0l0,0
								c-0.3-0.3-0.4-0.4,0-0.1c0,0,0.1,0.1,0.2,0.1C1204.5,144.7,1204.7,144.8,1204.9,144.8c2.4,1.9,0.3,0.4-0.5-0.1h-0.1l0,0
								l8.8,6C1211.3,149.4,1209,147.7,1204.9,144.8z"/>
							<path id="XMLID_504_" class="st3" d="M1162.9,111.8c0.2,0.2,0.2,0.2,0.2,0.3C1163.7,112.5,1163.9,112.6,1162.9,111.8z"/>
							<path id="XMLID_503_" class="st3" d="M1166.3,114.6c-0.7-0.4-1.3-0.6-3.3-2.1c-1.7-1.4,0.1-0.2,0.1-0.3
								c-1.3-0.8-4.5-2.9-0.8,0.1l0.6,0.4c3.4,2.6,7.5,6.3,6.9,5.9C1169.1,117.4,1168.4,116.6,1166.3,114.6z"/>
							<path id="XMLID_502_" class="st3" d="M1185.9,129.8l7.3,5l-3.4-2.9l0.1,0.3C1185.8,129.3,1186.5,130,1185.9,129.8z"/>
							<polygon id="XMLID_501_" class="st3" points="1224.4,159.2 1223.2,158.9 1227.7,161.4 							"/>
							<polygon id="XMLID_500_" class="st3" points="1233.8,165.9 1233.2,166 1235.8,167.6 							"/>
							<path id="XMLID_499_" class="st3" d="M1219.8,47.8l2-1.6C1220.8,46.9,1220.2,47.4,1219.8,47.8z"/>
							<path id="XMLID_498_" class="st3" d="M1204.4,58.8l-0.3,0.4C1204.8,58.6,1205.1,58.4,1204.4,58.8z"/>
							<path id="XMLID_497_" class="st3" d="M1093.6,207c-3.8-0.4-8-0.9-7.6-0.5l1.2,0.4C1089.9,206.9,1091.9,206.9,1093.6,207z"/>
							<path id="XMLID_496_" class="st3" d="M1080.5,151.1c-0.3,0.2-0.6,0.4-1,0.5c-0.7,0.7-1.3,1.3-1.8,1.8
								C1078.5,152.7,1079.5,151.9,1080.5,151.1z"/>
							<path id="XMLID_495_" class="st3" d="M1081.6,148l4.2-2.7C1084.8,145.9,1083.5,146.8,1081.6,148z"/>
							<path id="XMLID_494_" class="st3" d="M1219.6,110.2l-0.5,3C1220.6,108.7,1219.7,110.7,1219.6,110.2z"/>
							<path id="XMLID_493_" class="st3" d="M1258.5,207.1c-3.3-0.2-5.9-0.2-8.2-0.3C1254.3,207.1,1257.5,207.5,1258.5,207.1z"/>
							<path id="XMLID_492_" class="st3" d="M1216.4,55.9c1.2-1,1.7-1.5,1.7-1.5C1216.8,55.4,1216.1,56,1216.4,55.9z"/>
							<path id="XMLID_491_" class="st3" d="M1240.9,206.9c0.6,0,1.1,0.1,1.7,0.1c2.4-0.1,4.8-0.1,7.7-0.1
								C1247.5,206.7,1244.1,206.6,1240.9,206.9z"/>
							<path id="XMLID_490_" class="st3" d="M1098.1,169.4c-0.1-0.3-0.2-0.6-0.2-0.8C1097.8,168.6,1098,168.9,1098.1,169.4z"/>
							<path id="XMLID_489_" class="st3" d="M1068.5,64.7c0.4,1,0.9,2.7,1.4,4.2C1069.7,68.1,1069.3,66.8,1068.5,64.7z"/>
							<path id="XMLID_488_" class="st3" d="M1271.2,193.2C1269.2,191.8,1270.9,193,1271.2,193.2L1271.2,193.2z"/>
							<path id="XMLID_487_" class="st3" d="M1262.6,184.8c0.4,0.3,0.8,0.4,0.9,0.4C1263.3,185.2,1263,185.1,1262.6,184.8z"/>
							<path id="XMLID_486_" class="st3" d="M1216.6,209.6c-0.1,0-0.1,0-0.2,0C1217.1,209.6,1217,209.6,1216.6,209.6z"/>
							<path id="XMLID_485_" class="st3" d="M1268.4,190.9c0.7,0.6,1.5,1.2,2.5,1.9C1270.4,192.5,1269.7,191.9,1268.4,190.9z"/>
							<path id="XMLID_484_" class="st3" d="M1268.6,191.3c-0.7-0.5-1.2-0.9-1.7-1.3C1266.7,189.9,1266.8,190.1,1268.6,191.3z"/>
							<path id="XMLID_483_" class="st3" d="M1274,195.2c-1.1-0.8-2.2-1.6-3.2-2.4c0.4,0.3,0.5,0.4,0.4,0.4
								C1271.8,193.6,1272.6,194.2,1274,195.2z"/>
							<path id="XMLID_482_" class="st3" d="M1164,274.5c-0.1,0.1-0.1,0.3-0.2,0.5C1163.2,277.3,1163.5,276.3,1164,274.5z"/>
							<path id="XMLID_481_" class="st3" d="M1030,211.5c0.1,0,0.2,0,0.3,0C1030.2,211.5,1030.1,211.5,1030,211.5L1030,211.5z"/>
							<path id="XMLID_480_" class="st3" d="M1021.3,211.8c3.7-0.5,5.9-0.5,8.7-0.4l-2.9-1.3L1021.3,211.8z"/>
							<path id="XMLID_473_" class="st3" d="M1237.4,55.2l2.3-5.7c-1.7,7.3-3.6,12.3-1.3,7c-0.4-0.5,0.6-3.9,1.9-8.1
								c1.1-3.5,2.4-7.3,3.5-10.9c1.2-3.8,2.4-7.4,3.1-10c-3.2,2.4-5.3,4.2-6,5l-5.2,3.4c1.6-1.1,1.9-1.4,3.5-2.6
								c-2.6,1.7-4.6,3.1-6.1,4.2c-0.8,0.6-1.4,1.1-2,1.6c-0.3,0.2-0.6,0.5-0.8,0.7c-0.2,0.1-0.2,0.2-0.3,0.3l-0.2,0.2
								c-1.2,1.3-2.7,2.8-6.9,5.7c-2.9,2-5.1,3.3-3.2,1.7l-6.2,4.9c-1.9,1.3-1.6,0.8,0.3-0.5l-9.7,7.1v-0.1c-1.3,1.2-4.2,3.7-5.7,5
								c-2.6,1.6,1.2-1,0.4-0.7l-5.2,4.2c-2.4,1.3,1.9-2.2,5.6-4.9c-5.8,2.5-4.3,3.5-15.7,10.7l5-3.8c-3.7,1.8-7.6,4.9-13.6,8.6
								c1.5-0.8,12.3-7.4,6.6-2.9c-1.7,1.1-3.9,2.6-6.9,5.2c-0.3-0.4-3.3,2-7.2,4.8l-0.1-0.7c-4.1,3.2-3.6,3.2-5.9,5.2
								c-4.7,3.3-6,3.6-7.3,4.1c-7.5,5.3,5.6-3.1-3.1,3.4c-6.4,4.3-10.6,7.6-17.8,13.3c-4.5,3,0.5-0.9-1.1,0.1l-3.6,3.2
								c-1,0.7-0.7,0.3-0.6,0.1c-3.1,2.5,0.1,0.7-4.9,4.5c-1,1.6-11.1,6.7-16.9,11.9c-1.7,1,0.5-0.9-0.1-0.7
								c-8.4,6.7-7.2,5.7-13.9,11.4l-6.3,4c4.7-2.8-0.6,1.7-5.3,5.7c1.7-1,3.2-1.8,4.2-2.3l-7.8,6c-1,0.6-0.3-0.1,0.8-1.3
								c-0.5,0.4-1,0.9-1.4,1.2c-3,1.9-1.7,0.5,0.1-1.3c1-0.6,2.1-1.2,3.1-1.7c1.7-1.7,3.3-3.4,2.7-3.4c-0.5,0.4-1.4,1.2-2.5,2
								c0.5-0.5,0.7-0.8,0.5-0.7c-0.3,0.1-1.1,0.9-2.3,1.9l-2.2,0.7l-0.3,0.5l-10.7,7.2c-7,6-12.9,11.5-24.6,20.3
								c2.6-2.5,0.1-1.1-0.1-1.8c3.6-1.8,9-6.8,15.2-11.1c-3.2,2.3-2.7,1.5-2,0.8l-10.6,8.4c-0.1-0.6-2.5,1.4-5.5,3.3
								c2.7-0.7-7.8,6.4-12,9.9c-0.5-0.1,0.4-1.1,5.9-5c-6.4,3.7-7.1,6.5-13.3,10.3c1.3-1,2.1-1.4,2.5-2c-2.9,2.5-10.6,7.7-9,6.2
								l1.3-1c-2.1,1.5-4.7,3.3-7.4,5.3c-3.4,2.4-7,5.1-10.5,7.6c6.3,0,12.3-0.1,16.6-0.3c0.4,0,0.8,0,1.2-0.1c0.4,0,0.7,0,1.1-0.1
								c0.7,0,1.3-0.1,1.8-0.1c1-0.1,1.7-0.2,1.9-0.3c0.1,0.1-1.4,1-2.1,1.2l19.4-2.9c-1.7,0.7,4.8,2.5-4.2,2.9
								c2.6,0.1,5.8,0.2,11.2,0c-1.8-0.1-4.4-1.1-2-1.1c6.6,0.8,4.6,0.4,12.7,1.1c-2.6-0.2,0.3-1.3,4.5-1.3
								c-0.7,0.2,0.3,1.1-1.2,1.2l10.4-1.1c-2.6,0.2-0.5,1,1.9,1.3c-1.1-0.2,9,0,11.8-0.1l-4.4-0.3c11.7,0.2,11.6-1.6,23.2-1.5
								c-1.4,0.2-3.5,1.4,2.4,1.6c2.7-0.6,12-2.8,22.3-3.2l2,0.3l7.9-0.4c-4.9,0.9-18.7,2.7-26.3,3.4c4.4,0.3,1.2,0.4,7.8,0.4
								c2.3,0.3-3.6,0.5-5.5,0.5l15.3,0.2c-0.7-0.7,11.7-0.7,11.1-1.2l-16.6,0.7c-0.7-0.7,9.6-1.9,20.5-1.8c2.8,0.3-2.1,1.2-1.8,1.4
								c1.4-0.2,10.3-0.4,11.3-0.3l-4.6,0.4c6,0.3,9.9-0.9,17.1-0.2c2.5,0,7.5,0.9,7.9,0.5c-4.1-0.8-4.9-3.1-2.2-3.7
								c0.9,0.1,13.1,0.7,16,1.1c4.1,0.6-6.2,1.4-2.7,2c0.2-0.2,2.4-0.4,3.4-0.5c2.6,0.2-1.1,0.6,4.6,0.5c1-0.7,11.6,0.1,2.7-0.6
								c5.6-0.2,5.9,0.1,12.5,0.1c-2.1-0.4,5.9-1.5,11.5-1.7c-0.3,0.2,0.9,0.4,1.5,0.5c11.5,0.1,17.6,0.4,28.3,0.4
								c1,0.2,6.1,0.4,3.9,0.7c1.5-0.1,2.9-0.4,6.2-0.4c6.4,0.6-7.3,0.1-2.5,0.8c0.4-0.4,8.5-0.5,13.2-0.8
								c-1.4-0.6-10.8-0.1-15.5,0.1c0-0.8,8.2-1.7,19.3-2.1c8.9-0.2,3.8,0.5,5.4,0.4c3.6,0,6.4,0,8.6-0.1c1.1,0,2-0.1,2.9-0.2
								c0.7-0.1,1.2-0.1,1.6-0.2c0.7-0.1,1.4-0.2,2.2-0.4c0.7-0.1,1.4-0.2,2.6-0.1c-0.5-0.4-1-0.8-1.6-1.3c-0.7-0.8-0.5-1,0.2-0.8
								s1.9,0.8,1.8,0.5c1.9,1.3,3.4,2.4,4.6,3.3c-1.9,0-3.7-0.1-5.3-0.2c-1.6-0.1-2.9-0.1-4.4-0.1l5.7,0.3
								c-1.7,0.2-6.5,0.3-9.1,0.2c1,0.1,2.8,0.2,5.2,0.2c2.5,0,5.6,0,8.9,0.1c-3.7-2.7-7.8-5.7-11.8-8.6c-3.9-2.8-7.6-5.6-10.5-7.8
								c-2-1.2-5.3-3.3-3.9-2.1l3.3,2.3c2.8,2.5-6.6-4-2.5-0.8c-4.6-2.9-9.8-6.1-15.9-10.8l-0.8-1.3c0,0.2,3.9,3.2,5.7,4.3
								c-2.8-1.7-9.1-7.6-12.4-9l4.1,3.5c-4.6-3-10.5-6.4-15.9-10.5c2.2,2.3,1.3,0.9,4.8,4.3c-2.9-3.2,14.1,10.2,9.2,5.5
								c3.5,3.6,6.8,5.3,11.6,9.7c0-0.3-1.6-1.7,2.9,1.8c0.2,0.1,0.8,0.4,1.1,0.6c0.1,0.1,0.2,0.1,0.3,0.2c-0.1-0.1-0.2-0.1-0.2-0.2
								c0.2,0.1,0.2,0.1-0.1-0.1c-1.1-0.9-1.9-1.6-2.2-2c2.6,1.3,9.9,6.6,12.6,8.2c2.7,2.1-1.3-0.6,0.1,0.6l3.9,2.4
								c0.1,0.6,6.9,5.9,0.2,1.4l5,3.6c0.7,0.7,1.2,1.2,1.9,1.7c-0.3,0-0.5,0-0.6,0.1c-0.6,0-0.9,0.1-1.3,0.2
								c-0.4,0.1-0.5,0.2-0.2,0c0,0-0.2,0-0.5,0c-0.1,0-0.2,0-0.3,0h-0.2c-0.2,0-0.3,0-0.5,0c-0.7,0-1.4,0-2.1,0.1
								c-2.8,0.1-5.6,0.1-5.6,0.1l-0.1-0.1c-11.1-0.1-22.9,0.7-35.6-0.1c-3.7,0.1-7.6,0.3-13.9,0.1l-1.2-0.4
								c-4.8,0.1-14.4-0.4-16.5,0c-5.2-1-23.4-0.2-31.8-0.4l-0.3,0.5c-5.8,0-11.4,0.1-18.6,0.3l0.4,0.4c-6.2,0.4-16-0.3-25.9-0.3
								c0.7-0.2,3.2-0.1,4.9,0c-11.8-1-24.9,0.7-35.5,0c-2.7,0.2-4.6,0.1-6.5,0c0.2,0,0.5,0,0.7,0c-0.3,0-0.7,0-1.1,0
								c-1.2-0.1-2.4-0.2-3.7-0.2c1.1,0.1,2.2,0.2,3.1,0.2c-2.1,0-5.2,0.1-8.2,0.2l-1.3-0.5c-0.2,0-0.4,0-0.7,0
								c-3-0.2-2.4,0.2-0.8,0.6c-1.5,0.1-2.9,0.2-4,0.3c-2.4-0.8-8,0.3-11.3-0.6c-2.1,0.4-15.3,0.3-17,1.2c-0.1-0.1-1-0.2,0.6-0.2
								c-3.4-0.1-6.8-0.2-9.9,0l-1.4-0.6l-7.4,0.8c-4.5-0.4-6.4-0.6-1.9-1.1c-10.8,0.7-8.8,0.3-18,1l0.4-0.4c-0.8,0-1.8,0-2.8,0.1
								c-0.5,0-1,0.1-1.5,0.1c-0.3,0-0.7,0.1-1,0.1c-1.4,0.1-2.8,0.1-3.2,0c-0.7-0.1-1.7-0.2-3-0.3c1.6-1.1,3.4-2.3,5.2-3.6
								c3.1-2.2,6.4-4.6,9.9-7.1c7.3-5.3,15.1-10.8,21.6-15.1c-3.7,1.2,7.4-4.7,7.5-5.9c1.1-0.4,3.3-1.8,0.9,0.1
								c7.7-5.9,12-8.1,17-12.6c1.1-0.4-1.4,1.5-0.5,1.1c0.6-0.5,2.3-2,3.3-2.4c0.9-0.4-1,1-2.2,2c8-5.8,8.3-7.1,8.4-8.1
								c4.3-2.6,6.3-4.1,8.9-6.6c1.6-0.8,4.1-2.3-0.8,1.4c2.8-2,17.3-12,17.2-12.7c1-0.5,3.9-2.8,4.6-3.4c6.3-4.5,6.9-4.8,13-9.3
								l-1.8,1.1c2-2.4,5-3.8,9.9-7.5l-0.1,0.2c11.7-7.8,4.8-3.8,16.3-11.3l-0.9,0.1c0.4-1.6,10.3-6.7,16.6-11.7l-2.5,1.5
								c3.3-2.9,10.8-6,14.4-8.5c0.8-0.5-1.1,1-2.2,1.8c9.7-6.2,0.8-1.4,7.7-6.5c1.5-0.7-1.2,1.9,3.6-1.4c2.5-1.5,13-10.7,19.7-14.8
								c-1.6,0.8-3.1,1.6,0-0.9c4.9-3.7,14-8.9,18-12.8c0.7-0.4,1-0.5,1-0.5c3.7-2.9,12.1-9.2,14.1-11.2c1.6-0.3,3.1-1.4,5.9-3.6
								c-0.3,1-0.5,2-0.8,3c-0.3,1.1-0.6,2.2-0.9,3.2c-0.1,0.3-0.2,0.7-0.3,1c-0.1,0.3-0.2,0.7-0.3,1c-0.2,0.6-0.4,1.2-0.6,1.6
								c-0.4,0.9-0.7,1.4-0.9,1.3l-4.4,13.7v-0.4c-3,8.7-3.6,11.9-4.3,15.1c-0.8,2-0.4,0.5-0.4,0.3c-4.5,12.7-4.8,14-7.6,24.9
								l-0.8,1c-0.7,3-6.8,18.2-10.4,30.9c0-0.1,0-0.4,0.2-1.4c-4.1,14.3-12.4,33.3-12.4,39l-2.6,9.4c4.1-12,0.2,2,2.1-2.8
								c-1.5,4.8-4.5,12.1-2.7,6.2l0.4-0.9c-0.2-2.4-5.2,14.8-5.7,14.3c-7.7,23.7-15.8,46.6-23.2,68.7l1.5-2.3l-2.6,7.7
								c-0.8,2-1.4,2.5,0.4-3c-1.3,2.8-2.7,9.4-2.6,9.6c-3.8,10.7,0.6-4.5-0.5-1.2l-1.4,4.5l0.4-1c-0.9,3.7-0.7,4.2-2.9,10.8
								c-1.5,4.1-1.1,2-1.7,3.7c0,0-0.3,0.5-0.9,2.5l-2.3,6.9c0,0,0.2-0.2,0.5-0.5s0.6-0.8,0.6-0.8c-0.3,1.4-0.8,2.8-1,3.6
								c-0.1,0.4-0.2,0.7-0.1,0.8c0,0.1,0.2,0,0.5-0.6c-0.4,0.6-0.8,1.6-1.3,2.8c-0.6-2.1-1.2-4.2-1.9-6.3
								c-1.1-3.3-2.2-6.8-3.3-10.1c-2.3-6.9-4.3-12.9-4.7-14.6c-2.4-5.9-4.3-11.9-6.7-19.3c0.5,1.9,0.2,3.2-1.8-3.2
								c2,1.9-3.3-11.9-4-17.3c0.9,4.8-6.1-18.1-4.6-10.6c-1.6-5.4,0.4-0.5-0.6-4.6c-4.6-12.5-8.8-28-14.1-43.6
								c-0.2-0.2,0.4,2.5-1-0.8l-1.9-8.5c-1.1-3.1-1.9-2.5-3.2-8.4c0.1,0.8,0.3,2.1-0.4,0c-9.2-30.9-21.1-62.5-29.8-94.1
								c1.1,4.3,0.1,1.5-1-1.7c0.6,2.1-0.4,0.1-0.5,0.6l-3.6-13.2c-1.4-2.2-4.6-14-5.7-15.1l1.5,4.1c-2.5-5.3,0.9,8.2-0.2,7.7
								c2.8,5.9,4.1,16.6,8.6,26.3c0.5,2.3-0.9-1.8-0.7-0.5c1.2,2.4,2.3,5.5,4,11.3l-0.3-0.6c5.3,16.1,7.2,23.1,12.9,41.2v-1.5
								c1.2,3.9,1.3,4.8,1.8,6.6c2.1,4.2-3.5-10.9-1.4-7.1c0.8,5.4,8.9,27.4,9,31.2c1.9,6,0-1.9,1.9,4.1l0.2,1.7l0.9,1.4
								c1.2,3.9,1.5,6,1.3,6.3c-0.3-1-0.9-2.7-1.3-3.7c1.3,5.2,4.8,14.3,5.3,16.1l-1.7-5.8c5.6,16.2,11.7,36.2,17.4,51.8l-0.2-1.3
								c4.3,11.9,2.9,9.7,7.4,22.9l-0.2-0.5c1.1,2.6,2.3,6.1,3.5,9.7c-1.3-3.3,1.6,6.4-0.1,2.1c4.7,12.9,2.4,6.3,6,14.7l0.3,2.1
								c1.3,2.8,1.5,3,3.8,9.6c-2.1-5.3,0.8,4.4-1.5-1.5c1.9,7,3.7,12.1,5.3,16.3c0.5,1.5,1,2.8,1.5,4.2c0.5,1.3,0.9,2.6,1.3,3.9
								c0.8,2.5,1.5,5.1,2.3,8.4c0.2,0.4,0.3,0.6,0.4,0.7c0.4-1.8,0.3-1.9,0-1.2c-0.6-2.2-1.9-6.2-2.9-9.4c-1-3.2-1.8-5.5-1.1-3.7
								c-0.5-2.1,0.2-0.5,1.1,1.9c0.9,2.4,2.1,5.6,2.9,8.3c0.1-0.2,0.1-0.3,0.2-0.4c0.8-2.5,1.6-3.8,3-7.1c0.3-0.8,0.7-1.7,1.2-2.8
								c0.4-1,0.8-2.1,1.3-3.3c0.7-1.9,1.6-4.1,2.5-6.9c-0.4,1.1-0.3,1.2-0.7,2.3c1.6-4.1,2.3-8.3,4.4-13.2c0.4-3.1,2.2-6.6,1.7-7.7
								l-3.2,10.2c1.7-5.8,2.6-11.6,6.2-20.9c-0.1,0.8-0.8,3.7-1.4,5.7c1.1-2.7,1.6-5.4,2.8-8.2c0.5,1.1-3.9,12.4-5.4,18.8
								c1.3-2.9,3.3-11.9,3.1-8.5c0.4-4.8,3.7-10.9,5.4-18.7l0.3,0.6c0.3-1.2,0.9-3.8,1.7-5.9l-0.7,4.2c1.5-6.3,4.3-11.6,6-17.5
								c-4,12.2-1.4,2.6-3.5,7.6c4.4-15.3,4-8.3,9.4-25.3c-0.7,2.3-3.1,8.5-2.1,4.9c1.2-3.2,2.7-7.4,3.6-9.3c3.6-11.2-1,1.6,0.3-3.3
								c1.8-3.6,1.6-5.6,3-10.5l0.5,0.1c4.5-12.7,0.2-3.7,4.3-15.1l-1,5.1l1.8-6l0.1,1.4c1.8-6.6,2.5-8.6,4.8-15
								c-0.8,1.4-0.6-1.1,1.3-6.8c1.5-3.8-0.3,2.3,2.3-5.7c-0.3,1.9-0.6,4-2.2,7.3c0,0.4-0.3,1.9-0.3,2.3c1.7-4,3.5-10.4,4.5-13.3
								c-0.4,1.1-0.8,2.4-1.1,3.1l3.2-11.8c0.8-1.8,0.4-0.3,0.1,1.2c0.7-2.4,1-4.1,2.1-7.5c0.1,1,0.5,0.9-0.9,5.9l3.2-11.2
								c0.4-0.7,2.3-5.5,2-4c2.2-6.1,4.2-15.3,7.2-23.3c0.1-0.4,0.3-1.3,0.8-3.1c2.6-7.6,5.3-14.2,7.8-23.5l2.4-4.9
								c2.2-7.1-3.1,6.7,0.5-5.2c2.5-8.4,1.6-2.9,2.7-5.8c1-4.3,2.7-11.7,5.8-19.2C1238.9,50.8,1238.1,52.8,1237.4,55.2z
								 M1181.8,75.4c1.4-1.1,4.1-3.5,5.3-4C1185.8,73.1,1184.4,73.8,1181.8,75.4z M1068.9,158.2c1-0.9,2.7-2,4.7-3.2
								C1072.3,156,1070.7,157.1,1068.9,158.2z M1289.7,206c0,0,0.1,0,0.1,0.1c0.4,0.4,0.5,0.5,0.5,0.5
								C1290.3,206.5,1290,206.3,1289.7,206z M1286.6,203.5c-0.7-0.4-0.7-0.3-0.5-0.1c0.3,0.1,0.8,0.5,1.4,0.9
								c0.3,0.2,0.6,0.4,1,0.7c0-0.1-0.1-0.2-0.3-0.4c-0.1-0.1-0.3-0.2-0.4-0.3C1287.4,204.1,1287,203.8,1286.6,203.5z
								 M1152.7,298.3l0.6-1.5C1152.3,300.3,1152.5,299.3,1152.7,298.3z"/>
							<path id="XMLID_472_" class="st3" d="M1081.4,148.4c0.5-0.2,0.6-0.2,0.8-0.2C1082.7,147.7,1082.7,147.6,1081.4,148.4z"/>
							<path id="XMLID_471_" class="st3" d="M1219.7,109.7l-0.1,0.3c0,0.2,0,0.2,0,0.3L1219.7,109.7z"/>
							<path id="XMLID_470_" class="st3" d="M1183.6,211.5c-1.7-0.1-2.7-0.2-3.3-0.2C1180.2,211.3,1181,211.4,1183.6,211.5z"/>
							<path id="XMLID_469_" class="st3" d="M1250.6,178.6l4.4,3c-2.1-1.5-2.8-2.1-3.8-2.9C1251.2,178.8,1251.9,179.5,1250.6,178.6z
								"/>
							<path id="XMLID_468_" class="st3" d="M1215.1,149.3c-0.7-0.4-1.3-1-2-1.4v0.3C1215.8,150.1,1217.8,151.3,1215.1,149.3z"/>
							<path id="XMLID_467_" class="st3" d="M1247.6,174.4c-0.1-0.6-2.9-2.4-5.9-4.5c0.2,0.1,0.4,0.3,0.5,0.4
								C1240.9,170.1,1244.3,172.2,1247.6,174.4z"/>
							<path id="XMLID_466_" class="st3" d="M1240.9,169.4c-0.9-0.7-1.9-1.3-2.8-2C1237.7,167.3,1239.2,168.2,1240.9,169.4z"/>
							<path id="XMLID_465_" class="st3" d="M1277.9,197.6c-1.4-1.1-1.2-0.2-1.9-0.9C1274.1,195.9,1285.9,203,1277.9,197.6z"/>
							<polygon id="XMLID_464_" class="st3" points="1245.9,171.6 1246.7,172.7 1248.6,173.6 							"/>
							<path id="XMLID_463_" class="st3" d="M1269.4,189l-4.7-3.6c0,0.1-0.6-0.3-1.4-0.8C1266.3,186.8,1269.5,189.2,1269.4,189z"/>
							<path id="XMLID_462_" class="st3" d="M1263.3,184.6c-1.5-1.1-3-2.2-3.9-2.7C1260.3,182.5,1262.1,183.8,1263.3,184.6z"/>
							<polygon id="XMLID_461_" class="st3" points="1252.6,176.2 1253.9,177.3 1257.3,179.8 							"/>
							<path id="XMLID_460_" class="st3" d="M1270.4,209l-6.5,0.1c-0.7,0.2,1.1,0.3,3.5,0.2C1269,209.3,1271.4,209.2,1270.4,209z"/>
							<path id="XMLID_459_" class="st3" d="M1290.7,210.4c-2.2-0.1-2.4-0.2-3.6-0.4c0,0,0,0.2-0.1,0.3c0,0.2-0.1,0.3-0.1,0.3
								L1290.7,210.4z"/>
							<path id="XMLID_458_" class="st3" d="M1271.1,210.5c-0.6,0.2-9.4,0.5-1.2,0.5C1270.5,210.8,1277,210.7,1271.1,210.5z"/>
							<polygon id="XMLID_457_" class="st3" points="1173.6,209.8 1175.3,209.8 1175,208.7 							"/>
							<path id="XMLID_456_" class="st3" d="M1087.7,212.2c7.7,0.2,1.8-0.6,8.7-0.3c1.8-0.2-5.7-0.2-3.8-0.5
								C1088,211.7,1085.6,211.5,1087.7,212.2z"/>
							<path id="XMLID_455_" class="st3" d="M1092.7,211.4c0.7,0,1.5-0.1,2.4-0.2C1093.7,211.3,1093.1,211.4,1092.7,211.4z"/>
							<polygon id="XMLID_454_" class="st3" points="1063.4,47.3 1062.1,42.6 1062.8,45.7 							"/>
							<path id="XMLID_453_" class="st3" d="M1059.8,38.6l0.3-1.3l-1.5-2.6C1058.9,35.7,1059.7,37.7,1059.8,38.6z"/>
							<path id="XMLID_452_" class="st3" d="M1169.9,82.4l-0.2,0.3c0.7-0.3,1.7-1,3.6-2.3L1169.9,82.4z"/>
							<polygon id="XMLID_451_" class="st3" points="1224.4,43.7 1223.5,44.3 1225.6,43.5 							"/>
							<path id="XMLID_450_" class="st3" d="M1233.2,71.9c0.7-2.2,1.5-4.8,2.2-6.9C1234,69.7,1232.3,72.2,1233.2,71.9z"/>
						</g>
					</g>
				</g>
			</g>
		</g>
		<g id="XMLID_447_">
			<g id="XMLID_338_">
				<g id="XMLID_342_">
					<g id="XMLID_344_">
						<g id="XMLID_345_">
							<path id="XMLID_432_" class="st3" d="M1004,212.6c-1.8,1.3-0.9,1.1-1.1,1.4C1005.7,211.7,1003.8,212.5,1004,212.6z"/>
							<polygon id="XMLID_431_" class="st3" points="1032.7,190.5 1032.3,191 1036.4,187.5 							"/>
							<path id="XMLID_430_" class="st3" d="M1060.1,170.6c-3,1.3-9.9,7.3-14.9,10.7l-0.9,0.5l-1.9,2.1
								C1048.3,179.4,1055.8,173.5,1060.1,170.6z"/>
							<path id="XMLID_429_" class="st3" d="M1075.6,161.2c-1.1,0.4,3-2.5-3.5,2.4c0.4-0.2,0.5-0.3,0.7-0.4
								C1073.4,162.8,1074.3,162.2,1075.6,161.2z"/>
							<path id="XMLID_428_" class="st3" d="M1072.8,163.2C1070,165.3,1074.9,162,1072.8,163.2L1072.8,163.2z"/>
							<path id="XMLID_427_" class="st3" d="M1086.1,153.4l-3.7,3c0.9-0.4,4.3-2.9,3.1-1.9C1089.4,151.6,1088.5,152,1086.1,153.4z"
								/>
							<path id="XMLID_426_" class="st3" d="M1089.4,150.4l-1.9,1.5C1087.9,151.7,1088.4,151.3,1089.4,150.4z"/>
							<path id="XMLID_425_" class="st3" d="M1083.4,155.1l4-3.2c-0.6,0.3-0.8,0.2-1.9,1.5C1085.8,152.9,1085.1,153.7,1083.4,155.1z
								"/>
							<path id="XMLID_424_" class="st3" d="M1081,156.7c-2.2,1.4-5,3.3-1.4,0.4C1072.4,162.5,1073.8,162.1,1081,156.7z"/>
							<path id="XMLID_423_" class="st3" d="M1061.1,169l-3,1.9l-2.3,2C1057,171.9,1061.4,169,1061.1,169z"/>
							<path id="XMLID_422_" class="st3" d="M1110,136.5c0.1-0.3-1.5,0.6-1.9,0.7l-2.7,2.2C1106.9,138.4,1109.7,136.5,1110,136.5z"
								/>
							<path id="XMLID_421_" class="st3" d="M1108.1,137.1l4-3.3C1108.4,136.6,1107.7,137.3,1108.1,137.1z"/>
							<polygon id="XMLID_420_" class="st3" points="1089.6,149.2 1083,154.7 1090.9,148.3 							"/>
							<polygon id="XMLID_419_" class="st3" points="1126,124.8 1123.9,126.9 1127.8,123.3 							"/>
							<path id="XMLID_418_" class="st3" d="M1136.7,117.1c-1.6,1.5,2.7-1.4,0.9,0.1c2.9-2.1,5.2-4.1,7.3-5.9
								C1142.6,113.1,1140.1,114.9,1136.7,117.1z"/>
							<path id="XMLID_417_" class="st3" d="M1148.4,108.3c-1.1,0.9-2.3,1.9-3.5,3C1146.1,110.3,1147.3,109.3,1148.4,108.3z"/>
							<path id="XMLID_416_" class="st3" d="M1119.3,128.8c0.4-0.2,1.1-0.4,3.6-2.1l-1.9,0.9
								C1120.5,127.9,1119.9,128.3,1119.3,128.8z"/>
							<path id="XMLID_415_" class="st3" d="M1120.9,127.6L1120.9,127.6c1.9-1.3,3.1-2.2,3.7-2.6
								C1124.1,125.3,1123,126.1,1120.9,127.6z"/>
							<path id="XMLID_414_" class="st3" d="M1118.9,129c0.2-0.1,0.3-0.2,0.4-0.3C1119.1,128.8,1119,128.9,1118.9,129z"/>
							<path id="XMLID_413_" class="st3" d="M1100.8,141.5c2.3-2,7.3-5.9,2.1-2.6C1101.4,140.5,1104.3,138.6,1100.8,141.5z"/>
							<path id="XMLID_412_" class="st3" d="M1116.5,130.1l-4.5,3.2c0.2,0,1.1-0.4-0.1,0.6L1116.5,130.1z"/>
							<polygon id="XMLID_411_" class="st3" points="1118.6,128.4 1116.5,130.1 1118.2,128.9 							"/>
							<path id="XMLID_410_" class="st3" d="M1140.5,113.5c1.8-1.6,3.9-3.1,6.3-4.9c-2.6,1.8-5.3,3.7-7.8,5.5
								C1138.8,114.5,1137.8,115.5,1140.5,113.5z"/>
							<path id="XMLID_409_" class="st3" d="M1131,120.3c0.1-0.1,0.3-0.2,0.4-0.3C1131.1,120.1,1130.9,120.3,1131,120.3z"/>
							<path id="XMLID_408_" class="st3" d="M1170.3,91.6c-0.1,0.1-0.3,0.1-0.4,0.2v0.1L1170.3,91.6z"/>
							<path id="XMLID_407_" class="st3" d="M1138.6,114.4c-2,1.3-3.1,2.2-4.1,3.1c1.4-1.1,2.9-2.2,4.5-3.4
								C1139.2,114,1139.2,113.9,1138.6,114.4z"/>
							<path id="XMLID_406_" class="st3" d="M1154.8,103.4c-1.1,0.7-2.2,1.4-3.5,2.2C1152.4,105,1154.6,103.7,1154.8,103.4z"/>
							<path id="XMLID_405_" class="st3" d="M1132.1,119.6c-0.1,0.1-0.2,0.1-0.3,0.2C1132.5,119.5,1132.4,119.5,1132.1,119.6z"/>
							<path id="XMLID_404_" class="st3" d="M1132.1,119.6c1-0.8,1.7-1.4,2.4-2.1c-1.1,0.9-2.2,1.7-3.1,2.4
								C1131.7,119.8,1131.9,119.7,1132.1,119.6z"/>
							<path id="XMLID_403_" class="st3" d="M1175.8,84.2c-0.1,0.6-4.9,4.5-9.5,7.4c-4.1,3.4-0.5,2.4,3.6,0.2c0-0.2-0.1-0.4,4.2-3.8
								c-1.7,0.9-10.1,6.7-6.6,3.7c5.7-4.4,4.9-3.4,7.8-5.3c-2.7,1.4,7-6,5.3-5.6l-5,3.9C1175.5,84.8,1177.3,83.3,1175.8,84.2z"/>
							<path id="XMLID_402_" class="st3" d="M1161.4,97.9l-1.8,1.4c2.1-1.4,3.7-2.4,6.6-4.1c2.9-2.4,3.4-2.9,3.6-3.2l-9,6.5
								L1161.4,97.9z"/>
							<path id="XMLID_401_" class="st3" d="M1151.5,105.2c1.2-1.4,5.4-4.7,2.5-3.1c-5.3,3.9-3.5,3-6.6,5.5
								C1155.9,101.2,1145,109.5,1151.5,105.2c-1.7,1.3-3.2,2.4-4.7,3.5c1.6-1.1,3.1-2.1,4.6-3.1c-0.1,0-0.1,0.1-0.2,0.1l0,0l0,0
								c-0.4,0.2-0.5,0.3-0.1,0c0,0,0.1-0.1,0.2-0.1C1151.2,105.5,1151.4,105.4,1151.5,105.2c2.5-1.7,0.5-0.2-0.3,0.4l-0.1,0.1l0,0
								l8.5-6.4C1157.8,100.5,1155.5,102.2,1151.5,105.2z"/>
							<path id="XMLID_400_" class="st3" d="M1107,134.8c0.3-0.2,0.3-0.1,0.3-0.1C1107.9,134.3,1108.1,134.1,1107,134.8z"/>
							<path id="XMLID_399_" class="st3" d="M1110.7,132.5c-0.6,0.5-1,1-3.1,2.5c-1.8,1.2-0.1-0.2-0.3-0.2c-1.2,1-4.1,3.4-0.1,0.7
								l0.6-0.5c3.6-2.4,8.3-5.2,7.8-4.7C1114.3,130.8,1113.2,131.1,1110.7,132.5z"/>
							<path id="XMLID_398_" class="st3" d="M1131.3,118.6l7-5.4l-3.9,2.4h0.3C1130.6,118.5,1131.7,118.1,1131.3,118.6z"/>
							<polygon id="XMLID_397_" class="st3" points="1171.2,91.2 1170.5,92.3 1174.3,88.7 							"/>
							<polygon id="XMLID_396_" class="st3" points="1180.5,84.4 1180.4,85 1182.7,83 							"/>
							<path id="XMLID_395_" class="st3" d="M1063.9,60.8l-0.9-2.4C1063.4,59.6,1063.7,60.3,1063.9,60.8z"/>
							<path id="XMLID_394_" class="st3" d="M1069.6,78.8l0.3,0.4C1069.6,78.4,1069.4,78.1,1069.6,78.8z"/>
							<path id="XMLID_393_" class="st3" d="M1175.8,230.4c-1.5,3.5-3.4,7.3-2.8,7l0.8-1C1174.5,233.9,1175.2,232,1175.8,230.4z"/>
							<path id="XMLID_392_" class="st3" d="M1118.6,225.4c0.1,0.4,0.1,0.7,0.2,1.1c0.4,0.8,0.8,1.6,1.2,2.3
								C1119.5,227.8,1119.1,226.6,1118.6,225.4z"/>
							<path id="XMLID_391_" class="st3" d="M1116.1,223.4l-1.2-4.9C1115.1,219.6,1115.5,221.2,1116.1,223.4z"/>
							<path id="XMLID_390_" class="st3" d="M1123.2,80.4l2.7,1.4C1122.1,79.1,1123.6,80.5,1123.2,80.4z"/>
							<path id="XMLID_389_" class="st3" d="M1227.4,73.7c-1.2,3.1-2.1,5.5-2.8,7.7C1226.1,77.7,1227.4,74.8,1227.4,73.7z"/>
							<path id="XMLID_388_" class="st3" d="M1070.6,66.5c-0.6-1.5-0.8-2.1-0.9-2C1070.2,66,1070.6,66.9,1070.6,66.5z"/>
							<path id="XMLID_387_" class="st3" d="M1221.6,90.4c0.2-0.5,0.4-1.1,0.6-1.6c0.7-2.3,1.4-4.6,2.3-7.4
								C1223.5,84.1,1222.4,87.2,1221.6,90.4z"/>
							<path id="XMLID_386_" class="st3" d="M1141.6,214.3c-0.3,0-0.6,0-0.8-0.1C1140.6,214.3,1141,214.3,1141.6,214.3z"/>
							<path id="XMLID_385_" class="st3" d="M1032.8,209.8c1.1,0,2.8,0,4.5,0C1036.4,209.7,1035.1,209.7,1032.8,209.8z"/>
							<path id="XMLID_384_" class="st3" d="M1218.1,57.3C1216.2,58.7,1217.8,57.6,1218.1,57.3L1218.1,57.3z"/>
							<path id="XMLID_383_" class="st3" d="M1207.5,62.9c0.4-0.3,0.7-0.6,0.7-0.7C1208.1,62.3,1207.8,62.6,1207.5,62.9z"/>
							<path id="XMLID_382_" class="st3" d="M1216.6,114.3c0,0.1,0,0.1-0.1,0.2C1216.9,113.9,1216.8,114,1216.6,114.3z"/>
							<path id="XMLID_381_" class="st3" d="M1215,59.3c0.8-0.5,1.7-1.1,2.6-1.7C1217.2,57.8,1216.4,58.3,1215,59.3z"/>
							<path id="XMLID_380_" class="st3" d="M1215.5,59.2c-0.7,0.5-1.2,0.9-1.8,1.2C1213.6,60.6,1213.8,60.5,1215.5,59.2z"/>
							<path id="XMLID_379_" class="st3" d="M1220.9,55.3c-1.1,0.8-2.2,1.6-3.2,2.3c0.4-0.3,0.6-0.4,0.5-0.3
								C1218.7,56.9,1219.5,56.3,1220.9,55.3z"/>
							<path id="XMLID_378_" class="st3" d="M1261.8,184.6c0.1,0.1,0.3,0.2,0.4,0.3C1264.3,186.2,1263.4,185.6,1261.8,184.6z"/>
							<path id="XMLID_377_" class="st3" d="M1160.3,292.3c0-0.1,0-0.2,0.1-0.3C1160.3,292,1160.3,292.1,1160.3,292.3L1160.3,292.3z
								"/>
							<path id="XMLID_376_" class="st3" d="M1157.8,300.6c0.7-3.7,1.4-5.7,2.4-8.4l-2.1,2.4L1157.8,300.6z"/>
							<path id="XMLID_369_" class="st3" d="M1076.4,46.4l-4.7-4c6.4,3.9,10.6,7.3,6.2,3.4c-0.6,0.2-3.6-1.8-7.1-4.3
								c-3-2.2-6.2-4.5-9.3-6.8c-3.2-2.4-6.3-4.6-8.5-6.1c1.3,3.8,2.3,6.4,2.9,7.2l1.6,6c-0.6-1.9-0.8-2.2-1.4-4.1
								c0.8,3,1.5,5.3,2.1,7.1c0.3,0.9,0.6,1.7,0.9,2.4c0.1,0.4,0.3,0.7,0.4,1c0.1,0.2,0.1,0.3,0.2,0.4l0.2,0.3
								c0.8,1.6,1.8,3.4,3.2,8.3c1,3.4,1.5,5.8,0.7,3.6l2.7,7.4c0.7,2.2,0.3,1.7-0.4-0.5l3.8,11.5l-0.1-0.1c0.7,1.6,2.2,5.2,2.9,7
								c0.7,3-0.6-1.4-0.5-0.6l2.3,6.3c0.5,2.7-1.5-2.5-2.9-6.9c0.6,6.4,2,5.2,5.3,18.2l-2.1-6c0.5,4.1,2.3,8.7,4,15.6
								c-0.3-1.7-3.2-14-0.6-7.2c0.5,2,1.3,4.6,2.7,8.2c-0.4,0.2,0.8,3.8,2.3,8.3l-0.7-0.1c1.7,4.9,1.9,4.4,3.1,7.2
								c1.7,5.5,1.6,6.8,1.6,8.2c2.7,8.8-1.2-6.3,2.2,4.1c2.1,7.4,4,12.4,7.1,21c1.4,5.2-0.7-0.8-0.2,1.1l1.9,4.4
								c0.3,1.1,0.1,0.8-0.1,0.6c1.4,3.8,0.7,0.1,2.8,6.1c1.2,1.4,2.9,12.6,6.1,19.8c0.4,1.9-0.7-0.8-0.7-0.1
								c3.7,10,3.1,8.6,6.5,16.8l1.9,7.3c-1.2-5.4,1.5,1.1,3.8,6.9c-0.4-1.9-0.7-3.6-0.9-4.7l3.3,9.3c0.3,1.2-0.3,0.3-1-1.2
								c0.3,0.6,0.5,1.2,0.7,1.7c0.8,3.4-0.1,1.8-1.2-0.5c-0.2-1.2-0.5-2.4-0.7-3.5c-1.1-2.2-2.2-4.2-2.4-3.6c0.3,0.6,0.7,1.7,1.1,3
								c-0.3-0.6-0.5-0.9-0.5-0.6s0.5,1.3,1.1,2.8v2.3l0.4,0.4l3.5,12.4c3.5,8.5,6.9,15.8,11.6,29.7c-1.6-3.3-1-0.5-1.7-0.5
								c-0.6-4-3.7-10.7-5.8-17.9c1.1,3.8,0.6,3,0.2,2.1l4.6,12.7c-0.6-0.1,0.5,2.8,1.4,6.3c0.1-2.8,3.7,9.4,5.6,14.5
								c-0.2,0.4-0.9-0.7-2.9-7.1c1.5,7.3,4,8.7,5.6,15.8c-0.5-1.6-0.7-2.4-1.1-3c1.4,3.5,4,12.5,3.1,10.5l-0.5-1.6
								c0.8,2.5,1.7,5.5,2.7,8.7c1.3,4,2.6,8.2,4,12.3c1.9-6,3.7-11.7,4.9-15.8c0.1-0.4,0.2-0.8,0.3-1.2c0.1-0.4,0.2-0.7,0.3-1
								c0.2-0.6,0.3-1.2,0.4-1.7c0.2-1,0.3-1.7,0.3-1.9c0.1-0.1,0.5,1.7,0.5,2.3l3.3-19.3c0.2,1.8,3.9-3.8,1.4,4.8
								c0.9-2.4,2-5.4,3.5-10.7c-0.6,1.6-2.4,3.8-1.7,1.5c2.8-6,1.8-4.2,5-11.7c-1,2.5-1.1-0.7,0.2-4.6c0,0.7,1.2,0,0.8,1.5
								l2.2-10.2c-0.6,2.5,0.8,0.7,1.8-1.4c-0.5,1,2.8-8.5,3.6-11.2l-1.6,4.1c3.8-11.1,2.1-11.5,5.8-22.5c-0.2,1.4,0.3,3.8,2.3-1.8
								c0.3-2.8,1.1-12.3,3.9-22.2l0.9-1.8l2.1-7.6c-0.7,4.9-3.3,18.6-5,26c1.6-4.1,0.8-1,2.8-7.3c1-2.1-0.7,3.6-1.3,5.4l5-14.5
								c-0.9,0.4,3-11.3,2.3-11l-4.5,16c-0.8,0.4,1.2-9.7,4.7-20c1.1-2.5,0.5,2.3,0.8,2.2c0.2-1.4,2.8-9.9,3.3-10.8l-1.1,4.5
								c2.1-5.7,2.2-9.6,5.1-16.3c0.8-2.4,3.2-6.8,2.9-7.4c-2,3.6-4.5,3.7-4.2,0.9c0.3-0.8,4.8-12.3,6.1-14.9c1.9-3.7-0.6,6.3,1,3.2
								c-0.1-0.2,0.4-2.4,0.6-3.4c1-2.4,0.2,1.2,1.9-4.2c-0.3-1.1,3.7-11,0.3-2.7c1.6-5.4,2-5.6,4-11.8c-1.1,1.8,0.4-6.1,2-11.4
								c0.1,0.4,0.7-0.8,1-1.3c3.6-10.9,5.8-16.6,9.2-26.8c0.5-0.9,2.3-5.7,1.9-3.5c0.4-1.5,0.6-2.9,1.6-6c2.5-5.9-2.2,7,0,2.6
								c-0.2-0.5,2.1-8.3,3.4-12.8c-1,1.2-3.5,10.3-4.7,14.8c-0.8-0.2,0.9-8.3,4-19c2.6-8.5,1.7-3.5,2.1-5c1.2-3.5,2-6.1,2.6-8.2
								c0.3-1.1,0.5-2,0.7-2.8c0.2-0.7,0.2-1.1,0.3-1.6c0.1-0.8,0.2-1.4,0.3-2.2c0.1-0.7,0.3-1.4,0.7-2.6c-0.5,0.4-1.1,0.7-1.8,1.1
								c-1,0.4-1.1,0.2-0.7-0.5c0.4-0.6,1.3-1.5,1-1.5c1.8-1.4,3.3-2.5,4.6-3.3c-0.7,1.8-1.3,3.5-1.8,4.9c-0.6,1.5-1,2.8-1.5,4.1
								l2-5.3c-0.4,1.7-1.7,6.3-2.7,8.7c0.4-0.9,1-2.6,1.8-4.9c0.8-2.4,1.8-5.3,2.9-8.5c-3.7,2.7-7.8,5.7-11.8,8.5
								c-3.9,2.8-7.7,5.5-10.7,7.5c-1.7,1.5-4.8,4-3.2,3l3.2-2.5c3.3-1.8-5.8,5-1.6,2.1c-4.2,3.5-8.9,7.4-15.3,11.8l-1.5,0.4
								c0.2,0,4.3-2.7,5.9-4.1c-2.4,2.1-10,6.3-12.4,9l4.6-2.8c-4.3,3.5-9.4,8-15,11.8c2.9-1.3,1.2-1,5.6-3.3
								c-3.9,1.8,14.1-10.2,8.1-7c4.5-2.3,7.2-4.8,12.8-8c-0.3,0-2.1,1,2.6-2.2c0.2-0.2,0.6-0.6,0.9-0.9c0.1-0.1,0.2-0.1,0.3-0.2
								c-0.1,0.1-0.2,0.1-0.3,0.2c0.2-0.2,0.2-0.2-0.1,0.1c-1.2,0.7-2.1,1.3-2.5,1.5c2-2,9.4-7.4,11.7-9.4c2.8-1.9-1,1,0.6,0.1
								l3.5-3c0.6,0.1,7.7-4.7,1.4,0.2l5-3.6c0.9-0.4,1.5-0.7,2.2-1.3c-0.1,0.3-0.1,0.5-0.1,0.6c-0.2,0.5-0.2,0.9-0.2,1.3
								c0,0.4,0,0.5-0.1,0.1c0,0-0.1,0.2-0.1,0.5c0,0.1,0,0.2-0.1,0.3V47c0,0.1-0.1,0.3-0.1,0.5c-0.2,0.6-0.4,1.3-0.6,2
								c-0.8,2.7-1.6,5.4-1.6,5.4l-0.1,0.1c-3.5,10.6-6.4,22-11.2,33.8c-1.1,3.6-2.1,7.3-4.2,13.2l-0.8,1
								c-1.4,4.6-4.9,13.6-5.1,15.7c-2.6,4.6-7.5,22.1-10.3,30.1l0.4,0.5c-1.8,5.5-3.4,10.9-5.5,17.8l0.6-0.3
								c-1.6,6-5.3,15.1-8.3,24.5c0-0.7,0.9-3.1,1.5-4.7c-4.6,10.9-7.1,23.8-11.1,33.8c-0.7,2.6-1.3,4.4-2,6.1
								c0.1-0.2,0.1-0.4,0.2-0.6c-0.1,0.3-0.2,0.6-0.3,1c-0.4,1.1-0.9,2.2-1.4,3.4c0.5-1,0.9-2,1.2-2.9c-0.6,2-1.6,4.9-2.4,7.9
								l-0.9,1.1c-0.1,0.2-0.1,0.4-0.2,0.7c-1.1,2.8-0.5,2.4,0.3,1c-0.4,1.5-0.8,2.9-1,3.9c-1.5,2.1-2.2,7.7-4.1,10.6
								c-0.3,2.1-4.5,14.7-4.2,16.5c-0.1,0.1-0.5,0.9,0-0.7c-1.2,3.2-2.3,6.4-3,9.4l-1,1.2l-1.5,7.3c-1.8,4.2-2.6,5.9-1.6,1.5
								c-2.7,10.5-2.5,8.4-4.7,17.4l-0.2-0.6c-0.3,0.8-0.5,1.7-0.8,2.6c-0.1,0.5-0.3,1-0.4,1.4c-0.1,0.3-0.2,0.7-0.2,1
								c-0.3,1.3-0.7,2.7-1,3.1c-0.3,0.6-0.7,1.5-1.2,2.8c-0.5-1.9-1.1-3.9-1.8-6.1c-1.1-3.6-2.4-7.6-3.7-11.7
								c-2.7-8.6-5.5-17.7-7.6-25.2c0,3.8-2.2-8.5-3.2-9c-0.1-1.1-0.7-3.7,0.4-0.8c-3.2-9.1-4-13.9-6.7-20.1c-0.1-1.1,1,1.8,0.9,0.9
								c-0.3-0.7-1.2-2.8-1.3-3.9c-0.1-1,0.6,1.3,1.2,2.7c-3-9.4-4.1-10.1-5.1-10.5c-1.2-4.9-2-7.2-3.5-10.5c-0.3-1.7-0.9-4.6,1,1.2
								c-1-3.3-6-20.2-6.7-20.3c-0.2-1.1-1.4-4.6-1.8-5.4c-2.3-7.4-2.5-8-4.8-15.3l0.5,2c-1.6-2.6-2.1-6-4-11.8l0.1,0.1
								c-3.7-13.5-2.1-5.7-5.7-19.1l-0.2,0.9c-1.4-0.9-3.1-11.9-5.9-19.4l0.6,2.8c-1.7-4.1-2.4-12.1-3.6-16.3
								c-0.2-0.9,0.6,1.4,1.1,2.7c-2.9-11.2-1.1-1.2-3.8-9.4c-0.2-1.6,1.4,1.7-0.3-3.8c-0.6-2.8-6.1-15.7-7.9-23.4
								c0.3,1.7,0.6,3.5-0.8-0.3c-1.9-5.8-4.1-16.1-6.5-21.1c-0.2-0.8-0.2-1.1-0.1-1.1c-1.6-4.4-4.9-14.4-6.2-16.9
								c0.2-1.6-0.4-3.4-1.6-6.7c0.9,0.6,1.8,1.1,2.6,1.7c0.9,0.6,1.9,1.2,2.7,1.8c0.3,0.2,0.6,0.4,0.8,0.6c0.3,0.2,0.6,0.4,0.8,0.6
								c0.5,0.4,1,0.8,1.3,1.1c0.7,0.6,1.1,1.1,0.9,1.2l11.6,8.5l-0.4-0.1c7.3,5.5,10.2,7.2,13,8.8c1.6,1.3,0.3,0.5,0.1,0.5
								c10.6,8.2,11.7,9,21.3,15l0.6,1.1c2.6,1.6,15.2,12.1,26.1,19.5c-0.1,0-0.4-0.1-1.3-0.7c12.3,8.3,27.7,22.2,33.2,23.9l8.1,5.4
								c-10.1-7.6,2,0.5-2-2.8c4.1,2.9,10,8.1,5.1,4.5l-0.7-0.6c-2.4-0.6,12.5,9.6,11.8,9.9c20.1,14.7,39.3,29.6,58,43.4l-1.7-2.2
								l6.5,4.9c1.6,1.4,2,2.2-2.7-1.3c2.2,2.1,8,5.5,8.3,5.5c9,7-4.1-1.9-1.3,0.1l3.8,2.8l-0.8-0.7c3.3,2,3.7,2,9.3,6.2
								c3.5,2.7,1.6,1.7,2.9,2.8c0,0,0.4,0.4,2.1,1.6l5.8,4.4c0,0-0.1-0.3-0.4-0.6c-0.2-0.3-0.6-0.8-0.6-0.8
								c1.2,0.7,2.4,1.6,3.1,2.1c0.4,0.2,0.6,0.4,0.7,0.4s0-0.2-0.4-0.7c0.4,0.5,1.2,1.3,2.2,2.1c-2.2-0.1-4.3-0.2-6.5-0.2
								c-3.5,0-7.2,0-10.6,0c-7.3,0-13.6,0-15.4-0.1c-6.4,0.4-12.6,0.4-20.4,0.3c1.9,0.1,3.1,0.8-3.6,0.7c2.5-1.3-12.3-0.6-17.7-1.6
								c4.8,0.6-19.1,0.1-11.5,1c-5.6-0.1-0.3-0.5-4.6-0.8c-13.3,0.5-29.4-0.4-45.8-0.2c-0.3,0.2,2.5,0.4-1,0.7l-8.7-0.9
								c-3.3,0.1-3,1-8.9,0.4c0.8,0.1,2.1,0.4-0.1,0.4c-32.3-0.9-65.9,0.6-98.7-1.1c4.4,0.3,1.5,0.4-1.9,0.4
								c2.2,0.1-0.1,0.4,0.4,0.7l-13.7-0.7c-2.5,0.7-14.7,0-16.1,0.7l4.3-0.1c-5.8,0.7,8.1,1.7,7.2,2.6c6.5-0.8,17.1,1.3,27.7,0.1
								c2.3,0.2-2,0.3-0.7,0.5c2.7-0.4,5.9-0.5,12-0.3l-0.7,0.1c16.9-0.1,24.2,0.3,43.2,0.6l-1.4-0.5c4.1,0.1,4.9,0.2,6.9,0.3
								c4.7-0.7-11.5-0.1-7.2-0.8c5.4,1,28.8,0.1,32.5,1.2c6.3,0-1.8-0.6,4.4-0.5l1.7,0.3l1.6-0.4c4.1,0.1,6.2,0.4,6.4,0.7
								c-1,0-2.8,0.1-3.9,0.1c5.3,0.4,15.1-0.1,16.9,0l-6-0.2c17.1-0.2,38.1,0.2,54.7-0.4l-1.3-0.2c12.7-0.4,10.1,0.3,24,0.1
								l-0.5,0.1c2.8-0.2,6.5-0.3,10.3-0.3c-3.5,0.3,6.6,0.5,2,0.8c13.7-0.4,6.8-0.3,15.8-1.2l2.1,0.4c3.1-0.3,3.3-0.5,10.3-0.6
								c-5.7,0.3,4.4,0.6-1.9,1c7.3,0.4,12.7,0.2,17.1,0.1c1.5,0,3-0.1,4.4-0.1s2.7,0,4.1,0c2.7,0,5.3,0.2,8.7,0.5
								c0.4-0.1,0.7-0.1,0.8-0.2c-1.6-0.9-1.7-0.9-1.2-0.4c-2.3-0.2-6.5-0.2-9.8-0.2s-5.7,0-3.9-0.1c-2.1-0.2-0.4-0.3,2.1-0.5
								c2.6-0.1,6-0.2,8.8-0.2c-0.1-0.1-0.3-0.2-0.4-0.3c-2.1-1.6-3.1-2.7-5.8-5.1c-0.7-0.6-1.4-1.2-2.3-2c-0.8-0.7-1.7-1.4-2.7-2.3
								c-1.6-1.3-3.4-2.8-5.8-4.5c0.9,0.7,1,0.7,2,1.4c-3.4-2.8-7.1-4.8-11.2-8.3c-2.8-1.3-5.6-4.2-6.8-4l8.7,6.2
								c-5-3.4-10.2-6.1-18-12.4c0.7,0.3,3.2,1.9,5,3.1c-2.2-1.9-4.6-3.2-6.9-5.2c1.2-0.1,10.6,7.6,16.2,11
								c-2.3-2.1-10.3-6.9-7.1-5.6c-4.4-1.9-9.2-7-16.1-11l0.7-0.1c-1.1-0.7-3.3-2-5.1-3.4l3.7,2c-5.5-3.4-9.7-7.7-14.8-11.1
								c10.4,7.6,2,2.2,6.2,5.7c-13.2-8.9-6.6-6.4-21.1-16.8c2,1.4,7.1,5.6,3.9,3.5c-2.7-2.1-6.2-4.9-7.7-6.3
								c-9.5-6.9,1.2,1.5-3-1.3c-2.9-2.8-4.8-3.2-9.1-6.2l0.3-0.4c-10.6-8.2-3.5-1.3-13-8.8l4.5,2.5l-5.2-3.6l1.4,0.3
								c-5.8-3.7-7.4-5.1-12.7-9.2c1.1,1.2-1.2,0.2-6-3.3c-3.1-2.6,2.1,1-4.7-4c1.7,0.9,3.6,1.8,6.3,4.4c0.4,0.1,1.7,0.9,2.1,1
								c-3.3-2.9-8.8-6.6-11.3-8.4c0.9,0.7,2.1,1.6,2.6,2l-10.2-6.7c-1.4-1.3-0.1-0.5,1.2,0.3c-2-1.4-3.5-2.3-6.5-4.4
								c1,0.2,1-0.2,5.3,2.7l-9.6-6.6c-0.5-0.6-4.5-3.9-3.2-3.1c-5.1-4-13.2-8.8-19.9-14.1c-0.4-0.2-1.2-0.7-2.7-1.7
								c-6.4-4.8-11.9-9.5-19.9-14.7l-3.9-3.8c-6.1-4.3,5.4,5.1-4.8-2.1c-7.2-5-2.3-2.4-4.7-4.4c-3.7-2.3-10.3-6.2-16.5-11.5
								C1072.8,43.6,1074.4,45,1076.4,46.4z M1078.3,105.5c-0.6-1.7-2-5-2.1-6.3C1077.3,101,1077.6,102.6,1078.3,105.5z
								 M1121.8,238.6c-0.6-1.2-1.1-3.2-1.6-5.5C1120.7,234.7,1121.3,236.5,1121.8,238.6z M1236.1,43.7L1236.1,43.7
								c0.6-0.4,0.7-0.4,0.7-0.4C1236.7,43.4,1236.5,43.5,1236.1,43.7z M1232.7,45.9c-0.6,0.5-0.5,0.6-0.2,0.4
								c0.2-0.2,0.7-0.6,1.3-1.1c0.3-0.2,0.6-0.5,1-0.7c-0.1,0-0.3,0-0.5,0.2c-0.1,0.1-0.3,0.2-0.4,0.3
								C1233.5,45.3,1233.2,45.6,1232.7,45.9z M1280.9,202.6l-1.2-1.1C1282.7,203.6,1281.8,203.1,1280.9,202.6z"/>
							<path id="XMLID_368_" class="st3" d="M1116.4,223.7c-0.1-0.5,0-0.7,0-0.8C1116.1,222.2,1116,222.2,1116.4,223.7z"/>
							<path id="XMLID_367_" class="st3" d="M1122.7,80.2l0.2,0.2c0.1,0.1,0.2,0.1,0.3,0.1L1122.7,80.2z"/>
							<path id="XMLID_366_" class="st3" d="M1208.1,146.2c-0.6,1.6-1,2.5-1.3,3C1207,149.4,1207.3,148.7,1208.1,146.2z"/>
							<path id="XMLID_365_" class="st3" d="M1197.8,72.3l4.2-3.2c-2.1,1.5-2.9,2-4,2.7C1198.2,71.8,1199.1,71.3,1197.8,72.3z"/>
							<path id="XMLID_364_" class="st3" d="M1158.9,96.9c-0.6,0.5-1.3,1-1.9,1.5l0.3,0.1C1159.9,96.5,1161.7,95,1158.9,96.9z"/>
							<path id="XMLID_363_" class="st3" d="M1192.9,73.9c-0.6-0.1-3.2,2-6.1,4.2c0.2-0.1,0.4-0.3,0.5-0.4
								C1186.7,78.9,1189.8,76.4,1192.9,73.9z"/>
							<path id="XMLID_362_" class="st3" d="M1186.1,78.7c-0.9,0.7-1.9,1.4-2.8,2C1183.1,81.1,1184.4,79.9,1186.1,78.7z"/>
							<path id="XMLID_361_" class="st3" d="M1224.4,52.3c-1.5,0.9-0.6,1.1-1.5,1.5C1221.6,55.4,1232,46.4,1224.4,52.3z"/>
							<polygon id="XMLID_360_" class="st3" points="1189.7,74.6 1191,74.2 1192.5,72.7 							"/>
							<path id="XMLID_359_" class="st3" d="M1213.6,57.7l-4.9,3.4c0.1,0-0.5,0.5-1.2,1.1C1210.5,60,1213.8,57.7,1213.6,57.7z"/>
							<path id="XMLID_358_" class="st3" d="M1207.5,62.1c-1.5,1.1-3,2.2-3.8,2.9C1204.5,64.4,1206.3,63.1,1207.5,62.1z"/>
							<polygon id="XMLID_357_" class="st3" points="1196.1,69.7 1197.6,68.8 1201,66.3 							"/>
							<path id="XMLID_356_" class="st3" d="M1232.9,63.1l-1.9,6.2c0,0.7,0.6-1,1.3-3.3C1232.7,64.5,1233.4,62.2,1232.9,63.1z"/>
							<path id="XMLID_355_" class="st3" d="M1240.6,44.1c-0.8,2.1-1,2.2-1.5,3.3c0,0,0.1,0.1,0.3,0.2c0.1,0.1,0.3,0.2,0.3,0.2
								L1240.6,44.1z"/>
							<path id="XMLID_354_" class="st3" d="M1234.6,62.9c0,0.7-2.5,9.1,0.1,1.3C1234.7,63.5,1236.5,57.3,1234.6,62.9z"/>
							<polygon id="XMLID_353_" class="st3" points="1203.4,155.2 1203.9,153.6 1202.9,153.5 							"/>
							<path id="XMLID_352_" class="st3" d="M1178.9,237.6c2.6-7.2,0-1.9,2.4-8.4c0.3-1.8-2,5.3-1.6,3.5
								C1178.5,237.1,1177.6,239.4,1178.9,237.6z"/>
							<path id="XMLID_351_" class="st3" d="M1179.7,232.6c0.2-0.7,0.4-1.5,0.6-2.3C1180,231.6,1179.8,232.3,1179.7,232.6z"/>
							<polygon id="XMLID_350_" class="st3" points="1014.7,209.2 1009.8,209 1013,209.3 							"/>
							<path id="XMLID_349_" class="st3" d="M1005.2,209.9l-1.2-0.7l-3,0.6C1002.2,209.8,1004.4,209.8,1005.2,209.9z"/>
							<path id="XMLID_348_" class="st3" d="M1081.2,119l0.3,0.3c-0.1-0.8-0.4-1.9-1.1-4.1L1081.2,119z"/>
							<polygon id="XMLID_347_" class="st3" points="1061.4,55.1 1061.8,56.2 1061.7,54 							"/>
							<path id="XMLID_346_" class="st3" d="M1091,55.6c-1.8-1.4-4.1-2.9-5.9-4.3C1089.2,54.2,1091.1,56.5,1091,55.6z"/>
						</g>
					</g>
				</g>
			</g>
		</g>
	</g>
</g>
<g id="title_2_">
	<g id="XMLID_152_">
		<path id="XMLID_153_" class="st4" d="M438.1,130.3c0,3.6-1.3,6.6-3.8,9.2c-2.6,2.5-5.6,3.8-9.2,3.8c-1.2,0-2.6-0.1-4.2-0.2h-3.7
			c-0.1,0-0.5,0-1,0.1s-0.9,0.1-1.1,0.1h-0.4l0.2-1.1h0.3c0.6-0.1,1.1-0.2,1.3-0.5c0.2-0.3,0.4-0.8,0.4-1.6v-19.5
			c0-0.8-0.1-1.4-0.4-1.6c-0.2-0.3-0.7-0.4-1.3-0.5h-0.3l-0.2-1.1h0.4c0.3,0,0.6,0,1.1,0s0.8,0,1,0h3c2.1,0,3.8,0,4.9,0
			c3.6,0,6.6,1.3,9.2,3.8C436.8,123.6,438.1,126.7,438.1,130.3z M432.2,130.3c0-2.1-0.8-4-2.3-5.5s-3.3-2.3-5.5-2.3h-1.5V138h1.5
			c2.1,0,4-0.8,5.5-2.3C431.5,134.3,432.2,132.4,432.2,130.3z"/>
		<path id="XMLID_178_" class="st4" d="M467.1,145.3l-1.1-0.2v-0.3c-0.1-0.6-0.2-1.1-0.5-1.3s-0.8-0.4-1.7-0.4h-8l-4.9,4.4v-14.7
			c-0.8,0-1.3,0.2-1.5,0.4c-0.3,0.2-0.4,0.7-0.5,1.3v0.3l-1.1,0.2v-0.4c0-0.3,0-0.6,0-1.1s0-0.8,0-1v-4.7c0-0.2,0-0.5,0-1
			s0-0.9,0-1.1v-0.4l1.1,0.2v0.4c0.1,0.6,0.2,1,0.5,1.3c0.3,0.2,0.8,0.3,1.5,0.4v-10.2h12.9c0.8,0,1.4-0.1,1.7-0.4
			c0.3-0.2,0.4-0.7,0.5-1.3v-0.3l1.1-0.2v0.4c0,0.2,0,0.6-0.1,1.1c0,0.5-0.1,0.8-0.1,1v5.1c0,0.1,0,0.4,0,0.7s0,0.6,0,0.8l-1.1-0.3
			c-0.2-0.6-0.9-0.9-2-0.9h-6.6v4.5h6.8c1.3,0,2-0.4,2.2-1.3c0-0.1,0-0.2,0-0.4l1.1-0.2v0.4c0,0.2,0,0.6-0.1,1.1
			c0,0.5-0.1,0.8-0.1,1v4.4c0,0.1,0,0.4,0.1,0.8c0,0.4,0.1,0.7,0.1,1v0.4l-1.1-0.2c0-0.1,0-0.2,0-0.3c-0.1-0.9-0.9-1.3-2.2-1.3h-6.8
			v4.5h6.8c1.1,0,1.8-0.3,2-0.9l1.1-0.3c0,0.2,0,0.5,0,0.8c0,0.4,0,0.6,0,0.7v5.1c0,0.1,0,0.5,0.1,1c0,0.5,0.1,0.9,0.1,1.1v0.3
			H467.1z"/>
		<path id="XMLID_180_" class="st4" d="M511.5,143.2h-0.4c-0.2,0-0.6,0-1.1,0s-0.8,0-1,0h-5.5c-0.1,0-0.5,0-1,0s-0.9,0-1.1,0H501
			l0.3-1.1h0.3c0.6-0.1,1.1-0.2,1.3-0.5s0.4-0.8,0.4-1.6v-16.6h-5.6V140c0,0.8,0.1,1.4,0.4,1.6c0.2,0.3,0.7,0.4,1.3,0.5h0.3l0.3,1.1
			h-0.4c-0.2,0-0.6,0-1.1,0s-0.8,0-1,0H492c-0.1,0-0.5,0-1,0s-0.9,0-1.1,0h-0.4l0.3-1.1h0.3c0.6-0.1,1.1-0.2,1.3-0.5
			c0.2-0.3,0.4-0.8,0.4-1.6v-16.6h-5.6V140c0,0.8,0.1,1.4,0.3,1.6c0.2,0.3,0.7,0.4,1.3,0.5h0.3l0.3,1.1H488c-0.2,0-0.6,0-1.1,0
			s-0.8,0-1,0h-5.7c-0.1,0-0.5,0-1,0s-0.9,0-1.1,0h-0.4l0.2-1.1h0.3c0.6-0.1,1.1-0.2,1.3-0.5c0.2-0.3,0.4-0.8,0.4-1.6v-19.5
			c0-0.8-0.1-1.4-0.4-1.6c-0.2-0.3-0.7-0.4-1.3-0.5h-0.3l-0.2-1.1h0.4c0.3,0,0.6,0,1.1,0s0.8,0,1,0H509c0.2,0,0.5,0,1,0s0.9,0,1.1,0
			h0.4l-0.3,1.1h-0.3c-0.6,0.1-1.1,0.2-1.3,0.5s-0.4,0.8-0.4,1.6V140c0,0.8,0.1,1.4,0.4,1.6c0.2,0.3,0.7,0.4,1.3,0.5h0.3
			L511.5,143.2z"/>
		<path id="XMLID_182_" class="st4" d="M548.2,130.3c0,3.7-1.3,6.9-3.9,9.5c-2.6,2.6-5.8,4-9.6,4c-3.7,0-6.9-1.3-9.5-4
			c-2.6-2.6-4-5.8-4-9.5s1.3-6.9,4-9.5c2.6-2.6,5.8-4,9.5-4c3.8,0,6.9,1.3,9.6,3.9C546.9,123.3,548.2,126.4,548.2,130.3z
			 M532.7,128.3v-5.9c-1.4,0.4-2.7,1.1-3.7,2.1c-1.1,1.1-1.8,2.3-2.1,3.7L532.7,128.3L532.7,128.3z M532.7,138v-5.9h-5.9
			c0.4,1.4,1.1,2.7,2.1,3.7C530.1,137,531.3,137.8,532.7,138z M542.6,128.3c-0.4-1.4-1.1-2.7-2.2-3.7c-1.1-1.1-2.3-1.8-3.7-2.1v5.9
			L542.6,128.3L542.6,128.3z M542.6,132.3h-5.9v5.9c1.4-0.4,2.7-1.1,3.8-2.1C541.5,134.9,542.2,133.6,542.6,132.3z"/>
		<path id="XMLID_188_" class="st4" d="M582.9,143.2h-0.4c-0.2,0-0.6,0-1.1,0s-0.8,0-1,0h-4.9c-0.1,0-0.5,0-1,0s-0.9,0-1.1,0H573
			l0.3-1.1h0.3c0.6-0.1,1.1-0.2,1.3-0.5s0.4-0.8,0.4-1.6v-0.2l-9.5-9.6v9.8c0,0.8,0.1,1.4,0.4,1.6c0.2,0.3,0.7,0.4,1.3,0.5h0.3
			l0.2,1.1h-0.4c-0.2,0-0.6,0-1.1,0s-0.8,0-1,0h-4.9c-0.1,0-0.5,0-1,0s-0.9,0-1.1,0h-0.4l0.2-1.1h0.3c0.6-0.1,1.1-0.2,1.3-0.5
			s0.4-0.8,0.4-1.6v-19.5c0-0.8-0.1-1.4-0.4-1.6c-0.2-0.3-0.7-0.4-1.3-0.5h-0.4l-0.2-1.1h0.4c0.3,0,0.6,0,1.1,0s0.8,0,1,0h4.9
			c0.2,0,0.5,0,1,0s0.9,0,1.1,0h0.4l-0.2,1.1h-0.3c-0.6,0.1-1.1,0.2-1.3,0.5s-0.4,0.8-0.4,1.6v0.2l9.5,9.5v-9.7
			c0-0.8-0.1-1.4-0.4-1.6c-0.2-0.3-0.7-0.4-1.3-0.5h-0.3l-0.3-1.1h0.4c0.3,0,0.6,0,1.1,0s0.8,0,1,0h4.9c0.2,0,0.5,0,1,0s0.9,0,1.1,0
			h0.4l-0.2,1.1h-0.4c-0.6,0.1-1.1,0.2-1.3,0.5s-0.3,0.8-0.3,1.6V140c0,0.8,0.1,1.4,0.3,1.6c0.2,0.3,0.7,0.4,1.3,0.5h0.4
			L582.9,143.2z"/>
		<path id="XMLID_190_" class="st4" d="M619.6,130.3c0,3.7-1.3,6.9-3.9,9.5s-5.8,4-9.6,4c-3.7,0-6.9-1.3-9.5-4c-2.6-2.6-4-5.8-4-9.5
			s1.3-6.9,4-9.5c2.6-2.6,5.8-4,9.5-4c3.8,0,6.9,1.3,9.6,3.9C618.3,123.3,619.6,126.4,619.6,130.3z M604.2,128.3v-5.9
			c-1.4,0.4-2.7,1.1-3.7,2.1c-1.1,1.1-1.8,2.3-2.1,3.7L604.2,128.3L604.2,128.3z M604.2,138v-5.9h-5.9c0.4,1.4,1.1,2.7,2.1,3.7
			C601.5,137,602.7,137.8,604.2,138z M614,128.3c-0.4-1.4-1.1-2.7-2.2-3.7c-1.1-1.1-2.3-1.8-3.7-2.1v5.9L614,128.3L614,128.3z
			 M614,132.3h-5.9v5.9c1.4-0.4,2.7-1.1,3.8-2.1C612.9,134.9,613.7,133.6,614,132.3z"/>
		<path id="XMLID_196_" class="st4" d="M647.8,145.3l-1.1-0.2v-0.3c-0.1-0.6-0.2-1.1-0.5-1.3s-0.8-0.4-1.6-0.4h-8.1l-4.9,4.4v-27.1
			c0-0.8-0.1-1.4-0.4-1.6c-0.2-0.3-0.7-0.4-1.3-0.5h-0.3l-0.2-1.1h0.4c0.3,0,0.6,0,1.1,0s0.8,0,1,0h5.6c0.2,0,0.5,0,1,0s0.9,0,1.1,0
			h0.4l-0.2,1.1h-0.3c-0.6,0.1-1.1,0.2-1.3,0.5s-0.4,0.8-0.4,1.6v16.5h6.8c0.8,0,1.4-0.1,1.6-0.4c0.3-0.2,0.4-0.7,0.5-1.3v-0.3
			l1.1-0.2v0.4c0,0.2,0,0.6,0,1.1s0,0.8,0,1v5.6c0,0.1,0,0.5,0,1s0,0.9,0,1.1L647.8,145.3L647.8,145.3z"/>
		<path id="XMLID_198_" class="st4" d="M682.9,130.3c0,3.7-1.3,6.9-3.9,9.5c-2.6,2.6-5.8,4-9.6,4c-3.7,0-6.9-1.3-9.5-4
			c-2.6-2.6-4-5.8-4-9.5s1.3-6.9,4-9.5c2.6-2.6,5.8-4,9.5-4c3.8,0,6.9,1.3,9.6,3.9C681.6,123.3,682.9,126.4,682.9,130.3z
			 M667.4,128.3v-5.9c-1.4,0.4-2.7,1.1-3.7,2.1c-1.1,1.1-1.8,2.3-2.1,3.7L667.4,128.3L667.4,128.3z M667.4,138v-5.9h-5.9
			c0.4,1.4,1.1,2.7,2.1,3.7C664.7,137,666,137.8,667.4,138z M677.3,128.3c-0.4-1.4-1.1-2.7-2.2-3.7c-1.1-1.1-2.3-1.8-3.7-2.1v5.9
			L677.3,128.3L677.3,128.3z M677.3,132.3h-5.9v5.9c1.4-0.4,2.7-1.1,3.8-2.1C676.2,134.9,676.9,133.6,677.3,132.3z"/>
		<path id="XMLID_204_" class="st4" d="M715,140.5c-2.6,2.1-5.5,3.2-8.8,3.2c-3.7,0-6.9-1.3-9.5-4c-2.6-2.6-4-5.8-4-9.5
			s1.3-6.9,4-9.5c2.6-2.6,5.8-4,9.5-4c2.8,0,5.3,0.8,7.6,2.3c0,0.7,0,1.9,0.1,3.7c0,1.8,0.1,3,0.1,3.5h-1.1
			c-0.2-0.7-0.8-1.5-1.8-2.3c-1.3-1.1-3-1.6-4.8-1.6c-2.1,0-4,0.8-5.5,2.3s-2.3,3.4-2.3,5.5c0,2.1,0.8,4,2.3,5.5s3.4,2.3,5.5,2.3
			c1.1,0,2.1-0.2,3.2-0.6V133H709c-0.8,0-1.4,0.1-1.6,0.3c-0.3,0.2-0.4,0.7-0.5,1.3v0.4l-1.1,0.2v-0.4c0-0.3,0-0.6,0.1-1.1
			c0-0.5,0.1-0.8,0.1-1v-4h9.2v11.8H715z"/>
		<path id="XMLID_206_" class="st4" d="M735.6,143.2h-0.4c-0.2,0-0.6,0-1.1,0s-0.8,0-1,0h-5.6c-0.1,0-0.5,0-1,0s-0.9,0-1.1,0H725
			l0.2-1.1h0.3c0.6-0.1,1.1-0.2,1.3-0.5s0.4-0.8,0.4-1.6v-19.5c0-0.8-0.1-1.4-0.4-1.6c-0.2-0.3-0.7-0.4-1.3-0.5h-0.3l-0.2-1.1h0.4
			c0.3,0,0.6,0,1.1,0s0.8,0,1,0h5.6c0.2,0,0.5,0,1,0s0.9,0,1.1,0h0.4l-0.2,1.1h-0.3c-0.6,0.1-1.1,0.2-1.3,0.5s-0.4,0.8-0.4,1.6V140
			c0,0.8,0.1,1.4,0.4,1.6c0.2,0.3,0.7,0.4,1.3,0.5h0.3L735.6,143.2z"/>
		<path id="XMLID_208_" class="st4" d="M775.3,141.3l-0.4,0.2c-0.5,0.2-1.1,0.5-1.9,0.9l-5,2.6c-0.4,0.3-1,0.6-1.8,1.1l-0.4,0.2
			l-0.3-1.1l0.3-0.1c0.6-0.4,0.9-0.8,0.9-1.3c0-0.3-0.1-0.8-0.4-1.4l-1.2-2.4h-11.9l-1.2,2.4c-0.3,0.6-0.4,1.1-0.4,1.4
			c0,0.4,0.3,0.9,0.9,1.3c0.1,0,0.2,0.1,0.3,0.1l-0.3,1.1l-0.4-0.2c-0.4-0.3-1-0.7-1.8-1.1l-5-2.6c-0.4-0.2-1.1-0.5-1.9-0.9
			l-0.4-0.2l0.7-0.8c0.1,0,0.1,0.1,0.3,0.2c0.4,0.1,0.7,0.2,1,0.2c0.5,0,1-0.5,1.5-1.4l12.6-23.6l12.6,23.6c0.5,0.9,1,1.4,1.5,1.4
			c0.2,0,0.5-0.1,1-0.2c0.1-0.1,0.1-0.1,0.3-0.2L775.3,141.3z M762.5,134.5l-3.3-6.6l-3.3,6.6H762.5z"/>
		<path id="XMLID_211_" class="st4" d="M438.1,183c0,3.6-1.3,6.6-3.8,9.2c-2.6,2.5-5.6,3.8-9.2,3.8c-1.2,0-2.6-0.1-4.2-0.2h-3.7
			c-0.1,0-0.5,0-1,0.1s-0.9,0.1-1.1,0.1h-0.4l0.2-1.1h0.3c0.6-0.1,1.1-0.2,1.3-0.5c0.2-0.3,0.4-0.8,0.4-1.6v-19.5
			c0-0.8-0.1-1.4-0.4-1.6c-0.2-0.3-0.7-0.4-1.3-0.5h-0.3l-0.2-1.1h0.4c0.3,0,0.6,0,1.1,0s0.8,0,1,0h3c2.1,0,3.8,0,4.9,0
			c3.6,0,6.6,1.3,9.2,3.8C436.8,176.4,438.1,179.5,438.1,183z M432.2,183c0-2.1-0.8-4-2.3-5.5s-3.3-2.3-5.5-2.3h-1.5v15.6h1.5
			c2.1,0,4-0.8,5.5-2.3C431.5,187,432.2,185.2,432.2,183z"/>
		<path id="XMLID_214_" class="st4" d="M477,194.1l-0.4,0.2c-0.5,0.2-1.1,0.5-1.9,0.9l-5,2.6c-0.4,0.3-1,0.6-1.8,1.1l-0.4,0.2
			l-0.3-1.1l0.3-0.1c0.6-0.4,0.9-0.8,0.9-1.3c0-0.3-0.1-0.8-0.4-1.4l-1.2-2.4H455l-1.2,2.4c-0.3,0.6-0.4,1.1-0.4,1.4
			c0,0.4,0.3,0.9,0.9,1.3c0.1,0,0.2,0.1,0.3,0.1l-0.3,1.1l-0.4-0.2c-0.4-0.3-1-0.7-1.8-1.1l-5-2.6c-0.4-0.2-1.1-0.5-1.9-0.9
			l-0.4-0.2l0.7-0.8c0.1,0,0.1,0.1,0.3,0.2c0.4,0.1,0.7,0.2,1,0.2c0.5,0,1-0.5,1.5-1.4l12.6-23.6l12.6,23.6c0.5,0.9,1,1.4,1.5,1.4
			c0.2,0,0.5-0.1,1-0.2c0.1-0.1,0.1-0.1,0.3-0.2L477,194.1z M464.3,187.3l-3.3-6.6l-3.3,6.6H464.3z"/>
		<path id="XMLID_217_" class="st4" d="M517.7,196h-0.4c-0.2,0-0.6,0-1.1,0s-0.8,0-1,0h-5.5c-0.1,0-0.5,0-1,0s-0.9,0-1.1,0h-0.4
			l0.3-1.1h0.3c0.6-0.1,1.1-0.2,1.3-0.5c0.2-0.3,0.4-0.8,0.4-1.6v-16.6h-5.6v16.6c0,0.8,0.1,1.4,0.4,1.6c0.2,0.3,0.7,0.4,1.3,0.5
			h0.3l0.3,1.1h-0.4c-0.2,0-0.6,0-1.1,0s-0.8,0-1,0h-5.5c-0.1,0-0.5,0-1,0s-0.9,0-1.1,0h-0.4l0.3-1.1h0.3c0.6-0.1,1.1-0.2,1.3-0.5
			c0.2-0.3,0.4-0.8,0.4-1.6v-16.6h-5.8v16.6c0,0.8,0.1,1.4,0.3,1.6c0.2,0.3,0.7,0.4,1.3,0.5h0.3l0.3,1.1H494c-0.2,0-0.6,0-1.1,0
			s-0.8,0-1,0h-5.5c-0.1,0-0.5,0-1,0s-0.9,0-1.1,0h-0.4l0.2-1.1h0.3c0.6-0.1,1.1-0.2,1.3-0.5c0.2-0.3,0.4-0.8,0.4-1.6v-19.5
			c0-0.8-0.1-1.4-0.4-1.6c-0.2-0.3-0.7-0.4-1.3-0.5h-0.2l-0.2-1.1h0.4c0.3,0,0.6,0,1.1,0s0.8,0,1,0h28.7c0.2,0,0.5,0,1,0
			s0.9,0,1.1,0h0.4l-0.3,1.1h-0.2c-0.6,0.1-1.1,0.2-1.3,0.5s-0.4,0.8-0.4,1.6v19.5c0,0.8,0.1,1.4,0.4,1.6c0.2,0.3,0.7,0.4,1.3,0.5
			h0.3L517.7,196z"/>
		<path id="XMLID_219_" class="st4" d="M538.6,196h-0.4c-0.2,0-0.6,0-1.1,0s-0.8,0-1,0h-5.6c-0.1,0-0.5,0-1,0s-0.9,0-1.1,0H528
			l0.2-1.1h0.3c0.6-0.1,1.1-0.2,1.3-0.5s0.4-0.8,0.4-1.6v-19.5c0-0.8-0.1-1.4-0.4-1.6c-0.2-0.3-0.7-0.4-1.3-0.5h-0.3l-0.2-1.1h0.4
			c0.3,0,0.6,0,1.1,0s0.8,0,1,0h5.6c0.2,0,0.5,0,1,0s0.9,0,1.1,0h0.4l-0.2,1.1h-0.3c-0.6,0.1-1.1,0.2-1.3,0.5s-0.4,0.8-0.4,1.6v19.5
			c0,0.8,0.1,1.4,0.4,1.6c0.2,0.3,0.7,0.4,1.3,0.5h0.3L538.6,196z"/>
		<path id="XMLID_221_" class="st4" d="M578.3,194.1l-0.4,0.2c-0.5,0.2-1.1,0.5-1.9,0.9l-5,2.6c-0.4,0.3-1,0.6-1.8,1.1l-0.4,0.2
			l-0.3-1.1l0.3-0.1c0.6-0.4,0.9-0.8,0.9-1.3c0-0.3-0.1-0.8-0.4-1.4l-1.1-2.4h-11.9l-1.2,2.4c-0.3,0.6-0.4,1.1-0.4,1.4
			c0,0.4,0.3,0.9,0.9,1.3c0.1,0,0.2,0.1,0.3,0.1l-0.3,1.1l-0.4-0.2c-0.4-0.3-1-0.7-1.8-1.1l-5-2.6c-0.4-0.2-1.1-0.5-1.9-0.9
			l-0.4-0.2l0.7-0.8c0.1,0,0.1,0.1,0.3,0.2c0.4,0.1,0.7,0.2,1,0.2c0.5,0,1-0.5,1.5-1.4l12.6-23.6l12.6,23.6c0.5,0.9,1,1.4,1.5,1.4
			c0.2,0,0.5-0.1,1-0.2c0.1-0.1,0.1-0.1,0.3-0.2L578.3,194.1z M565.5,187.3l-3.3-6.6l-3.3,6.6H565.5z"/>
		<path id="XMLID_224_" class="st4" d="M610,196h-0.4c-0.2,0-0.6,0-1.1,0s-0.8,0-1,0h-4.9c-0.1,0-0.5,0-1,0s-0.9,0-1.1,0h-0.4
			l0.3-1.1h0.3c0.6-0.1,1.1-0.2,1.3-0.5s0.4-0.8,0.4-1.6v-0.2l-9.5-9.6v9.8c0,0.8,0.1,1.4,0.4,1.6c0.2,0.3,0.7,0.4,1.3,0.5h0.3
			l0.2,1.1h-0.4c-0.2,0-0.6,0-1.1,0s-0.8,0-1,0h-4.9c-0.1,0-0.5,0-1,0s-0.9,0-1.1,0h-0.4l0.2-1.1h0.3c0.6-0.1,1.1-0.2,1.3-0.5
			s0.4-0.8,0.4-1.6v-19.5c0-0.8-0.1-1.4-0.4-1.6c-0.2-0.3-0.7-0.4-1.3-0.5h-0.3l-0.2-1.1h0.4c0.3,0,0.6,0,1.1,0s0.8,0,1,0h4.9
			c0.2,0,0.5,0,1,0s0.9,0,1.1,0h0.4l-0.2,1.1h-0.3c-0.6,0.1-1.1,0.2-1.3,0.5s-0.4,0.8-0.4,1.6v0.2l9.5,9.5v-9.7
			c0-0.8-0.1-1.4-0.4-1.6c-0.2-0.3-0.7-0.4-1.3-0.5h-0.3l-0.3-1.1h0.4c0.3,0,0.6,0,1.1,0s0.8,0,1,0h4.9c0.2,0,0.5,0,1,0s0.9,0,1.1,0
			h0.4l-0.2,1.1h-0.4c-0.6,0.1-1.1,0.2-1.3,0.5s-0.3,0.8-0.3,1.6v19.5c0,0.8,0.1,1.4,0.3,1.6c0.2,0.3,0.7,0.4,1.3,0.5h0.4L610,196z"
			/>
		<path id="XMLID_226_" class="st4" d="M658.8,170.2l-11,19.8h7.1c0.9,0,1.4-0.1,1.7-0.4c0.3-0.2,0.4-0.7,0.5-1.3V188l1.1-0.3v0.4
			c0,0.2,0,0.6,0,1.1s0,0.8,0,1v5.4c0,0.1,0,0.5,0,1s0,0.9,0,1.1v0.4l-1.1-0.2v-0.3c-0.1-0.6-0.2-1.1-0.5-1.3s-0.8-0.4-1.7-0.4
			h-17.5l11.2-20h-7.5c-0.8,0-1.4,0.1-1.6,0.3c-0.3,0.2-0.4,0.7-0.5,1.3v0.3l-1.1,0.3v-0.4c0-0.3,0-0.6,0.1-1.1c0-0.5,0.1-0.8,0.1-1
			v-5.1c0-0.2,0-0.5-0.1-1c0-0.5-0.1-0.9-0.1-1.1V168l1.1,0.2v0.3c0.1,0.6,0.2,1.1,0.5,1.3s0.8,0.4,1.6,0.4H658.8L658.8,170.2z"/>
		<path id="XMLID_228_" class="st4" d="M696.9,194.1l-0.4,0.2c-0.5,0.2-1.1,0.5-1.9,0.9l-5,2.6c-0.4,0.3-1,0.6-1.8,1.1l-0.4,0.2
			l-0.3-1.1l0.3-0.1c0.6-0.4,0.9-0.8,0.9-1.3c0-0.3-0.1-0.8-0.4-1.4l-1.2-2.4h-11.9l-1.2,2.4c-0.3,0.6-0.4,1.1-0.4,1.4
			c0,0.4,0.3,0.9,0.9,1.3c0.1,0,0.2,0.1,0.3,0.1l-0.3,1.1l-0.4-0.2c-0.4-0.3-1-0.7-1.8-1.1l-5-2.6c-0.4-0.2-1.1-0.5-1.9-0.9
			l-0.4-0.2l0.7-0.8c0.1,0,0.1,0.1,0.3,0.2c0.4,0.1,0.7,0.2,1,0.2c0.5,0,1-0.5,1.5-1.4l12.6-23.6l12.6,23.6c0.5,0.9,1,1.4,1.5,1.4
			c0.2,0,0.5-0.1,1-0.2c0.1-0.1,0.1-0.1,0.3-0.2L696.9,194.1z M684.1,187.3l-3.3-6.6l-3.3,6.6H684.1z"/>
		<path id="XMLID_231_" class="st4" d="M744.2,170l-0.3,1.1h-0.3c-0.6,0.1-1,0.2-1.2,0.4s-0.5,0.7-0.9,1.5l-12.7,24.1l-6.2-11.7
			l-6.2,11.7L703.7,173c-0.4-0.8-0.7-1.3-0.9-1.5c-0.3-0.3-0.7-0.4-1.3-0.5h-0.3l-0.3-1.1h0.4c0.3,0,0.6,0,1.1,0s0.8,0,1,0h6.3
			c0.2,0,0.5,0,1,0s0.9,0,1.1,0h0.4l-0.3,1.1h-0.3c-0.9,0.1-1.4,0.5-1.4,1.2c0,0.3,0.1,0.6,0.3,1l5.8,11.4l2.9-5.6l-3.2-6
			c-0.4-0.8-0.7-1.3-0.9-1.5s-0.6-0.4-1.2-0.4h-0.4l-0.2-1.1h0.4c0.3,0,0.6,0,1.1,0s0.8,0,1,0h5.5l1.2,2.6l1.2-2.6h5.5
			c0.2,0,0.5,0,1,0s0.9,0,1.1,0h0.4l-0.2,1.1h-0.3c-0.6,0.1-1,0.2-1.2,0.4s-0.5,0.7-0.9,1.5l-3.2,6l2.9,5.6l5.8-11.4
			c0.2-0.4,0.3-0.7,0.3-1c0-0.7-0.5-1.1-1.5-1.2h-0.3l-0.3-1.1h0.4c0.3,0,0.6,0,1.1,0s0.8,0,1,0h6.3c0.2,0,0.5,0,1,0s0.9,0,1.1,0
			h0.5L744.2,170L744.2,170z"/>
		<path id="XMLID_233_" class="st4" d="M780.4,194.1l-0.4,0.2c-0.5,0.2-1.1,0.5-1.9,0.9l-5,2.6c-0.4,0.3-1,0.6-1.8,1.1l-0.4,0.2
			l-0.3-1.1l0.3-0.1c0.6-0.4,0.9-0.8,0.9-1.3c0-0.3-0.1-0.8-0.4-1.4l-1.2-2.4h-11.9l-1.2,2.4c-0.3,0.6-0.4,1.1-0.4,1.4
			c0,0.4,0.3,0.9,0.9,1.3c0.1,0,0.2,0.1,0.3,0.1l-0.3,1.1l-0.4-0.2c-0.4-0.3-1-0.7-1.8-1.1l-5-2.6c-0.4-0.2-1.1-0.5-1.9-0.9
			l-0.4-0.2l0.7-0.8c0.1,0,0.1,0.1,0.3,0.2c0.4,0.1,0.7,0.2,1,0.2c0.5,0,1-0.5,1.5-1.4l12.6-23.6l12.6,23.6c0.5,0.9,1,1.4,1.5,1.4
			c0.2,0,0.5-0.1,1-0.2c0.1-0.1,0.1-0.1,0.3-0.2L780.4,194.1z M767.6,187.3l-3.3-6.6l-3.3,6.6H767.6z"/>
		<path id="XMLID_236_" class="st4" d="M810.7,183c0,3.6-1.3,6.6-3.8,9.2s-5.6,3.8-9.2,3.8c-1.2,0-2.6-0.1-4.2-0.2h-3.7
			c-0.1,0-0.5,0-1,0.1s-0.9,0.1-1.1,0.1h-0.4l0.2-1.1h0.3c0.6-0.1,1.1-0.2,1.3-0.5s0.4-0.8,0.4-1.6v-19.5c0-0.8-0.1-1.4-0.4-1.6
			c-0.2-0.3-0.7-0.4-1.3-0.5h-0.3l-0.2-1.1h0.4c0.3,0,0.6,0,1.1,0s0.8,0,1,0h3c2.1,0,3.8,0,4.9,0c3.6,0,6.6,1.3,9.2,3.8
			C809.5,176.4,810.7,179.5,810.7,183z M804.9,183c0-2.1-0.8-4-2.3-5.5s-3.3-2.3-5.5-2.3h-1.5v15.6h1.5c2.1,0,4-0.8,5.5-2.3
			C804.2,187,804.9,185.2,804.9,183z"/>
		<path id="XMLID_239_" class="st4" d="M841.6,170.2l-11,19.8h7.1c0.9,0,1.4-0.1,1.7-0.4c0.3-0.2,0.4-0.7,0.5-1.3V188l1.1-0.3v0.4
			c0,0.2,0,0.6,0,1.1s0,0.8,0,1v5.4c0,0.1,0,0.5,0,1s0,0.9,0,1.1v0.4l-1.1-0.2v-0.3c-0.1-0.6-0.2-1.1-0.5-1.3s-0.8-0.4-1.7-0.4
			h-17.5l11.2-20h-7.5c-0.8,0-1.4,0.1-1.7,0.3s-0.4,0.7-0.5,1.3v0.3l-1.1,0.3v-0.4c0-0.3,0-0.6,0.1-1.1c0-0.5,0.1-0.8,0.1-1v-5.1
			c0-0.2,0-0.5-0.1-1c0-0.5-0.1-0.9-0.1-1.1V168l1.1,0.2v0.3c0.1,0.6,0.2,1.1,0.5,1.3s0.8,0.4,1.7,0.4H841.6L841.6,170.2z"/>
		<path id="XMLID_241_" class="st4" d="M876.6,196h-0.4c-0.2,0-0.6,0-1.1,0s-0.8,0-1,0h-6l-9.3-9.4v6.2c0,0.8,0.1,1.4,0.4,1.6
			c0.2,0.3,0.7,0.4,1.3,0.5h0.3l0.2,1.1h-0.4c-0.2,0-0.6,0-1.1,0s-0.8,0-1,0h-5.6c-0.1,0-0.5,0-1,0s-0.9,0-1.1,0h-0.4l0.2-1.1h0.3
			c0.6-0.1,1.1-0.2,1.3-0.5s0.4-0.8,0.4-1.6v-19.5c0-0.8-0.1-1.4-0.4-1.6c-0.2-0.3-0.7-0.4-1.3-0.5h-0.3l-0.2-1.1h0.4
			c0.3,0,0.6,0,1.1,0s0.8,0,1,0h5.6c0.2,0,0.5,0,1,0s0.9,0,1.1,0h0.4l-0.2,1.1h-0.3c-0.6,0.1-1.1,0.2-1.3,0.5s-0.4,0.8-0.4,1.6v3
			l6.1-6.2h5.3c0.2,0,0.5,0,1,0s0.9,0,1.1,0h0.4l-0.3,1.1c-0.1,0-0.2,0-0.3,0c-0.6,0.1-1.5,0.8-2.9,2.1l-7.8,7.8l11.7,11.7
			c1.3,1.3,2.3,2.1,2.9,2.1c0.1,0,0.2,0,0.3,0L876.6,196z"/>
		<path id="XMLID_243_" class="st4" d="M893.3,196h-0.4c-0.2,0-0.6,0-1.1,0s-0.8,0-1,0h-5.6c-0.1,0-0.5,0-1,0s-0.9,0-1.1,0h-0.4
			l0.2-1.1h0.3c0.6-0.1,1.1-0.2,1.3-0.5s0.4-0.8,0.4-1.6v-19.5c0-0.8-0.1-1.4-0.4-1.6s-0.7-0.4-1.3-0.5h-0.3l-0.2-1.1h0.4
			c0.3,0,0.6,0,1.1,0s0.8,0,1,0h5.6c0.2,0,0.5,0,1,0s0.9,0,1.1,0h0.4l-0.2,1.1h-0.3c-0.6,0.1-1.1,0.2-1.3,0.5s-0.4,0.8-0.4,1.6v19.5
			c0,0.8,0.1,1.4,0.4,1.6c0.2,0.3,0.7,0.4,1.3,0.5h0.3L893.3,196z"/>
	</g>
</g>
</svg>
