<?xml version="1.0" encoding="utf-8"?>
<!-- Generator: Adobe Illustrator 19.0.0, SVG Export Plug-In . SVG Version: 6.00 Build 0)  -->
<svg version="1.1" xmlns="http://www.w3.org/2000/svg" xmlns:xlink="http://www.w3.org/1999/xlink" x="0px" y="0px"
	 viewBox="0 0 300 300" style="enable-background:new 0 0 300 300;" xml:space="preserve">
<style type="text/css">
	.st0{fill:#FFC720;}
</style>
<g id="Warstwa_2">
	<rect id="XMLID_1_" width="300" height="300"/>
</g>
<g id="Warstwa_1">
	<g id="XMLID_6_">
		<g id="XMLID_7_">
			<g id="XMLID_199_">
				<g id="XMLID_203_">
					<g id="XMLID_204_">
						<g id="XMLID_205_">
							<path id="XMLID_292_" class="st0" d="M62.2,17.2c-1.7-1.3-1.3-0.5-1.6-0.6C63.5,18.6,62.2,17.1,62.2,17.2z"/>
							<polygon id="XMLID_291_" class="st0" points="90.7,36.6 90.1,36.4 94.5,39 							"/>
							<path id="XMLID_290_" class="st0" d="M116.9,55.5c-2.1-2.4-9.5-6.7-14.1-10.3l-0.7-0.7l-2.4-1.1
								C105.4,47.5,113,52.4,116.9,55.5z"/>
							<path id="XMLID_289_" class="st0" d="M129.9,66.8c-0.7-0.8,3.2,2-3.2-2.4c0.3,0.3,0.4,0.3,0.5,0.5
								C127.8,65.3,128.6,65.8,129.9,66.8z"/>
							<path id="XMLID_288_" class="st0" d="M127.3,64.9C124.5,62.9,128.9,66.4,127.3,64.9L127.3,64.9z"/>
							<path id="XMLID_287_" class="st0" d="M140.1,73.9l-3.8-2.4c0.7,0.7,3.9,3,2.6,2.3C142.7,76.3,142,75.7,140.1,73.9z"/>
							<path id="XMLID_286_" class="st0" d="M143.8,76l-1.9-1.3C142.2,75,142.6,75.4,143.8,76z"/>
							<path id="XMLID_285_" class="st0" d="M137.8,72l4.1,2.7c-0.5-0.5-0.4-0.7-1.9-1.3C140.4,73.5,139.5,73.1,137.8,72z"/>
							<path id="XMLID_284_" class="st0" d="M135.6,70.3c-1.9-1.6-4.5-3.6-0.7-1.1C127.8,64.2,128.6,65.4,135.6,70.3z"/>
							<path id="XMLID_283_" class="st0" d="M118.6,55.9l-2.6-2.1l-2.5-1.5C114.8,53,118.7,56.2,118.6,55.9z"/>
							<path id="XMLID_282_" class="st0" d="M162.5,90.5c0.3,0-1-1.2-1.1-1.6l-2.8-1.8C159.8,88.2,162.4,90.2,162.5,90.5z"/>
							<path id="XMLID_281_" class="st0" d="M161.3,89l4.2,2.7C161.9,89,161.2,88.7,161.3,89z"/>
							<polygon id="XMLID_280_" class="st0" points="144.9,75.8 138,71.5 146.2,76.7 							"/>
							<polygon id="XMLID_279_" class="st0" points="177.8,101.6 175.3,100.2 179.6,102.7 							"/>
							<path id="XMLID_278_" class="st0" d="M187.9,108.9c-1.9-1,2,2.1,0.1,0.9c2.8,1.9,5.3,3.4,7.5,4.8
								C193.3,113.1,190.9,111.3,187.9,108.9z"/>
							<path id="XMLID_277_" class="st0" d="M199.4,116.9c-1.2-0.8-2.4-1.5-3.8-2.3C196.9,115.4,198.1,116.2,199.4,116.9z"/>
							<path id="XMLID_276_" class="st0" d="M172.3,96.6c0.3,0.3,0.7,0.9,2.9,2.6l-1.3-1.5C173.4,97.4,172.8,97,172.3,96.6z"/>
							<path id="XMLID_275_" class="st0" d="M173.8,97.7L173.8,97.7c1.8,1.3,2.9,2.2,3.4,2.5C176.8,99.9,175.8,99.2,173.8,97.7z"/>
							<path id="XMLID_274_" class="st0" d="M171.9,96.3c0.1,0.1,0.3,0.2,0.4,0.3C172.1,96.5,172,96.4,171.9,96.3z"/>
							<path id="XMLID_273_" class="st0" d="M155.2,83.7c2.5,1.5,7.6,4.8,3,1.1C156.4,83.8,159,86,155.2,83.7z"/>
							<path id="XMLID_272_" class="st0" d="M170.2,94.5l-4.2-3.2c0,0.2,0.7,0.8-0.5,0.1L170.2,94.5z"/>
							<polygon id="XMLID_271_" class="st0" points="172.4,95.9 170.2,94.5 171.8,95.7 							"/>
							<path id="XMLID_270_" class="st0" d="M192.3,111.3c1.9,1.2,4,2.6,6.3,4.2c-2.4-1.8-4.9-3.7-7.3-5.4
								C190.9,110,189.7,109.4,192.3,111.3z"/>
							<path id="XMLID_269_" class="st0" d="M183.3,104.7c0.1,0.1,0.3,0.2,0.4,0.3C183.5,104.7,183.3,104.6,183.3,104.7z"/>
							<path id="XMLID_268_" class="st0" d="M221,131.7c-0.1-0.1-0.2-0.2-0.3-0.3c0,0-0.1,0-0.1,0L221,131.7z"/>
							<path id="XMLID_267_" class="st0" d="M190.9,109.8c-1.8-1.4-2.9-2.1-4.1-2.7c1.4,1,2.9,2,4.4,3.1
								C191.5,110.2,191.5,110.2,190.9,109.8z"/>
							<path id="XMLID_266_" class="st0" d="M205.7,121.2c-0.9-0.8-1.9-1.6-3-2.5C203.6,119.5,205.3,121.1,205.7,121.2z"/>
							<path id="XMLID_265_" class="st0" d="M184.3,105.5c-0.1-0.1-0.2-0.1-0.3-0.2C184.6,105.8,184.5,105.7,184.3,105.5z"/>
							<path id="XMLID_264_" class="st0" d="M184.3,105.5c1,0.6,1.8,1.1,2.6,1.5c-1.1-0.8-2.2-1.5-3.1-2.1
								C184,105.1,184.2,105.3,184.3,105.5z"/>
							<path id="XMLID_263_" class="st0" d="M229.3,134.3c-0.6,0.1-5.6-3.1-9.5-6.4c-4.3-2.7-2.4,0.3,0.8,3.4c0.2,0,0.3-0.2,4.7,2.7
								c-1.3-1.2-9-7.1-5.3-4.9c5.7,3.9,4.5,3.4,7.1,5.5c-2-2.1,7.5,4.5,6.7,3.1l-5-3.3C228.8,134.3,230.6,135.4,229.3,134.3z"/>
							<path id="XMLID_262_" class="st0" d="M212.6,125.5l-1.8-1.2c1.9,1.5,3.3,2.6,5.7,4.8c3,1.9,3.7,2.2,4,2.3l-8.5-6.2
								L212.6,125.5z"/>
							<path id="XMLID_261_" class="st0" d="M203.1,118.7c1.6,0.6,5.9,3.5,3.6,1.3c-5.1-3.6-3.8-2.3-6.9-4.3
								C208.1,121.5,197.3,114.2,203.1,118.7c-1.7-1.2-3.2-2.2-4.5-3.2c1.4,1.1,2.8,2.2,4.1,3.2c-0.1-0.1-0.1-0.1-0.2-0.2l0,0l0,0
								c-0.3-0.3-0.4-0.4,0-0.1c0,0,0.1,0.1,0.2,0.1C202.7,118.6,202.9,118.6,203.1,118.7c2.3,1.8,0.3,0.4-0.5-0.1c0,0-0.1,0-0.1,0
								c0,0,0,0,0,0l8.4,5.7C209.2,123,207,121.5,203.1,118.7z"/>
							<path id="XMLID_260_" class="st0" d="M163.2,87.2c0.2,0.2,0.2,0.2,0.2,0.3C163.9,87.8,164.1,87.9,163.2,87.2z"/>
							<path id="XMLID_259_" class="st0" d="M166.4,89.9c-0.6-0.4-1.2-0.6-3.1-2c-1.6-1.3,0.1-0.2,0.1-0.3c-1.2-0.8-4.3-2.7-0.7,0.1
								l0.6,0.4c3.2,2.5,7.2,6,6.5,5.6C169,92.6,168.4,91.8,166.4,89.9z"/>
							<path id="XMLID_258_" class="st0" d="M185,104.4l7,4.8l-3.3-2.8l0,0.3C184.9,103.8,185.6,104.6,185,104.4z"/>
							<polygon id="XMLID_257_" class="st0" points="221.6,132.4 220.4,132.1 224.8,134.5 							"/>
							<polygon id="XMLID_256_" class="st0" points="230.5,138.8 230,138.9 232.5,140.4 							"/>
							<path id="XMLID_255_" class="st0" d="M217.2,26.2l1.9-1.5C218.2,25.4,217.6,25.8,217.2,26.2z"/>
							<path id="XMLID_254_" class="st0" d="M202.6,36.7l-0.2,0.4C203,36.5,203.2,36.2,202.6,36.7z"/>
							<path id="XMLID_253_" class="st0" d="M97.2,177.7c-3.6-0.4-7.6-0.9-7.2-0.5l1.1,0.4C93.7,177.5,95.6,177.6,97.2,177.7z"/>
							<path id="XMLID_252_" class="st0" d="M84.7,124.6c-0.3,0.2-0.6,0.3-0.9,0.5c-0.6,0.6-1.2,1.2-1.7,1.8
								C82.9,126.1,83.8,125.4,84.7,124.6z"/>
							<path id="XMLID_251_" class="st0" d="M85.7,121.6l4-2.6C88.8,119.6,87.5,120.4,85.7,121.6z"/>
							<path id="XMLID_250_" class="st0" d="M217.3,85.7l-0.5,2.9C218.2,84.3,217.4,86.1,217.3,85.7z"/>
							<path id="XMLID_249_" class="st0" d="M254.2,177.8c-3.1-0.2-5.6-0.2-7.8-0.3C250.2,177.8,253.2,178.2,254.2,177.8z"/>
							<path id="XMLID_248_" class="st0" d="M214.2,34.1c1.2-1,1.7-1.4,1.6-1.5C214.5,33.6,213.9,34.2,214.2,34.1z"/>
							<path id="XMLID_247_" class="st0" d="M237.4,177.5c0.5,0,1.1,0.1,1.6,0.1c2.3-0.1,4.6-0.1,7.4-0.1
								C243.6,177.3,240.5,177.2,237.4,177.5z"/>
							<path id="XMLID_246_" class="st0" d="M101.4,142.1c-0.1-0.3-0.1-0.6-0.2-0.8C101.1,141.2,101.2,141.6,101.4,142.1z"/>
							<path id="XMLID_245_" class="st0" d="M73.4,42.3c0.3,1,0.9,2.5,1.4,4C74.6,45.6,74.2,44.4,73.4,42.3z"/>
							<path id="XMLID_244_" class="st0" d="M266.2,164.7C264.3,163.4,265.9,164.6,266.2,164.7L266.2,164.7z"/>
							<path id="XMLID_243_" class="st0" d="M258,156.7c0.4,0.3,0.8,0.4,0.9,0.4C258.7,157.1,258.4,156.9,258,156.7z"/>
							<path id="XMLID_242_" class="st0" d="M214.3,180.2c-0.1,0-0.1,0-0.2,0C214.7,180.3,214.6,180.3,214.3,180.2z"/>
							<path id="XMLID_241_" class="st0" d="M263.5,162.5c0.7,0.6,1.5,1.2,2.3,1.8C265.4,164.1,264.7,163.5,263.5,162.5z"/>
							<path id="XMLID_240_" class="st0" d="M263.7,163c-0.6-0.5-1.1-0.9-1.6-1.2C261.8,161.6,262,161.8,263.7,163z"/>
							<path id="XMLID_239_" class="st0" d="M268.8,166.6c-1.1-0.8-2.1-1.5-3-2.2c0.4,0.3,0.5,0.4,0.4,0.4
								C266.7,165.1,267.5,165.7,268.8,166.6z"/>
							<path id="XMLID_238_" class="st0" d="M164.2,242c-0.1,0.1-0.1,0.3-0.2,0.5C163.5,244.7,163.8,243.7,164.2,242z"/>
							<path id="XMLID_237_" class="st0" d="M36.7,182.2c0.1,0,0.2,0,0.3,0C36.9,182.2,36.7,182.1,36.7,182.2L36.7,182.2z"/>
							<path id="XMLID_236_" class="st0" d="M28.4,182.5c3.6-0.5,5.6-0.5,8.3-0.4l-2.8-1.3L28.4,182.5z"/>
							<path id="XMLID_229_" class="st0" d="M234.2,33.4l2.2-5.4c-1.6,6.9-3.4,11.7-1.2,6.7c-0.4-0.5,0.5-3.8,1.8-7.7
								c1.1-3.5,2.4-7.2,3.5-10.8c1.2-3.6,2.3-7,3-9.5c-3,2.3-5.1,4-5.7,4.9l-5,3.2c1.5-1.1,1.8-1.4,3.3-2.4c-2.5,1.6-4.4,2.9-5.8,4
								c-1.4,1.1-2.5,2-3.5,2.9c-1.2,1.3-2.6,2.7-6.6,5.4c-2.8,1.9-4.8,3.1-3.1,1.6l-5.9,4.7c-1.8,1.3-1.5,0.8,0.3-0.5l-9.2,6.8
								l0-0.1c-1.2,1.1-4,3.6-5.4,4.7c-2.5,1.5,1.1-1,0.4-0.7l-5,4c-2.3,1.2,1.8-2.1,5.4-4.7c-5.6,2.4-4.1,3.4-14.9,10.2l4.8-3.6
								c-3.6,1.6-7.2,4.6-13,8.2c1.5-0.7,11.7-7,6.3-2.7c-1.6,1.1-3.7,2.5-6.6,4.9c-0.3-0.4-3.2,1.8-6.9,4.5l-0.1-0.7
								c-3.9,3-3.4,3.1-5.5,5c-4.5,3.2-5.7,3.4-7,3.8c-7.2,5,5.4-2.9-3,3.3c-6.1,4.1-10.1,7.3-16.9,12.7c-4.3,2.8,0.5-0.8-1.1,0.1
								l-3.4,3.1c-0.9,0.6-0.7,0.3-0.6,0.1c-3,2.4,0.1,0.7-4.6,4.3c-0.9,1.5-10.6,6.4-16.1,11.4c-1.6,0.9,0.5-0.8-0.1-0.7
								c-7.9,6.4-6.9,5.4-13.2,10.9l-6,3.8c4.5-2.7-0.6,1.7-5,5.5c1.6-0.9,3-1.7,4-2.2l-7.4,5.7c-1,0.6-0.3-0.2,0.7-1.3
								c-0.5,0.4-0.9,0.8-1.3,1.1c-2.8,1.8-1.7,0.4,0.1-1.2c1-0.6,2-1.1,3-1.6c1.6-1.7,3.1-3.3,2.5-3.3c-0.4,0.4-1.4,1.2-2.4,1.9
								c0.4-0.4,0.7-0.7,0.4-0.6c-0.3,0.1-1,0.8-2.1,1.8l-2.1,0.7l-0.3,0.5l-10.2,6.8c-6.7,5.7-12.2,11-23.3,19.4
								c2.5-2.4,0.1-1.1-0.1-1.7c3.5-1.7,8.6-6.5,14.5-10.6c-3.1,2.1-2.6,1.4-1.9,0.8l-10.1,8c-0.1-0.6-2.4,1.3-5.3,3.1
								c2.6-0.7-7.4,6.1-11.4,9.4c-0.5-0.1,0.4-1.1,5.6-4.8c-6.1,3.5-6.7,6.3-12.6,9.8c1.3-0.9,2-1.4,2.4-1.9
								c-2.8,2.4-10.1,7.4-8.6,5.9l1.3-0.9c-2.1,1.5-4.6,3.3-7.3,5.2c-3.2,2.3-6.6,4.8-9.9,7.2c6,0,11.7-0.1,15.8-0.3
								c0.5,0,0.9,0,1.4-0.1c0.3,0,0.7,0,1-0.1c0.6,0,1.2-0.1,1.7-0.1c1-0.1,1.6-0.2,1.8-0.3c0.1,0.1-1.4,1-2,1.2l18.4-2.9
								c-1.6,0.7,4.6,2.5-4,2.9c2.5,0.1,5.5,0.2,10.7,0c-1.7-0.1-4.2-1.1-1.9-1.1c6.3,0.8,4.4,0.4,12.1,1.1
								c-2.5-0.2,0.3-1.3,4.3-1.3c-0.6,0.2,0.3,1.1-1.1,1.2l9.9-1.1c-2.5,0.2-0.4,1,1.8,1.3c-1-0.2,8.5,0,11.2-0.1l-4.2-0.3
								c11.2,0.2,11-1.6,22.1-1.5c-1.3,0.2-3.3,1.4,2.3,1.6c2.6-0.6,11.4-2.8,21.2-3.2l1.9,0.3l7.5-0.4c-4.7,0.9-17.8,2.7-25,3.4
								c4.2,0.3,1.2,0.4,7.4,0.4c2.2,0.3-3.4,0.5-5.3,0.5l14.6,0.2c-0.6-0.7,11.1-0.7,10.6-1.2l-15.8,0.7c-0.6-0.7,9.1-1.9,19.5-1.8
								c2.6,0.3-2,1.2-1.7,1.4c1.3-0.2,9.8-0.4,10.7-0.3l-4.4,0.4c5.7,0.3,9.4-0.9,16.3-0.2c2.4,0,7.1,0.9,7.5,0.5
								c-3.9-0.8-4.6-3.1-2.1-3.7c0.8,0.1,12.5,0.7,15.2,1.1c3.9,0.6-5.9,1.4-2.6,2c0.1-0.2,2.3-0.4,3.2-0.5c2.5,0.2-1,0.6,4.4,0.5
								c0.9-0.7,11.1,0.1,2.6-0.6c5.3-0.2,5.7,0.1,11.9,0.1c-2-0.4,5.6-1.5,10.9-1.7c-0.3,0.2,0.9,0.4,1.5,0.5
								c10.9,0.1,16.8,0.4,26.9,0.4c0.9,0.2,5.8,0.4,3.8,0.7c1.5-0.1,2.8-0.4,5.9-0.4c6.1,0.6-7,0.1-2.4,0.8
								c0.4-0.4,8.1-0.5,12.6-0.8c-1.4-0.6-10.3-0.1-14.8,0.1c0-0.8,7.8-1.7,18.4-2.1c8.4-0.2,3.7,0.5,5.1,0.4c3.5,0,6.1,0,8.1-0.1
								c0.5,0,1-0.1,1.5-0.1c0.5,0,0.9-0.1,1.2-0.1c0.6-0.1,1.1-0.1,1.5-0.2c0.7-0.1,1.3-0.2,2-0.4c0.6-0.1,1.3-0.2,2.5-0.1
								c-0.5-0.4-1-0.8-1.5-1.3c-0.6-0.8-0.4-0.9,0.3-0.7c0.7,0.2,1.8,0.7,1.8,0.5c1.8,1.2,3.2,2.3,4.4,3.1c-1.9,0-3.5-0.1-5-0.2
								c-1.5-0.1-2.8-0.1-4.2-0.1l5.5,0.3c-1.6,0.2-6.2,0.3-8.7,0.2c1.8,0.2,7,0.3,13.5,0.3c-3.5-2.5-7.4-5.4-11.2-8.2
								c-3.7-2.7-7.2-5.3-10-7.5c-1.9-1.1-5-3.2-3.7-2l3.2,2.2c2.6,2.4-6.3-3.8-2.4-0.7c-4.4-2.8-9.4-5.8-15.2-10.3l-0.8-1.3
								c0,0.2,3.7,3.1,5.4,4.1c-2.6-1.6-8.6-7.2-11.8-8.5l3.9,3.3c-4.4-2.8-10-6-15.2-10c2,2.2,1.3,0.8,4.6,4.1
								c-2.7-3.1,13.4,9.7,8.8,5.2c3.4,3.4,6.4,5.1,11,9.3c0-0.3-1.5-1.6,2.8,1.7c0.2,0.1,0.7,0.4,1.1,0.6c0.1,0.1,0.2,0.1,0.3,0.2
								c-0.1-0.1-0.1-0.1-0.2-0.2c0.2,0.1,0.2,0.1-0.1-0.1c-1-0.8-1.8-1.5-2.1-1.9c2.5,1.2,9.5,6.3,12,7.8c2.6,2-1.2-0.6,0.1,0.6
								l3.8,2.3c0.1,0.6,6.5,5.6,0.2,1.4l4.4,3.2c0.6,0.7,1.1,1.1,1.8,1.6c-0.3,0-0.4,0-0.6,0.1c-0.5,0-0.9,0.1-1.2,0.2
								c-0.3,0.1-0.5,0.2-0.2,0c0,0-0.2,0-0.5,0c-0.2,0-0.4,0-0.6,0c-0.6,0-1.2,0-1.9,0.1c-2.7,0.1-5.4,0.1-5.4,0.1l-0.1-0.1
								c-10.6-0.1-21.8,0.7-33.9-0.1c-3.6,0.1-7.3,0.3-13.2,0.1l-1.2-0.4c-4.6,0.1-13.8-0.4-15.7,0c-4.9-1-22.2-0.2-30.3-0.4
								l-0.3,0.5c-5.5,0-10.9,0.1-17.7,0.3l0.4,0.4c-5.9,0.4-15.3-0.3-24.6-0.3c0.6-0.2,3-0.1,4.7,0c-11.2-1-23.7,0.7-33.8,0
								c-2.5,0.2-4.4,0.1-6.1,0c0.2,0,0.4,0,0.6,0c-0.3,0-0.6,0-1,0c-1.1-0.1-2.3-0.2-3.5-0.2c1.1,0.1,2.1,0.2,3,0.2
								c-2,0-4.9,0.1-7.8,0.2l-1.2-0.5c-0.2,0-0.4,0-0.7,0c-2.9-0.2-2.3,0.2-0.8,0.6c-1.5,0.1-2.8,0.2-3.8,0.3
								c-2.3-0.8-7.6,0.3-10.8-0.6c-2,0.4-14.6,0.3-16.2,1.2c-0.1-0.1-1-0.2,0.6-0.2c-3.2-0.1-6.5-0.2-9.4,0l-1.4-0.6l-7.1,0.8
								c-4.3-0.4-6.1-0.6-1.8-1.1c-10.3,0.7-8.4,0.3-17.1,1l0.4-0.4c-0.8,0-1.7,0-2.6,0.1c-0.2,0-0.5,0-0.7,0l-0.5,0
								c-0.3,0-0.7,0.1-1,0.1c-1.3,0.1-2.7,0.1-3.1,0c-0.6-0.1-1.6-0.2-2.8-0.3c1.6-1,3.2-2.2,5-3.5c2.9-2,6-4.3,9.2-6.6
								c7-5,14.4-10.3,20.6-14.4c-3.5,1.1,7.1-4.5,7.1-5.6c1-0.4,3.1-1.7,0.9,0.2c7.3-5.6,11.4-7.7,16.1-12c1-0.4-1.4,1.5-0.5,1.1
								c0.6-0.5,2.2-1.9,3.1-2.3c0.9-0.4-1,1-2.1,1.9c7.6-5.5,7.8-6.8,7.9-7.8c4.1-2.5,6-3.9,8.4-6.3c1.5-0.8,3.9-2.1-0.8,1.3
								c2.7-1.9,16.5-11.4,16.4-12.1c0.9-0.5,3.7-2.6,4.4-3.2c6-4.3,6.5-4.6,12.4-8.9l-1.7,1.1c1.9-2.3,4.8-3.6,9.4-7.1l-0.1,0.2
								c11.1-7.4,4.5-3.6,15.6-10.8l-0.9,0c0.4-1.6,9.8-6.3,15.8-11.1l-2.4,1.4c3.2-2.7,10.3-5.7,13.8-8c0.8-0.5-1.1,1-2.1,1.8
								c9.3-5.9,0.8-1.3,7.3-6.2c1.4-0.6-1.1,1.8,3.4-1.3c2.4-1.4,12.3-10.2,18.8-14.1c-1.5,0.8-3,1.5,0-0.9
								c4.7-3.5,13.3-8.4,17.1-12.1c0.6-0.4,0.9-0.5,1-0.4c1.7-1.4,4.6-3.6,7.3-5.7c1.3-1,2.6-2.1,3.7-2.9c0.5-0.4,1-0.8,1.4-1.2
								c0.4-0.4,0.8-0.7,0.9-0.8c1.3-0.1,2.9-1.3,5.5-3.3c-0.2,0.9-0.5,1.9-0.7,2.8c-0.3,1-0.6,2.1-0.8,3c-0.1,0.3-0.2,0.5-0.2,0.7
								c-0.1,0.3-0.2,0.6-0.3,0.9c-0.2,0.6-0.4,1.1-0.6,1.5c-0.4,0.8-0.7,1.3-0.9,1.2l-4.2,13l0-0.4c-2.8,8.3-3.5,11.3-4.1,14.4
								c-0.7,1.9-0.4,0.4-0.4,0.3c-4.3,12-4.6,13.3-7.3,23.7l-0.8,0.9c-0.6,2.8-6.5,17.3-9.9,29.4c0-0.1,0-0.4,0.2-1.4
								c-3.9,13.6-11.9,31.6-11.8,37.1l-2.5,9c3.9-11.4,0.2,1.9,2-2.7c-1.4,4.5-4.3,11.5-2.6,5.9l0.4-0.8c-0.2-2.3-5,14.1-5.5,13.6
								c-7.4,22.5-15.1,44.3-22.1,65.4l1.5-2.2l-2.5,7.3c-0.8,1.9-1.4,2.4,0.4-2.8c-1.3,2.6-2.6,8.9-2.5,9.1
								c-3.7,10.2,0.5-4.3-0.5-1.1l-1.4,4.3l0.4-0.9c-0.9,3.6-0.7,4-2.8,10.3c-1.5,3.9-1.1,1.9-1.6,3.5c0,0-0.2,0.5-0.8,2.4
								l-2.1,6.3c0,0,0.2-0.2,0.5-0.5c0.2-0.3,0.5-0.7,0.5-0.7c-0.3,1.3-0.8,2.7-1,3.5c-0.1,0.4-0.2,0.7-0.1,0.7
								c0,0.1,0.2,0,0.5-0.5c-0.4,0.5-0.8,1.4-1.3,2.6c-0.5-2-1.1-4-1.8-6c-1-3.1-2.1-6.3-3-9.4c-2.2-6.6-4.1-12.3-4.5-13.9
								c-2.3-5.6-4.1-11.3-6.4-18.4c0.5,1.8,0.2,3-1.7-3.1c2,1.8-3.1-11.3-3.8-16.5c0.8,4.6-5.8-17.2-4.4-10
								c-1.6-5.1,0.4-0.5-0.6-4.4c-4.4-11.9-8.4-26.7-13.4-41.5c-0.2-0.2,0.3,2.4-1-0.7l-1.7-8.1c-1-2.9-1.9-2.4-3-8
								c0.1,0.8,0.3,2-0.4,0.1c-8.7-29.5-20.2-59.4-28.3-89.6c1,4.1,0.1,1.5-0.9-1.6c0.6,2-0.4,0.1-0.5,0.6l-3.4-12.6
								c-1.4-2.1-4.4-13.3-5.4-14.4l1.4,3.9c-2.4-5,0.8,7.8-0.3,7.4c2.7,5.6,3.8,15.8,8.1,25.1c0.5,2.2-0.9-1.7-0.7-0.5
								c1.2,2.3,2.2,5.2,3.8,10.7l-0.3-0.6c5.1,15.3,6.9,22,12.2,39.2l0-1.4c1.1,3.7,1.3,4.5,1.7,6.3c2.1,4-3.4-10.4-1.3-6.8
								c0.7,5.2,8.5,26.1,8.5,29.7c1.9,5.7,0-1.8,1.8,3.8l0.2,1.6l0.8,1.3c1.2,3.7,1.4,5.7,1.2,6c-0.3-0.9-0.9-2.5-1.2-3.5
								c1.2,4.9,4.6,13.6,5,15.3l-1.6-5.5c5.3,15.4,11.1,34.5,16.6,49.3l-0.2-1.2c4.1,11.3,2.8,9.2,7,21.7l-0.2-0.4
								c1,2.4,2.2,5.8,3.3,9.2c-1.3-3.1,1.5,6.1-0.2,2.1c4.5,12.3,2.3,6,5.8,14l0.3,2c1.2,2.7,1.5,2.9,3.6,9.1c-2-5,0.8,4.2-1.5-1.5
								c0.9,3.4,1.8,6.2,2.6,8.8c0.4,1.3,0.8,2.5,1.2,3.6c0.4,1.2,0.8,2.3,1.2,3.3c1,2.9,1.9,5.3,2.6,7.7c0.8,2.4,1.4,4.8,2.2,8.1
								c0.2,0.3,0.3,0.6,0.4,0.7c0.4-1.7,0.3-1.9,0-1.2c-0.5-2.1-1.8-6-2.7-9c-1-3-1.7-5.2-1.1-3.6c-0.5-2,0.2-0.5,1.1,1.7
								c0.9,2.3,2,5.3,2.8,7.9c0.1-0.2,0.1-0.3,0.1-0.4c0.8-2.4,1.5-3.6,2.9-6.6c0.3-0.7,0.7-1.6,1.1-2.6c0.4-1,0.8-2.1,1.3-3.3
								c0.7-1.8,1.5-3.9,2.4-6.6c-0.4,1.1-0.3,1.1-0.7,2.2c1.6-3.9,2.2-7.9,4.2-12.6c0.3-2.9,2.1-6.3,1.6-7.3l-3,9.8
								c1.6-5.6,2.4-11,5.8-19.9c-0.1,0.8-0.8,3.5-1.3,5.4c1.1-2.6,1.5-5.1,2.7-7.8c0.5,1-3.7,11.8-5.1,17.9c1.3-2.7,3.1-11.3,3-8.1
								c0.4-4.6,3.6-10.4,5.1-17.8l0.3,0.6c0.3-1.2,0.9-3.6,1.6-5.7l-0.7,4c1.4-6,4.1-11,5.7-16.7c-3.8,11.6-1.4,2.4-3.4,7.2
								c4.1-14.6,3.9-7.9,9-24c-0.7,2.2-3,8.1-2,4.6c1.1-3,2.6-7,3.5-8.8c3.4-10.7-1,1.5,0.2-3.1c1.7-3.4,1.5-5.3,2.9-10l0.5,0.1
								c4.3-12,0.1-3.5,4.1-14.3l-0.9,4.8l1.7-5.8l0.1,1.3c1.7-6.3,2.4-8.2,4.5-14.2c-0.8,1.3-0.6-1.1,1.2-6.4
								c1.5-3.6-0.2,2.2,2.2-5.4c-0.3,1.8-0.5,3.8-2.1,7c0,0.4-0.3,1.8-0.2,2.2c1.6-3.8,3.3-9.9,4.2-12.7c-0.4,1.1-0.8,2.3-1.1,2.9
								l3-11.3c0.7-1.7,0.4-0.3,0.1,1.2c0.7-2.3,1-3.9,2-7.2c0.1,1,0.5,0.9-0.8,5.6l3.1-10.7c0.4-0.6,2.2-5.3,1.9-3.8
								c2.1-5.8,4-14.6,6.8-22.2c0.1-0.4,0.3-1.3,0.7-2.9c2.5-7.2,5.1-13.5,7.4-22.3l2.3-4.7c2.1-6.8-3,6.3,0.4-5
								c2.4-8,1.5-2.8,2.7-5.5c1-4.1,2.5-11.2,5.5-18.3C235.6,29.2,234.9,31.1,234.2,33.4z M181.1,52.5c1.3-1.1,3.9-3.3,5.1-3.8
								C184.9,50.3,183.5,50.9,181.1,52.5z M73.7,131.3c0.9-0.9,2.6-1.9,4.5-3.1C76.9,129.2,75.4,130.3,73.7,131.3z M283.5,176.8
								c0,0,0.1,0,0.1,0c0.4,0.4,0.5,0.5,0.4,0.5C284,177.2,283.8,177,283.5,176.8z M280.8,174.6c-0.7-0.4-0.7-0.3-0.4-0.1
								c0.1,0.1,0.3,0.2,0.5,0.3c0.1,0.1,0.3,0.2,0.5,0.3c0.3,0.2,0.6,0.4,0.9,0.7c0-0.1-0.1-0.2-0.3-0.4c-0.1-0.1-0.2-0.2-0.4-0.3
								C281.4,175,281.2,174.8,280.8,174.6z M153.4,264.6l0.6-1.4C153,266.5,153.2,265.5,153.4,264.6z"/>
							<path id="XMLID_228_" class="st0" d="M85.6,122c0.4-0.2,0.6-0.2,0.7-0.2C86.8,121.3,86.8,121.2,85.6,122z"/>
							<path id="XMLID_227_" class="st0" d="M217.4,85.2l-0.1,0.3c0,0.1,0,0.2,0,0.3L217.4,85.2z"/>
							<path id="XMLID_226_" class="st0" d="M182.9,182.1c-1.6-0.1-2.5-0.2-3.1-0.2C179.7,182,180.4,182.1,182.9,182.1z"/>
							<path id="XMLID_225_" class="st0" d="M246.5,150.8l4.2,2.8c-2-1.4-2.6-2-3.6-2.8C247.1,151.1,247.8,151.8,246.5,150.8z"/>
							<path id="XMLID_224_" class="st0" d="M212.8,122.8c-0.6-0.4-1.3-0.9-1.9-1.3l0,0.3C213.5,123.7,215.4,124.8,212.8,122.8z"/>
							<path id="XMLID_223_" class="st0" d="M243.7,146.8c-0.1-0.6-2.7-2.3-5.6-4.3c0.2,0.1,0.3,0.2,0.5,0.4
								C237.4,142.7,240.6,144.8,243.7,146.8z"/>
							<path id="XMLID_222_" class="st0" d="M237.4,142c-0.9-0.6-1.8-1.3-2.7-1.9C234.3,140.1,235.8,141,237.4,142z"/>
							<path id="XMLID_221_" class="st0" d="M272.6,168.9c-1.3-1.1-1.2-0.2-1.8-0.9C268.9,167.4,280.2,174.1,272.6,168.9z"/>
							<polygon id="XMLID_220_" class="st0" points="242.2,144.1 242.9,145.2 244.7,146 							"/>
							<path id="XMLID_219_" class="st0" d="M264.6,160.7l-4.5-3.4c0,0.1-0.6-0.3-1.3-0.7C261.5,158.6,264.6,160.9,264.6,160.7z"/>
							<path id="XMLID_218_" class="st0" d="M258.7,156.5c-1.5-1.1-2.9-2.1-3.7-2.6C255.8,154.5,257.5,155.7,258.7,156.5z"/>
							<polygon id="XMLID_217_" class="st0" points="248.5,148.4 249.8,149.5 253,151.9 							"/>
							<path id="XMLID_216_" class="st0" d="M265.4,179.7l-6.2,0.1c-0.6,0.2,1.1,0.3,3.3,0.2C264.1,179.9,266.4,179.9,265.4,179.7z"
								/>
							<path id="XMLID_215_" class="st0" d="M284.9,181.1c-2.1-0.1-2.3-0.2-3.5-0.4c0,0,0,0.2,0,0.3c0,0.2,0,0.3,0,0.3L284.9,181.1z
								"/>
							<path id="XMLID_214_" class="st0" d="M266.1,181.2c-0.6,0.2-8.9,0.5-1.1,0.5C265.6,181.5,271.8,181.4,266.1,181.2z"/>
							<polygon id="XMLID_213_" class="st0" points="173.4,180.4 174.9,180.4 174.7,179.4 							"/>
							<path id="XMLID_212_" class="st0" d="M91.6,182.9c7.3,0.2,1.7-0.6,8.3-0.3c1.7-0.2-5.4-0.2-3.6-0.5
								C91.9,182.3,89.6,182.2,91.6,182.9z"/>
							<path id="XMLID_211_" class="st0" d="M96.3,182.1c0.7,0,1.5-0.1,2.2-0.2C97.3,182,96.7,182,96.3,182.1z"/>
							<polygon id="XMLID_210_" class="st0" points="68.6,25.8 67.4,21.3 68,24.2 							"/>
							<path id="XMLID_209_" class="st0" d="M65.1,17.5l0.3-1.3L64,13.7C64.3,14.7,65,16.7,65.1,17.5z"/>
							<path id="XMLID_208_" class="st0" d="M169.8,59l-0.2,0.3c0.7-0.3,1.6-0.9,3.4-2.2L169.8,59z"/>
							<polygon id="XMLID_207_" class="st0" points="221.6,22.2 220.7,22.9 222.7,22.1 							"/>
							<path id="XMLID_206_" class="st0" d="M230.3,49.3c0.7-2.1,1.4-4.5,2.1-6.6C231,47.2,229.4,49.6,230.3,49.3z"/>
						</g>
					</g>
				</g>
			</g>
		</g>
		<g id="XMLID_149_">
			<g id="XMLID_104_">
				<g id="XMLID_108_">
					<g id="XMLID_109_">
						<g id="XMLID_110_">
							<path id="XMLID_198_" class="st0" d="M12,183.2c-1.7,1.2-0.9,1.1-1.1,1.3C13.7,182.4,11.8,183.2,12,183.2z"/>
							<polygon id="XMLID_197_" class="st0" points="39.3,162.1 38.9,162.6 42.8,159.3 							"/>
							<path id="XMLID_196_" class="st0" d="M65.4,143.2c-2.9,1.2-9.4,7-14.2,10.1l-0.9,0.4l-1.8,2
								C54.2,151.6,61.3,145.9,65.4,143.2z"/>
							<path id="XMLID_195_" class="st0" d="M80.2,134.3c-1,0.4,2.9-2.4-3.3,2.3c0.3-0.2,0.4-0.3,0.6-0.4
								C78.1,135.8,78.9,135.3,80.2,134.3z"/>
							<path id="XMLID_194_" class="st0" d="M77.5,136.3C74.8,138.3,79.5,135.1,77.5,136.3L77.5,136.3z"/>
							<path id="XMLID_193_" class="st0" d="M90.1,126.9l-3.5,2.8c0.9-0.4,4.1-2.7,3-1.8C93.3,125.2,92.4,125.6,90.1,126.9z"/>
							<path id="XMLID_192_" class="st0" d="M93.3,124l-1.8,1.4C91.8,125.3,92.3,124.9,93.3,124z"/>
							<path id="XMLID_191_" class="st0" d="M87.6,128.5l3.8-3.1c-0.6,0.3-0.8,0.1-1.8,1.4C89.9,126.4,89.2,127.2,87.6,128.5z"/>
							<path id="XMLID_190_" class="st0" d="M85.3,130.1c-2.1,1.4-4.8,3.2-1.3,0.3C77.1,135.5,78.4,135.2,85.3,130.1z"/>
							<path id="XMLID_189_" class="st0" d="M66.3,141.6l-2.8,1.8l-2.2,1.9C62.4,144.4,66.6,141.7,66.3,141.6z"/>
							<path id="XMLID_188_" class="st0" d="M112.9,110.8c0.1-0.3-1.5,0.6-1.8,0.6l-2.6,2.1C109.9,112.6,112.6,110.8,112.9,110.8z"
								/>
							<path id="XMLID_187_" class="st0" d="M111.1,111.4l3.8-3.1C111.3,110.9,110.7,111.4,111.1,111.4z"/>
							<polygon id="XMLID_186_" class="st0" points="93.4,122.9 87.2,128.1 94.7,122 							"/>
							<polygon id="XMLID_185_" class="st0" points="128.2,99.7 126.1,101.7 129.9,98.3 							"/>
							<path id="XMLID_184_" class="st0" d="M138.3,92.3c-1.5,1.5,2.6-1.3,0.9,0.2c2.7-2,4.9-4,6.9-5.7
								C143.9,88.5,141.5,90.3,138.3,92.3z"/>
							<path id="XMLID_183_" class="st0" d="M149.5,84c-1.1,0.9-2.2,1.8-3.4,2.8C147.3,85.9,148.4,85,149.5,84z"/>
							<path id="XMLID_182_" class="st0" d="M121.8,103.4c0.4-0.2,1.1-0.4,3.4-1.9l-1.8,0.8C122.9,102.6,122.3,103,121.8,103.4z"/>
							<path id="XMLID_181_" class="st0" d="M123.3,102.3L123.3,102.3c1.8-1.3,3-2.1,3.5-2.5C126.3,100.1,125.3,100.9,123.3,102.3z"
								/>
							<path id="XMLID_180_" class="st0" d="M121.4,103.7c0.1-0.1,0.3-0.2,0.4-0.3C121.6,103.5,121.5,103.5,121.4,103.7z"/>
							<path id="XMLID_179_" class="st0" d="M104.2,115.6c2.2-1.9,7-5.7,2-2.5C104.6,114.5,107.5,112.7,104.2,115.6z"/>
							<path id="XMLID_178_" class="st0" d="M119.1,104.7l-4.3,3c0.1,0,1-0.4-0.1,0.5L119.1,104.7z"/>
							<polygon id="XMLID_177_" class="st0" points="121.1,103.1 119.1,104.7 120.7,103.6 							"/>
							<path id="XMLID_176_" class="st0" d="M142,88.9c1.7-1.5,3.7-3,6-4.6c-2.5,1.7-5,3.5-7.4,5.2C140.3,89.9,139.4,90.8,142,88.9z
								"/>
							<path id="XMLID_175_" class="st0" d="M132.9,95.4c0.1-0.1,0.3-0.2,0.4-0.3C133,95.2,132.8,95.4,132.9,95.4z"/>
							<path id="XMLID_174_" class="st0" d="M170.3,68.1c-0.1,0.1-0.3,0.1-0.4,0.2c0,0,0,0.1,0,0.1L170.3,68.1z"/>
							<path id="XMLID_173_" class="st0" d="M140.1,89.8c-1.9,1.3-2.9,2.1-3.9,3c1.3-1,2.8-2.1,4.3-3.2
								C140.6,89.4,140.7,89.3,140.1,89.8z"/>
							<path id="XMLID_172_" class="st0" d="M155.6,79.3c-1,0.6-2.1,1.3-3.3,2.1C153.3,80.8,155.3,79.6,155.6,79.3z"/>
							<path id="XMLID_171_" class="st0" d="M133.9,94.7c-0.1,0.1-0.2,0.1-0.3,0.2C134.3,94.6,134.2,94.6,133.9,94.7z"/>
							<path id="XMLID_170_" class="st0" d="M133.9,94.7c0.9-0.7,1.6-1.4,2.3-2c-1.1,0.8-2.1,1.6-3,2.3
								C133.5,94.9,133.8,94.8,133.9,94.7z"/>
							<path id="XMLID_169_" class="st0" d="M175.4,60.9c-0.1,0.6-4.7,4.3-9.1,7c-3.9,3.2-0.5,2.3,3.5,0.3c0-0.2-0.1-0.4,4-3.6
								c-1.6,0.9-9.6,6.4-6.3,3.5c5.4-4.2,4.6-3.2,7.5-5c-2.6,1.3,6.7-5.7,5-5.4l-4.7,3.8C175.2,61.5,176.8,60,175.4,60.9z"/>
							<path id="XMLID_168_" class="st0" d="M161.8,74.1l-1.7,1.3c2-1.4,3.5-2.3,6.3-3.9c2.8-2.2,3.3-2.8,3.4-3l-8.5,6.1L161.8,74.1
								z"/>
							<path id="XMLID_167_" class="st0" d="M152.4,81c1.1-1.3,5.1-4.5,2.3-3c-5.1,3.7-3.3,2.9-6.3,5.2
								C156.6,77.2,146.2,85.1,152.4,81c-1.7,1.2-3.1,2.3-4.4,3.3c1.5-1,3-2,4.3-2.9c-0.1,0-0.1,0.1-0.2,0.1l0,0l0,0
								c-0.4,0.2-0.5,0.3-0.1,0c0,0,0.1-0.1,0.2-0.1C152.1,81.3,152.2,81.1,152.4,81c2.4-1.6,0.4-0.2-0.3,0.4c0,0-0.1,0.1-0.1,0.1
								c0,0,0,0,0,0l8.1-6.1C158.4,76.6,156.2,78.1,152.4,81z"/>
							<path id="XMLID_166_" class="st0" d="M110,109.1c0.3-0.2,0.3-0.1,0.3-0.1C110.8,108.6,111,108.4,110,109.1z"/>
							<path id="XMLID_165_" class="st0" d="M113.5,106.9c-0.6,0.5-1,1-2.9,2.4c-1.8,1.1-0.1-0.2-0.3-0.2c-1.1,0.9-3.9,3.2-0.1,0.7
								l0.5-0.5c3.4-2.3,7.9-4.9,7.4-4.5C116.9,105.2,115.9,105.6,113.5,106.9z"/>
							<path id="XMLID_164_" class="st0" d="M133.1,93.7l6.7-5.1l-3.7,2.2l0.3,0.1C132.5,93.6,133.5,93.2,133.1,93.7z"/>
							<polygon id="XMLID_163_" class="st0" points="171.2,67.7 170.5,68.7 174.1,65.3 							"/>
							<polygon id="XMLID_162_" class="st0" points="180,61.2 179.9,61.8 182.1,59.9 							"/>
							<path id="XMLID_161_" class="st0" d="M68.9,38.7L68,36.4C68.4,37.5,68.7,38.2,68.9,38.7z"/>
							<path id="XMLID_160_" class="st0" d="M74.3,55.8l0.3,0.4C74.2,55.4,74.1,55.1,74.3,55.8z"/>
							<path id="XMLID_159_" class="st0" d="M175.4,200c-1.5,3.3-3.3,7-2.7,6.7l0.8-0.9C174.1,203.3,174.8,201.5,175.4,200z"/>
							<path id="XMLID_158_" class="st0" d="M121,195.3c0.1,0.3,0.1,0.7,0.2,1c0.4,0.8,0.8,1.5,1.1,2.2
								C121.9,197.6,121.5,196.4,121,195.3z"/>
							<path id="XMLID_157_" class="st0" d="M118.5,193.4l-1.2-4.6C117.6,189.8,117.9,191.3,118.5,193.4z"/>
							<path id="XMLID_156_" class="st0" d="M125.5,57.2l2.6,1.4C124.4,55.9,125.9,57.3,125.5,57.2z"/>
							<path id="XMLID_155_" class="st0" d="M224.4,50.9c-1.1,2.9-2,5.2-2.7,7.3C223.2,54.7,224.5,51.9,224.4,50.9z"/>
							<path id="XMLID_154_" class="st0" d="M75.4,44.1c-0.5-1.4-0.8-2-0.9-1.9C75,43.6,75.4,44.4,75.4,44.1z"/>
							<path id="XMLID_153_" class="st0" d="M219,66.7c0.2-0.5,0.4-1,0.6-1.5c0.6-2.2,1.3-4.4,2.2-7C220.7,60.8,219.6,63.8,219,66.7
								z"/>
							<path id="XMLID_152_" class="st0" d="M142.9,184.9c-0.3,0-0.6,0-0.8-0.1C142,184.9,142.3,184.9,142.9,184.9z"/>
							<path id="XMLID_151_" class="st0" d="M39.3,180.3c1,0,2.7,0,4.3,0C42.8,180.3,41.5,180.3,39.3,180.3z"/>
							<path id="XMLID_150_" class="st0" d="M215.8,35.4C213.9,36.8,215.5,35.7,215.8,35.4L215.8,35.4z"/>
							<path id="XMLID_148_" class="st0" d="M205.6,40.7c0.4-0.3,0.6-0.6,0.6-0.7C206.2,40.2,205.9,40.4,205.6,40.7z"/>
							<path id="XMLID_147_" class="st0" d="M214.3,89.6c0,0.1,0,0.1-0.1,0.2C214.5,89.2,214.5,89.3,214.3,89.6z"/>
							<path id="XMLID_146_" class="st0" d="M212.8,37.3c0.7-0.5,1.6-1,2.5-1.6C214.9,35.9,214.2,36.4,212.8,37.3z"/>
							<path id="XMLID_145_" class="st0" d="M213.3,37.2c-0.7,0.5-1.2,0.8-1.7,1.2C211.5,38.6,211.7,38.5,213.3,37.2z"/>
							<path id="XMLID_144_" class="st0" d="M218.4,33.5c-1.1,0.8-2.1,1.5-3.1,2.2c0.4-0.2,0.6-0.3,0.5-0.3
								C216.3,35,217.1,34.4,218.4,33.5z"/>
							<path id="XMLID_143_" class="st0" d="M257.4,156.4c0.1,0.1,0.2,0.2,0.4,0.3C259.7,157.9,258.9,157.4,257.4,156.4z"/>
							<path id="XMLID_142_" class="st0" d="M160.8,258.9c0-0.1,0-0.2,0.1-0.3C160.8,258.7,160.7,258.8,160.8,258.9L160.8,258.9z"/>
							<path id="XMLID_141_" class="st0" d="M158.5,266.9c0.6-3.5,1.3-5.4,2.2-8l-2,2.2L158.5,266.9z"/>
							<path id="XMLID_134_" class="st0" d="M81,24.8l-4.5-3.8c6.1,3.7,10.1,6.9,6,3.2c-0.6,0.2-3.4-1.7-6.8-4.1
								c-2.9-2.2-6.2-4.5-9.2-6.7c-3.1-2.2-6-4.3-8.1-5.8c1.3,3.6,2.2,6.1,2.8,6.9l1.5,5.7c-0.5-1.8-0.7-2.1-1.3-3.9
								c0.7,2.8,1.4,5,2,6.8c0.6,1.7,1.2,3,1.7,4.2c0.8,1.6,1.7,3.3,3.1,7.9c0.9,3.2,1.4,5.6,0.6,3.4l2.6,7.1
								c0.6,2.1,0.3,1.7-0.4-0.4l3.6,10.9l-0.1-0.1c0.7,1.5,2.1,4.9,2.8,6.6c0.7,2.8-0.6-1.4-0.5-0.6l2.2,6c0.4,2.6-1.5-2.3-2.8-6.5
								c0.5,6.1,1.9,4.9,5,17.4l-2-5.7c0.4,3.9,2.1,8.3,3.7,14.9c-0.2-1.6-3-13.3-0.5-6.8c0.5,1.9,1.2,4.3,2.6,7.8
								c-0.4,0.2,0.8,3.6,2.2,7.9L86.7,97c1.7,4.6,1.9,4.2,3,6.8c1.6,5.2,1.5,6.5,1.5,7.8c2.6,8.4-1.1-6,2.2,3.8
								c2,7,3.8,11.8,6.8,20c1.3,4.9-0.6-0.7-0.3,1.1l1.9,4.2c0.3,1.1,0.1,0.8-0.1,0.6c1.3,3.6,0.7,0.1,2.7,5.8
								c1.2,1.3,2.7,12,5.8,18.9c0.4,1.8-0.6-0.7-0.7-0.1c3.6,9.5,3,8.2,6.2,16l1.8,6.9c-1.1-5.1,1.4,1.1,3.7,6.5
								c-0.3-1.8-0.6-3.4-0.9-4.5l3.2,8.8c0.2,1.1-0.3,0.3-1-1.1c0.2,0.6,0.5,1.1,0.7,1.6c0.8,3.3-0.1,1.7-1.2-0.5
								c-0.2-1.1-0.4-2.2-0.6-3.3c-1.1-2.1-2.1-4-2.3-3.4c0.3,0.6,0.7,1.7,1.1,2.9c-0.3-0.5-0.5-0.9-0.5-0.6c0,0.3,0.5,1.2,1.1,2.6
								l0,2.2l0.4,0.4l3.3,11.8c3.3,8.1,6.6,15,11.1,28.2c-1.5-3.1-1-0.4-1.7-0.4c-0.5-3.8-3.5-10.2-5.6-17.1c1.1,3.6,0.5,2.9,0.2,2
								l4.5,12c-0.6-0.1,0.5,2.7,1.3,6c0.2-2.7,3.5,8.9,5.4,13.8c-0.2,0.4-0.9-0.7-2.8-6.8c1.4,6.9,3.9,8.3,5.3,15.1
								c-0.5-1.5-0.7-2.3-1-2.8c1.4,3.4,3.8,11.9,2.9,10l-0.5-1.5c0.8,2.4,1.7,5.4,2.7,8.5c1.2,3.8,2.5,7.8,3.8,11.7
								c1.8-5.7,3.5-11.1,4.7-15.1c0.1-0.5,0.3-0.9,0.4-1.3c0.1-0.3,0.2-0.7,0.3-1c0.2-0.6,0.3-1.2,0.4-1.6c0.2-0.9,0.3-1.6,0.3-1.8
								c0.1-0.1,0.6,1.6,0.5,2.3l3-18.4c0.2,1.8,3.8-3.6,1.5,4.7c0.9-2.3,1.9-5.2,3.3-10.2c-0.6,1.6-2.3,3.6-1.7,1.4
								c2.7-5.7,1.8-4,4.9-11.2c-0.9,2.3-1.1-0.7,0.1-4.4c0,0.6,1.2,0,0.8,1.5l2-9.7c-0.6,2.4,0.8,0.7,1.8-1.3
								c-0.5,0.9,2.7-8.1,3.4-10.7l-1.6,3.9c3.6-10.6,1.9-11,5.4-21.5c-0.2,1.3,0.3,3.6,2.2-1.7c0.3-2.6,0.9-11.7,3.6-21.2l0.9-1.7
								l2-7.3c-0.6,4.7-3,17.8-4.6,24.8c1.6-3.9,0.7-1,2.7-6.9c1-2-0.6,3.4-1.2,5.1l4.7-13.8c-0.8,0.4,2.8-10.8,2.1-10.4l-4.3,15.2
								c-0.8,0.4,1-9.3,4.4-19.1c1.1-2.4,0.5,2.2,0.8,2.1c0.2-1.3,2.6-9.4,3.1-10.3l-1,4.3c2-5.4,2.1-9.2,4.8-15.5
								c0.8-2.3,3-6.5,2.8-7c-1.9,3.5-4.4,3.4-4.2,0.8c0.3-0.8,4.6-11.7,5.8-14.1c1.8-3.5-0.5,6,1.1,3c-0.1-0.2,0.3-2.3,0.5-3.2
								c0.9-2.3,0.2,1.2,1.8-4c-0.4-1.1,3.5-10.5,0.3-2.6c1.5-5.1,1.9-5.3,3.8-11.3c-1,1.8,0.3-5.8,1.8-10.9
								c0.1,0.4,0.7-0.7,0.9-1.2c3.5-10.3,5.6-15.8,8.8-25.5c0.4-0.8,2.2-5.4,1.8-3.4c0.3-1.4,0.5-2.8,1.5-5.8
								c2.5-5.6-2.1,6.7,0,2.5c-0.3-0.5,2-7.9,3.2-12.2c-1,1.1-3.3,9.8-4.5,14.1c-0.8-0.2,0.8-7.9,3.7-18.1c2.4-8.1,1.7-3.3,2-4.7
								c1.1-3.3,1.9-5.8,2.4-7.8c0.1-0.5,0.3-1,0.4-1.4c0.1-0.4,0.2-0.9,0.3-1.1c0.1-0.6,0.2-1,0.3-1.5c0.1-0.7,0.2-1.3,0.3-2
								c0.1-0.6,0.3-1.3,0.7-2.4c-0.5,0.3-1,0.7-1.7,1.1c-0.9,0.4-1,0.1-0.6-0.5c0.4-0.6,1.3-1.5,1-1.6c1.7-1.3,3.2-2.4,4.3-3.2
								c-0.6,1.8-1.2,3.3-1.8,4.7c-0.5,1.4-1,2.6-1.4,3.9l1.9-5.1c-0.3,1.6-1.6,6-2.5,8.3c0.7-1.6,2.4-6.6,4.5-12.7
								c-3.5,2.5-7.5,5.4-11.3,8.1c-3.7,2.7-7.3,5.2-10.2,7.2c-1.7,1.4-4.6,3.8-3,2.9l3.1-2.3c3.1-1.7-5.5,4.8-1.5,2.1
								c-4,3.3-8.5,7.1-14.5,11.2l-1.5,0.3c0.2,0.1,4.1-2.5,5.6-3.9c-2.3,2-9.6,5.9-11.8,8.5l4.4-2.7c-4,3.3-8.9,7.6-14.2,11.3
								c2.7-1.2,1.2-0.9,5.3-3.1c-3.7,1.6,13.4-9.7,7.7-6.7c4.3-2.1,6.8-4.5,12.2-7.6c-0.3-0.1-2,1,2.5-2.1c0.2-0.2,0.6-0.6,0.9-0.8
								c0.1-0.1,0.2-0.1,0.3-0.2c-0.1,0.1-0.2,0.1-0.3,0.2c0.2-0.2,0.2-0.2-0.1,0.1c-1.1,0.7-2,1.2-2.4,1.4c1.9-2,8.9-7,11.1-9
								c2.7-1.8-1,1,0.6,0.1l3.3-2.9c0.6,0.1,7.4-4.4,1.4,0.2l4.4-3.2c0.8-0.4,1.4-0.7,2.1-1.2c-0.1,0.2-0.1,0.4-0.1,0.6
								c-0.2,0.5-0.2,0.8-0.2,1.2c0,0.4,0,0.5-0.1,0.1c0,0,0,0.2-0.1,0.5c0,0.2-0.1,0.3-0.1,0.5c-0.2,0.6-0.4,1.2-0.5,1.8
								c-0.8,2.6-1.5,5.1-1.5,5.1l-0.1,0.1c-3.4,10-6.1,21-10.6,32.2c-1,3.4-2,7-4,12.6l-0.7,1c-1.3,4.4-4.7,12.9-4.9,14.9
								c-2.5,4.4-7.2,21-9.8,28.6l0.4,0.4c-1.8,5.3-3.3,10.4-5.2,17l0.6-0.3c-1.5,5.8-5.1,14.4-7.9,23.3c0-0.7,0.8-2.9,1.4-4.5
								c-4.5,10.3-6.7,22.7-10.6,32.1c-0.6,2.5-1.3,4.2-1.9,5.8c0.1-0.2,0.1-0.4,0.2-0.6c-0.1,0.2-0.2,0.6-0.3,1
								c-0.4,1-0.9,2.1-1.3,3.3c0.4-1,0.8-1.9,1.2-2.7c-0.6,1.9-1.5,4.7-2.3,7.5l-0.8,1c-0.1,0.2-0.1,0.4-0.2,0.6
								c-1.1,2.7-0.5,2.2,0.3,0.9c-0.4,1.4-0.7,2.7-0.9,3.7c-1.5,2-2.1,7.3-3.9,10.1c-0.2,2-4.3,14-3.9,15.7c-0.1,0.1-0.5,0.9,0-0.6
								c-1.1,3-2.2,6.1-2.9,8.9l-1,1.1l-1.4,7c-1.7,4-2.5,5.6-1.6,1.4c-2.5,10-2.3,8-4.4,16.6l-0.2-0.5c-0.2,0.7-0.5,1.6-0.7,2.5
								c-0.1,0.2-0.1,0.5-0.2,0.7l-0.1,0.5c-0.1,0.3-0.2,0.6-0.2,1c-0.3,1.3-0.7,2.6-1,2.9c-0.3,0.5-0.7,1.4-1.1,2.6
								c-0.5-1.8-1.1-3.7-1.7-5.8c-1.1-3.4-2.2-7-3.4-10.9c-2.6-8.2-5.3-16.9-7.2-24c-0.1,3.7-2-8.1-3.1-8.5
								c-0.1-1.1-0.7-3.5,0.4-0.8c-3-8.7-3.8-13.3-6.4-19.1c-0.1-1.1,1,1.7,0.9,0.8c-0.3-0.7-1.1-2.7-1.2-3.7
								c-0.1-0.9,0.6,1.2,1.2,2.6c-2.9-8.9-4-9.6-4.9-10c-1.1-4.6-1.8-6.9-3.4-10c-0.3-1.7-0.8-4.4,1,1.2c-1-3.1-5.7-19.2-6.4-19.3
								c-0.2-1-1.3-4.4-1.7-5.2c-2.2-7-2.3-7.7-4.6-14.5l0.5,1.9c-1.6-2.5-2-5.7-3.8-11.2l0.1,0.1c-3.5-12.9-2-5.4-5.4-18.2
								l-0.2,0.8c-1.4-0.9-3-11.3-5.6-18.5l0.6,2.7c-1.6-3.9-2.2-11.5-3.3-15.6c-0.2-0.9,0.6,1.3,1,2.5c-2.7-10.6-1-1.2-3.6-8.9
								c-0.1-1.5,1.4,1.6-0.2-3.7c-0.6-2.7-5.9-14.9-7.5-22.2c0.3,1.7,0.5,3.3-0.8-0.3C79,57.7,77,47.9,74.6,43.2
								c-0.2-0.7-0.2-1-0.1-1.1c-0.8-2.1-2-5.5-3.1-8.7c-0.6-1.6-1.1-3.1-1.6-4.4c-0.3-0.6-0.5-1.2-0.7-1.7
								c-0.2-0.5-0.4-0.9-0.5-1.1c0.3-1.3-0.3-3.1-1.4-6.2c0.8,0.5,1.7,1.1,2.5,1.6c0.9,0.6,1.8,1.2,2.6,1.7
								c0.2,0.2,0.4,0.3,0.6,0.4c0.3,0.2,0.5,0.4,0.8,0.6c0.5,0.4,0.9,0.7,1.3,1c0.7,0.6,1,1,0.9,1.2l11.1,8.1l-0.4-0.1
								c7,5.3,9.7,6.8,12.4,8.3c1.6,1.3,0.3,0.5,0.1,0.5c10.1,7.8,11.2,8.5,20.2,14.3l0.6,1.1c2.5,1.5,14.4,11.6,24.8,18.6
								c-0.1,0-0.4-0.1-1.2-0.6c11.7,7.9,26.4,21.1,31.6,22.8l7.8,5.2c-9.6-7.3,1.9,0.4-1.9-2.7c3.9,2.7,9.5,7.7,4.8,4.3l-0.7-0.6
								c-2.3-0.5,11.8,9.1,11.2,9.5c19.1,14,37.4,28.2,55.2,41.4l-1.6-2.1l6.2,4.6c1.5,1.3,1.9,2.1-2.6-1.2c2.1,2.1,7.7,5.2,7.9,5.2
								c8.5,6.7-3.9-1.8-1.2,0.2l3.7,2.6l-0.8-0.7c3.1,1.9,3.6,1.9,8.9,5.8c3.3,2.6,1.5,1.6,2.8,2.6c0,0,0.4,0.4,2,1.5l5.3,4
								c0,0-0.1-0.2-0.3-0.6c-0.2-0.3-0.5-0.7-0.5-0.7c1.2,0.7,2.3,1.6,3,2c0.3,0.2,0.6,0.4,0.7,0.3c0.1,0,0.1-0.2-0.3-0.6
								c0.4,0.5,1.1,1.2,2.1,2c-2.1-0.1-4.1-0.2-6.2-0.2c-3.2,0-6.6,0-9.8,0c-7,0-13,0-14.6-0.1c-6.1,0.4-12,0.4-19.4,0.3
								c1.8,0.1,2.9,0.8-3.4,0.7c2.3-1.3-11.7-0.6-16.9-1.6c4.6,0.6-18.2,0.1-10.9,1c-5.3-0.1-0.3-0.5-4.4-0.8
								c-12.7,0.5-28-0.4-43.6-0.2c-0.2,0.2,2.4,0.4-1,0.7l-8.3-0.9c-3.1,0.1-2.9,1-8.5,0.4c0.8,0.1,2,0.4-0.1,0.4
								c-30.7-0.9-62.8,0.6-94-1.1c4.2,0.3,1.4,0.4-1.8,0.4c2.1,0.1,0,0.4,0.4,0.7l-13.1-0.7c-2.4,0.7-14,0-15.4,0.7l4.1-0.1
								c-5.5,0.7,7.7,1.7,6.9,2.6c6.2-0.8,16.2,1.3,26.3,0.1c2.2,0.2-1.9,0.3-0.7,0.5c2.6-0.4,5.7-0.5,11.4-0.3l-0.6,0.1
								c16.1-0.1,23,0.3,41.1,0.6l-1.3-0.5c3.9,0.1,4.7,0.2,6.5,0.3c4.5-0.7-10.9-0.1-6.9-0.8c5.2,1,27.4,0.1,30.9,1.2
								c6,0-1.8-0.6,4.2-0.5l1.6,0.3l1.5-0.4c3.9,0.1,5.9,0.4,6,0.7c-1,0-2.7,0.1-3.7,0.1c5.1,0.4,14.3-0.1,16.1,0l-5.7-0.2
								c16.3-0.3,36.2,0.2,52-0.4l-1.2-0.2c12-0.4,9.6,0.3,22.9,0.1l-0.5,0.1c2.6-0.2,6.2-0.3,9.8-0.3c-3.3,0.3,6.3,0.5,1.9,0.8
								c13.1-0.4,6.5-0.3,15.1-1.2l2,0.4c2.9-0.3,3.2-0.5,9.8-0.6c-5.4,0.3,4.2,0.6-1.9,1c3.5,0.2,6.5,0.3,9.2,0.2
								c1.3,0,2.6,0,3.8-0.1c1.2,0,2.4-0.1,3.5-0.1c3.1-0.1,5.6-0.1,8.2-0.1c2.5,0,5,0.2,8.3,0.5c0.4-0.1,0.6-0.1,0.7-0.2
								c-1.5-0.9-1.7-0.9-1.2-0.4c-2.2-0.2-6.2-0.2-9.4-0.2c-3.2,0-5.5,0-3.7-0.1c-2-0.2-0.4-0.3,1.9-0.5c2.4-0.1,5.7-0.2,8.4-0.2
								c-0.1-0.1-0.2-0.2-0.3-0.3c-2-1.5-2.9-2.6-5.4-4.8c-0.6-0.5-1.3-1.2-2.1-1.9c-0.8-0.7-1.8-1.5-2.8-2.3
								c-1.5-1.2-3.3-2.7-5.5-4.3c0.9,0.7,1,0.6,1.9,1.3c-3.2-2.7-6.8-4.6-10.6-7.9c-2.7-1.2-5.3-4-6.5-3.8l8.3,5.9
								c-4.8-3.3-9.7-5.7-17.1-11.8c0.7,0.3,3.1,1.8,4.7,2.9c-2.1-1.8-4.4-3.1-6.6-5c1.1-0.1,10.1,7.2,15.4,10.4
								c-2.2-2-9.8-6.5-6.8-5.3c-4.3-1.8-8.7-6.6-15.3-10.4l0.7-0.1c-1-0.6-3.1-1.9-4.9-3.2l3.6,1.9c-5.2-3.2-9.2-7.4-14.1-10.6
								c9.9,7.3,1.9,2.1,5.8,5.4c-12.5-8.5-6.3-6.2-20-16c1.9,1.3,6.8,5.3,3.7,3.4c-2.5-2-5.9-4.7-7.3-6c-9.1-6.6,1.1,1.4-2.9-1.2
								c-2.7-2.7-4.6-3.1-8.6-5.8l0.3-0.4c-10.1-7.8-3.3-1.2-12.4-8.3l4.3,2.3l-4.9-3.4l1.3,0.3c-5.5-3.5-7.1-4.8-12.1-8.8
								c1,1.2-1.2,0.2-5.8-3.1c-2.9-2.5,2,0.9-4.5-3.8c1.6,0.8,3.5,1.7,6,4.1c0.4,0.1,1.6,0.8,2,0.9c-3.2-2.7-8.4-6.3-10.7-8
								c0.9,0.7,2,1.5,2.5,2l-9.8-6.4c-1.4-1.2-0.1-0.5,1.1,0.3c-1.9-1.4-3.4-2.1-6.2-4.2c1,0.2,1-0.2,5.1,2.5l-9.2-6.2
								c-0.5-0.6-4.3-3.8-3.1-3c-4.8-3.8-12.6-8.3-19-13.4c-0.4-0.2-1.1-0.6-2.5-1.6c-6.1-4.6-11.3-9-18.9-14l-3.7-3.6
								c-5.8-4.1,5.1,4.8-4.6-2c-6.9-4.8-2.2-2.3-4.4-4.2c-3.6-2.2-9.8-5.9-15.7-10.9C77.5,22.2,79,23.5,81,24.8z M82.6,81.2
								c-0.6-1.6-1.9-4.7-2-6C81.6,76.9,81.8,78.4,82.6,81.2z M124,207.9c-0.5-1.2-1-3-1.5-5.2C123,204.2,123.5,205.9,124,207.9z
								 M232.6,22.7C232.6,22.7,232.7,22.6,232.6,22.7c0.6-0.3,0.7-0.4,0.7-0.4C233.2,22.4,233,22.5,232.6,22.7z M229.7,24.6
								c-0.6,0.5-0.5,0.5-0.2,0.4c0.1-0.1,0.3-0.2,0.5-0.4c0.1-0.1,0.3-0.2,0.5-0.4c0.3-0.2,0.6-0.4,0.9-0.7c-0.1,0-0.2,0-0.5,0.2
								c-0.1,0.1-0.3,0.2-0.4,0.3C230.3,24.1,230,24.3,229.7,24.6z M275.4,173.7l-1.2-1C277.1,174.7,276.3,174.2,275.4,173.7z"/>
							<path id="XMLID_133_" class="st0" d="M118.8,193.7c-0.1-0.5,0-0.6,0-0.8C118.6,192.3,118.5,192.3,118.8,193.7z"/>
							<path id="XMLID_132_" class="st0" d="M125,57l0.2,0.2c0.1,0.1,0.2,0.1,0.3,0.1L125,57z"/>
							<path id="XMLID_131_" class="st0" d="M206.3,120c-0.6,1.5-0.9,2.3-1.2,2.9C205.2,123,205.5,122.3,206.3,120z"/>
							<path id="XMLID_130_" class="st0" d="M196.5,49.7l4-3.1c-2,1.5-2.7,1.9-3.8,2.5C196.8,49.2,197.7,48.8,196.5,49.7z"/>
							<path id="XMLID_129_" class="st0" d="M159.3,73c-0.6,0.5-1.3,0.9-1.8,1.4l0.3,0.1C160.3,72.6,162,71.2,159.3,73z"/>
							<path id="XMLID_128_" class="st0" d="M191.7,51.2c-0.6-0.1-3,1.9-5.8,4c0.2-0.1,0.3-0.2,0.5-0.4
								C185.9,55.9,188.8,53.5,191.7,51.2z"/>
							<path id="XMLID_127_" class="st0" d="M185.2,55.7c-0.9,0.7-1.8,1.3-2.6,1.9C182.4,58,183.7,56.9,185.2,55.7z"/>
							<path id="XMLID_126_" class="st0" d="M221.8,30.7c-1.4,0.9-0.5,1-1.4,1.5C219.2,33.6,229,25,221.8,30.7z"/>
							<polygon id="XMLID_125_" class="st0" points="188.6,51.8 190,51.4 191.3,50 							"/>
							<path id="XMLID_124_" class="st0" d="M211.4,35.7l-4.6,3.2c0.1,0-0.4,0.5-1.1,1C208.5,37.9,211.6,35.7,211.4,35.7z"/>
							<path id="XMLID_123_" class="st0" d="M205.6,39.9c-1.5,1.1-2.9,2.1-3.6,2.7C202.8,42.1,204.5,40.8,205.6,39.9z"/>
							<polygon id="XMLID_122_" class="st0" points="194.8,47.1 196.2,46.2 199.4,43.9 							"/>
							<path id="XMLID_121_" class="st0" d="M229.8,40.8l-1.8,5.9c0,0.6,0.6-0.9,1.2-3.1C229.6,42.1,230.2,39.9,229.8,40.8z"/>
							<path id="XMLID_120_" class="st0" d="M237.2,22.7c-0.8,2-0.9,2.1-1.4,3.2c0,0,0.1,0.1,0.3,0.1c0.1,0.1,0.3,0.1,0.3,0.1
								L237.2,22.7z"/>
							<path id="XMLID_119_" class="st0" d="M231.4,40.6c0,0.6-2.3,8.6,0.1,1.2C231.5,41.2,233.3,35.3,231.4,40.6z"/>
							<polygon id="XMLID_118_" class="st0" points="201.7,128.5 202.2,127 201.2,126.9 							"/>
							<path id="XMLID_117_" class="st0" d="M178.5,206.9c2.5-6.9-0.1-1.8,2.3-8c0.3-1.7-1.9,5-1.6,3.3
								C178.1,206.5,177.3,208.6,178.5,206.9z"/>
							<path id="XMLID_116_" class="st0" d="M179.3,202.2c0.2-0.7,0.4-1.4,0.6-2.2C179.5,201.3,179.3,201.9,179.3,202.2z"/>
							<polygon id="XMLID_115_" class="st0" points="22.1,179.8 17.4,179.5 20.5,179.9 							"/>
							<path id="XMLID_114_" class="st0" d="M13.1,180.5l-1.1-0.7l-2.8,0.6C10.3,180.4,12.3,180.4,13.1,180.5z"/>
							<path id="XMLID_113_" class="st0" d="M85.3,94.1l0.3,0.3c-0.1-0.7-0.4-1.8-1-3.9L85.3,94.1z"/>
							<polygon id="XMLID_112_" class="st0" points="66.5,33.3 66.8,34.3 66.7,32.2 							"/>
							<path id="XMLID_111_" class="st0" d="M94.9,33.5c-1.7-1.3-3.9-2.7-5.6-4C93.1,32.2,94.9,34.5,94.9,33.5z"/>
						</g>
					</g>
				</g>
			</g>
		</g>
	</g>
</g>
</svg>
